<?xml version="1.0" encoding="UTF-8"?>
<svg xmlns="http://www.w3.org/2000/svg" xmlns:xlink="http://www.w3.org/1999/xlink" width="267.8pt" height="425.5pt" viewBox="0 0 267.8 425.5" version="1.1">
<defs>
<clipPath id="clip1">
  <path d="M 0 0 L 267 0 L 267 425.5 L 0 425.5 Z M 0 0 "/>
</clipPath>
</defs>
<g id="surface1">
<g clip-path="url(#clip1)" clip-rule="nonzero">
<path style=" stroke:none;fill-rule:evenodd;fill:rgb(91.40625%,30.589294%,21.166992%);fill-opacity:1;" d="M 20.808594 380.742188 C 8.515625 380.742188 6.28125 370.128906 5.722656 362.304688 L 0.695313 214.800781 C 0.00390625 205.921875 5.6875 196.253906 14.101563 186.863281 C 42.234375 153.820313 73.070313 142.101563 97.355469 124.84375 C 94.167969 122.316406 86.730469 121.007813 87.792969 117.265625 C 90.367188 111.039063 92.179688 104.8125 92.328125 98.585938 C 82.78125 99.460938 78.496094 98.714844 79.476563 96.347656 C 87.679688 60.511719 110.273438 2.972656 129.761719 0.246094 C 142.242188 -0.0546875 170.105469 41.234375 169.636719 66.734375 C 168.824219 82.8125 160.8125 92.214844 160.492188 98.585938 C 160.898438 131.519531 197.121094 146.546875 199.046875 201.949219 C 199.035156 214.367188 186.34375 224.933594 183.960938 236.03125 C 185.460938 244.96875 188.28125 253.910156 188.460938 262.851563 C 188.429688 276.503906 181.242188 297.484375 173.902344 310.34375 C 174.039063 323.464844 180.605469 337.996094 191.222656 344.425781 C 232.753906 340.515625 246.910156 370.128906 265.535156 382.976563 C 267.890625 385.003906 265.300781 389.152344 261.621094 389.683594 L 214.6875 394.152344 C 194.203125 398.996094 188.242188 425.070313 146.523438 425.441406 C 94.933594 423.957031 69.046875 378.878906 60.476563 379.066406 Z M 20.808594 380.742188 "/>
</g>
<path style=" stroke:none;fill-rule:evenodd;fill:rgb(10.594177%,9.812927%,9.423828%);fill-opacity:1;" d="M 123.511719 247.296875 C 120.628906 241.90625 119.246094 236.519531 118.894531 231.132813 C 110.96875 217.558594 109.320313 206.960938 109.429688 197.191406 C 109.796875 183.691406 112.054688 183.183594 112.894531 176.183594 C 112.664063 166.503906 113.546875 150.316406 112.210938 147.132813 C 103.421875 162.222656 82.359375 170.617188 78.308594 170.722656 C 71.589844 170.785156 63.847656 173.597656 57.691406 178.480469 C 55.328125 185.714844 43.179688 191.566406 41.023438 196.039063 C 44.378906 201.691406 49.359375 193.882813 52.863281 190.726563 C 53.492188 195.808594 50.542969 196.507813 48.214844 199.53125 C 45.886719 202.550781 43.496094 205.335938 40.398438 204.117188 C 35.164063 207.273438 33.472656 199.503906 30.46875 196.730469 C 27.3125 197.191406 18.15625 209.429688 12.691406 216.816406 C 13.457031 203.945313 30.246094 190.898438 39.242188 180.800781 C 68.640625 157.789063 80.722656 153.480469 101.117188 139.472656 C 102.964844 136.238281 105.429688 134.238281 108.507813 133.46875 C 118.238281 120.71875 124.273438 119.515625 124.308594 116.464844 C 124.152344 111.757813 124.460938 103.964844 121.78125 103.9375 C 120.441406 103.914063 118.539063 108.230469 115.585938 108.738281 C 114.039063 109.046875 101.007813 110.378906 101.921875 108.996094 C 103.644531 106.089844 114.230469 97.738281 114.316406 96.09375 C 112.210938 95.839844 111.109375 92.214844 111.027344 85.214844 C 107.230469 85.464844 99.710938 88.109375 99.636719 85.972656 C 103.476563 77.453125 109.214844 67.921875 111.152344 60.414063 C 107.578125 60.839844 109.820313 56.835938 115.609375 49.539063 C 113.933594 41.175781 114.769531 34.484375 121.128906 31.476563 C 116.988281 36.871094 119.078125 44.339844 123.386719 44.464844 C 126.929688 44.453125 127.339844 41.953125 131.140625 41.371094 C 133.847656 39.730469 135.195313 36.554688 135.179688 32.226563 C 135.105469 28.964844 133.722656 26.378906 131.289063 23.449219 C 137.269531 26.746094 142.070313 32.910156 144.171875 41.183594 C 149.929688 47.507813 151.742188 54.847656 151.765625 61.679688 C 151.777344 70.058594 146.226563 76.164063 143.460938 83.40625 C 141.839844 87.636719 141.234375 92.496094 138.605469 96.09375 C 138.132813 102.066406 138.214844 108.039063 138.601563 114.015625 C 154.140625 136.308594 166.726563 160.40625 172.566406 189.488281 C 173.613281 193.5625 177.089844 200.910156 174.394531 200.035156 C 174.046875 211.773438 179.019531 210.902344 173.347656 212.839844 C 170.378906 221.546875 163.863281 229.753906 159.128906 238.214844 C 157.558594 240.105469 160.335938 242.480469 163.726563 244.929688 C 162.355469 245.304688 160.984375 245.171875 159.609375 244.722656 C 164.570313 249.972656 166.320313 256.011719 166.40625 261.398438 C 166.328125 273.015625 162.867188 286.816406 153.179688 296.253906 C 152.3125 302.703125 153.039063 309.15625 154.492188 315.613281 C 159.523438 327.140625 163.367188 341.316406 166.371094 354.53125 C 169.183594 358.996094 173.242188 363.464844 177.328125 367.925781 C 171.996094 367.054688 166.660156 366.878906 161.328125 367.402344 C 158.140625 373.089844 146.253906 378.070313 141.847656 388.621094 C 147.007813 392.914063 154.371094 397.378906 160.804688 397.320313 C 183.359375 397.261719 180.34375 369.546875 213.339844 370.011719 L 210.726563 362.359375 C 219.652344 367.316406 228.585938 372.707031 237.511719 379.054688 C 226.261719 378.476563 216.175781 380.214844 207.246094 384.273438 C 206.609375 381.257813 207.828125 378.242188 210.898438 375.230469 C 188.347656 371.867188 182.316406 403.289063 163.066406 403.234375 C 154.601563 403.175781 145.90625 400.21875 138.019531 395.925781 L 135.238281 399.585938 L 135.757813 393.839844 L 133.503906 391.925781 C 131.238281 393.144531 129.671875 396.453125 127.757813 398.714844 C 126.890625 395.984375 127.878906 393.027344 130.714844 389.839844 C 127.410156 388.390625 124.742188 390.128906 122.367188 393.320313 C 121.265625 389.960938 122.714844 386.59375 126.714844 383.230469 C 124.339844 381.664063 122.191406 379.636719 120.28125 377.144531 C 116.046875 379.765625 111.816406 384.203125 107.585938 389.144531 C 107.640625 386.417969 108.859375 383.695313 111.234375 380.96875 C 107.0625 381.660156 101.496094 389.839844 96.628906 395.058594 C 96.796875 392.738281 97.902344 390.417969 99.929688 388.101563 L 97.144531 385.492188 C 94.886719 386.679688 92.628906 388.652344 90.363281 391.230469 C 90.539063 387.695313 93.726563 384.390625 96.796875 381.316406 C 94.160156 379.839844 89.292969 381.867188 83.40625 385.492188 C 85.320313 378.648438 105.84375 373.378906 114.714844 363.921875 C 106.242188 347.910156 104.734375 324.09375 119.0625 315.046875 C 118.785156 299.160156 117.351563 282.929688 121.496094 266.867188 C 121.964844 259.734375 122.578125 253.035156 123.515625 247.296875 Z M 119.652344 360.097656 C 114.816406 347.882813 114.539063 335.941406 120.925781 324.40625 C 122.453125 331.378906 124.28125 338.34375 124.496094 345.3125 C 124.601563 350.242188 122.984375 359.253906 119.652344 360.097656 Z M 140.710938 308.574219 C 138.671875 310.664063 136.222656 312.550781 133.367188 314.234375 C 133.621094 324.738281 133.265625 335.242188 134.132813 345.746094 C 134.753906 352.269531 134.839844 361.503906 146.367188 364.714844 C 151.367188 360.023438 155.753906 359.921875 156.769531 357.523438 C 155.132813 353.679688 154.222656 348.382813 153.808594 342.09375 C 150.359375 330.917969 146.453125 319.59375 140.710938 308.574219 Z M 131.769531 378.140625 C 134.070313 375.664063 136.308594 373.316406 139.152344 371.050781 C 135.226563 370.539063 127.675781 370.867188 127.554688 372.347656 C 127.664063 374.808594 129.890625 376.683594 131.769531 378.140625 Z M 134.347656 302.546875 C 135.164063 290.789063 136.546875 281.195313 139.160156 276.367188 C 140.699219 276.398438 138.578125 291.839844 140.890625 298.121094 C 138.714844 299.308594 136.527344 300.847656 134.347656 302.546875 Z M 155.335938 257.789063 C 160.464844 260.386719 160.882813 278.257813 155.714844 280.503906 Z M 158.121094 195.027344 C 157.964844 202.535156 156.164063 210.046875 156.773438 217.550781 C 158.925781 215.785156 159.246094 211.132813 163.222656 205.613281 C 159.984375 200.929688 160.882813 194.992188 158.121094 195.027344 Z M 158.121094 195.027344 "/>
<path style=" stroke:none;fill-rule:evenodd;fill:rgb(10.594177%,9.812927%,9.423828%);fill-opacity:1;" d="M 23.925781 292.453125 C 23.925781 293.863281 25.496094 301.074219 26.121094 301.703125 C 32.082031 307.660156 17.65625 304.683594 16.714844 306.5625 C 15.773438 308.601563 27.53125 312.210938 27.53125 313.617188 C 27.53125 315.65625 27.0625 325.0625 28.316406 325.691406 C 30.511719 326.789063 31.609375 320.988281 31.609375 318.796875 C 31.609375 314.871094 32.082031 313.773438 35.84375 313.773438 L 44.308594 313.773438 C 46.816406 313.773438 42.425781 309.699219 41.800781 309.386719 C 37.722656 306.71875 34.902344 306.40625 39.132813 300.761719 C 39.761719 299.820313 45.09375 291.671875 42.113281 291.671875 C 41.332031 291.671875 31.921875 301.390625 30.828125 300.296875 C 29.257813 298.722656 26.433594 292.453125 23.925781 292.453125 Z M 23.925781 292.453125 "/>
<path style=" stroke:none;fill-rule:evenodd;fill:rgb(10.594177%,9.812927%,9.423828%);fill-opacity:1;" d="M 51.363281 295.433594 L 51.363281 311.894531 C 51.363281 317.539063 51.835938 317.066406 46.347656 317.066406 C 42.585938 317.066406 42.742188 318.007813 42.742188 321.460938 C 42.742188 324.277344 41.800781 326.945313 44.621094 326.003906 C 49.480469 324.4375 57.792969 325.378906 63.121094 325.378906 C 64.53125 325.378906 65.003906 317.851563 62.808594 317.851563 C 59.046875 317.851563 58.105469 318.636719 58.105469 314.714844 L 58.105469 294.175781 C 58.105469 291.046875 53.402344 295.117188 51.363281 295.433594 Z M 51.363281 295.433594 "/>
<path style=" stroke:none;fill-rule:evenodd;fill:rgb(10.594177%,9.812927%,9.423828%);fill-opacity:1;" d="M 73.941406 294.804688 C 69.550781 294.804688 66.726563 302.800781 66.726563 306.71875 C 66.726563 307.972656 70.019531 307.503906 71.273438 307.503906 C 73.78125 307.503906 73.3125 306.09375 73.78125 304.054688 C 74.878906 299.664063 75.820313 303.589844 75.820313 305.464844 C 75.820313 308.601563 76.453125 312.363281 76.453125 315.96875 C 76.453125 319.734375 73.628906 319.734375 73.628906 315.65625 C 73.628906 314.714844 74.097656 312.363281 73.003906 312.363281 C 70.964844 312.363281 66.101563 311.421875 66.101563 313.773438 C 66.101563 318.320313 68.140625 325.0625 73.628906 325.0625 C 80.839844 325.0625 83.816406 316.597656 83.816406 309.855469 C 83.816406 302.644531 82.71875 294.804688 73.941406 294.804688 Z M 73.941406 294.804688 "/>
<path style=" stroke:none;fill-rule:evenodd;fill:rgb(10.594177%,9.812927%,9.423828%);fill-opacity:1;" d="M 84.757813 294.492188 C 86.796875 294.492188 89.929688 293.863281 92.4375 293.863281 C 94.007813 293.863281 92.4375 302.644531 94.007813 303.742188 C 98.554688 306.71875 98.398438 300.296875 98.398438 297.628906 C 98.398438 293.863281 100.277344 293.863281 103.882813 293.863281 C 107.804688 293.863281 106.234375 296.058594 105.296875 298.566406 C 103.257813 303.898438 102.316406 311.738281 102.316406 317.539063 C 102.316406 321.300781 102.785156 325.0625 98.398438 325.0625 C 94.953125 325.0625 91.34375 325.378906 88.363281 323.964844 C 86.957031 323.339844 86.957031 309.699219 86.957031 308.128906 C 86.957031 303.113281 84.914063 298.722656 84.757813 294.492188 Z M 93.695313 309.070313 C 94.476563 309.070313 95.730469 309.070313 96.515625 309.070313 C 96.671875 309.070313 97.144531 309.070313 97.300781 309.070313 C 97.460938 309.070313 97.460938 309.546875 97.460938 309.699219 C 97.460938 310.011719 96.359375 310.953125 96.359375 311.265625 C 96.359375 311.578125 96.046875 312.519531 95.886719 312.839844 C 95.886719 313.148438 95.730469 315.027344 95.578125 315.1875 C 95.261719 315.503906 95.261719 317.222656 94.632813 317.222656 C 94.476563 317.222656 94.007813 317.222656 93.851563 317.222656 C 93.378906 317.222656 93.535156 316.128906 93.535156 315.65625 C 93.535156 314.714844 93.222656 313.773438 93.222656 312.675781 C 93.222656 311.578125 93.222656 310.324219 93.695313 309.070313 Z M 93.695313 309.070313 "/>
<path style=" stroke:none;fill-rule:evenodd;fill:rgb(10.594177%,9.812927%,9.423828%);fill-opacity:1;" d="M 102.472656 332.273438 L 102.316406 350.929688 C 102.316406 354.066406 103.566406 362.648438 99.964844 362.847656 C 88.675781 363.472656 81.621094 362.847656 81.621094 350.464844 C 81.621094 347.011719 86.011719 348.894531 85.226563 344.660156 C 84.757813 342.308594 83.816406 340.589844 82.878906 338.707031 C 82.878906 338.546875 80.523438 333.527344 80.523438 333.527344 C 79.425781 332.429688 88.363281 331.648438 88.363281 333.6875 C 88.363281 336.507813 94.476563 350.304688 94.476563 341.523438 C 94.476563 340.425781 94.476563 332.429688 94.953125 332.273438 C 95.886719 331.804688 100.753906 332.273438 102.472656 332.273438 Z M 96.207031 350.148438 C 96.207031 351.558594 96.207031 353.285156 96.207031 354.695313 C 96.207031 355.164063 96.359375 356.105469 95.886719 356.105469 C 95.578125 356.105469 94.792969 356.105469 94.476563 356.105469 C 93.851563 356.105469 93.066406 356.261719 92.597656 355.792969 C 92.28125 355.476563 92.28125 355.792969 92.128906 355.636719 C 91.8125 355.320313 91.65625 354.378906 91.65625 353.753906 C 91.65625 353.285156 91.65625 352.1875 91.8125 351.871094 C 92.28125 350.929688 92.753906 350.617188 93.535156 350.148438 C 94.007813 349.839844 95.578125 349.992188 96.207031 350.148438 Z M 96.207031 350.148438 "/>
<path style=" stroke:none;fill-rule:evenodd;fill:rgb(10.594177%,9.812927%,9.423828%);fill-opacity:1;" d="M 70.964844 333.6875 C 68.765625 339.015625 70.019531 349.050781 70.019531 355.164063 C 70.019531 356.890625 70.019531 359.554688 70.492188 360.964844 C 70.964844 362.21875 73.46875 361.753906 74.722656 361.753906 C 76.453125 361.753906 77.078125 362.21875 77.078125 360.339844 C 77.078125 353.285156 77.390625 346.226563 77.390625 339.171875 C 77.390625 335.253906 78.484375 332.746094 75.195313 331.175781 C 72.371094 329.765625 71.746094 333.527344 70.964844 333.6875 Z M 70.964844 333.6875 "/>
<path style=" stroke:none;fill-rule:evenodd;fill:rgb(10.594177%,9.812927%,9.423828%);fill-opacity:1;" d="M 53.714844 330.863281 C 70.175781 330.863281 70.964844 360.023438 55.28125 363.160156 C 51.675781 363.789063 47.757813 361.277344 45.878906 359.398438 C 43.367188 356.890625 40.390625 344.660156 43.367188 341.679688 C 44.152344 340.898438 46.816406 336.195313 47.445313 334.941406 C 48.226563 333.214844 53.089844 331.019531 53.714844 330.863281 Z M 50.265625 347.796875 C 50.265625 350.304688 49.796875 354.066406 53.089844 354.066406 C 55.28125 354.066406 58.578125 350.148438 58.578125 347.796875 C 58.578125 344.972656 58.890625 342.308594 57.164063 340.113281 C 56.222656 339.960938 55.441406 339.488281 54.503906 339.488281 L 53.402344 339.488281 L 53.402344 339.800781 C 53.402344 339.800781 53.246094 340.113281 53.089844 340.425781 C 52.617188 341.523438 51.210938 342.9375 50.582031 344.035156 C 50.109375 344.816406 50.265625 346.542969 50.265625 347.796875 Z M 50.265625 347.796875 "/>
<path style=" stroke:none;fill-rule:evenodd;fill:rgb(10.594177%,9.812927%,9.423828%);fill-opacity:1;" d="M 26.433594 333.058594 C 30.980469 333.6875 35.527344 331.804688 35.527344 337.917969 L 35.527344 352.8125 C 35.527344 357.671875 41.644531 353.128906 41.644531 356.890625 C 41.644531 358.460938 43.996094 361.4375 43.367188 362.691406 C 41.960938 365.667969 26.753906 364.414063 23.300781 365.203125 C 13.421875 367.550781 11.070313 355.164063 20.320313 355.164063 L 25.808594 355.164063 C 25.964844 355.164063 25.964844 350.304688 25.964844 349.839844 L 25.964844 340.269531 C 25.964844 338.859375 25.496094 332.746094 26.433594 333.058594 Z M 26.433594 333.058594 "/>
<path style=" stroke:none;fill-rule:evenodd;fill:rgb(100%,100%,100%);fill-opacity:1;" d="M 18.441406 272.226563 C 24.398438 272.226563 30.980469 272.386719 30.980469 264.390625 C 30.980469 262.976563 33.964844 259.53125 33.964844 261.097656 C 33.964844 263.761719 36.003906 270.660156 37.410156 272.070313 C 38.976563 273.640625 44.777344 272.699219 44.777344 275.992188 C 44.777344 277.402344 37.878906 280.695313 37.878906 280.851563 C 37.878906 281.320313 39.453125 286.652344 39.917969 287.121094 C 41.644531 288.847656 38.039063 291.671875 38.039063 289.945313 C 38.039063 289.472656 31.921875 283.203125 31.296875 282.574219 C 30.667969 281.949219 26.433594 287.90625 25.964844 288.847656 C 22.832031 295.117188 24.714844 280.066406 24.714844 278.8125 C 24.714844 274.894531 24.554688 276.304688 21.730469 274.894531 C 21.261719 274.738281 19.378906 274.265625 19.066406 273.953125 C 19.066406 273.953125 17.34375 272.070313 18.441406 272.226563 Z M 18.441406 272.226563 "/>
<path style=" stroke:none;fill-rule:evenodd;fill:rgb(100%,100%,100%);fill-opacity:1;" d="M 57.632813 258.273438 C 59.984375 258.273438 64.847656 255.609375 64.847656 257.964844 L 64.378906 265.015625 C 64.21875 268.78125 62.964844 289.472656 58.578125 289.472656 C 51.992188 289.472656 47.757813 288.21875 47.757813 280.539063 C 47.757813 278.65625 46.816406 275.675781 48.855469 275.675781 C 53.714844 275.675781 52.617188 277.089844 52.617188 281.476563 C 52.617188 282.421875 56.066406 285.242188 57.164063 283.671875 C 59.671875 279.910156 57.953125 264.234375 57.632813 258.273438 Z M 57.632813 258.273438 "/>
<path style=" stroke:none;fill-rule:evenodd;fill:rgb(100%,100%,100%);fill-opacity:1;" d="M 74.722656 257.492188 C 68.296875 257.492188 69.082031 276.773438 67.667969 281.320313 C 67.042969 283.515625 64.691406 288.21875 68.296875 288.21875 C 70.175781 288.21875 71.117188 283.046875 71.117188 281.320313 C 71.117188 278.96875 75.664063 278.027344 75.664063 279.285156 C 75.664063 280.222656 77.859375 284.300781 78.332031 285.242188 C 79.425781 287.4375 82.878906 286.023438 82.878906 283.203125 C 82.878906 278.96875 83.347656 269.09375 81.621094 265.644531 C 80.523438 263.449219 80.839844 262.507813 78.960938 260.628906 C 78.484375 260.15625 77.859375 259.214844 77.230469 258.589844 C 76.917969 258.273438 74.878906 257.648438 74.722656 257.492188 Z M 75.976563 265.800781 L 76.453125 266.425781 L 76.605469 266.425781 L 76.605469 267.054688 L 76.761719 267.367188 L 76.761719 267.683594 L 76.917969 267.996094 C 77.078125 268.308594 76.917969 268.308594 77.078125 268.464844 C 77.078125 268.464844 77.230469 268.9375 77.230469 269.09375 C 77.230469 269.40625 77.390625 269.5625 77.390625 269.71875 L 77.390625 270.347656 C 77.390625 270.503906 77.390625 270.816406 77.230469 270.816406 L 76.761719 270.816406 C 76.605469 270.816406 76.292969 270.816406 76.132813 270.816406 L 74.410156 270.816406 L 74.097656 270.660156 L 73.78125 270.503906 L 73.628906 270.347656 L 73.628906 268.78125 L 73.78125 268.621094 L 73.941406 268.464844 L 74.097656 268.464844 L 74.097656 267.996094 L 74.410156 267.683594 C 74.410156 267.683594 74.722656 267.214844 74.722656 267.054688 L 74.722656 266.589844 C 74.878906 266.425781 74.878906 266.425781 74.878906 266.269531 L 75.035156 265.960938 L 75.195313 265.960938 L 75.195313 265.800781 L 75.351563 265.800781 C 75.507813 265.644531 75.195313 265.488281 75.976563 265.800781 Z M 75.976563 265.800781 "/>
<path style=" stroke:none;fill-rule:evenodd;fill:rgb(100%,100%,100%);fill-opacity:1;" d="M 85.226563 259.214844 C 84.757813 262.039063 84.128906 283.359375 85.382813 284.613281 C 91.8125 291.046875 89.773438 277.714844 89.773438 274.109375 C 89.773438 273.171875 89.148438 267.683594 90.714844 269.253906 C 91.027344 269.5625 92.910156 276.933594 92.910156 277.089844 C 92.910156 280.066406 97.613281 288.535156 97.613281 280.539063 C 97.613281 278.1875 101.847656 266.742188 101.847656 273.953125 C 101.847656 276.148438 101.21875 284.144531 102.316406 285.242188 C 104.355469 287.277344 107.804688 283.988281 107.804688 281.636719 C 107.804688 274.738281 107.019531 266.898438 107.019531 259.53125 C 107.019531 255.921875 103.863281 258.078125 101.847656 259.058594 C 98.0625 260.898438 96.933594 271.78125 93.378906 264.546875 C 92.546875 262.847656 92.128906 258.433594 90.402344 257.648438 C 89.773438 257.339844 85.542969 258.117188 85.226563 259.214844 Z M 85.226563 259.214844 "/>
<path style=" stroke:none;fill-rule:evenodd;fill:rgb(100%,100%,100%);fill-opacity:1;" d="M 100.59375 216.730469 C 103.257813 218.921875 100.59375 236.796875 100.59375 240.402344 C 100.59375 248.242188 107.492188 242.753906 107.492188 249.023438 C 107.492188 253.257813 104.355469 254.824219 100.433594 254.824219 C 96.515625 254.824219 97.144531 252.789063 97.144531 248.714844 C 97.144531 243.695313 95.261719 216.730469 100.59375 216.730469 Z M 100.59375 216.730469 "/>
<path style=" stroke:none;fill-rule:evenodd;fill:rgb(100%,100%,100%);fill-opacity:1;" d="M 76.132813 218.453125 C 78.644531 217.824219 92.128906 217.199219 92.128906 221.273438 C 92.128906 222.371094 94.164063 224.722656 94.164063 227.074219 C 94.164063 232.40625 91.027344 234.132813 87.894531 237.265625 C 84.757813 240.402344 95.886719 253.101563 88.363281 253.101563 C 85.703125 253.101563 84.128906 253.101563 84.128906 249.808594 C 84.128906 248.554688 80.996094 235.070313 80.996094 242.128906 L 80.996094 247.769531 C 80.996094 248.714844 81.152344 251.378906 80.839844 252.160156 C 80.523438 252.945313 77.390625 253.257813 77.390625 252.789063 C 77.390625 241.34375 76.132813 229.742188 76.132813 218.453125 Z M 81.777344 225.664063 C 81.621094 226.921875 81.308594 228.171875 81.308594 229.429688 C 81.308594 229.898438 81.308594 230.523438 81.308594 230.839844 C 81.308594 231.621094 81.464844 232.09375 81.777344 232.40625 C 81.777344 232.40625 83.347656 232.5625 83.660156 232.5625 C 83.972656 232.5625 85.703125 231.621094 85.855469 231.464844 C 86.328125 230.996094 88.050781 230.367188 88.363281 229.742188 C 88.519531 229.429688 88.363281 227.390625 88.363281 226.921875 C 88.363281 226.921875 87.421875 226.296875 87.265625 226.136719 C 87.265625 226.136719 86.011719 225.820313 85.855469 225.820313 C 85.542969 225.820313 84.914063 225.351563 84.285156 225.351563 C 83.660156 225.351563 82.878906 225.351563 81.777344 225.664063 Z M 81.777344 225.664063 "/>
<path style=" stroke:none;fill-rule:evenodd;fill:rgb(100%,100%,100%);fill-opacity:1;" d="M 58.890625 218.921875 C 58.890625 221.902344 58.105469 226.921875 57.792969 230.054688 C 57.320313 236.011719 55.753906 243.066406 55.753906 249.023438 C 55.753906 249.808594 55.28125 252.472656 55.753906 252.945313 C 56.222656 253.414063 58.730469 253.257813 59.515625 253.257813 C 60.144531 253.257813 61.242188 244.320313 61.242188 243.382813 C 61.242188 241.34375 63.121094 238.992188 65.160156 238.992188 C 68.140625 238.992188 67.203125 252.632813 70.175781 252.632813 C 77.230469 252.632813 70.804688 236.171875 70.804688 231.152344 C 70.804688 229.113281 68.765625 220.492188 67.511719 219.238281 C 65.160156 216.886719 61.398438 218.921875 58.890625 218.921875 Z M 63.753906 228.644531 C 63.753906 229.429688 63.277344 230.214844 63.277344 230.996094 C 63.277344 231.152344 62.808594 231.9375 62.808594 232.09375 L 62.808594 233.660156 C 62.808594 233.660156 64.0625 233.660156 64.21875 233.660156 C 64.691406 233.660156 66.882813 233.660156 66.882813 233.660156 L 66.882813 231.9375 C 66.882813 231.464844 66.414063 231.152344 66.414063 230.683594 C 66.414063 230.523438 65.628906 228.960938 65.628906 228.960938 C 65.316406 228.488281 65.003906 227.703125 64.53125 227.703125 L 63.90625 227.703125 C 63.90625 227.703125 63.90625 228.488281 63.753906 228.644531 Z M 63.753906 228.644531 "/>
<path style=" stroke:none;fill-rule:evenodd;fill:rgb(100%,100%,100%);fill-opacity:1;" d="M 40.230469 218.921875 C 40.230469 223.941406 37.410156 255.609375 42.425781 255.609375 C 43.523438 255.609375 51.050781 249.339844 51.363281 248.242188 C 52.773438 243.851563 53.558594 242.753906 48.382813 242.753906 C 45.09375 242.753906 44.933594 242.128906 44.933594 238.839844 C 44.933594 238.050781 47.289063 238.363281 47.914063 238.363281 C 48.703125 238.363281 50.582031 235.070313 50.738281 234.601563 C 51.835938 231.308594 51.992188 230.523438 48.542969 230.523438 C 47.914063 230.523438 45.40625 230.683594 45.09375 230.367188 C 42.113281 227.390625 46.816406 226.761719 48.542969 226.761719 C 52.464844 226.761719 52.304688 226.449219 54.027344 223.003906 C 56.695313 217.511719 52.773438 218.609375 48.382813 218.609375 C 45.878906 218.609375 42.113281 219.085938 40.230469 218.921875 Z M 40.230469 218.921875 "/>
<path style=" stroke:none;fill-rule:evenodd;fill:rgb(100%,100%,100%);fill-opacity:1;" d="M 17.8125 219.710938 L 17.96875 232.878906 C 17.96875 237.738281 18.597656 252.160156 22.832031 254.199219 C 30.203125 257.804688 28.789063 250.4375 28.789063 245.105469 C 28.789063 240.246094 33.964844 240.871094 36.15625 237.421875 C 39.292969 232.71875 37.097656 225.195313 34.273438 221.433594 C 32.550781 219.085938 29.101563 217.984375 26.121094 217.984375 L 21.261719 217.984375 C 20.007813 217.984375 18.441406 218.921875 17.8125 219.710938 Z M 25.808594 223.46875 C 25.808594 225.664063 25.808594 228.015625 25.808594 230.214844 C 25.808594 231.621094 25.808594 233.347656 25.808594 234.757813 C 25.808594 235.386719 27.0625 235.546875 27.691406 235.546875 C 28.316406 235.546875 28.628906 235.546875 29.101563 235.070313 C 29.414063 234.757813 29.882813 234.601563 30.042969 234.289063 L 30.355469 234.132813 C 30.828125 233.816406 30.980469 233.035156 30.980469 232.40625 C 30.980469 232.253906 30.980469 231.78125 30.980469 231.621094 C 30.980469 231.308594 31.296875 230.839844 31.296875 230.683594 C 31.296875 229.898438 32.394531 228.015625 31.765625 227.390625 C 31.765625 227.390625 30.828125 225.980469 30.828125 225.664063 C 30.828125 225.039063 29.257813 223.941406 28.628906 223.941406 C 27.847656 223.941406 26.121094 223.46875 25.808594 223.46875 Z M 25.808594 223.46875 "/>
</g>
</svg>
