<?xml version="1.0" encoding="UTF-8"?>
<svg xmlns="http://www.w3.org/2000/svg" xmlns:xlink="http://www.w3.org/1999/xlink" width="280.2pt" height="432.8pt" viewBox="0 0 280.2 432.8" version="1.1">
<g id="surface1">
<path style=" stroke:none;fill-rule:evenodd;fill:rgb(61.914063%,8.227539%,10.594177%);fill-opacity:1;" d="M 140.136719 404.378906 C 137.449219 414.910156 119.695313 415.859375 98.308594 411.984375 C 103.175781 432.796875 55.75 429.425781 64.902344 398.402344 C 38.117188 413.78125 0.0703125 378.058594 27.632813 345.4375 L 27.632813 135.351563 C 27.609375 108.914063 40.398438 81.390625 73.253906 64.589844 C 116.433594 42.511719 135.453125 21.121094 140.136719 -0.0507813 C 144.824219 21.121094 163.84375 42.511719 207.023438 64.589844 C 239.875 81.390625 252.664063 108.914063 252.640625 135.351563 L 252.640625 345.4375 C 280.203125 378.058594 242.160156 413.78125 215.375 398.402344 C 224.527344 429.425781 177.101563 432.796875 181.964844 411.984375 C 160.578125 415.859375 142.824219 414.910156 140.136719 404.378906 Z M 140.136719 404.378906 "/>
<path style=" stroke:none;fill-rule:evenodd;fill:rgb(100%,100%,100%);fill-opacity:1;" d="M 81.160156 97.527344 C 75.957031 115.855469 57.257813 128.671875 57.28125 143.058594 C 57.273438 148.394531 62.28125 156.699219 68.828125 156.703125 C 74.527344 156.726563 78.574219 150.710938 77.226563 144.242188 C 65.859375 144.503906 75.277344 132.496094 76.570313 128.890625 C 77.511719 139.632813 86.167969 138.640625 86.148438 152.113281 C 86.175781 161.414063 76.746094 167.808594 65.679688 164.054688 C 54.507813 175.617188 59.921875 187.675781 64.523438 197.546875 C 68.21875 205.476563 69.566406 215.027344 67.777344 228.742188 C 83.21875 201.664063 73.03125 200.015625 73.027344 188.589844 C 73.003906 180.0625 83.316406 179.96875 88.199219 178.804688 C 97.03125 176.699219 104.183594 165.019531 104.125 156.835938 C 104.058594 136.132813 81.226563 140.1875 81.160156 97.527344 Z M 102.460938 78.710938 C 105.132813 96.132813 120.136719 93.59375 120.195313 107.148438 C 120.136719 113.511719 115.410156 119.933594 105.808594 116.015625 C 115.898438 108.328125 103.828125 105.761719 103.464844 98.285156 C 101.621094 105.632813 95.441406 121.574219 112.207031 119.96875 C 109.234375 128.621094 110.230469 138.152344 117.015625 138.101563 C 123.613281 138.09375 121.710938 125.296875 114.339844 126.890625 C 115.164063 120.636719 118.867188 116.300781 123.875 112.839844 C 124.332031 123.3125 126.039063 131.527344 129.5625 136.425781 L 122.035156 147.300781 L 108.316406 160.683594 C 109.066406 135.027344 89.226563 137.699219 89.246094 116.015625 C 89.257813 100.757813 100.5625 94.175781 102.460938 78.710938 Z M 141.480469 61.816406 C 135.058594 73.8125 127.875 84.828125 118.460938 91.390625 C 126.027344 103.21875 133.277344 102.902344 140.683594 90.429688 C 129.664063 89.632813 139.070313 81.800781 141.320313 77.484375 C 141.800781 88.886719 148.996094 93.574219 148.996094 107.378906 C 149.039063 113.34375 147.09375 119.3125 141.960938 125.28125 L 137.003906 118.085938 C 137.539063 114.410156 139.351563 111.585938 142.441406 109.613281 C 144.09375 110.945313 144.890625 113.558594 144.839844 117.449219 C 147.261719 108.496094 146.144531 99.539063 142.601563 90.589844 C 139.5625 98.636719 133.96875 105.40625 125.816406 110.894531 C 127.09375 120.460938 129.171875 128.824219 133.007813 134.554688 L 138.605469 129.277344 L 147.875 136.472656 C 155.988281 126.054688 160.386719 114.011719 160.34375 104.179688 C 159.972656 86.703125 144.414063 75.617188 141.480469 61.816406 Z M 177.929688 72.847656 C 153.207031 97.996094 172.121094 116.753906 152.191406 138.230469 L 156.1875 147.503906 L 167.859375 159.011719 L 175.691406 155.496094 C 171.050781 136.472656 166.265625 109.453125 173.933594 98.425781 C 173.902344 105.566406 179.582031 108.402344 179.597656 113.613281 C 179.574219 116.597656 177.660156 118.195313 173.773438 118.085938 C 179.261719 126.132813 188.746094 122.882813 188.800781 110.253906 C 188.855469 94.746094 166.847656 90.746094 177.929688 72.847656 Z M 182.816406 169.914063 C 171.050781 131.359375 199.21875 117.53125 200.851563 95.980469 C 200.65625 111.953125 202.933594 125.949219 209.609375 136.425781 C 203.765625 136.476563 194.40625 148.453125 194.402344 159.289063 C 194.34375 169.023438 200.496094 179.277344 203.734375 179.289063 C 205.855469 179.230469 206.558594 174.644531 206.003906 169.914063 C 222.007813 196.003906 211.148438 203.230469 207.546875 221.179688 C 206.40625 203.714844 200.335938 189.285156 188.484375 178.414063 L 186.679688 170.429688 Z M 182.816406 169.914063 "/>
<path style=" stroke:none;fill-rule:evenodd;fill:rgb(100%,100%,100%);fill-opacity:1;" d="M 110.84375 352.273438 C 97.496094 348.417969 76.191406 334.035156 61.203125 334.046875 C 52.941406 334.0625 44.277344 339.167969 44.277344 348.660156 C 44.277344 354.332031 53.085938 364.921875 61.230469 355.015625 C 57.824219 349.609375 64.664063 346.828125 68.84375 346.824219 C 73 346.820313 75.429688 348.574219 78.804688 349.40625 C 67 355.027344 68.355469 367.496094 52.253906 367.480469 C 42.722656 367.496094 31.945313 361.683594 31.8125 347.289063 C 18.566406 365.839844 30.015625 390.605469 48.265625 390.539063 C 71.867188 390.496094 72.15625 357.546875 110.84375 352.273438 Z M 164.757813 351.898438 C 187.03125 352.753906 186.691406 334.761719 203.859375 334.765625 C 207.664063 334.796875 211.421875 335.695313 215.0625 338.484375 C 237.210938 326.410156 257.621094 350.640625 238.960938 368.664063 C 238.800781 356.101563 233.429688 348.757813 222.332031 347.148438 C 224.261719 351.246094 225.027344 355.347656 225.265625 359.445313 C 220.183594 347.746094 207.691406 345.335938 198.433594 349.386719 C 223.398438 352.660156 217.617188 378.015625 235.171875 378.078125 C 242.453125 378.085938 249.238281 374.53125 254.191406 367.410156 C 252.933594 380.871094 243.476563 393.03125 229.175781 392.984375 C 212.035156 393.03125 208.195313 375.289063 201.230469 367.132813 C 188.257813 351.949219 176.914063 356.976563 164.757813 351.898438 Z M 138.742188 286.914063 L 145.378906 286.273438 L 152.3125 293.203125 L 146.664063 303.347656 C 157.25 301.53125 162.101563 310.871094 157.832031 317.078125 C 160.714844 319.328125 162.902344 322.117188 164.25 325.554688 C 157.996094 324.648438 153.101563 326.109375 153.082031 332.230469 C 153.097656 335.21875 155.117188 338.910156 159.324219 338.894531 C 163.921875 338.910156 163.875 333.859375 160.914063 333.128906 C 162.691406 327.519531 174.636719 328.464844 174.648438 338.90625 C 174.660156 345.195313 168.109375 348.921875 163.480469 348.914063 C 153.375 348.894531 146.402344 337.695313 151.414063 325.554688 C 146.296875 328.445313 144.488281 332.960938 144.480469 336.851563 C 144.460938 346.558594 154.910156 356.738281 168.863281 359.1875 C 181.679688 361.441406 194.410156 366.292969 194.417969 377.929688 C 194.425781 382.054688 191.261719 387.332031 186.714844 391.535156 C 199.199219 389.484375 209.910156 396.824219 209.949219 405.65625 C 209.90625 411.171875 204.917969 419.421875 196.34375 419.394531 C 190.601563 419.378906 187.734375 416.046875 187.742188 412.460938 C 187.734375 409.707031 189.960938 405.371094 194.425781 405.390625 C 199.226563 405.386719 202.832031 410.332031 200.324219 415.796875 C 210.195313 411.285156 204.804688 401.65625 193.261719 401.679688 C 184.027344 401.660156 172.636719 404.460938 162.324219 404.503906 C 149.964844 404.457031 140.003906 397.296875 139.988281 388.070313 C 140.007813 382.183594 145.589844 372.660156 154.878906 374.71875 C 146.644531 381.289063 161.839844 386.742188 161.8125 376.515625 C 161.8125 371.03125 155.820313 368.121094 152.824219 365.09375 C 150.371094 366.066406 139.269531 370.503906 138.992188 379.726563 C 138.714844 370.503906 127.613281 366.066406 125.15625 365.09375 C 122.160156 368.121094 116.171875 371.03125 116.171875 376.515625 C 116.144531 386.742188 131.339844 381.289063 123.101563 374.71875 C 132.390625 372.660156 137.972656 382.183594 137.992188 388.070313 C 137.980469 397.296875 128.015625 404.457031 115.65625 404.503906 C 105.34375 404.460938 93.953125 401.660156 84.71875 401.679688 C 73.179688 401.65625 67.789063 411.285156 77.660156 415.796875 C 75.152344 410.332031 78.753906 405.386719 83.554688 405.390625 C 88.023438 405.371094 90.25 409.707031 90.242188 412.460938 C 90.25 416.046875 87.382813 419.378906 81.640625 419.394531 C 73.0625 419.421875 68.078125 411.171875 68.03125 405.65625 C 68.070313 396.824219 78.785156 389.484375 91.265625 391.535156 C 86.722656 387.332031 83.554688 382.054688 83.566406 377.929688 C 83.570313 366.292969 96.304688 361.441406 109.117188 359.1875 C 123.070313 356.738281 133.523438 346.558594 133.5 336.851563 C 133.496094 332.960938 131.6875 328.445313 126.570313 325.554688 C 131.582031 337.695313 124.605469 348.894531 114.503906 348.914063 C 109.875 348.921875 103.320313 345.195313 103.335938 338.90625 C 103.34375 328.464844 115.292969 327.519531 117.070313 333.128906 C 114.109375 333.859375 114.0625 338.910156 118.65625 338.894531 C 122.867188 338.910156 124.882813 335.21875 124.898438 332.230469 C 124.882813 326.109375 119.988281 324.648438 113.730469 325.554688 C 115.082031 322.117188 117.269531 319.328125 120.152344 317.078125 C 115.882813 310.871094 120.730469 301.53125 131.320313 303.347656 L 125.671875 293.203125 L 132.601563 286.273438 Z M 138.992188 364.429688 C 141.28125 361.972656 144.171875 360.113281 147.472656 358.664063 C 142.988281 353.34375 140.445313 346.078125 138.992188 337.722656 C 137.539063 346.078125 134.992188 353.34375 130.507813 358.664063 C 133.808594 360.113281 136.699219 361.972656 138.992188 364.429688 Z M 138.992188 364.429688 "/>
<path style=" stroke:none;fill-rule:evenodd;fill:rgb(100%,100%,100%);fill-opacity:1;" d="M 112.820313 202.980469 L 120.914063 196.738281 L 130.863281 198.203125 L 137.300781 206.6875 L 151.152344 197.226563 L 161.390625 197.519531 L 166.367188 206.003906 L 161.003906 213.121094 L 150.371094 218.585938 L 141.984375 207.46875 L 134.570313 208.828125 L 130.863281 217.222656 L 125.011719 218.878906 L 113.992188 210.980469 Z M 112.820313 202.980469 "/>
<path style=" stroke:none;fill-rule:evenodd;fill:rgb(100%,100%,100%);fill-opacity:1;" d="M 131.617188 286.996094 L 127.011719 293.578125 L 131.757813 299.691406 L 139.375 305.285156 L 151.742188 294.519531 L 150.753906 288.121094 L 143.796875 286.054688 L 138.71875 290.335938 Z M 131.617188 286.996094 "/>
<path style=" stroke:none;fill-rule:evenodd;fill:rgb(100%,100%,100%);fill-opacity:1;" d="M 124.691406 248.921875 L 126.328125 241.449219 L 138.996094 233.859375 L 151.203125 242.324219 L 153.710938 249.449219 L 145.65625 255.988281 L 142.5 262.175781 L 135.203125 262.117188 L 129.246094 252.367188 Z M 124.691406 248.921875 "/>
<path style=" stroke:none;fill-rule:evenodd;fill:rgb(0%,0.784302%,0%);fill-opacity:1;" d="M 138.976563 335.582031 L 125.222656 319.261719 C 131.648438 313.105469 132.367188 302.246094 124.921875 298.105469 C 114.4375 307.054688 108.511719 295.597656 101.5 295.535156 C 84.226563 295.613281 90.628906 313.914063 86.234375 318.355469 C 96.53125 317.683594 98.089844 309.339844 93.488281 308.828125 C 95.679688 298.539063 107.5625 302.410156 107.542969 312.460938 C 107.515625 329.339844 80.542969 323.335938 67.042969 328.328125 C 69.769531 325.523438 71.835938 322.855469 73.238281 320.320313 C 61.300781 319.761719 59.257813 317.40625 48.304688 316.390625 C 50.320313 314.847656 52.335938 313.4375 54.351563 312.160156 C 49.363281 309.941406 45.960938 307.429688 39.390625 305.507813 C 58.746094 300.039063 60.867188 273.066406 73.089844 283.445313 C 77.453125 279.445313 81.683594 279.144531 85.78125 282.539063 C 106.324219 272.988281 108.832031 296.824219 118.574219 293.117188 C 116.679688 291.390625 113.613281 290.730469 113.632813 286.824219 C 113.574219 283.160156 117.472656 280.652344 120.085938 281.480469 C 120.117188 277.910156 117.179688 275.132813 117.214844 271.660156 C 117.195313 266.246094 122.824219 264.203125 122.804688 260.476563 C 122.851563 257.996094 120.449219 257.898438 118.875 260.175781 C 117.332031 255.71875 118.691406 252.847656 122.957031 251.5625 C 121.886719 246.535156 122.746094 242.15625 126.433594 238.714844 C 120.242188 232.933594 122.511719 228.902344 122.503906 223.152344 C 122.488281 214.558594 114.324219 221.316406 108.601563 209.550781 C 109.898438 222.316406 119.019531 225.277344 119.027344 233.882813 C 119.070313 237.066406 117.660156 239.988281 114.796875 242.644531 C 116.757813 244.445313 118.503906 246.78125 119.933594 249.898438 C 116.628906 252.433594 113.695313 257.015625 117.820313 260.476563 C 114.796875 265.71875 113.890625 272.773438 115.097656 282.242188 C 108.550781 275.539063 95.464844 271.519531 95.453125 262.441406 C 95.496094 258.484375 98.773438 255.148438 101.953125 255.1875 C 104.898438 255.171875 107.527344 257.601563 105.878906 261.382813 C 102.390625 261.183594 101.011719 265.445313 107.695313 270.300781 C 107.113281 265.777344 110.398438 262.441406 110.414063 258.511719 C 110.460938 254.566406 107.238281 249.464844 101.046875 249.445313 C 96.414063 249.402344 91.21875 252.816406 91.375 261.988281 C 86.78125 254.335938 79.941406 249.355469 71.125 246.726563 C 79.710938 242.097656 85.652344 235.746094 88.957031 227.683594 C 92.007813 244.015625 108.253906 238.578125 108.296875 228.894531 C 108.21875 224.914063 103.878906 221.132813 102.707031 216.953125 C 99.84375 220.769531 98.480469 226.5625 104.371094 225.722656 C 105.21875 229.574219 103.457031 232.433594 99.382813 232.519531 C 91.675781 232.441406 89.722656 222.214844 98.628906 213.480469 C 95.449219 213.753906 92.929688 215.214844 91.070313 217.863281 C 89.039063 215.808594 88.988281 213.492188 90.921875 210.910156 C 87.8125 209.691406 86.386719 206.394531 83.96875 205.472656 C 84.59375 204.804688 85.347656 204.402344 86.234375 204.261719 C 83.488281 199.78125 86.984375 193.617188 82.15625 191.414063 C 84.554688 189.210938 86.820313 189.511719 88.957031 192.324219 C 91.113281 189.855469 91.820313 187.386719 91.070313 184.921875 C 93.714844 186.164063 94.773438 187.679688 94.246094 189.453125 C 97.246094 188.8125 99.058594 190.023438 99.683594 193.078125 C 97.921875 192.496094 96.160156 192.449219 94.394531 192.929688 C 98.046875 195.097656 99.011719 197.484375 96.058594 200.183594 L 92.886719 197.3125 C 89.515625 198.46875 88.527344 203.703125 92.886719 206.679688 C 92.96875 204.421875 93.976563 202.855469 95.90625 201.386719 C 95.605469 209.769531 105.074219 207.777344 106.03125 199.730469 C 104.167969 200.335938 103.992188 202.925781 100.441406 201.84375 C 106.433594 191.507813 97.40625 184.421875 91.675781 177.816406 C 90.382813 182.738281 87.832031 184.527344 84.421875 184.164063 C 90.027344 177.621094 86.0625 171.671875 86.085938 165.425781 C 86.128906 152.746094 94.582031 143.671875 104.066406 142.453125 C 92.570313 146.902344 86.09375 165.351563 100.289063 170.261719 C 98.625 173.136719 95.90625 174.296875 92.128906 173.738281 C 95.902344 178.558594 101.089844 180.242188 107.242188 179.78125 C 99.328125 172.765625 110.691406 166.855469 113.738281 174.039063 C 114.945313 168.359375 113.457031 163.246094 107.695313 163.3125 C 104.964844 163.339844 103.550781 165.019531 103.464844 168.449219 C 99.585938 166.054688 98.675781 163.949219 100.742188 160.894531 C 97.785156 159.621094 95.972656 157.203125 95.300781 153.640625 C 98.269531 155.796875 100.453125 154.054688 103.613281 154.847656 C 104.433594 151.328125 106.5 149.066406 109.808594 148.046875 C 108.34375 151.804688 108.164063 155.453125 111.019531 156.660156 C 111.652344 155.085938 112.625 153.921875 114.191406 153.488281 C 115.691406 149.90625 117.992188 147.679688 120.839844 146.386719 C 120.335938 136.984375 135.761719 134.21875 135.800781 128.253906 C 135.847656 125.996094 133.371094 125.5625 131.117188 128.402344 C 127.640625 125.453125 129.460938 121.054688 134.59375 120.695313 C 132.390625 117.6875 137.863281 115.335938 138.976563 111.78125 C 140.085938 115.335938 145.558594 117.6875 143.355469 120.695313 C 148.488281 121.054688 150.308594 125.453125 146.832031 128.402344 C 144.578125 125.5625 142.101563 125.996094 142.148438 128.253906 C 142.1875 134.21875 157.613281 136.984375 157.109375 146.386719 C 159.957031 147.679688 162.257813 149.90625 163.757813 153.488281 C 165.324219 153.921875 166.296875 155.085938 166.929688 156.660156 C 169.785156 155.453125 169.605469 151.804688 168.140625 148.046875 C 171.449219 149.066406 173.515625 151.328125 174.335938 154.847656 C 177.496094 154.054688 179.679688 155.796875 182.648438 153.640625 C 181.976563 157.203125 180.164063 159.621094 177.207031 160.894531 C 179.273438 163.949219 178.363281 166.054688 174.488281 168.449219 C 174.398438 165.019531 172.984375 163.339844 170.253906 163.3125 C 164.492188 163.246094 163.003906 168.359375 164.210938 174.039063 C 167.257813 166.855469 178.621094 172.765625 170.707031 179.78125 C 176.859375 180.242188 182.046875 178.558594 185.820313 173.738281 C 182.042969 174.296875 179.324219 173.136719 177.660156 170.261719 C 191.859375 165.351563 185.378906 146.902344 173.882813 142.453125 C 183.367188 143.671875 191.820313 152.746094 191.863281 165.425781 C 191.886719 171.671875 187.921875 177.621094 193.527344 184.164063 C 190.117188 184.527344 187.566406 182.738281 186.273438 177.816406 C 180.542969 184.421875 171.515625 191.507813 177.507813 201.84375 C 173.957031 202.925781 173.78125 200.335938 171.917969 199.730469 C 172.875 207.777344 182.34375 209.769531 182.042969 201.386719 C 183.972656 202.855469 184.980469 204.421875 185.066406 206.679688 C 189.421875 203.703125 188.433594 198.46875 185.066406 197.3125 L 181.890625 200.183594 C 178.9375 197.484375 179.902344 195.097656 183.554688 192.929688 C 181.789063 192.449219 180.027344 192.496094 178.265625 193.078125 C 178.890625 190.023438 180.703125 188.8125 183.703125 189.453125 C 183.175781 187.679688 184.234375 186.164063 186.878906 184.921875 C 186.128906 187.386719 186.835938 189.855469 188.992188 192.324219 C 191.128906 189.511719 193.394531 189.210938 195.792969 191.414063 C 190.964844 193.617188 194.460938 199.78125 191.714844 204.261719 C 192.601563 204.402344 193.355469 204.804688 193.980469 205.472656 C 191.5625 206.394531 190.136719 209.691406 187.027344 210.910156 C 188.960938 213.492188 188.910156 215.808594 186.878906 217.863281 C 185.019531 215.214844 182.5 213.753906 179.320313 213.480469 C 188.226563 222.214844 186.273438 232.441406 178.566406 232.519531 C 174.492188 232.433594 172.730469 229.574219 173.578125 225.722656 C 179.46875 226.5625 178.105469 220.769531 175.242188 216.953125 C 174.070313 221.132813 169.730469 224.914063 169.652344 228.894531 C 169.695313 238.578125 185.941406 244.015625 188.992188 227.683594 C 192.296875 235.746094 198.238281 242.097656 206.824219 246.726563 C 198.007813 249.355469 191.167969 254.335938 186.574219 261.988281 C 186.730469 252.816406 181.535156 249.402344 176.90625 249.445313 C 170.710938 249.464844 167.488281 254.566406 167.535156 258.511719 C 167.550781 262.441406 170.835938 265.777344 170.253906 270.300781 C 176.9375 265.445313 175.558594 261.183594 172.070313 261.382813 C 170.421875 257.601563 173.050781 255.171875 175.996094 255.1875 C 179.175781 255.148438 182.457031 258.484375 182.496094 262.441406 C 182.484375 271.519531 169.398438 275.539063 162.851563 282.242188 C 164.058594 272.773438 163.152344 265.71875 160.128906 260.476563 C 164.253906 257.015625 161.320313 252.433594 158.015625 249.898438 C 159.445313 246.78125 161.191406 244.445313 163.152344 242.644531 C 160.289063 239.988281 158.878906 237.066406 158.921875 233.882813 C 158.929688 225.277344 168.050781 222.316406 169.347656 209.550781 C 163.625 221.316406 155.460938 214.558594 155.445313 223.152344 C 155.4375 228.902344 157.707031 232.933594 151.515625 238.714844 C 155.203125 242.15625 156.0625 246.535156 154.992188 251.5625 C 159.257813 252.847656 160.617188 255.71875 159.074219 260.175781 C 157.5 257.898438 155.097656 257.996094 155.144531 260.476563 C 155.125 264.203125 160.753906 266.246094 160.734375 271.660156 C 160.769531 275.132813 157.832031 277.910156 157.863281 281.480469 C 160.476563 280.652344 164.375 283.160156 164.316406 286.824219 C 164.335938 290.730469 161.269531 291.390625 159.375 293.117188 C 169.117188 296.824219 171.625 272.988281 192.167969 282.539063 C 196.265625 279.144531 200.496094 279.445313 204.859375 283.445313 C 217.082031 273.066406 219.203125 300.039063 238.558594 305.507813 C 231.988281 307.429688 228.585938 309.941406 223.597656 312.160156 C 225.613281 313.4375 227.628906 314.847656 229.644531 316.390625 C 218.695313 317.40625 216.648438 319.761719 204.710938 320.320313 C 206.113281 322.855469 208.179688 325.523438 210.90625 328.328125 C 197.40625 323.335938 170.433594 329.339844 170.40625 312.460938 C 170.386719 302.410156 182.269531 298.539063 184.460938 308.828125 C 179.859375 309.339844 181.417969 317.683594 191.714844 318.355469 C 187.320313 313.914063 193.722656 295.613281 176.449219 295.535156 C 169.4375 295.597656 163.511719 307.054688 153.027344 298.105469 C 145.585938 302.246094 146.300781 313.105469 152.726563 319.261719 Z M 137.027344 151.09375 C 136.503906 149.21875 136.3125 147.347656 136.449219 145.472656 C 132.839844 148.972656 130.773438 141.285156 134.21875 142.746094 C 134.492188 140.953125 133.886719 140.039063 132.398438 140.015625 C 131.078125 140.015625 129.203125 141.671875 126.777344 144.976563 C 130.195313 145.257813 133.613281 147.503906 137.027344 151.09375 Z M 121.652344 152.996094 C 122.546875 155.226563 123.925781 157.320313 126.363281 159.113281 C 124.847656 160.023438 125.089844 162.796875 123.800781 162.089844 C 119.707031 159.84375 119.0625 156.6875 121.652344 152.996094 Z M 125.953125 167.539063 C 127.523438 166.71875 128.652344 165.230469 129.339844 163.078125 C 131.023438 166.246094 134.878906 168.839844 129.175781 175.066406 C 128.101563 172.558594 128.347656 169.308594 125.953125 167.539063 Z M 117.851563 166.054688 C 118.710938 168.828125 118.53125 171.324219 117.851563 173.660156 C 119.035156 174.269531 120 175.203125 120.742188 176.472656 C 125.484375 171.015625 119.144531 168.621094 117.851563 166.054688 Z M 133.96875 159.445313 C 130.46875 156.757813 128.046875 153.890625 127.191406 150.761719 C 130.492188 150.820313 134.253906 155.558594 133.96875 159.445313 Z M 135.539063 199.453125 C 131.628906 194.824219 127.164063 192.289063 122.148438 191.847656 C 126.28125 185.09375 134.878906 190.722656 135.539063 199.453125 Z M 102.226563 184.324219 C 105.785156 187.8125 108.917969 191.863281 111.816406 196.230469 C 113 194.933594 114.296875 193.96875 115.699219 193.335938 C 115.320313 190.078125 116.382813 187.472656 118.429688 185.316406 C 115.09375 184.820313 118.042969 183.246094 102.226563 184.324219 Z M 123.304688 209.867188 C 114.578125 211.273438 117.070313 201.4375 122.976563 201.4375 C 131.089844 201.425781 131.449219 211.148438 126.53125 216.152344 C 135.714844 213.421875 134.394531 198.746094 122.808594 198.710938 C 119.089844 198.679688 114.625 201.65625 114.625 205.902344 C 114.652344 211.714844 121.515625 212.621094 123.304688 209.867188 Z M 127.355469 286.328125 C 129.324219 286.335938 130.324219 284.199219 130.332031 282.777344 C 130.347656 280.242188 124.941406 278.289063 124.960938 272.445313 C 124.96875 268.617188 130.414063 263.953125 130.414063 259.21875 C 130.414063 257.289063 128.429688 253.761719 126.449219 253.761719 C 123.96875 253.761719 127.242188 257.671875 127.191406 259.632813 C 127.078125 264.121094 121.503906 267.953125 121.488281 272.363281 C 121.476563 275.640625 123.726563 278.433594 124.875 281.453125 C 125.480469 283.050781 125.273438 286.328125 127.355469 286.328125 Z M 135.972656 320.835938 C 137.5625 314.871094 139.355469 306.730469 135.082031 306.152344 C 135.804688 310.195313 135.929688 315.429688 135.972656 320.835938 Z M 140.921875 151.09375 C 141.445313 149.21875 141.636719 147.347656 141.5 145.472656 C 145.109375 148.972656 147.175781 141.285156 143.730469 142.746094 C 143.457031 140.953125 144.0625 140.039063 145.550781 140.015625 C 146.871094 140.015625 148.746094 141.671875 151.171875 144.976563 C 147.753906 145.257813 144.335938 147.503906 140.921875 151.09375 Z M 156.296875 152.996094 C 155.402344 155.226563 154.023438 157.320313 151.585938 159.113281 C 153.101563 160.023438 152.859375 162.796875 154.148438 162.089844 C 158.242188 159.84375 158.886719 156.6875 156.296875 152.996094 Z M 152 167.539063 C 150.425781 166.71875 149.296875 165.230469 148.609375 163.078125 C 146.929688 166.246094 143.070313 168.839844 148.773438 175.066406 C 149.847656 172.558594 149.601563 169.308594 152 167.539063 Z M 160.097656 166.054688 C 159.238281 168.828125 159.417969 171.324219 160.097656 173.660156 C 158.914063 174.269531 157.949219 175.203125 157.207031 176.472656 C 152.464844 171.015625 158.804688 168.621094 160.097656 166.054688 Z M 143.980469 159.445313 C 147.480469 156.757813 149.902344 153.890625 150.757813 150.761719 C 147.457031 150.820313 143.699219 155.558594 143.980469 159.445313 Z M 142.410156 199.453125 C 146.320313 194.824219 150.785156 192.289063 155.800781 191.847656 C 151.667969 185.09375 143.070313 190.722656 142.410156 199.453125 Z M 175.722656 184.324219 C 172.164063 187.8125 169.03125 191.863281 166.132813 196.230469 C 164.949219 194.933594 163.652344 193.96875 162.25 193.335938 C 162.628906 190.078125 161.566406 187.472656 159.519531 185.316406 C 162.855469 184.820313 159.90625 183.246094 175.722656 184.324219 Z M 154.644531 209.867188 C 163.371094 211.273438 160.878906 201.4375 154.972656 201.4375 C 146.859375 201.425781 146.5 211.148438 151.417969 216.152344 C 142.234375 213.421875 143.554688 198.746094 155.140625 198.710938 C 158.859375 198.679688 163.324219 201.65625 163.324219 205.902344 C 163.296875 211.714844 156.433594 212.621094 154.644531 209.867188 Z M 150.59375 286.328125 C 148.625 286.335938 147.625 284.199219 147.617188 282.777344 C 147.601563 280.242188 153.007813 278.289063 152.988281 272.445313 C 152.980469 268.617188 147.535156 263.953125 147.535156 259.21875 C 147.535156 257.289063 149.519531 253.761719 151.503906 253.761719 C 153.980469 253.761719 150.707031 257.671875 150.757813 259.632813 C 150.875 264.121094 156.445313 267.953125 156.460938 272.363281 C 156.472656 275.640625 154.222656 278.433594 153.074219 281.453125 C 152.46875 283.050781 152.675781 286.328125 150.59375 286.328125 Z M 141.976563 320.835938 C 140.386719 314.871094 138.59375 306.730469 142.867188 306.152344 C 142.144531 310.195313 142.019531 315.429688 141.976563 320.835938 Z M 138.976563 138.859375 C 138.195313 137.867188 137.203125 137.136719 136.007813 136.664063 C 137.308594 135.570313 138.296875 134.214844 138.976563 132.597656 C 139.652344 134.214844 140.640625 135.570313 141.941406 136.664063 C 140.746094 137.136719 139.757813 137.867188 138.976563 138.859375 Z M 138.976563 193.007813 C 137.410156 188.90625 134.894531 185.433594 131.234375 182.730469 C 133.082031 179.324219 135.828125 177.855469 138.976563 177.871094 C 142.121094 177.855469 144.867188 179.324219 146.714844 182.730469 C 143.054688 185.433594 140.539063 188.90625 138.976563 193.007813 Z M 138.976563 228.589844 C 137.960938 226.027344 135.800781 223.078125 133.074219 223.058594 C 130.140625 223.035156 128.253906 225.484375 128.277344 228.132813 C 128.304688 231.132813 131.070313 234.472656 135.003906 230.523438 C 134.847656 232.566406 133.335938 233.851563 131.234375 233.851563 C 128.792969 233.855469 126.75 230.734375 126.75 228.121094 C 126.753906 221.753906 137.566406 218.113281 138.976563 209.578125 C 140.382813 218.113281 151.195313 221.753906 151.199219 228.121094 C 151.199219 230.734375 149.15625 233.855469 146.714844 233.851563 C 144.613281 233.851563 143.101563 232.566406 142.945313 230.523438 C 146.878906 234.472656 149.644531 231.132813 149.671875 228.132813 C 149.695313 225.484375 147.808594 223.035156 144.875 223.058594 C 142.148438 223.078125 139.988281 226.027344 138.976563 228.589844 Z M 138.976563 239.390625 C 136.859375 241.785156 132.703125 242.351563 132.632813 246.574219 C 132.554688 251.535156 137.707031 252.960938 136.140625 260.777344 C 134.238281 254.78125 131.101563 250.390625 126.160156 248.347656 C 127.300781 239.539063 135.613281 240.035156 138.976563 235.109375 C 142.335938 240.035156 150.648438 239.539063 151.789063 248.347656 C 146.847656 250.390625 143.710938 254.78125 141.808594 260.777344 C 140.246094 252.960938 145.394531 251.535156 145.316406 246.574219 C 145.246094 242.351563 141.089844 241.785156 138.976563 239.390625 Z M 138.976563 303.40625 C 134.675781 300.347656 136.496094 295.660156 138.976563 293.867188 C 141.453125 295.660156 143.273438 300.347656 138.976563 303.40625 Z M 132.203125 298.066406 C 132.933594 295.941406 133.8125 294.011719 135.027344 292.496094 C 133.671875 291.355469 132.679688 289.925781 131.929688 288.296875 C 127.769531 291.980469 127.40625 295.414063 132.203125 298.066406 Z M 145.746094 298.066406 C 145.015625 295.941406 144.136719 294.011719 142.921875 292.496094 C 144.277344 291.355469 145.273438 289.925781 146.019531 288.296875 C 150.179688 291.980469 150.542969 295.414063 145.746094 298.066406 Z M 145.746094 298.066406 "/>
</g>
</svg>
