<?xml version="1.0" encoding="UTF-8"?>
<svg xmlns="http://www.w3.org/2000/svg" xmlns:xlink="http://www.w3.org/1999/xlink" width="306pt" height="425.2pt" viewBox="0 0 306 425.2" version="1.1">
<defs>
<clipPath id="clip1">
  <path d="M 1 0 L 305 0 L 305 425.199219 L 1 425.199219 Z M 1 0 "/>
</clipPath>
</defs>
<g id="surface1">
<g clip-path="url(#clip1)" clip-rule="nonzero">
<path style=" stroke:none;fill-rule:evenodd;fill:rgb(0%,24.705505%,54.101563%);fill-opacity:1;" d="M 153.035156 425.144531 C 133.777344 425.0625 114.296875 415.054688 100.121094 401.773438 C 28.296875 331.085938 39.351563 315.339844 34.402344 253.738281 C 33.988281 231.796875 11.160156 253.996094 7.085938 225.351563 L 1.242188 177.019531 C 0.0273438 166.035156 8.519531 162.363281 17.023438 161.664063 C 17.023438 152.742188 17.023438 143.816406 17.023438 134.890625 C 17.128906 70.800781 53.664063 -0.00390625 153.035156 -0.0507813 C 252.410156 -0.00390625 288.941406 70.800781 289.050781 134.890625 C 289.050781 143.816406 289.050781 152.742188 289.050781 161.664063 C 297.550781 162.363281 306.046875 166.035156 304.828125 177.019531 L 298.984375 225.351563 C 294.914063 253.996094 272.089844 231.796875 271.671875 253.738281 C 266.722656 315.339844 277.777344 331.085938 205.949219 401.773438 C 191.773438 415.054688 172.296875 425.0625 153.035156 425.144531 Z M 142.21875 276.304688 C 131.535156 201.828125 135.382813 166.871094 115.710938 166.746094 L 58.835938 166.746094 C 47.902344 166.867188 46.738281 161.632813 46.96875 154.191406 C 46.941406 62.117188 85.492188 3.300781 153.035156 3.464844 C 220.578125 3.300781 259.132813 62.117188 259.101563 154.191406 C 259.339844 161.632813 258.171875 166.867188 247.238281 166.746094 L 190.363281 166.746094 C 170.691406 166.871094 174.535156 201.828125 163.851563 276.304688 Z M 153.035156 421.449219 C 135.359375 421.535156 111.402344 410.078125 100.003906 394.234375 C 90.703125 275.257813 52.785156 289.5625 52.902344 233.039063 C 53.019531 217.429688 53.367188 194.34375 62.667969 194.3125 L 115.703125 194.3125 C 121.230469 194.136719 125.300781 196.578125 126.171875 204.78125 L 131.726563 287.121094 L 174.34375 287.121094 L 179.902344 204.78125 C 180.773438 196.578125 184.84375 194.136719 190.367188 194.3125 L 243.402344 194.3125 C 252.710938 194.34375 253.054688 217.429688 253.171875 233.039063 C 253.289063 289.5625 215.378906 275.257813 206.070313 394.234375 C 194.671875 410.078125 170.714844 421.535156 153.035156 421.449219 Z M 131.839844 124.988281 L 146.320313 99.597656 C 138.277344 94.488281 135.128906 89.34375 135.394531 82.359375 C 135.8125 73.757813 142.351563 66.46875 153.039063 66.445313 C 163.519531 66.46875 170.269531 73.757813 170.683594 82.359375 C 170.949219 89.34375 167.804688 94.488281 159.757813 99.597656 L 174.238281 124.988281 Z M 131.839844 124.988281 "/>
</g>
</g>
</svg>
