<?xml version="1.0" encoding="UTF-8"?>
<svg xmlns="http://www.w3.org/2000/svg" xmlns:xlink="http://www.w3.org/1999/xlink" width="216pt" height="425.2pt" viewBox="0 0 216 425.2" version="1.1">
<defs>
<clipPath id="clip1">
  <path d="M 12 50 L 212 50 L 212 425.199219 L 12 425.199219 Z M 12 50 "/>
</clipPath>
</defs>
<g id="surface1">
<path style=" stroke:none;fill-rule:evenodd;fill:rgb(95.701599%,58.396912%,18.041992%);fill-opacity:1;" d="M 56.867188 83.523438 C 60.128906 83.492188 63.53125 84.492188 66.207031 86.402344 C 66.808594 71.164063 79.042969 62.953125 91.59375 62.941406 C 98.8125 62.933594 106.066406 66.628906 111.132813 71.503906 C 111.59375 70.835938 112.144531 70.320313 112.867188 69.703125 L 114.894531 66.726563 C 113.65625 64.757813 113.152344 62.265625 113.160156 59.980469 C 113.140625 52.726563 122.085938 46.480469 129.722656 46.453125 C 132.4375 46.484375 136.121094 47.589844 138.011719 50.039063 C 141.3125 48.949219 144.664063 48.085938 148.339844 48.101563 C 158.941406 48.136719 170.34375 54.320313 180.324219 61.539063 L 177.503906 62.1875 C 179.640625 62.972656 184.046875 65.78125 185.363281 68.066406 C 183.214844 68.402344 181.464844 69.132813 180.289063 70.441406 C 181.328125 70.730469 182.089844 71.46875 182.5625 72.648438 C 179.222656 72.40625 176.253906 73.609375 174.632813 74.359375 C 173.777344 80.613281 166.925781 86.234375 161.863281 88.121094 C 172.539063 93.851563 180.863281 107.488281 180.84375 119.109375 C 180.839844 129.558594 175.078125 143.414063 162.703125 143.410156 C 159.1875 143.414063 154.308594 142.566406 152.339844 140.03125 C 154.835938 158.992188 141.914063 168.285156 123.265625 169.871094 C 123.976563 170.296875 125.21875 170.699219 126.589844 170.863281 C 128.488281 170.585938 129.574219 170.523438 132.289063 170.453125 C 145.753906 170.464844 152.699219 177.046875 154.808594 186.953125 C 159.390625 188.664063 163.558594 193.453125 164.085938 199.863281 C 171.503906 203.445313 178.535156 207.621094 184.195313 213.664063 C 190.070313 214.6875 197.648438 217.691406 197.65625 225.316406 C 197.648438 228.1875 196.058594 229.992188 193.703125 231.71875 C 202.222656 253.964844 181.941406 275.324219 160.046875 291.691406 C 163.128906 295.144531 164.339844 299.054688 163.480469 303.734375 C 172.21875 312.328125 177.378906 319.289063 181.277344 328.742188 C 190.21875 325.039063 189.789063 308.328125 200.40625 308.328125 C 202.464844 308.324219 204.238281 308.746094 205.683594 310.050781 C 209.203125 310.222656 213.265625 312.746094 213.3125 317.089844 C 215.054688 318.367188 216.019531 320.777344 216.015625 322.789063 C 215.9375 327.863281 210.824219 334.503906 207.621094 338.046875 C 209.546875 349.902344 194.921875 350.128906 192.019531 348.917969 C 188.40625 349.671875 185.46875 351.6875 181.703125 351.695313 C 175.011719 351.664063 170.835938 346.113281 169.84375 339.140625 C 163.871094 332.929688 158.820313 327.691406 153.425781 320.734375 C 131.6875 327.914063 95.082031 327.703125 83.3125 325.519531 C 78.757813 324.523438 87.503906 331.910156 94.191406 334.492188 L 93.394531 337.632813 L 75.882813 341.898438 L 68.582031 338.1875 C 63.101563 335.296875 29.636719 320.363281 29.605469 308.078125 C 29.589844 304.570313 32.476563 302.394531 35.339844 300.59375 C 21.222656 289.289063 9.714844 272.015625 9.707031 254.453125 C 9.898438 234.617188 23.222656 218.003906 42.292969 209.773438 C 40.667969 204.871094 41.804688 203.105469 45.648438 199.988281 C 32.285156 196.828125 20.984375 186.660156 20.996094 174.28125 C 20.984375 161.121094 30.714844 148.039063 42.851563 148.058594 C 49.789063 148.078125 57.320313 151.34375 61.671875 157.253906 C 62.890625 154.632813 64.242188 152.015625 65.738281 149.394531 C 63.539063 149.871094 60.988281 150.195313 58.878906 150.136719 C 45.027344 150.136719 34.660156 137.496094 34.691406 125.941406 C 34.714844 116.191406 39.507813 110.878906 47.292969 105.773438 C 44.246094 103.453125 42.339844 99.097656 42.320313 94.71875 C 42.335938 89.851563 48.914063 83.507813 56.867188 83.523438 Z M 71.089844 102.050781 C 68.253906 113.664063 47.441406 113.601563 47.457031 126.71875 C 47.523438 133.703125 54.136719 137.664063 61.398438 137.652344 C 64.878906 137.640625 68.9375 136.148438 72.003906 134.515625 C 70.066406 132.480469 68.90625 129.1875 68.910156 126.386719 C 68.882813 119.890625 72.890625 113.425781 78.683594 111.742188 C 79.9375 110.101563 81.109375 108.351563 82.347656 106.703125 C 77.800781 106.492188 73.851563 104.226563 71.089844 102.050781 Z M 96.597656 90.253906 C 97.808594 89.226563 99.953125 87.6875 101.199219 86.714844 C 99.5625 79.140625 86.617188 76.4375 83.753906 82.570313 C 91.1875 81.910156 95.914063 85.390625 96.597656 90.253906 Z M 153.800781 120.660156 C 155.710938 119.410156 157.117188 118.894531 159.214844 119.367188 C 160.347656 118.9375 162.265625 118.789063 163.628906 119.902344 C 164.058594 115.578125 163.339844 110.9375 159.945313 107.539063 C 157.929688 110.820313 153.980469 113.277344 150.210938 114.410156 C 152.003906 116.210938 153.105469 118.222656 153.800781 120.660156 Z M 57.273438 176.609375 C 55.292969 177.941406 51.832031 179.183594 49.308594 179.179688 C 44.269531 179.1875 38.46875 175.488281 38.460938 171.148438 C 38.445313 167.601563 41.464844 163.851563 44.71875 163.859375 C 47.832031 163.851563 48.546875 166.265625 49.3125 166.253906 C 49.914063 166.257813 50.414063 165.441406 50.40625 164.789063 C 50.414063 162.660156 46.773438 160.890625 44.738281 160.886719 C 40.265625 160.886719 34.054688 165.929688 34.058594 172.71875 C 34.082031 182.628906 48.652344 189.039063 58.023438 188.28125 C 57.359375 183.996094 57.019531 180.484375 57.273438 176.609375 Z M 57.273438 176.609375 "/>
<g clip-path="url(#clip1)" clip-rule="nonzero">
<path style=" stroke:none;fill-rule:evenodd;fill:rgb(10.594177%,9.812927%,9.423828%);fill-opacity:1;" d="M 123.796875 175.019531 C 140.128906 170.804688 150.179688 178.617188 150.203125 189.117188 C 156.585938 190.410156 160.246094 194.222656 159.9375 201.722656 C 168.824219 205.804688 175.664063 210.164063 181.804688 217.015625 C 188.015625 217.753906 193.613281 220.324219 193.753906 224.722656 C 193.703125 227.171875 192.066406 228.863281 189.507813 229.980469 C 190.59375 233.742188 191.246094 237.507813 191.242188 241.269531 C 191.261719 262.117188 174.257813 278.421875 151.398438 290.613281 C 157.519531 293.03125 159.570313 296.046875 159.585938 300.171875 C 159.671875 302.308594 159.464844 303.996094 158.746094 304.890625 C 167.328125 310.445313 174.132813 321.539063 178.996094 333.386719 C 179.503906 334.609375 185.933594 330.273438 188.734375 326.578125 C 192.421875 321.757813 193.253906 312.414063 199.84375 312.414063 C 201.410156 312.363281 202.921875 313.054688 204.324219 314.808594 C 207.050781 313.992188 209.863281 315.996094 209.222656 319.945313 C 210.964844 320.714844 211.878906 321.769531 211.730469 323.710938 C 211.753906 325.789063 207.503906 331.671875 202.53125 336.730469 C 203.328125 337.386719 203.984375 338.265625 203.964844 339.417969 C 203.964844 342.902344 200.28125 344.324219 197.695313 344.738281 C 195.898438 344.996094 193.175781 344.9375 191.363281 345.335938 C 188.097656 346.117188 184.613281 348.089844 181.265625 348.082031 C 176.011719 348.082031 173.238281 343.246094 172.964844 338.882813 C 166.410156 331.597656 160.085938 324.085938 153.847656 316.480469 C 148.15625 318.023438 142.351563 319.335938 136.34375 320.246094 L 136.585938 330.460938 L 130.546875 330.9375 L 130.546875 331.832031 L 132.996094 331.535156 L 133.175781 335.179688 C 137.386719 335.414063 139.980469 337.503906 139.988281 339.777344 C 140.003906 341.738281 138.144531 343.597656 135.089844 344.914063 C 136.96875 357.285156 141.394531 368.28125 147.394531 378.429688 C 149.855469 376.015625 152.503906 374.402344 155.757813 374.367188 C 166.976563 374.414063 172.3125 388.097656 172.304688 400.351563 C 172.273438 411.109375 168.253906 425.15625 156.535156 425.144531 C 144.964844 425.183594 140.535156 407.878906 140.523438 396.828125 C 140.523438 394.941406 140.679688 393.09375 140.941406 391.273438 C 132.878906 380.074219 127.222656 367.3125 123.976563 352.980469 L 112.804688 371.378906 C 113.808594 377.605469 112.652344 382.5625 108.117188 385.65625 L 108.324219 391.871094 L 113.761719 389.898438 L 123.261719 393.246094 L 123.261719 397.726563 L 113.105469 400.832031 L 103.664063 397.664063 L 103.664063 393.722656 L 105.636719 393.066406 L 105.460938 385.414063 L 85.683594 378.664063 C 83.851563 391.691406 75.558594 398.039063 68.121094 398.082031 C 60.164063 398.074219 49.105469 385.851563 49.128906 367.019531 C 49.101563 348.132813 58.65625 337.632813 68.300781 337.691406 C 70.511719 337.523438 72.714844 338.316406 75.164063 340.078125 C 75.894531 339.519531 76.707031 339.042969 77.601563 338.660156 C 61.128906 330.871094 33.027344 316.171875 33.054688 308.238281 C 33.050781 305.5625 35.464844 303.199219 42.316406 301.070313 C 24.355469 292.109375 12.425781 270.746094 12.503906 252.144531 C 12.480469 238.265625 25.398438 219.3125 47.214844 210.445313 C 45.9375 209.226563 45.277344 207.632813 45.242188 205.664063 C 45.277344 204.351563 46.128906 203.210938 48.765625 202.859375 C 48.476563 200.660156 49.5625 199.128906 53.367188 198.914063 C 54.378906 197.609375 55.785156 197.210938 57.785156 198.140625 C 59.316406 197.675781 60.746094 197.613281 62.027344 198.140625 L 62.027344 196.644531 C 44.984375 199.574219 25.140625 190.101563 24.929688 170.71875 C 24.960938 159.351563 35.171875 151.859375 44.644531 151.78125 C 54.191406 151.777344 59.238281 157.71875 59.21875 164.621094 C 59.253906 169.363281 56.023438 175.171875 50.4375 175.199219 C 47.480469 175.210938 42.503906 173.804688 42.492188 170.003906 C 42.496094 168.976563 43.578125 167.84375 44.464844 167.851563 C 45.898438 167.84375 47.359375 169.765625 48.765625 169.765625 C 52.527344 169.765625 53.714844 166.644531 53.664063 164.804688 C 53.667969 162.246094 50.589844 157.742188 44.707031 157.757813 C 39.019531 157.757813 30.386719 162.320313 30.367188 172.152344 C 30.402344 181.851563 41.292969 193.976563 61.253906 191.449219 C 57.839844 166.730469 65.15625 148.496094 82.339844 139.835938 L 80.308594 139.476563 C 73.636719 145.03125 66.777344 146.609375 59.816406 146.644531 C 51.910156 146.59375 37.441406 140.800781 37.476563 125.558594 C 37.476563 107.828125 61.964844 105.9375 61.96875 97.601563 C 61.921875 95.4375 59.464844 92.394531 56.175781 92.402344 C 53.734375 92.394531 51.816406 93.867188 51.8125 96.046875 C 51.820313 98.777344 55.410156 98.929688 55.398438 101.664063 C 55.394531 102.730469 54.417969 104.105469 52.46875 104.113281 C 47.898438 104.121094 45.714844 99.804688 45.660156 95.988281 C 45.65625 91.117188 50.921875 87.148438 56.175781 87.144531 C 62.921875 87.105469 67.359375 92.246094 67.34375 97.898438 C 67.378906 109.34375 43.539063 111.214844 43.507813 126.15625 C 43.589844 132.960938 49.394531 141.003906 61.253906 140.96875 C 65.703125 140.980469 71.882813 138.925781 76.964844 135.652344 C 74.082031 132.578125 72.878906 129.226563 72.839844 125.796875 C 72.828125 122.011719 74.769531 117.289063 81.207031 114.621094 C 86.542969 104.523438 93.957031 95.933594 103.546875 88.9375 C 103.882813 81.320313 97.839844 75.703125 90.644531 75.734375 C 84.183594 75.71875 77.664063 80.414063 77.976563 88.820313 C 78.316406 88.929688 78.59375 89.109375 78.816406 89.355469 C 80.132813 87.773438 81.605469 86.746094 83.414063 86.964844 C 85.648438 85.953125 87.554688 86.015625 88.96875 87.621094 C 92.019531 87.941406 93.167969 91.484375 93.152344 94.195313 C 93.160156 98.386719 88.5625 102.800781 82.039063 102.796875 C 73.222656 102.660156 68.660156 93.980469 68.660156 87.742188 C 68.667969 74.972656 79.503906 66.539063 90.820313 66.597656 C 97.773438 66.574219 104.9375 70.597656 110.476563 77.410156 C 111.476563 75.304688 112.972656 73.691406 114.960938 72.570313 L 118.960938 66.65625 C 117.246094 65.261719 116.347656 63.128906 116.269531 60.261719 C 116.28125 52.695313 131.855469 46.195313 136.164063 53.8125 C 148.339844 49.648438 155.878906 51.882813 165.613281 57.453125 C 164.855469 57.574219 164.179688 57.773438 163.585938 58.054688 C 165.992188 58.730469 167.359375 59.652344 170.8125 60.085938 C 170.6875 61.191406 169.914063 61.886719 168.480469 62.175781 C 169.203125 64.574219 172.628906 64.523438 174.695313 65.878906 C 174.074219 66.726563 172.878906 67.164063 171.109375 67.195313 C 171.980469 67.757813 173.015625 68.074219 174.214844 68.148438 C 173.308594 68.992188 172.074219 69.589844 170.511719 69.941406 C 170.769531 77.886719 165.175781 82.945313 155.878906 85.652344 C 156.074219 87.226563 156.203125 88.800781 156.234375 90.371094 C 170.996094 96.039063 176.023438 107.773438 175.769531 119.046875 C 175.773438 130.601563 171.714844 139.414063 161.671875 139.414063 C 157.085938 139.421875 150.808594 136.554688 150.800781 129.738281 C 150.78125 124.976563 157.070313 121.027344 160.777344 123.347656 C 162.71875 122.976563 164.171875 123.828125 165.136719 125.914063 C 165.515625 125.78125 165.914063 125.699219 166.335938 125.675781 C 167.140625 116.621094 166.425781 107.96875 157.191406 101.183594 C 154.324219 107.609375 149.273438 110.996094 144.464844 110.976563 C 140.671875 110.984375 136.089844 108.472656 132.578125 102.140625 C 127.441406 100.414063 122.664063 98.515625 118.183594 96.464844 C 114.828125 97.835938 111.742188 99.609375 109.046875 101.960938 C 109.171875 102.769531 109.710938 103.164063 110.65625 103.15625 L 110.238281 103.695313 C 115.515625 101.703125 120.398438 101.183594 124.695313 102.796875 L 123.796875 104.050781 C 129.003906 104.539063 131.785156 106.199219 135.089844 108.652344 C 133.617188 108.597656 132.300781 108.695313 131.324219 109.128906 C 133.753906 110.992188 135.523438 113.183594 136.640625 115.699219 C 137.929688 114.429688 139.464844 113.8125 141.242188 113.847656 C 146.886719 113.839844 150.085938 120.289063 150.085938 124.003906 C 150.085938 128.558594 147.878906 131.945313 143.335938 133.980469 C 147.128906 136.46875 149.253906 140.050781 149.246094 143.777344 C 149.238281 156.484375 134.722656 170.480469 111.851563 165.039063 C 114.476563 169.164063 118.464844 172.492188 123.796875 175.019531 Z M 62.367188 319.007813 C 68.117188 320.597656 73.867188 322.003906 79.617188 322.902344 C 83.191406 325.429688 87.753906 326.746094 93.128906 327.058594 L 93.59375 335.320313 L 92.1875 336.566406 C 90.546875 336.21875 88.964844 336.097656 87.464844 336.308594 C 79.097656 330.246094 70.730469 324.371094 62.367188 319.007813 Z M 98.789063 326.902344 L 99.097656 333.761719 L 122.738281 335.007813 L 122.738281 332.410156 L 125.179688 331.890625 L 125.128906 330.746094 L 120.296875 331.527344 L 118.378906 322.328125 L 112.191406 323.058594 C 113.109375 324.269531 113.546875 325.621094 113.492188 327.109375 Z M 124.765625 321.761719 L 130.636719 321.085938 L 130.480469 324.773438 L 125.492188 325.136719 Z M 159.578125 382.640625 C 157.589844 382.621094 155.675781 385.335938 154.316406 389.398438 C 156.097656 391.988281 158.253906 394.328125 161.074219 396.222656 C 163.261719 394.617188 164.453125 396.394531 164.453125 400.382813 C 164.445313 402.957031 163.628906 404.988281 161.921875 404.996094 C 161.007813 404.988281 160.351563 403.996094 160.164063 402.332031 L 157.628906 400.640625 C 158.671875 403.699219 157.230469 406.292969 155.613281 406.292969 C 154.855469 406.296875 154.097656 405.921875 153.339844 405.253906 C 154.433594 409.835938 156.773438 416.574219 160.035156 416.5625 C 163.8125 416.59375 166.023438 408.730469 165.949219 399.210938 C 165.921875 392.261719 163.9375 382.613281 159.578125 382.640625 Z M 131.890625 361.980469 L 133.527344 361.699219 C 135.730469 369.101563 139.253906 376.339844 143.863281 383.441406 L 143.1875 384.402344 C 138.296875 377.632813 134.378906 370.253906 131.890625 361.980469 Z M 128.390625 345.882813 L 130.085938 345.828125 C 130.304688 347.789063 130.613281 349.664063 130.988281 351.472656 L 129.234375 351.644531 C 128.878906 349.722656 128.597656 347.804688 128.390625 345.882813 Z M 130.421875 356.496094 L 130.648438 357.6875 L 132.117188 357.519531 L 131.835938 356.386719 Z M 107.71875 362.207031 L 107.71875 355.824219 C 108.769531 354.769531 109.171875 353.527344 109.074219 349.042969 C 107.398438 347.972656 105.046875 347.277344 102.011719 346.957031 C 102.296875 344.789063 101.070313 342.324219 98.339844 339.558594 C 105.085938 339.839844 111.820313 340.214844 118.5625 340.796875 C 118.675781 342.53125 119.691406 343.660156 121.609375 344.1875 L 110.597656 363.789063 C 110.089844 362.808594 109.128906 362.28125 107.71875 362.207031 Z M 105.230469 355.824219 L 105.230469 361.8125 L 93.371094 362.488281 C 93.582031 361.320313 93.410156 360.078125 92.863281 358.761719 Z M 101.050781 370.902344 C 101.015625 368.363281 101.730469 366.121094 103.199219 364.183594 L 92.753906 364.464844 C 91.078125 365.492188 89.398438 365.621094 87.722656 365.144531 C 87.707031 366.664063 87.085938 367.664063 85.859375 368.136719 Z M 103.140625 382.257813 C 101.953125 380.46875 101.414063 378.679688 101.277344 376.890625 L 86.3125 374.234375 C 86.335938 375.121094 86.273438 376.003906 86.140625 376.890625 Z M 71.230469 371.296875 C 71.105469 371.601563 70.933594 371.882813 70.722656 372.144531 L 79.195313 374.632813 C 79.214844 374.027344 79.1875 373.421875 79.085938 372.824219 Z M 78.742188 377.167969 L 67.109375 373.21875 C 65.726563 372.71875 64.679688 370.339844 64.679688 368.136719 C 64.679688 365.773438 66.339844 362.910156 68.128906 362.941406 C 68.921875 362.921875 69.503906 363.179688 69.878906 363.617188 L 70.382813 362.769531 C 66.730469 359.015625 65.246094 353.914063 67.617188 348.988281 C 63.046875 353.449219 62.558594 359.808594 62.535156 366.386719 C 62.550781 379.785156 68.445313 389.960938 71.402344 389.9375 C 74.769531 389.9375 77.273438 383.308594 78.742188 377.167969 Z M 72.070313 201.996094 C 74.257813 201.097656 76.539063 200.484375 78.882813 200.066406 C 77.378906 197.496094 76.109375 194.84375 75.089844 192.109375 C 73.71875 192.855469 72.351563 193.515625 70.988281 194.101563 C 71.167969 196.734375 71.714844 199.363281 72.070313 201.996094 Z M 70.085938 188.433594 C 71.066406 188.09375 72.050781 187.671875 73.035156 187.164063 C 71.507813 182.476563 70.503906 177.652344 70.261719 172.640625 C 69.378906 177.40625 69.363281 182.703125 70.085938 188.433594 Z M 110.824219 184.828125 C 111.867188 183.121094 113.140625 181.695313 114.648438 180.570313 C 108.96875 177.441406 104.453125 172.867188 101.089844 166.84375 C 100.621094 172.902344 104.691406 178.882813 110.824219 184.828125 Z M 110.824219 184.828125 "/>
</g>
<path style=" stroke:none;fill-rule:evenodd;fill:rgb(0%,47.068787%,72.851563%);fill-opacity:1;" d="M 117.816406 71.566406 L 120.6875 67.523438 C 121.09375 67.0625 122.269531 66.816406 123.640625 66.785156 C 124.039063 66.765625 123.902344 66.070313 123.554688 66.046875 C 120.15625 65.976563 118.324219 63.933594 118.339844 61.269531 C 118.328125 56.59375 124.203125 52.398438 128.855469 52.40625 C 133.1875 52.394531 135.695313 54.703125 135.675781 57.183594 C 135.683594 58.578125 135.171875 60.007813 133.894531 61.484375 C 133.367188 62.015625 134.546875 62.175781 134.804688 61.746094 C 136.054688 60.078125 136.574219 58.105469 136.371094 55.835938 C 140.230469 54.09375 143.972656 53.148438 147.40625 53.144531 C 153.136719 53.148438 157.753906 55.238281 161.003906 57.011719 C 159.773438 57.164063 158.679688 57.421875 158.050781 58.011719 C 161.605469 58.894531 163.496094 60.039063 166.21875 61.050781 C 165.261719 61.394531 164.304688 61.480469 163.351563 61.789063 C 165.699219 63.035156 167.808594 64.453125 169.5625 66.132813 C 168.578125 66.367188 167.433594 66.117188 166.609375 66.351563 C 167.757813 67.113281 169.203125 67.757813 170.777344 68.351563 C 170.179688 68.628906 169.464844 68.851563 168.519531 68.953125 C 169.171875 76.535156 164.320313 81.316406 154.183594 84.597656 C 150.691406 80.140625 147.476563 78.914063 144.449219 79.90625 C 136.992188 72.4375 127.539063 68.144531 117.816406 71.566406 Z M 125.800781 62.8125 C 123.710938 62.8125 123.171875 61.675781 123.171875 60.597656 C 123.171875 58.699219 126.445313 56.4375 129.394531 56.414063 C 130.535156 56.414063 130.898438 57.195313 130.902344 57.828125 C 130.898438 59.09375 129.765625 60.589844 128.175781 60.597656 C 127.613281 60.589844 127.089844 60.183594 127.089844 58.890625 C 127.085938 58.085938 125.933594 58.335938 125.929688 59.953125 C 125.933594 60.953125 126.742188 62.074219 128.132813 62.078125 C 129.984375 62.070313 132.347656 60.132813 132.347656 57.757813 C 132.351563 56.402344 131.320313 54.851563 129.679688 54.863281 C 126.238281 54.863281 121.441406 57.703125 121.4375 60.496094 C 121.441406 62.429688 123.199219 64.164063 125.222656 64.164063 C 126.554688 64.164063 126.921875 62.808594 125.800781 62.8125 Z M 151.644531 62.1875 C 152.160156 62.273438 152.183594 61.59375 151.820313 61.4375 C 150.238281 60.6875 148.65625 60.8125 147.070313 61.535156 C 146.730469 61.730469 146.851563 62.886719 147.933594 62.441406 C 149.058594 61.953125 150.3125 61.9375 151.644531 62.1875 Z M 163.003906 73.367188 C 163.21875 74.242188 163.136719 74.898438 163.015625 75.902344 C 162.898438 76.558594 163.804688 76.191406 163.929688 75.808594 C 164.246094 75.027344 164.300781 74.066406 164.234375 73.03125 C 164.199219 72.347656 162.796875 72.59375 163.003906 73.367188 Z M 154.757813 70.699219 C 155.496094 70.265625 156.289063 70.078125 156.984375 70.078125 C 159.910156 70.078125 161.027344 72.09375 161.027344 73.703125 C 161.03125 76.59375 157.65625 80.195313 152.976563 80.191406 C 151.472656 80.203125 149.113281 79.183594 149.105469 76.804688 C 149.105469 76.171875 149.242188 75.539063 149.578125 74.90625 C 148.742188 75.164063 147.90625 75.296875 147.070313 75.304688 C 144.015625 75.296875 142.589844 73.328125 142.589844 71.492188 C 142.589844 68.34375 147.742188 64.558594 151.0625 64.5625 C 154.039063 64.558594 155.253906 66.121094 155.265625 68.277344 C 155.265625 69.101563 155.03125 69.894531 154.757813 70.699219 Z M 154.757813 70.699219 "/>
<path style=" stroke:none;fill-rule:evenodd;fill:rgb(100%,100%,100%);fill-opacity:1;" d="M 153.1875 72.007813 C 153.6875 71.710938 154.640625 71.183594 155.699219 70.914063 C 154.691406 71.363281 153.9375 72.308594 153.976563 73.117188 C 154.015625 73.992188 154.964844 74.382813 156.089844 73.984375 C 157.214844 73.589844 158.097656 72.558594 158.054688 71.683594 C 158.035156 71.234375 157.777344 70.914063 157.378906 70.761719 C 159.398438 70.960938 160.566406 72.554688 160.566406 74.050781 C 160.570313 76.785156 156.566406 79.636719 153.003906 79.636719 C 151.585938 79.644531 149.8125 78.566406 149.804688 76.3125 C 149.804688 75.351563 150.945313 73.796875 151.820313 73.089844 C 150.546875 73.890625 148.546875 74.714844 147.136719 74.703125 C 144.246094 74.703125 143.355469 72.996094 143.355469 71.382813 C 143.355469 68.398438 148.03125 65.359375 151.179688 65.363281 C 154.003906 65.359375 154.730469 67.4375 154.726563 68.296875 C 154.726563 70.007813 153.964844 71.203125 153.1875 72.007813 Z M 149.835938 66.277344 C 148.710938 66.671875 147.824219 67.703125 147.863281 68.578125 C 147.90625 69.453125 148.851563 69.84375 149.976563 69.445313 C 151.105469 69.050781 151.984375 68.019531 151.945313 67.144531 C 151.90625 66.269531 150.964844 65.878906 149.835938 66.277344 Z M 149.835938 66.277344 "/>
<path style=" stroke:none;fill-rule:evenodd;fill:rgb(70.506287%,80.076599%,83.984375%);fill-opacity:1;" d="M 132.835938 100.59375 C 125.929688 95.722656 111.558594 95.175781 111.539063 82.996094 C 111.554688 77.234375 116.773438 71.289063 125.132813 71.3125 C 131.257813 71.308594 138.039063 75.019531 144.265625 81.132813 C 148.15625 79.246094 154.804688 82.835938 154.183594 89.953125 C 157.742188 99.765625 152.960938 108.570313 145.085938 108.601563 C 142.921875 108.601563 141.152344 108.113281 139.679688 107.273438 C 148.359375 104.910156 151.09375 99.976563 151.089844 92.644531 C 151.152344 91.335938 151.046875 90.113281 150.382813 88.953125 C 149.753906 88.03125 149.109375 88.683594 149.507813 89.585938 C 149.859375 90.652344 150.027344 91.835938 150.007813 92.960938 C 150.023438 100.730469 144.84375 105.035156 138.304688 106.320313 C 135.453125 103.964844 133.890625 100.09375 132.476563 96.226563 C 130.214844 90.039063 127.050781 83.871094 122.15625 83.9375 C 119.828125 83.925781 116.921875 85.757813 116.90625 88.378906 C 116.925781 93.035156 126.511719 95.644531 131.488281 97.261719 C 131.703125 98.371094 132.152344 99.484375 132.835938 100.59375 Z M 150.390625 84.664063 C 147.835938 85.976563 145.773438 85.304688 144.820313 83.527344 C 147.046875 81.289063 149.980469 82.21875 150.390625 84.664063 Z M 153.101563 89.925781 C 151.390625 89.527344 150.691406 87.355469 151.351563 85.078125 C 152.714844 86.03125 153.671875 87.203125 153.101563 89.925781 Z M 153.101563 89.925781 "/>
<path style=" stroke:none;fill-rule:evenodd;fill:rgb(100%,100%,100%);fill-opacity:1;" d="M 118.476563 88.054688 C 118.480469 87.691406 118.578125 87.339844 118.753906 87.007813 L 122.195313 89.585938 L 120.328125 91.492188 C 119.199219 90.523438 118.480469 89.398438 118.476563 88.054688 Z M 119.453125 86.121094 C 120.214844 85.425781 121.320313 84.953125 122.402344 84.964844 C 123.328125 84.964844 124.378906 85.460938 125.421875 86.296875 L 122.898438 88.871094 Z M 126.269531 87.046875 C 127.050781 87.808594 127.808594 88.742188 128.488281 89.777344 L 126.484375 91.726563 L 123.691406 89.496094 Z M 129.097656 90.773438 C 129.675781 91.785156 130.171875 92.867188 130.539063 93.964844 L 130.273438 94.746094 L 127.328125 92.398438 Z M 129.820313 96.058594 C 128.433594 95.511719 126.839844 94.933594 125.28125 94.28125 L 126.714844 92.96875 L 130.027344 95.453125 Z M 124.296875 93.851563 C 123.101563 93.3125 121.96875 92.714844 121.027344 92.039063 L 122.984375 90.175781 L 125.859375 92.328125 Z M 124.296875 93.851563 "/>
<path style=" stroke:none;fill-rule:evenodd;fill:rgb(0%,47.068787%,72.851563%);fill-opacity:1;" d="M 116.734375 94.914063 C 111.089844 92.136719 109.222656 87.003906 109.488281 79.949219 C 106.328125 72.523438 97.027344 68.585938 90.144531 68.570313 C 79.515625 68.546875 70.867188 77.4375 70.878906 87.101563 C 70.855469 95.195313 76.378906 101.230469 81.609375 101.21875 C 85.398438 101.234375 91.613281 98.746094 91.605469 94.414063 C 91.632813 92.46875 90.621094 88.570313 89.089844 88.566406 C 88.113281 88.578125 86.742188 91.328125 86.484375 93.359375 C 88.433594 93.308594 90.058594 93.617188 90.0625 95.472656 C 90.066406 96.644531 88.65625 97.96875 86.320313 97.960938 C 84.964844 97.964844 83.753906 97.871094 82.503906 97.664063 C 81.839844 97.550781 82.46875 96.804688 83.070313 97.019531 C 85.769531 97.796875 89.414063 97.621094 89.410156 95.554688 C 89.433594 94.371094 87.429688 93.175781 83.234375 94.824219 C 83.214844 91.007813 80.160156 89.660156 77.136719 91.164063 C 76.457031 91.496094 76.300781 90.78125 76.558594 90.609375 C 76.941406 90.390625 77.414063 90.269531 78.113281 90.273438 C 77.976563 89.570313 77.410156 89.109375 76.40625 88.890625 C 75.535156 77.738281 84.34375 73.121094 90.714844 73.121094 C 99.839844 73.121094 106.605469 80.835938 105.992188 90.191406 C 97.726563 94.320313 90.4375 103.242188 83.542969 114.117188 C 88.632813 113.996094 91.859375 115.800781 93.230469 119.535156 C 95.855469 109.566406 103.933594 101.445313 116.734375 94.914063 Z M 86.035156 93.371094 C 85.195313 93.445313 84.402344 93.613281 83.660156 93.878906 C 83.347656 90.984375 84.847656 87.550781 86.394531 87.539063 C 88.714844 87.527344 85.734375 91.371094 86.035156 93.371094 Z M 83.152344 91.679688 C 82.632813 91.085938 82.019531 90.578125 81.210938 90.277344 C 81.628906 88.847656 82.195313 88.140625 82.902344 88.152344 C 83.429688 88.164063 83.71875 88.609375 83.765625 89.484375 C 83.464844 90.164063 83.265625 90.902344 83.152344 91.679688 Z M 83.152344 91.679688 "/>
<path style=" stroke:none;fill-rule:evenodd;fill:rgb(0%,47.068787%,72.851563%);fill-opacity:1;" d="M 63.757813 97.703125 C 63.707031 94.890625 61.539063 90.511719 56.746094 90.496094 C 53.085938 90.519531 49.589844 92.960938 49.617188 95.902344 C 49.613281 97.335938 50.582031 99.046875 52.648438 100.335938 C 53.398438 100.828125 53.046875 102.164063 51.992188 101.890625 C 49.941406 101.023438 47.832031 99.175781 47.800781 96.351563 C 47.820313 91.988281 52.378906 88.820313 56.734375 88.804688 C 62.472656 88.824219 65.734375 93.898438 65.734375 97.746094 C 65.746094 103.113281 58.847656 106.039063 52.453125 110.320313 C 46.71875 114.152344 41.410156 119.210938 41.453125 125.800781 C 41.632813 134.863281 49.214844 143.109375 59.945313 143.074219 C 67.394531 143.105469 74.09375 140.46875 78.113281 136.578125 C 78.570313 136.953125 79.054688 137.296875 79.570313 137.613281 C 74.128906 142.972656 66.851563 144.914063 60.664063 144.945313 C 48.09375 144.933594 39.476563 136.46875 39.519531 126.222656 C 39.503906 117.851563 45.683594 112.464844 51.726563 108.710938 C 57.765625 104.953125 63.660156 102.539063 63.757813 97.703125 Z M 63.757813 97.703125 "/>
<path style=" stroke:none;fill-rule:evenodd;fill:rgb(0%,47.068787%,72.851563%);fill-opacity:1;" d="M 156.566406 92.523438 C 169.753906 98.214844 174.296875 108.671875 174.253906 118.34375 C 174.253906 130.203125 169.105469 137.367188 160.519531 137.394531 C 155.84375 137.386719 152.785156 132.902344 152.789063 129.410156 C 152.847656 127.085938 153.753906 125.828125 154.675781 125.808594 C 156.515625 125.808594 157.765625 128.535156 158.097656 130.664063 C 156.214844 131.011719 155.640625 131.960938 155.671875 133.1875 C 155.671875 135.644531 160.121094 135.824219 162.503906 135.257813 L 162.144531 134.628906 C 160.113281 135.347656 156.382813 134.898438 156.386719 133.097656 C 156.382813 130.929688 160.214844 131.171875 162.683594 131.570313 C 162.21875 127.839844 165.300781 127.09375 167.632813 127.429688 C 170.425781 115.78125 167.953125 104.425781 157.378906 99.089844 C 157.210938 96.898438 156.929688 94.710938 156.566406 92.523438 Z M 158.734375 130.617188 C 158.550781 128.367188 157.8125 126.597656 156.261719 125.410156 C 156.8125 124.703125 157.753906 124.328125 158.59375 124.335938 C 160.105469 124.328125 160.804688 127.316406 160.464844 130.6875 C 159.886719 130.601563 159.3125 130.578125 158.734375 130.617188 Z M 160.953125 130.734375 L 161.886719 130.894531 C 161.84375 129.414063 162.253906 128.210938 163.640625 127.601563 C 163.65625 126.1875 162.945313 125.050781 161.769531 125.058594 C 161.265625 125.0625 160.953125 125.34375 160.695313 125.78125 C 161.199219 127.363281 161.261719 129.027344 160.953125 130.734375 Z M 160.953125 130.734375 "/>
<path style=" stroke:none;fill-rule:evenodd;fill:rgb(0%,47.068787%,72.851563%);fill-opacity:1;" d="M 83.378906 138.46875 C 86.445313 138.578125 88.761719 137.785156 90.453125 136.226563 C 88.746094 143.234375 89.265625 149.398438 93.253906 153.785156 C 91.886719 156.808594 83.546875 161.027344 83.53125 162.539063 C 83.535156 163.71875 94.976563 165.078125 95.023438 170.976563 C 95.027344 171.71875 94.789063 172.324219 94.398438 172.953125 C 93.59375 171.34375 92.632813 170.289063 91.589844 169.621094 C 91.253906 169.414063 90.792969 169.703125 91.226563 170.144531 C 93.230469 172.050781 94.222656 173.976563 94.242188 175.355469 C 94.238281 176.621094 92.914063 177.597656 91.589844 178.011719 C 91.84375 175.34375 91.039063 173.089844 89.355469 171.1875 C 89.035156 170.902344 88.394531 171.328125 88.839844 171.8125 C 92.136719 175.03125 91.085938 180.558594 87.589844 180.566406 C 85.191406 180.558594 83.960938 178.511719 83.945313 176.605469 C 83.964844 174.800781 84.46875 173.070313 84.46875 170.71875 C 84.46875 166.757813 76.820313 164.988281 76.820313 161.808594 C 76.785156 157.761719 88.558594 157.726563 88.578125 148.414063 C 88.554688 145.019531 86.710938 141.515625 83.378906 138.46875 Z M 83.378906 138.46875 "/>
<path style=" stroke:none;fill-rule:evenodd;fill:rgb(0%,47.068787%,72.851563%);fill-opacity:1;" d="M 108.121094 107.195313 C 111.347656 105.054688 115.003906 103.726563 119.175781 103.378906 C 118.742188 104.164063 118.515625 104.949219 118.503906 105.734375 C 122.503906 105.429688 125.867188 105.914063 128.605469 107.195313 C 127.941406 107.460938 127.433594 107.835938 127.089844 108.316406 C 132.351563 111.371094 136.171875 116.191406 136.179688 121.730469 C 136.191406 124.765625 135.296875 127.699219 134.101563 130.371094 C 132.738281 129.996094 131.371094 129.539063 130.007813 129.023438 C 129.164063 126.835938 126.222656 124.09375 120.691406 124.109375 C 115.277344 124.101563 109.121094 125.960938 109.753906 128.800781 C 100.6875 130.40625 95.023438 134.378906 91.679688 139.96875 C 91.382813 137.210938 91.886719 134.871094 93.195313 132.953125 L 92.582031 132.109375 C 90.304688 135.265625 87.308594 136.726563 83.714844 136.710938 C 78.1875 136.722656 75.347656 130.507813 75.347656 124.984375 C 75.359375 119.453125 80.511719 115.714844 84.777344 115.722656 C 91.417969 115.71875 92.808594 123.808594 96.003906 123.804688 C 97.382813 123.8125 97.4375 122.515625 96.003906 122.515625 C 95.410156 122.492188 94.921875 122.121094 94.539063 121.5625 C 96.703125 113.371094 100.910156 107.289063 108.121094 104.277344 C 107.804688 105.488281 108.121094 106.222656 108.121094 107.195313 Z M 109.078125 121.683594 C 108.371094 121.773438 107.894531 122.539063 108.671875 122.539063 C 110.484375 122.527344 111.972656 122.140625 113.242188 121.496094 C 112.921875 122.253906 112.378906 123.011719 111.554688 123.769531 C 111.34375 123.96875 111.898438 124.453125 112.355469 124.09375 C 113.929688 122.972656 115.414063 121.121094 115.410156 120.09375 C 115.453125 119.789063 114.996094 119.230469 114.351563 119.820313 C 112.972656 120.839844 111.324219 121.4375 109.078125 121.683594 Z M 108.003906 119.324219 C 110.261719 119.105469 112.074219 118.558594 113.652344 117.613281 C 114.339844 117.128906 115.683594 117.730469 114.609375 118.347656 C 112.488281 119.515625 110.296875 120.148438 108.035156 120.316406 C 106.996094 120.414063 107.421875 119.371094 108.003906 119.324219 Z M 127.960938 123.046875 C 129.011719 123.003906 129.453125 122.472656 128.726563 122.386719 C 126.632813 122.023438 124.796875 121.242188 123.171875 120.109375 C 122.820313 119.804688 122.21875 120.226563 122.414063 120.652344 C 123.355469 122.34375 124.644531 123.527344 126.355469 124.105469 C 127.300781 124.335938 127.636719 123.613281 127.128906 123.527344 C 126.253906 123.203125 125.671875 122.738281 125.601563 122.113281 C 126.277344 122.703125 127.140625 123.019531 127.960938 123.046875 Z M 123.441406 118.902344 C 124.945313 119.703125 128.222656 121.164063 129.628906 121.164063 C 131.140625 121.164063 130.921875 120.296875 130.410156 120.1875 C 128.390625 119.824219 126.546875 119.160156 124.867188 118.199219 C 123.703125 117.589844 122.859375 118.597656 123.441406 118.902344 Z M 88.242188 125.109375 C 88.234375 122.238281 86.550781 119.851563 83.828125 119.855469 C 81.832031 119.851563 79.085938 123.128906 79.101563 126.371094 C 79.089844 130.476563 81.972656 133.613281 84.558594 133.621094 C 86.382813 133.609375 88.871094 132.414063 89.621094 130.886719 C 90.246094 129.679688 88.96875 129.664063 88.730469 130.121094 C 87.722656 131.441406 86.453125 132.164063 84.867188 132.179688 C 82.496094 132.164063 80.523438 129.144531 80.511719 126.703125 C 80.511719 123.882813 82.289063 121.363281 83.730469 121.363281 C 85.117188 121.371094 87.078125 122.476563 87.078125 125.289063 C 87.070313 126.953125 86.671875 127.945313 85.511719 127.9375 C 85.050781 127.949219 84.671875 127.527344 84.378906 127.136719 C 84.070313 126.664063 83.425781 127.425781 83.730469 127.84375 C 84.378906 128.703125 85.183594 129.175781 85.789063 129.164063 C 86.972656 129.238281 88.214844 127.867188 88.242188 125.109375 Z M 88.242188 125.109375 "/>
<path style=" stroke:none;fill-rule:evenodd;fill:rgb(0%,47.068787%,72.851563%);fill-opacity:1;" d="M 135.730469 130.1875 C 137.253906 127.035156 137.4375 122.546875 137.140625 117.574219 C 138.84375 116.390625 140.355469 115.789063 141.671875 115.773438 C 146.203125 115.757813 148.128906 120.9375 148.144531 124.34375 C 148.128906 128.03125 145.757813 131.128906 140.453125 132.476563 C 139.003906 131.714844 137.441406 130.949219 135.730469 130.1875 Z M 141.421875 123.945313 C 141.394531 124.363281 141.210938 124.863281 140.851563 124.867188 C 140.390625 124.863281 140.109375 124.160156 140.089844 122.804688 C 140.09375 121.023438 141.296875 120.246094 142.152344 120.246094 C 143.722656 120.246094 144.394531 122.585938 144.40625 123.78125 C 144.398438 126.289063 143.386719 128.21875 141.554688 128.203125 C 140.765625 128.214844 140.140625 127.8125 139.683594 127.449219 C 139.320313 127.109375 138.515625 127.464844 138.753906 127.972656 C 139.382813 129.035156 140.296875 129.515625 141.152344 129.511719 C 143.683594 129.519531 145.589844 127.152344 145.574219 123.503906 C 145.574219 121.78125 144.558594 118.789063 142.050781 118.808594 C 140.757813 118.808594 138.761719 120.257813 138.753906 122.789063 C 138.761719 124.15625 139.527344 126.203125 141.003906 126.203125 C 141.855469 126.210938 142.386719 125.273438 142.386719 124.515625 C 142.394531 123.109375 141.410156 123.429688 141.421875 123.945313 Z M 141.421875 123.945313 "/>
<path style=" stroke:none;fill-rule:evenodd;fill:rgb(0%,47.068787%,72.851563%);fill-opacity:1;" d="M 121.523438 176.132813 C 115.714844 172.816406 111.898438 168.78125 109.445313 164.257813 C 103.1875 162.347656 98.246094 159.1875 94.398438 154.996094 C 92.636719 158.3125 86.898438 160.878906 86.902344 161.839844 C 86.898438 162.90625 96.839844 164.785156 96.816406 170.898438 C 96.808594 172.175781 96.214844 173.347656 95.40625 174.472656 C 95.984375 177.003906 94.59375 180.664063 91.683594 179.90625 C 90.636719 181.871094 89.003906 182.621094 86.957031 182.472656 C 85.261719 182.492188 81.867188 180.257813 81.878906 177.730469 C 81.84375 175.171875 82.738281 172.242188 82.222656 169.390625 C 81.832031 167.589844 75.464844 166.015625 75.476563 161.992188 C 75.464844 156.429688 86.914063 156.027344 86.902344 148.203125 C 86.894531 145.609375 85.761719 143.714844 84.132813 141.203125 C 66.976563 149.839844 62.5625 164.835938 62.542969 180.257813 C 62.578125 189.503906 64.523438 198.746094 65.511719 207.988281 C 62.628906 206.699219 58.886719 207.746094 58.164063 209.546875 L 57.359375 209.546875 C 56.300781 207.078125 52.382813 204.265625 49.359375 204.367188 C 48.269531 204.382813 46.988281 205.136719 46.992188 206.226563 C 46.984375 207.640625 53.828125 215.046875 62.089844 215.035156 C 67.695313 215.039063 71.503906 212.203125 71.503906 208.039063 C 71.488281 202.453125 67.5625 188.53125 67.476563 181.769531 C 67.40625 171.976563 69.796875 160.527344 76.589844 152.027344 C 77.511719 150.972656 78.890625 151.394531 77.894531 152.933594 C 75.148438 157.808594 72.621094 164.113281 72.609375 171.199219 C 72.605469 184.855469 81.019531 195.628906 81.011719 202.855469 C 81.03125 209.546875 73.496094 218.605469 73.515625 226.558594 C 73.539063 231.914063 75.433594 237.671875 78.09375 243.570313 C 75.863281 242.746094 73.816406 242.476563 71.855469 242.460938 C 65.863281 242.460938 57.53125 248.652344 57.511719 252.878906 C 57.527344 253.765625 58.351563 254.941406 59.976563 254.742188 C 60.398438 251.90625 62.105469 249.558594 65.363281 247.695313 C 65.644531 247.558594 66.007813 247.84375 65.613281 248.097656 C 62.554688 250.238281 60.453125 252.820313 60.492188 255.34375 C 60.492188 256.503906 61.621094 258.867188 63.550781 257.453125 C 63.726563 254.140625 65.101563 251.3125 68.230469 249.203125 C 68.640625 248.949219 69.402344 249.367188 68.734375 249.808594 C 65.957031 251.84375 64.347656 255.070313 64.355469 257.308594 C 64.355469 259.050781 65.261719 261.734375 67.378906 261.734375 C 69.144531 261.753906 70.621094 260.410156 71.457031 259.070313 C 73.003906 256.703125 73.707031 245.902344 79.457031 245.882813 C 80.863281 245.882813 82.253906 246.953125 82.269531 249.105469 C 82.269531 250.5625 79.960938 255.597656 83.628906 255.597656 C 85.558594 255.597656 87.320313 252.609375 87.554688 249.808594 C 82.488281 245.308594 79.304688 238.453125 79.300781 230.785156 C 79.300781 224.242188 81.917969 218.304688 87.152344 212.972656 C 84.566406 211.320313 82.160156 207.609375 82.171875 203.308594 C 82.207031 195.882813 89.457031 189.3125 96.109375 189.316406 C 100.027344 189.398438 103.132813 191.6875 105.570313 195.40625 C 106.769531 192.144531 108.296875 188.992188 110.300781 185.996094 C 103.816406 180.984375 98.832031 173.847656 98.832031 168.183594 C 98.8125 165.914063 99.128906 163.585938 99.785156 161.1875 C 104.128906 169.71875 109.5625 175.753906 116.191406 179.050781 C 117.902344 177.945313 119.679688 176.972656 121.523438 176.132813 Z M 57.804688 208.507813 C 56.058594 206.289063 53.851563 204.453125 50.601563 203.679688 C 50.160156 201.941406 51.539063 200.820313 52.628906 200.828125 C 53.84375 200.835938 57.164063 204.234375 59.136719 207.246094 C 58.628906 207.601563 58.179688 208.019531 57.804688 208.507813 Z M 62.496094 206.246094 C 62.945313 206.214844 63.398438 206.246094 63.851563 206.351563 C 63.136719 203.675781 61.535156 199.371094 60.058594 199.367188 C 59.464844 199.371094 58.957031 199.695313 58.496094 200.289063 C 60.007813 201.800781 61.628906 204.257813 62.496094 206.246094 Z M 59.519531 207.019531 C 60.308594 206.683594 61.128906 206.453125 61.980469 206.324219 C 60.835938 204.035156 57.894531 199.527344 56.316406 199.546875 C 55.609375 199.554688 54.539063 200.007813 54.1875 200.90625 C 56.367188 202.691406 58.097656 204.757813 59.519531 207.019531 Z M 59.519531 207.019531 "/>
<path style=" stroke:none;fill-rule:evenodd;fill:rgb(70.506287%,80.076599%,83.984375%);fill-opacity:1;" d="M 90.960938 145.828125 C 91.15625 137.800781 100.789063 131.539063 110.605469 129.523438 C 111.03125 124.039063 128.546875 123.765625 128.851563 129.441406 C 144.527344 133.746094 147.15625 139.597656 147.183594 145.164063 C 147.183594 154.132813 136.550781 164.371094 120.386719 164.355469 C 107.199219 164.335938 90.9375 154.078125 90.960938 145.828125 Z M 116.28125 127.921875 C 115.078125 128.40625 114.285156 129.316406 114.503906 129.953125 C 114.722656 130.59375 115.871094 130.722656 117.074219 130.238281 C 118.273438 129.753906 119.070313 128.84375 118.851563 128.203125 C 118.628906 127.566406 117.480469 127.4375 116.28125 127.921875 Z M 124.882813 128.246094 C 126.085938 128.734375 126.878906 129.644531 126.660156 130.285156 C 126.441406 130.921875 125.289063 131.050781 124.089844 130.566406 C 122.886719 130.078125 122.09375 129.171875 122.3125 128.535156 C 122.53125 127.894531 123.683594 127.769531 124.882813 128.246094 Z M 122.277344 133.394531 C 126.089844 139.617188 129.339844 148.011719 130.335938 156.449219 C 115.785156 157.691406 114.945313 147.398438 110.359375 144.429688 C 109.257813 143.839844 108.445313 144.96875 109.699219 145.578125 C 113.503906 147.484375 113.652344 157.238281 126.222656 157.769531 C 127.054688 162.65625 130.441406 161.496094 131.730469 159.164063 C 133.503906 160.730469 136.589844 160.246094 135.839844 156.285156 C 137.878906 155.34375 139.480469 154.535156 139.496094 152.578125 C 139.484375 149.886719 137.867188 145.734375 141.429688 142.863281 C 142.523438 142.152344 141.671875 141.503906 140.855469 141.953125 C 136.777344 144.429688 138.289063 149.523438 138.304688 152.664063 C 138.339844 154.4375 134.453125 155.429688 131.8125 156.203125 C 130.449219 147.445313 127.304688 139.992188 123.4375 133.074219 C 122.960938 132.238281 121.65625 132.390625 122.277344 133.394531 Z M 122.277344 133.394531 "/>
<path style=" stroke:none;fill-rule:evenodd;fill:rgb(100%,100%,100%);fill-opacity:1;" d="M 127.003906 157.722656 C 128.214844 157.757813 129.421875 157.691406 130.628906 157.527344 C 131.265625 158.761719 130.144531 160.242188 129.089844 160.246094 C 127.839844 160.246094 127.070313 158.878906 127.003906 157.722656 Z M 132.023438 157.355469 C 132.171875 158.335938 132.820313 159.066406 133.886719 159.074219 C 134.785156 159.070313 135.152344 157.644531 134.941406 156.519531 C 133.96875 156.898438 132.996094 157.175781 132.023438 157.355469 Z M 132.023438 157.355469 "/>
<path style=" stroke:none;fill-rule:evenodd;fill:rgb(0%,47.068787%,72.851563%);fill-opacity:1;" d="M 26.980469 171.675781 C 26.964844 160.773438 36.214844 153.691406 44.667969 153.691406 C 51.984375 153.691406 57.707031 158.238281 57.714844 165.121094 C 57.742188 169.941406 53.792969 173.769531 49.671875 173.761719 C 47.648438 173.78125 45.703125 172.648438 44.550781 171.261719 C 43.933594 170.488281 45.171875 169.453125 45.800781 170.070313 C 47.117188 171.277344 48.503906 171.738281 49.851563 171.738281 C 53.492188 171.726563 55.996094 167.65625 55.984375 164.945313 C 55.964844 160.210938 51.738281 155.429688 44.789063 155.414063 C 37.496094 155.414063 28.773438 161.335938 28.710938 171.617188 C 28.707031 186.785156 48.664063 196.804688 61.632813 193.117188 L 61.882813 195.078125 C 45.957031 198.414063 27.007813 187.039063 26.980469 171.675781 Z M 70.796875 192.746094 L 70.484375 190.664063 C 71.664063 190.175781 72.8125 189.589844 73.933594 188.90625 L 74.558594 190.570313 C 73.371094 191.398438 72.113281 192.113281 70.796875 192.746094 Z M 70.796875 192.746094 "/>
<path style=" stroke:none;fill-rule:evenodd;fill:rgb(0%,47.068787%,72.851563%);fill-opacity:1;" d="M 15.148438 252.386719 C 15.105469 235.816406 29.8125 220.871094 49.078125 211.746094 C 53.46875 214.285156 59.546875 216.660156 63.671875 216.523438 C 70.851563 216.539063 73.894531 211.953125 72.292969 203.304688 C 74.636719 202.359375 76.976563 201.734375 79.320313 201.429688 C 81.035156 210.601563 65.226563 219.855469 74.484375 239.652344 C 74.792969 240.164063 74.390625 240.8125 73.660156 240.816406 C 64.710938 240.695313 55.652344 247.285156 55.667969 252.988281 C 55.691406 254.503906 56.464844 255.738281 58.609375 256.695313 C 58.882813 259.140625 60.316406 260.214844 63.195313 260.050781 C 63.777344 263.359375 66.464844 264.011719 70.589844 262.847656 C 73.394531 270.304688 71.308594 277.765625 65.175781 285.222656 C 64.042969 284.566406 63.101563 285.753906 63.945313 286.183594 C 72.078125 289.976563 84.339844 296.382813 89.046875 296.378906 C 91.550781 296.386719 91.066406 293.242188 92.082031 291.671875 C 93.1875 293.085938 93.210938 296.039063 95.285156 296.039063 C 97.230469 296.050781 98.808594 293.433594 98.804688 290.132813 C 98.800781 287.96875 97.71875 285.453125 97.859375 283.378906 C 98.042969 280.710938 100.671875 278.722656 103.726563 278.714844 C 105.949219 278.757813 108.023438 280.289063 108.050781 282.488281 C 108.054688 284.769531 107.046875 287.886719 107.210938 290.703125 C 107.363281 293.351563 108.632813 295.773438 110.511719 295.765625 C 111.296875 295.769531 111.96875 295.019531 112.296875 294.0625 C 113.609375 296.140625 116.09375 298.734375 112.414063 301.671875 C 111.867188 299.097656 110.535156 296.289063 106.238281 296.296875 C 103.347656 296.28125 102.921875 298.285156 102.710938 300.441406 C 102.503906 302.53125 102.523438 304.761719 99.59375 305.523438 C 92.445313 307.28125 84.210938 308.464844 76.671875 308.492188 C 38.359375 308.503906 15.140625 277.925781 15.148438 252.386719 Z M 112.515625 293.402344 C 113.464844 294.632813 114.570313 296.078125 114.714844 297.195313 C 115.90625 294.308594 115.261719 291.78125 113.179688 290.535156 C 112.882813 291.492188 112.679688 292.449219 112.515625 293.402344 Z M 113.4375 290.074219 C 113.554688 288.726563 114.089844 287.789063 114.410156 286.644531 C 115.710938 288.410156 115.953125 290.339844 115.480469 292.378906 C 115.140625 291.339844 114.464844 290.570313 113.4375 290.074219 Z M 113.4375 290.074219 "/>
<path style=" stroke:none;fill-rule:evenodd;fill:rgb(0%,47.068787%,72.851563%);fill-opacity:1;" d="M 150.277344 190.8125 L 150.355469 204.132813 C 152.886719 203.921875 155.257813 204.023438 157.476563 204.445313 C 159.496094 198.40625 156.921875 192.921875 150.277344 190.8125 Z M 164.476563 211.855469 C 165.753906 208.894531 163.59375 206.511719 158.578125 204.605469 C 163.175781 203.113281 175.257813 211.964844 180.328125 218.003906 C 178.839844 218.328125 177.339844 218.765625 175.84375 219.304688 C 173.640625 216.820313 169.621094 214.335938 164.476563 211.855469 Z M 164.476563 211.855469 "/>
<path style=" stroke:none;fill-rule:evenodd;fill:rgb(0%,47.068787%,72.851563%);fill-opacity:1;" d="M 174.113281 220.132813 C 171.296875 216.136719 166.273438 214.902344 162.351563 212.289063 C 164.96875 209.089844 161.15625 205.242188 153.304688 205.234375 C 150.761719 205.242188 148.140625 206.003906 145.675781 207.203125 C 144.945313 207.613281 144.660156 206.871094 145.046875 206.613281 C 146.289063 205.773438 147.640625 205.144531 149.097656 204.722656 C 148.925781 197.121094 148.679688 186.871094 147.425781 184.386719 C 144.773438 178.851563 138.523438 175.890625 132.652344 175.894531 C 125.28125 175.859375 111.304688 178.992188 106.710938 198.785156 C 107.550781 200.054688 108.503906 201.191406 109.523438 202.238281 C 109.90625 202.671875 109.242188 203.246094 108.738281 202.871094 C 107.617188 202.117188 106.546875 201.210938 105.511719 200.148438 C 104.328125 195.746094 101.839844 191.3125 95.957031 191.324219 C 89.925781 191.339844 83.941406 197.007813 83.957031 203.933594 C 83.945313 208.117188 88.917969 213.890625 94.851563 213.902344 C 96.628906 213.894531 98.503906 213.273438 100.59375 211.894531 C 101.414063 211.328125 102.210938 212.277344 101.421875 212.800781 C 98.96875 214.414063 96.515625 215.089844 94.0625 215.121094 C 92.507813 215.195313 90.792969 214.859375 88.953125 214.179688 C 82.09375 220.234375 80.902344 225.851563 80.886719 230.8125 C 81.179688 252.902344 109.128906 261.4375 128.921875 261.472656 C 149.855469 261.464844 164.183594 254.664063 172.335938 247.078125 C 178.800781 241.054688 181.460938 234.539063 186.152344 230.535156 C 184.085938 230.476563 181.964844 230.878906 179.816406 231.597656 C 179.136719 231.835938 179.105469 231.59375 179.585938 231.324219 C 183.382813 229.351563 191.691406 230.160156 191.691406 224.449219 C 191.675781 222.089844 187.921875 219.316406 184.597656 219.324219 C 174.949219 219.351563 157.699219 235.828125 143.785156 235.816406 C 139.058594 235.824219 133.261719 233.664063 127.738281 229.90625 C 126.410156 229.027344 126.601563 228.664063 128.050781 229.550781 C 133.660156 232.605469 139.078125 234.253906 143.785156 234.277344 C 152.453125 234.265625 159.589844 228.34375 167.605469 223.539063 C 164.636719 217.390625 159.339844 215.96875 156.160156 213.261719 C 155.410156 212.671875 155.980469 212.21875 156.484375 212.59375 C 160.726563 215.894531 166.070313 217.578125 168.59375 222.953125 C 170.378906 221.921875 172.210938 220.953125 174.113281 220.132813 Z M 142.183594 211.921875 C 140.738281 215.574219 142.441406 218.160156 148.328125 216.214844 C 148.960938 215.96875 149.414063 216.394531 148.640625 216.800781 C 145.121094 218.640625 140.378906 218.183594 140.386719 215.398438 C 140.398438 214.316406 140.703125 213.09375 141.660156 211.566406 C 141.980469 211.078125 142.46875 211.320313 142.183594 211.921875 Z M 148.023438 209.914063 C 149.796875 208.699219 151.699219 208.304688 152.273438 209.039063 C 152.851563 209.773438 151.878906 211.355469 150.109375 212.574219 C 148.339844 213.789063 146.433594 214.1875 145.855469 213.453125 C 145.28125 212.71875 146.253906 211.136719 148.023438 209.914063 Z M 158.84375 208.902344 C 157.070313 208.410156 155.171875 208.453125 154.59375 209.007813 C 154.015625 209.554688 154.988281 210.398438 156.761719 210.890625 C 158.53125 211.382813 160.4375 211.335938 161.011719 210.789063 C 161.589844 210.238281 160.617188 209.394531 158.84375 208.902344 Z M 141.628906 196.515625 C 144.171875 196.515625 146.234375 198.449219 146.234375 200.828125 C 146.234375 203.214844 144.171875 205.148438 141.628906 205.148438 C 139.089844 205.148438 137.027344 203.214844 137.027344 200.828125 C 137.027344 198.449219 139.089844 196.515625 141.628906 196.515625 Z M 128.796875 196.253906 C 132.6875 196.253906 135.839844 199.078125 135.839844 202.5625 C 135.839844 206.050781 132.6875 208.871094 128.796875 208.871094 C 124.910156 208.871094 121.753906 206.050781 121.753906 202.5625 C 121.753906 199.078125 124.910156 196.253906 128.796875 196.253906 Z M 137.128906 192.519531 C 138.199219 191.984375 139.273438 191.671875 140.347656 191.671875 C 142.386719 191.664063 144.148438 193.300781 145.320313 194.941406 C 145.636719 195.480469 145.160156 195.84375 144.8125 195.480469 C 143.492188 194.191406 142.015625 192.78125 140.238281 192.78125 C 139.253906 192.78125 138.265625 193.003906 137.28125 193.289063 C 136.785156 193.472656 136.609375 192.746094 137.128906 192.519531 Z M 118.652344 197.65625 C 120.253906 194.621094 122.90625 191.902344 125.128906 191.898438 C 126.964844 191.902344 129.109375 192.46875 130.894531 193.121094 C 131.351563 193.289063 131.203125 193.8125 130.746094 193.785156 C 125.265625 192.941406 122.949219 193.265625 119.328125 198.152344 C 118.789063 198.921875 118.414063 198.140625 118.652344 197.65625 Z M 132.929688 237.65625 C 135.183594 238.601563 139.804688 241.5625 145.488281 241.5625 C 149.878906 241.574219 156.109375 237.171875 159.589844 235.800781 C 160.371094 235.46875 160.566406 235.878906 159.941406 236.234375 C 155.34375 239.078125 150.324219 242.664063 145.097656 242.664063 C 140.949219 242.652344 136.40625 239.839844 132.652344 238.128906 C 131.992188 237.855469 132.453125 237.433594 132.929688 237.65625 Z M 95.214844 194.835938 C 98.128906 194.835938 100.183594 198.703125 100.195313 200.851563 C 100.179688 203.074219 98.804688 205.726563 96.304688 205.742188 C 94.515625 205.71875 93.519531 204.128906 93.53125 202.996094 C 93.53125 202.089844 94.59375 201.757813 94.652344 202.308594 C 94.808594 203.242188 95.269531 204.203125 96.039063 204.191406 C 97.519531 204.195313 98.394531 202.535156 98.382813 200.65625 C 98.394531 198.078125 96.738281 196.453125 94.589844 196.453125 C 92.628906 196.472656 89.859375 199.449219 89.871094 202.140625 C 89.863281 204.992188 91.714844 208.640625 95.117188 208.652344 C 96.269531 208.65625 97.425781 208.195313 98.582031 206.964844 C 99.242188 206.132813 100.425781 207.242188 99.535156 208.15625 C 98.105469 209.539063 96.414063 210.363281 94.851563 210.371094 C 90.792969 210.394531 88.417969 205.722656 88.417969 202.140625 C 88.433594 198.152344 92.101563 194.796875 95.214844 194.835938 Z M 95.214844 194.835938 "/>
<path style=" stroke:none;fill-rule:evenodd;fill:rgb(100%,100%,100%);fill-opacity:1;" d="M 141.738281 197.320313 C 143.882813 197.320313 145.628906 198.945313 145.628906 200.949219 C 145.628906 202.953125 143.882813 204.578125 141.738281 204.578125 C 139.59375 204.578125 137.851563 202.953125 137.851563 200.949219 C 137.851563 198.945313 139.59375 197.320313 141.738281 197.320313 Z M 139.855469 199.089844 C 140.671875 199.089844 141.324219 199.746094 141.324219 200.550781 C 141.324219 201.355469 140.671875 202.007813 139.855469 202.007813 C 139.046875 202.007813 138.390625 201.355469 138.390625 200.550781 C 138.390625 199.746094 139.046875 199.089844 139.855469 199.089844 Z M 128.824219 197.203125 C 132.144531 197.203125 134.835938 199.605469 134.835938 202.5625 C 134.835938 205.523438 132.144531 207.914063 128.824219 207.914063 C 125.511719 207.914063 122.824219 205.523438 122.824219 202.5625 C 122.824219 199.605469 125.511719 197.203125 128.824219 197.203125 Z M 131.617188 203.253906 C 132.507813 203.253906 133.230469 203.980469 133.230469 204.882813 C 133.230469 205.785156 132.507813 206.511719 131.617188 206.511719 C 130.726563 206.511719 130.003906 205.785156 130.003906 204.882813 C 130.003906 203.980469 130.726563 203.253906 131.617188 203.253906 Z M 131.617188 203.253906 "/>
<path style=" stroke:none;fill-rule:evenodd;fill:rgb(0%,47.068787%,72.851563%);fill-opacity:1;" d="M 154.964844 306.671875 C 157.320313 305.816406 158.019531 303.277344 158.015625 300.878906 C 158.015625 297.648438 156.261719 293.710938 148.0625 291.746094 C 147.589844 291.683594 147.601563 291.171875 148.0625 290.929688 C 169.53125 280.101563 189.289063 261.199219 189.300781 242.320313 C 189.285156 238.632813 188.695313 234.960938 187.769531 231.371094 C 179.0625 239.613281 179.550781 247.398438 162.574219 256.105469 C 167.648438 282.644531 127.589844 281.996094 133.921875 302.164063 C 144.621094 297.59375 143.460938 306.871094 137.363281 306.742188 C 137.664063 308.988281 139.195313 310.898438 141.253906 310.894531 C 144.378906 310.890625 145.863281 306.246094 145.789063 302.46875 C 145.765625 301.949219 146.371094 301.765625 146.445313 302.367188 C 146.730469 304.878906 146.113281 307.511719 144.828125 309.761719 C 150.179688 310.363281 150.859375 307.039063 150.398438 302.230469 C 150.347656 301.71875 150.761719 301.371094 150.878906 301.953125 C 151.296875 304.1875 151.257813 306.539063 150.363281 308.796875 C 154.523438 308.5625 155.210938 305.238281 154.5625 302.195313 C 154.402344 301.550781 155.023438 301.445313 155.144531 301.914063 C 155.472656 303.453125 155.46875 305.039063 154.964844 306.671875 Z M 154.964844 306.671875 "/>
<path style=" stroke:none;fill-rule:evenodd;fill:rgb(70.506287%,80.076599%,83.984375%);fill-opacity:1;" d="M 115.769531 283.1875 C 120.46875 280.503906 123.757813 277.703125 125.492188 274.777344 C 125.769531 274.328125 126.347656 274.527344 126.554688 274.777344 C 132.277344 280.730469 142.570313 281.601563 152.058594 277.175781 C 144.234375 283.84375 129.4375 286.921875 131.789063 301.695313 C 131.085938 302.089844 130.660156 302.660156 130.644531 303.492188 L 130.914063 319.019531 L 124.050781 319.894531 L 121.546875 303.984375 C 121.445313 303.179688 120.976563 302.703125 120.453125 302.785156 L 112.605469 303.984375 L 112.390625 302.894531 C 114.40625 301.96875 115.171875 300.871094 115.226563 298.566406 C 116.195313 297.035156 116.527344 295.445313 116.226563 293.796875 C 117.363281 290.308594 116.597656 287.773438 114.964844 285.664063 C 115.234375 284.84375 115.628906 284.144531 115.769531 283.1875 Z M 115.769531 283.1875 "/>
<path style=" stroke:none;fill-rule:evenodd;fill:rgb(0%,47.068787%,72.851563%);fill-opacity:1;" d="M 157.796875 306.859375 C 156.714844 307.914063 155.628906 308.394531 154.546875 308.289063 C 152.933594 309.84375 151.351563 310.246094 149.742188 309.996094 C 147.566406 311.703125 145.714844 311.972656 144.070313 311.351563 C 140.5625 313.429688 138.636719 312.359375 136.410156 308.808594 L 136.410156 317.988281 C 142.621094 317.117188 148.742188 315.839844 154.742188 314.015625 L 175.492188 338.578125 C 175.328125 342.046875 177.074219 346.09375 181.484375 346.089844 C 184.996094 346.09375 188.046875 343.757813 191.324219 342.59375 C 193.445313 343.691406 202.242188 342.511719 202.234375 339.492188 C 202.222656 338.597656 201.304688 337.445313 199.972656 337.464844 C 198.640625 337.460938 196.347656 338.859375 192.835938 338.859375 C 191.65625 338.863281 189.894531 337.847656 188.425781 337.386719 L 188.386719 336.949219 C 189.910156 337.414063 191.632813 338.34375 192.949219 338.339844 C 202.070313 338.324219 209.914063 326.007813 209.890625 323.195313 C 209.902344 321.890625 209.554688 321.226563 208.425781 321.203125 C 207.574219 321.203125 203.800781 328.710938 199.773438 331.820313 C 199.964844 332.039063 200.136719 332.265625 200.304688 332.488281 C 200.59375 332.882813 200.011719 333.230469 199.734375 332.933594 C 197.839844 330.910156 195.378906 329.976563 192.433594 329.953125 C 191.914063 329.953125 192.09375 329.21875 192.554688 329.199219 C 193.453125 329.171875 194.351563 329.230469 195.246094 329.402344 C 197.894531 325.304688 203.179688 321.246094 203.1875 317.113281 C 203.191406 315.019531 201.464844 313.652344 199.816406 313.65625 C 194.296875 313.691406 194.222656 333.074219 177.992188 335.914063 C 173.03125 324.34375 167.578125 313.289063 157.796875 306.859375 Z M 196.046875 329.539063 C 197.296875 329.945313 198.390625 330.542969 199.382813 331.285156 C 203.328125 327.511719 207.53125 321.851563 207.445313 318.546875 C 207.421875 316.871094 206.785156 315.8125 205.816406 315.828125 C 205.074219 315.789063 204.480469 316.144531 203.878906 316.835938 C 204.320313 320.9375 198.722656 325.664063 196.046875 329.539063 Z M 196.046875 329.539063 "/>
<path style=" stroke:none;fill-rule:evenodd;fill:rgb(70.506287%,80.076599%,83.984375%);fill-opacity:1;" d="M 67.144531 285.484375 C 73.40625 279.199219 75.472656 270.425781 71.992188 261.503906 C 74.753906 257.304688 74.859375 247.710938 79.132813 247.761719 C 82.960938 247.796875 76.058594 257.4375 83.554688 257.4375 C 86.542969 257.40625 88.59375 254.921875 88.917969 251.238281 C 100.699219 259.929688 116.765625 263.261719 126.382813 263.261719 C 138.414063 263.257813 150.28125 261.699219 160.980469 256.789063 C 162.046875 268.109375 154.152344 278.320313 140.351563 278.339844 C 135.742188 278.328125 131.113281 277.066406 126.296875 273.351563 C 125.839844 273.015625 125.261719 272.980469 124.984375 273.351563 C 122.609375 276.726563 119.714844 279.578125 115.691406 281.300781 C 115.140625 278.789063 113.535156 277.066406 110.753906 276.214844 C 111.742188 271.585938 115.503906 268.328125 115.46875 266.964844 C 115.46875 265.742188 113.964844 262.984375 110.84375 262.984375 C 107.011719 262.980469 100.910156 266.28125 97.757813 276.589844 C 93.355469 274.496094 90.246094 280.886719 90.121094 284.078125 C 85.582031 282.390625 82.539063 279.664063 79.195313 276.960938 C 78.066406 276.066406 77.898438 276.671875 78.464844 277.355469 C 81.65625 280.746094 85.238281 283.855469 90.0625 285.539063 C 90.023438 287.527344 90.121094 289.78125 90.214844 291.753906 C 90.3125 293.070313 89.820313 294.53125 87.535156 294.53125 C 83.992188 294.492188 74.027344 289.039063 67.273438 286.296875 C 66.882813 286.085938 66.960938 285.710938 67.144531 285.484375 Z M 67.144531 285.484375 "/>
<path style=" stroke:none;fill-rule:evenodd;fill:rgb(0%,47.068787%,72.851563%);fill-opacity:1;" d="M 74.128906 362.664063 C 70.722656 362.058594 68.8125 358.324219 68.757813 354.492188 C 68.707031 346.746094 72.984375 341.054688 82.070313 338.964844 C 82.472656 338.890625 82.398438 338.433594 82.070313 338.261719 C 64.53125 330.273438 35.351563 314.949219 35.367188 308.371094 C 35.378906 305.746094 41.046875 302.675781 47.390625 303.585938 C 61.511719 310.140625 77.179688 310.851563 93.628906 308.605469 C 97.796875 310.9375 100.855469 308.839844 106.589844 308.839844 C 108.191406 309.996094 110.914063 309.898438 112.429688 308.722656 L 115.113281 308.722656 C 116.085938 308.695313 116.816406 309.367188 116.980469 310.359375 L 118.382813 320.867188 L 109.28125 320.984375 C 107.863281 319.933594 106.574219 319.539063 104.960938 319.816406 C 81.933594 323.472656 72.378906 319.078125 55.335938 314.910156 C 54.300781 314.621094 53.738281 315.847656 54.398438 316.195313 C 65.339844 322.664063 76.09375 329.855469 86.273438 337.914063 C 97.886719 337.390625 99.832031 344.332031 99.816406 347.136719 C 99.8125 349.703125 98.742188 352.984375 96.550781 352.976563 C 95.820313 352.980469 93.746094 351.832031 93.746094 350.523438 C 93.738281 349.292969 95.15625 348.496094 95.148438 346.902344 C 95.152344 345.882813 93.496094 344.6875 90.359375 344.6875 C 88.773438 344.6875 86.238281 346.441406 86.273438 348.890625 C 86.246094 353.054688 91.90625 358.289063 91.878906 361.03125 C 91.703125 362.835938 90.796875 363.820313 89.425781 363.835938 C 85.679688 363.792969 82.59375 356.964844 82.421875 350.992188 C 82.445313 350.191406 81.839844 350.246094 81.839844 350.992188 C 81.582031 356.136719 82.917969 361.371094 86.566406 363.671875 C 86.128906 364.859375 85.101563 366.046875 83.9375 366.054688 C 81.464844 366.046875 76.238281 358.480469 78.800781 350.289063 C 79.015625 349.597656 78.265625 349.804688 78.101563 350.289063 C 76.480469 354.960938 77.847656 361.707031 80.4375 364.296875 C 74.914063 367.566406 72.085938 357.082031 74.363281 350.054688 C 74.570313 349.5625 74.046875 349.414063 73.898438 349.824219 C 72.15625 353.707031 72.234375 357.988281 74.128906 362.664063 Z M 74.128906 362.664063 "/>
<path style=" stroke:none;fill-rule:evenodd;fill:rgb(100%,95.701599%,50.193787%);fill-opacity:1;" d="M 99.488281 276.648438 C 102.175781 269.585938 107.089844 265.261719 110.527344 265.253906 C 111.796875 265.246094 113.140625 266.027344 113.148438 267.164063 C 113.148438 268.980469 108.476563 270.515625 108.261719 276.863281 C 104.6875 276.261719 102.296875 279.027344 99.488281 276.648438 Z M 99.488281 276.648438 "/>
<path style=" stroke:none;fill-rule:evenodd;fill:rgb(100%,100%,100%);fill-opacity:1;" d="M 95.359375 294.59375 C 94.945313 294.601563 94.570313 292.980469 93.765625 290.921875 C 93.007813 288.988281 91.855469 287.476563 91.855469 284.953125 C 91.839844 281.039063 94.546875 276.828125 99.058594 278.183594 C 97.460938 279.964844 96.355469 281.714844 96.363281 283.386719 C 96.378906 285.644531 97.355469 288.222656 97.371094 290.160156 C 97.382813 291.980469 96.230469 294.589844 95.359375 294.59375 Z M 95.359375 294.59375 "/>
<path style=" stroke:none;fill-rule:evenodd;fill:rgb(100%,100%,100%);fill-opacity:1;" d="M 110.660156 294.164063 C 111.644531 294.171875 111.34375 291.757813 111.921875 289.871094 C 112.449219 287.414063 113.628906 285.386719 113.628906 283.5625 C 113.640625 280.777344 111.28125 277.6875 107.269531 278.527344 C 108.738281 280.15625 109.746094 281.757813 109.738281 283.289063 C 109.726563 285.359375 108.429688 288.121094 108.414063 289.898438 C 108.402344 291.566406 109.863281 294.160156 110.660156 294.164063 Z M 110.660156 294.164063 "/>
<path style=" stroke:none;fill-rule:evenodd;fill:rgb(10.594177%,9.812927%,9.423828%);fill-opacity:1;" d="M 136.613281 169.503906 C 143.035156 173.414063 149.609375 176.882813 156.40625 179.679688 L 157.171875 178.496094 L 153.964844 176.894531 L 166.441406 158.144531 L 154.382813 151.316406 L 141.699219 170.550781 L 137.589844 168.320313 Z M 136.613281 169.503906 "/>
<path style=" stroke:none;fill-rule:evenodd;fill:rgb(94.139099%,48.631287%,0%);fill-opacity:1;" d="M 156.769531 167.484375 C 157.324219 167.484375 157.773438 167.933594 157.773438 168.488281 C 157.773438 169.039063 157.324219 169.496094 156.769531 169.496094 C 156.214844 169.496094 155.765625 169.039063 155.765625 168.488281 C 155.765625 167.933594 156.214844 167.484375 156.769531 167.484375 Z M 156.769531 167.484375 "/>
<path style=" stroke:none;fill-rule:evenodd;fill:rgb(94.139099%,48.631287%,0%);fill-opacity:1;" d="M 159.703125 163.371094 C 159.980469 163.554688 159.769531 164.347656 159.238281 165.136719 C 158.710938 165.929688 158.050781 166.421875 157.777344 166.234375 C 157.503906 166.050781 157.714844 165.257813 158.242188 164.46875 C 158.773438 163.675781 159.429688 163.183594 159.703125 163.371094 Z M 159.703125 163.371094 "/>
<path style=" stroke:none;fill-rule:evenodd;fill:rgb(94.139099%,48.631287%,0%);fill-opacity:1;" d="M 155.117188 162.613281 C 155.441406 162.539063 155.871094 163.238281 156.074219 164.171875 C 156.28125 165.101563 156.1875 165.914063 155.863281 165.984375 C 155.539063 166.058594 155.109375 165.359375 154.902344 164.429688 C 154.695313 163.496094 154.796875 162.683594 155.117188 162.613281 Z M 155.117188 162.613281 "/>
<path style=" stroke:none;fill-rule:evenodd;fill:rgb(94.139099%,48.631287%,0%);fill-opacity:1;" d="M 151.570313 165.488281 C 151.746094 165.203125 152.546875 165.386719 153.355469 165.894531 C 154.164063 166.398438 154.675781 167.035156 154.503906 167.316406 C 154.324219 167.597656 153.527344 167.414063 152.71875 166.910156 C 151.910156 166.40625 151.394531 165.769531 151.570313 165.488281 Z M 151.570313 165.488281 "/>
<path style=" stroke:none;fill-rule:evenodd;fill:rgb(94.139099%,48.631287%,0%);fill-opacity:1;" d="M 158.878906 169.78125 C 159.050781 169.496094 159.847656 169.683594 160.65625 170.1875 C 161.464844 170.691406 161.976563 171.328125 161.800781 171.613281 C 161.628906 171.894531 160.828125 171.710938 160.019531 171.203125 C 159.214844 170.699219 158.699219 170.0625 158.878906 169.78125 Z M 158.878906 169.78125 "/>
<path style=" stroke:none;fill-rule:evenodd;fill:rgb(94.139099%,48.631287%,0%);fill-opacity:1;" d="M 157.335938 170.871094 C 157.65625 170.804688 158.089844 171.496094 158.296875 172.433594 C 158.503906 173.363281 158.402344 174.175781 158.078125 174.246094 C 157.753906 174.320313 157.324219 173.621094 157.121094 172.691406 C 156.914063 171.761719 157.007813 170.949219 157.335938 170.871094 Z M 157.335938 170.871094 "/>
<path style=" stroke:none;fill-rule:evenodd;fill:rgb(94.139099%,48.631287%,0%);fill-opacity:1;" d="M 155.476563 170.65625 C 155.753906 170.839844 155.546875 171.632813 155.011719 172.421875 C 154.480469 173.214844 153.824219 173.703125 153.550781 173.519531 C 153.273438 173.335938 153.484375 172.539063 154.015625 171.753906 C 154.546875 170.960938 155.203125 170.46875 155.476563 170.65625 Z M 155.476563 170.65625 "/>
<path style=" stroke:none;fill-rule:evenodd;fill:rgb(94.139099%,48.631287%,0%);fill-opacity:1;" d="M 154.335938 169.261719 C 154.410156 169.585938 153.71875 170.023438 152.789063 170.242188 C 151.863281 170.464844 151.046875 170.378906 150.972656 170.058594 C 150.894531 169.734375 151.589844 169.296875 152.511719 169.074219 C 153.441406 168.855469 154.253906 168.9375 154.335938 169.261719 Z M 154.335938 169.261719 "/>
<path style=" stroke:none;fill-rule:evenodd;fill:rgb(94.139099%,48.631287%,0%);fill-opacity:1;" d="M 162.429688 166.980469 C 162.507813 167.304688 161.816406 167.742188 160.890625 167.964844 C 159.964844 168.183594 159.148438 168.101563 159.070313 167.777344 C 158.996094 167.453125 159.683594 167.015625 160.613281 166.796875 C 161.539063 166.574219 162.355469 166.660156 162.429688 166.980469 Z M 162.429688 166.980469 "/>
<path style=" stroke:none;fill-rule:evenodd;fill:rgb(95.701599%,58.396912%,18.041992%);fill-opacity:1;" d="M 106.53125 297.851563 C 106.210938 297.859375 105.882813 297.941406 105.574219 298.097656 C 106.601563 300.648438 107.699219 302.4375 108.898438 303.1875 C 109.519531 303.175781 110.171875 303.050781 110.847656 302.753906 C 109.972656 299.925781 108.425781 297.871094 106.53125 297.851563 Z M 104.925781 298.554688 C 103.597656 299.796875 103.027344 302.554688 105.632813 305.753906 C 106.359375 305.351563 106.886719 304.871094 107.222656 304.328125 C 107.015625 302.683594 106.191406 300.730469 104.925781 298.554688 Z M 104.925781 298.554688 "/>
<path style=" stroke:none;fill-rule:evenodd;fill:rgb(95.701599%,58.396912%,18.041992%);fill-opacity:1;" d="M 93.945313 336.917969 C 95.253906 337.273438 96.363281 337.757813 97.269531 338.378906 C 104.585938 338.023438 111.894531 338.4375 119.214844 339.285156 C 119.90625 338.238281 120.8125 337.316406 122.179688 336.664063 C 113.808594 336.292969 105.4375 336.105469 97.066406 336.265625 L 96.765625 327.109375 L 94.902344 327.109375 L 95.605469 335.765625 Z M 124.59375 335.511719 C 127.277344 335.027344 129.964844 334.941406 132.644531 335.261719 L 131.839844 332.59375 L 124.394531 333.347656 Z M 127.109375 331.988281 L 127.109375 330.582031 L 129.023438 330.582031 L 129.128906 331.9375 Z M 112.96875 305.570313 C 113.101563 306.238281 113.070313 306.894531 112.796875 307.566406 L 116.441406 307.179688 C 117.4375 307.0625 117.964844 308.164063 118.203125 309.34375 L 121.425781 327.15625 C 121.722656 328.71875 123.421875 329.433594 124.492188 329.417969 L 131.941406 328.914063 C 134.058594 328.863281 134.804688 327.585938 134.808594 326.402344 L 134.761719 306.121094 C 134.753906 305.675781 135.054688 305.3125 135.617188 305.214844 L 139.238281 304.714844 C 140.304688 304.589844 139.828125 303.03125 139.089844 303.101563 L 133.855469 303.554688 C 133.136719 303.613281 132.449219 304.402344 132.496094 305.519531 L 132.695313 326.101563 C 132.714844 326.765625 132.453125 327.007813 131.789063 327.058594 L 124.847656 327.609375 C 124.046875 327.65625 123.574219 327.121094 123.4375 326.65625 L 120.117188 306.273438 C 120.027344 305.640625 119.363281 304.964844 118.40625 305.066406 Z M 111.433594 365.402344 C 111.859375 366.457031 112.195313 367.601563 112.441406 368.835938 L 123.6875 350.046875 C 123.296875 348.804688 123.027344 347.433594 122.8125 346.007813 Z M 124.496094 345.605469 C 127.511719 368.109375 139.3125 390.460938 153.722656 402.304688 C 153.964844 402.738281 154.546875 403.539063 154.992188 403.535156 C 155.785156 403.539063 156.234375 402.679688 156.238281 401.992188 C 156.242188 400.910156 155.84375 400.328125 155.296875 400.332031 C 154.964844 400.332031 154.761719 400.363281 154.539063 400.519531 C 145.199219 395.230469 134.101563 377.402344 129.816406 361.09375 L 135.003906 360.285156 C 137.394531 368.859375 140.796875 375.796875 145.09375 382.160156 L 146.140625 380.410156 C 138.5625 368.988281 134.945313 357.164063 133.386719 344.792969 L 131.566406 345.066406 L 132.914063 353.078125 L 127.660156 353.617188 L 126.382813 345.871094 Z M 128.175781 355.011719 C 128.535156 356.6875 128.96875 358.363281 129.472656 360.039063 L 134.546875 359.210938 C 134.003906 357.535156 133.570313 355.859375 133.253906 354.183594 Z M 153.152344 391.074219 L 152.664063 392.878906 C 154.824219 395.824219 157.46875 398.371094 160.59375 400.53125 C 161.09375 401.824219 162.9375 402.195313 162.921875 400.164063 C 162.921875 398.660156 161.675781 398.332031 161.054688 398.59375 C 158.074219 396.628906 155.519531 393.996094 153.152344 391.074219 Z M 71.910156 363.78125 L 69.308594 367.277344 C 69.214844 365.9375 68.804688 365.199219 68.113281 365.210938 C 67.386719 365.199219 66.613281 366.449219 66.628906 367.789063 C 66.628906 368.96875 67.109375 370.441406 67.878906 370.441406 C 68.453125 370.445313 68.832031 370.066406 69.015625 369.296875 L 101.089844 374.957031 C 101.046875 374.164063 101.007813 373.371094 101.039063 372.582031 L 71.765625 368.441406 C 71.492188 368.394531 71.484375 367.742188 71.71875 367.445313 L 74.09375 364.636719 C 73.238281 364.480469 72.511719 364.195313 71.910156 363.78125 Z M 71.910156 363.78125 "/>
<path style=" stroke:none;fill-rule:evenodd;fill:rgb(64.256287%,69.726563%,81.25%);fill-opacity:1;" d="M 105.433594 365.195313 C 103.847656 366.664063 102.742188 370.003906 102.742188 373.882813 C 102.742188 379.121094 104.761719 383.371094 107.257813 383.371094 C 109.753906 383.371094 111.769531 379.121094 111.769531 373.882813 C 111.769531 369.101563 110.089844 365.148438 107.902344 364.488281 L 108.136719 374.074219 C 108.402344 374.308594 108.5625 374.628906 108.5625 374.980469 C 108.5625 375.703125 107.882813 376.289063 107.046875 376.289063 C 106.214844 376.289063 105.535156 375.703125 105.535156 374.980469 C 105.535156 374.765625 105.59375 374.5625 105.703125 374.382813 Z M 105.433594 365.195313 "/>
<path style=" stroke:none;fill-rule:evenodd;fill:rgb(64.256287%,69.726563%,81.25%);fill-opacity:1;" d="M 68.089844 343.96875 C 61.710938 346.847656 57.027344 356.289063 57.027344 367.496094 C 57.027344 380.347656 63.179688 390.882813 70.992188 391.855469 C 64.964844 388.367188 60.617188 378.449219 60.617188 366.757813 C 60.617188 357.046875 63.617188 348.566406 68.089844 343.96875 Z M 68.089844 343.96875 "/>
<path style=" stroke:none;fill-rule:evenodd;fill:rgb(64.256287%,69.726563%,81.25%);fill-opacity:1;" d="M 158.714844 380.320313 C 154.289063 380.320313 150.480469 385.011719 148.761719 391.757813 L 151.046875 394.101563 C 152.128906 387.214844 155.285156 381.871094 159.234375 380.34375 C 159.0625 380.328125 158.890625 380.320313 158.714844 380.320313 Z M 147.796875 399.503906 C 147.796875 399.601563 147.789063 399.695313 147.789063 399.789063 C 147.789063 410.542969 152.683594 419.265625 158.714844 419.265625 C 159.511719 419.265625 160.289063 419.109375 161.039063 418.820313 C 155.6875 418.371094 151.34375 411.046875 150.71875 401.699219 Z M 147.796875 399.503906 "/>
<path style=" stroke:none;fill-rule:evenodd;fill:rgb(100%,100%,100%);fill-opacity:1;" d="M 129.34375 337.085938 C 134.09375 336.929688 137.945313 338.289063 137.945313 340.121094 C 137.945313 341.957031 134.09375 343.566406 129.34375 343.722656 C 124.589844 343.871094 120.738281 342.515625 120.738281 340.683594 C 120.738281 338.851563 124.589844 337.238281 129.34375 337.085938 Z M 129.34375 337.085938 "/>
<path style=" stroke:none;fill-rule:evenodd;fill:rgb(95.701599%,58.396912%,18.041992%);fill-opacity:1;" d="M 10.023438 39.238281 L 11.734375 39.238281 C 14.527344 39.238281 15.191406 37.601563 15.191406 34.855469 C 15.191406 32.132813 14.917969 30.613281 12.066406 30.613281 L 10.023438 30.613281 Z M 10.710938 49.164063 C 11.210938 50.175781 11.820313 51.140625 13.128906 51.640625 L 13.128906 57.246094 L 0.789063 54.238281 L 0.789063 46.949219 C 2.382813 46.585938 2.320313 45.246094 2.320313 43.851563 L 2.320313 34.304688 C 2.320313 32.914063 1.648438 31.0625 0.0585938 30.703125 L 0.0585938 23.53125 L 12.609375 24.703125 C 19.21875 25.511719 22.308594 27.882813 22.308594 34.523438 C 22.308594 37.992188 20.253906 43.910156 12.609375 43.910156 L 10.390625 43.910156 C 10.390625 44.949219 10.179688 48.28125 10.710938 49.164063 Z M 23.203125 57.308594 L 22.84375 51.578125 C 24.4375 51.222656 25.4375 49.433594 25.4375 48.039063 L 24.90625 34.339844 C 24.90625 32.945313 24.792969 31.601563 23.203125 31.242188 L 23.203125 24.289063 C 30.234375 23.992188 34.785156 22.277344 40.582031 21.273438 L 40.582031 34.90625 L 37.296875 35.441406 C 37.296875 32.933594 38.222656 30.261719 35.769531 30.261719 L 32.867188 30.972656 L 33.308594 39.769531 L 37.480469 39.0625 L 37.746094 41.683594 L 33.488281 42.570313 L 33.664063 49.203125 C 33.671875 50.355469 34.535156 50.945313 35.351563 50.984375 C 37.8125 50.984375 37.109375 47.808594 37.109375 45.21875 L 40.582031 45.1875 L 40.667969 56.867188 Z M 41.707031 56.632813 L 41.789063 50.746094 C 43.132813 50.34375 43.710938 48.976563 43.941406 47.789063 L 48.410156 20.648438 L 55.195313 18.222656 L 60.710938 44.117188 C 60.941406 45.203125 61.847656 46.914063 63.558594 47.105469 L 64.082031 52.558594 C 60.582031 53.1875 57.082031 53.953125 53.582031 54.8125 L 53.230469 49.359375 C 54.617188 49.234375 54.964844 47.617188 54.878906 46.613281 C 54.839844 45.289063 54.21875 44.378906 53.675781 44.214844 L 50.191406 44.703125 C 49.472656 45.027344 49.15625 46.464844 49.183594 47.140625 C 49.183594 48.382813 50.351563 49.605469 51.554688 49.664063 L 51.722656 54.8125 C 48.382813 55.878906 45.042969 56.488281 41.707031 56.632813 Z M 51.019531 41.0625 L 53.691406 40.105469 L 52.34375 32.171875 Z M 72.460938 29.339844 L 74.011719 29.183594 C 76.148438 29.183594 76.726563 25.929688 76.726563 23.519531 C 76.726563 21.324219 75.378906 20.914063 74.316406 20.914063 C 72.769531 20.679688 72.433594 21.425781 71.917969 22.222656 Z M 72.304688 42.503906 C 72.304688 43.882813 72.910156 43.925781 74.488281 44.289063 L 75.101563 50.003906 L 65.492188 52.308594 L 65.414063 45.984375 C 67.007813 45.621094 66.945313 44.28125 66.945313 42.886719 L 66.175781 26.171875 C 66.175781 24.78125 66.085938 23.128906 64.492188 22.765625 L 64.339844 16.097656 L 75.835938 13.945313 C 81.746094 13.945313 83.128906 16.363281 83.128906 22.699219 C 83.128906 25.855469 80.378906 31.710938 77.058594 34.296875 C 86.15625 34.285156 88.636719 46.558594 90.019531 48.429688 C 90.886719 43.195313 95.492188 39.71875 101.195313 39.648438 C 108.230469 39.699219 111.746094 45.902344 111.753906 49.691406 C 111.746094 55.527344 106.546875 60.921875 98.664063 60.9375 C 92.996094 60.859375 87.992188 55.429688 86.835938 52.386719 C 85.785156 50.09375 84.628906 46.15625 83.164063 42.738281 C 81.933594 39.203125 78.785156 37.511719 76.058594 37.511719 C 74.292969 37.71875 73.09375 38.203125 72.148438 38.820313 Z M 103.746094 38.753906 C 96.117188 38.636719 91.417969 41.007813 89.652344 45.871094 C 88.988281 43.863281 88.144531 41.859375 86.894531 39.855469 L 86.886719 18.9375 C 86.886719 17.539063 85.964844 15.980469 84.367188 15.617188 L 84.367188 10.796875 L 97.144531 5.851563 L 97.253906 13.089844 C 95.691406 13.464844 94.882813 15.703125 94.882813 17.066406 L 95.328125 32.757813 C 95.269531 34.519531 95.984375 35.398438 97.796875 35.398438 C 100.941406 35.398438 100.296875 33.644531 100.296875 30.828125 L 100.296875 27.539063 L 103.855469 27.097656 Z M 103.746094 38.753906 "/>
<path style=" stroke:none;fill-rule:evenodd;fill:rgb(100%,100%,100%);fill-opacity:1;" d="M 100.308594 55.066406 C 104.191406 50.050781 102.726563 46.753906 96.902344 45.617188 C 106.328125 43.339844 108.535156 53.054688 100.308594 55.066406 Z M 100.308594 55.066406 "/>
<path style=" stroke:none;fill-rule:evenodd;fill:rgb(95.701599%,58.396912%,18.041992%);fill-opacity:1;" d="M 109.617188 41.023438 C 116.71875 39.660156 123.40625 38.714844 128.9375 38.921875 L 129.1875 33.121094 C 126.894531 32.453125 125.632813 31.390625 125.660156 29.429688 L 125.578125 11.121094 C 125.550781 9.636719 126.304688 8.371094 128.097656 7.339844 L 128.265625 0.621094 L 114.65625 1.710938 L 114.824219 8.433594 C 117.011719 9.328125 117.878906 11.007813 117.683594 13.472656 L 117.851563 29.011719 C 117.90625 31.222656 117.460938 33.070313 114.992188 33.289063 C 112.808594 33.289063 112.085938 30.664063 112.808594 25.652344 L 109.367188 27.078125 Z M 130.28125 38.671875 L 130.367188 33.121094 C 131.722656 32.566406 132.730469 31.726563 132.96875 30.269531 L 138.429688 0.953125 L 146.15625 1.796875 L 151.953125 30.355469 C 152.484375 32.789063 153.128906 34.554688 155.898438 35.644531 L 155.898438 42.03125 C 151.953125 41.132813 148.003906 40.351563 144.054688 39.679688 L 144.054688 33.628906 C 145.035156 33.460938 145.566406 32.734375 145.652344 31.445313 L 145.652344 29.933594 C 144.28125 28.648438 141.144531 28.480469 139.519531 29.429688 L 139.351563 31.53125 C 139.378906 32.539063 140.085938 33.210938 141.453125 33.546875 L 142.039063 39.511719 C 138.121094 39.109375 134.199219 38.84375 130.28125 38.671875 Z M 141.03125 25.316406 C 142.238281 25.175781 143.441406 25.257813 144.644531 25.566406 L 142.964844 16.664063 Z M 157.496094 42.871094 C 161.359375 43.96875 165.117188 45.367188 168.839844 46.902344 L 168.753906 24.054688 L 175.808594 47.574219 C 176.007813 48.09375 176.699219 48.175781 176.898438 47.65625 L 183.28125 25.230469 L 183.199219 51.605469 C 186.964844 54.277344 190.664063 57.019531 194.285156 59.835938 L 194.453125 54.628906 C 191.402344 50.46875 191.066406 48.777344 191.09375 45.726563 L 191.261719 28.171875 C 191.402344 26.828125 192.101563 26.039063 193.363281 25.820313 L 193.195313 19.183594 L 182.863281 12.800781 L 176.226563 35.644531 L 170.011719 8.433594 L 157.160156 3.476563 L 157.328125 11.453125 C 158.894531 12.070313 159.878906 13.246094 160.015625 14.984375 L 160.855469 33.289063 C 160.871094 34.789063 159.496094 35.828125 157.496094 36.65625 Z M 157.496094 42.871094 "/>
<path style=" stroke:none;fill-rule:evenodd;fill:rgb(95.701599%,58.396912%,18.041992%);fill-opacity:1;" d="M 13.789063 7.238281 L 19.816406 6.273438 L 20.632813 -0.0507813 L 23.683594 5.601563 L 30.007813 4.636719 L 25.320313 9.324219 L 28.371094 14.828125 L 22.492188 11.996094 L 18.105469 16.390625 L 18.996094 9.992188 Z M 13.789063 7.238281 "/>
</g>
</svg>
