<?xml version="1.0" encoding="UTF-8"?>
<svg xmlns="http://www.w3.org/2000/svg" xmlns:xlink="http://www.w3.org/1999/xlink" width="597.43pt" height="792pt" viewBox="0 0 597.43 792" version="1.1">
<defs>
<clipPath id="clip1">
  <path d="M 0 0 L 597.429688 0 L 597.429688 792 L 0 792 Z M 0 0 "/>
</clipPath>
</defs>
<g id="surface1">
<g clip-path="url(#clip1)" clip-rule="nonzero">
<path style=" stroke:none;fill-rule:nonzero;fill:rgb(100%,100%,100%);fill-opacity:1;" d="M 597.433594 792 L 0 792 L 0 0 L 597.433594 0 L 597.433594 792 "/>
</g>
<path style=" stroke:none;fill-rule:nonzero;fill:rgb(58.006287%,83.201599%,87.109375%);fill-opacity:1;" d="M 549.257813 728.324219 L 35.632813 728.324219 L 35.632813 35.632813 L 549.257813 35.632813 L 549.257813 728.324219 "/>
<path style=" stroke:none;fill-rule:nonzero;fill:rgb(100%,100%,100%);fill-opacity:1;" d="M 528.019531 100.582031 C 528.019531 100.582031 518.671875 75.933594 531.417969 58.085938 C 531.417969 58.085938 534.820313 75.082031 531.417969 100.582031 L 549.257813 112.058594 L 549.257813 116.308594 C 549.257813 116.308594 530.566406 95.90625 528.441406 106.105469 C 528.441406 106.105469 524.617188 115.457031 507.617188 113.332031 C 507.617188 113.332031 497.84375 114.605469 497.84375 116.730469 C 497.84375 118.855469 506.34375 116.304688 506.34375 118.855469 C 506.34375 121.40625 533.542969 117.15625 533.542969 124.382813 C 533.542969 131.605469 533.542969 150.730469 533.542969 150.730469 C 533.542969 150.730469 545.867188 149.453125 545.867188 153.703125 L 535.242188 153.703125 L 535.242188 155.828125 L 543.742188 155.828125 L 543.742188 159.230469 L 535.671875 159.230469 C 535.671875 159.230469 528.425781 217.453125 549.257813 220.003906 L 549.257813 224.253906 C 549.257813 224.253906 536.519531 221.273438 533.542969 205.550781 L 530.566406 205.550781 C 530.566406 205.550781 528.441406 216.601563 521.644531 214.476563 L 515.269531 214.476563 C 515.269531 214.476563 498.480469 222.765625 492.320313 216.601563 L 481.320313 216.601563 L 480.421875 203.425781 C 480.421875 203.425781 490.617188 195.355469 506.769531 195.355469 C 506.769531 195.355469 488.492188 194.503906 488.492188 189.828125 C 488.492188 185.152344 488.492188 174.527344 488.492188 174.527344 L 484.671875 174.527344 C 484.671875 174.527344 467.671875 179.628906 467.671875 185.578125 L 477.445313 185.578125 L 477.445313 190.253906 L 464.269531 190.253906 L 464.269531 195.675781 L 485.097656 195.675781 L 485.097656 197.902344 L 478.296875 197.902344 L 478.296875 200.453125 L 455.773438 200.453125 L 455.773438 186.378906 L 459.171875 186.378906 L 459.171875 178.777344 L 437.070313 178.777344 L 437.070313 173.855469 C 437.070313 173.855469 448.777344 172.433594 448.777344 167.53125 L 440.046875 167.53125 L 440.046875 164.753906 L 451.519531 164.753906 L 451.519531 171.980469 L 454.070313 171.980469 L 454.070313 167.304688 L 456.835938 164.542969 L 453.433594 161.140625 L 443.871094 161.140625 L 443.871094 158.804688 L 453.222656 158.804688 L 453.222656 152.429688 L 455.347656 152.429688 L 455.347656 158.378906 L 460.871094 158.378906 L 466.394531 149.453125 L 466.394531 125.230469 L 469.371094 125.230469 L 469.371094 149.453125 L 471.285156 151.367188 L 467.246094 151.367188 L 462.570313 162.203125 L 471.921875 162.203125 L 471.921875 159.652344 L 468.945313 159.652344 L 468.945313 157.105469 L 485.945313 157.105469 L 485.945313 154.980469 L 473.195313 154.980469 L 473.195313 152.003906 L 487.21875 152.003906 L 487.21875 137.554688 L 491.257813 133.519531 L 491.257813 150.730469 L 502.519531 150.730469 L 502.519531 155.828125 L 515.695313 155.828125 L 518.878906 152.644531 L 524.617188 152.644531 L 528.972656 148.285156 L 528.972656 125.230469 C 528.972656 125.230469 515.695313 126.390625 515.695313 123.105469 L 506.769531 123.105469 L 503.796875 120.132813 L 496.992188 120.132813 C 496.992188 120.132813 476.597656 119.28125 476.597656 115.882813 C 476.597656 112.480469 492.742188 115.457031 492.742188 115.457031 C 492.742188 115.457031 496.570313 111.207031 502.519531 111.207031 C 502.519531 111.207031 518.03125 108.019531 521.21875 111.207031 C 521.21875 111.207031 529.382813 105.128906 528.019531 100.582031 "/>
<path style=" stroke:none;fill-rule:nonzero;fill:rgb(100%,100%,100%);fill-opacity:1;" d="M 494.28125 225.6875 C 494.28125 225.6875 522.917969 226.378906 534.394531 234.027344 C 534.394531 234.027344 496.570313 242.101563 488.921875 249.75 C 488.921875 249.75 520.023438 236.148438 539.066406 238.277344 C 539.066406 238.277344 546.292969 251.875 540.765625 287.574219 L 503.367188 310.519531 L 505.492188 312.644531 L 538.640625 293.097656 C 538.640625 293.097656 539.066406 307.972656 517.394531 325.394531 L 522.492188 325.394531 C 522.492188 325.394531 539.066406 310.945313 542.894531 290.121094 L 549.257813 288.421875 L 549.257813 285.871094 L 543.742188 285.871094 L 545.867188 254.425781 L 549.257813 251.03125 L 549.257813 247.199219 L 544.375 252.085938 L 542.042969 239.550781 L 549.257813 239.550781 L 549.257813 236.574219 L 543.316406 236.574219 C 543.316406 236.574219 533.222656 221.863281 490.460938 221.863281 L 494.28125 225.6875 "/>
<path style=" stroke:none;fill-rule:nonzero;fill:rgb(100%,100%,100%);fill-opacity:1;" d="M 35.632813 447.476563 C 35.632813 447.476563 53.417969 455.730469 68.828125 447.476563 L 68.828125 452.429688 C 68.828125 452.429688 35.632813 457.933594 35.632813 447.476563 "/>
<path style=" stroke:none;fill-rule:nonzero;fill:rgb(100%,100%,100%);fill-opacity:1;" d="M 106.011719 35.632813 C 106.011719 35.632813 108.917969 64.886719 92.839844 64.886719 C 76.761719 64.886719 35.632813 70.835938 35.632813 79.757813 C 35.632813 79.757813 65.640625 78.058594 83.066406 90.808594 L 94.964844 92.507813 C 94.964844 92.507813 99.214844 95.90625 107.714844 95.90625 L 107.714844 109.507813 L 81.789063 110.355469 L 81.789063 112.90625 L 112.390625 112.90625 L 112.390625 145.203125 L 105.589844 145.203125 L 105.589844 141.804688 L 94.539063 141.804688 L 88.378906 135.644531 L 88.378906 116.730469 L 86.464844 116.730469 L 86.464844 137.554688 L 82.851563 141.167969 L 65.640625 141.167969 L 65.640625 143.078125 L 83.914063 143.078125 L 83.914063 148.179688 L 65.214844 148.179688 L 63.515625 146.480469 L 61.816406 146.480469 L 61.816406 148.179688 L 58.839844 148.179688 L 58.839844 150.730469 L 64.367188 150.730469 L 66.277344 152.644531 L 62.242188 156.679688 L 51.617188 156.679688 L 51.617188 154.128906 L 49.066406 154.128906 L 49.066406 156.253906 L 43.117188 156.253906 L 43.117188 153.703125 L 54.378906 151.367188 L 58.417969 139.253906 L 61.390625 142.230469 L 61.390625 135.429688 L 59.480469 133.519531 L 59.480469 103.980469 L 57.566406 103.980469 L 57.566406 127.78125 L 55.441406 127.78125 L 55.441406 143.503906 L 50.34375 148.605469 L 35.632813 148.605469 L 35.632813 153.703125 L 39.71875 153.703125 L 39.71875 157.105469 L 35.632813 157.105469 L 35.632813 159.652344 L 40.144531 159.652344 L 42.480469 161.992188 L 44.179688 160.292969 L 44.179688 158.378906 L 49.066406 158.378906 L 49.066406 166.027344 L 35.632813 166.027344 L 35.632813 171.554688 L 46.09375 171.554688 L 46.09375 175.378906 L 49.066406 175.378906 L 49.066406 186.429688 L 35.632813 186.429688 L 35.632813 189.828125 L 47.367188 189.828125 C 47.367188 189.828125 41.207031 191.953125 41.207031 195.992188 L 38.019531 195.992188 L 38.019531 214.902344 L 35.632813 214.902344 L 35.632813 218.300781 L 38.867188 218.300781 L 42.691406 214.476563 L 42.691406 199.601563 C 42.691406 199.601563 44.820313 188.554688 49.28125 193.015625 L 49.28125 205.976563 L 47.367188 205.976563 L 47.367188 214.476563 L 45.457031 216.390625 L 40.78125 216.390625 L 40.78125 219.152344 L 45.667969 219.152344 L 50.34375 214.476563 L 50.34375 208.953125 L 53.316406 205.976563 L 53.316406 193.226563 L 61.816406 193.226563 L 61.816406 189.402344 L 70.316406 189.402344 L 70.316406 186.429688 L 56.292969 186.429688 C 56.292969 186.429688 54.589844 180.902344 61.816406 180.902344 C 69.039063 180.902344 81.152344 182.390625 86.464844 177.078125 L 86.464844 194.929688 C 86.464844 194.929688 82.050781 201.304688 58.839844 200.453125 L 58.839844 204.277344 L 60.964844 206.402344 L 72.015625 206.402344 L 72.015625 216.601563 C 72.015625 216.601563 53.316406 221.699219 53.316406 211.925781 L 51.617188 217.449219 C 51.617188 217.449219 52.890625 220.003906 59.265625 220.003906 L 59.265625 222.550781 L 35.632813 222.550781 L 35.632813 225.101563 C 35.632813 225.101563 89.4375 221.277344 91.988281 227.652344 L 91.988281 232.75 L 46.09375 232.75 L 44.394531 231.050781 L 35.632813 231.050781 L 35.632813 233.175781 L 43.964844 233.175781 L 46.304688 235.511719 L 92.414063 235.511719 L 92.414063 239.125 C 92.414063 239.125 89.441406 245.074219 63.515625 245.074219 L 63.515625 248.050781 C 63.515625 248.050781 91.5625 249.324219 93.265625 256.125 L 93.265625 265.472656 L 88.164063 267.175781 L 72.015625 267.597656 L 72.015625 256.125 L 69.039063 256.125 L 69.039063 268.023438 L 60.542969 268.023438 L 60.542969 265.050781 L 58.417969 265.050781 L 58.417969 251.449219 L 55.867188 251.449219 L 55.867188 270.996094 L 52.042969 270.996094 L 48.640625 267.597656 L 47.367188 266.324219 L 47.367188 271.847656 L 43.117188 271.847656 L 43.117188 274.398438 L 40.992188 274.398438 L 40.992188 276.523438 L 44.394531 276.523438 L 44.394531 279.921875 L 46.09375 281.621094 L 51.191406 281.621094 L 51.191406 286.722656 L 40.566406 286.722656 L 40.566406 288.847656 L 47.367188 288.847656 L 47.367188 292.246094 L 35.632813 292.246094 L 35.632813 296.496094 L 38.019531 296.496094 L 38.019531 300.324219 L 48.640625 300.324219 L 48.640625 302.871094 L 35.632813 302.871094 L 35.632813 309.246094 L 83.066406 309.246094 L 83.066406 311.796875 L 89.863281 311.796875 L 94.328125 316.257813 L 98.789063 316.257813 L 98.789063 325.394531 L 87.738281 326.671875 L 87.738281 328.371094 L 100.0625 328.371094 C 100.0625 328.371094 101.128906 342.183594 96.238281 347.070313 C 96.238281 351.960938 56.292969 393.816406 56.292969 393.816406 L 35.632813 393.816406 L 35.632813 397.640625 L 53.742188 397.640625 L 35.632813 419.316406 L 35.632813 425.265625 L 57.566406 396.367188 C 57.566406 396.367188 97.753906 400.539063 100.398438 407.164063 L 104.910156 403.820313 C 104.910156 403.820313 84.601563 394.667969 60.117188 394.242188 L 82.640625 369.59375 C 82.640625 369.59375 105.164063 350.46875 102.613281 330.921875 L 199.980469 329.5625 L 202.179688 327.121094 L 159.136719 325.394531 L 163.597656 320.933594 L 156.800781 314.132813 L 152.972656 317.960938 L 157.222656 322.210938 L 155.3125 324.121094 L 150.851563 319.660156 L 101.765625 324.972656 L 101.765625 312.644531 C 101.765625 312.644531 93.691406 316.046875 91.777344 309.882813 L 88.800781 306.910156 L 97.089844 306.910156 L 97.089844 304.996094 L 86.464844 304.996094 L 84.976563 306.484375 L 41.417969 306.484375 L 41.417969 304.574219 L 66.917969 304.574219 L 68.617188 301.597656 C 68.617188 301.597656 64.792969 295.648438 76.265625 295.648438 L 78.816406 293.097656 L 92.414063 293.097656 L 90.078125 300.960938 L 84.765625 300.960938 L 82.535156 303.191406 L 71.589844 303.191406 L 71.589844 306.484375 L 82.214844 306.484375 L 86.464844 303.191406 L 92.414063 303.191406 L 97.003906 300.238281 L 100.402344 296.835938 L 96.238281 289.351563 L 96.238281 273.121094 C 96.238281 273.121094 104.390625 270.652344 109.664063 275.925781 L 113.238281 268.449219 L 95.390625 268.449219 L 95.390625 252.726563 L 112.371094 253.6875 L 112.371094 250.371094 L 89.015625 249.324219 L 78.816406 246.777344 C 78.816406 246.777344 91.351563 244.4375 94.964844 240.824219 L 106.703125 241.503906 L 95.816406 237 L 95.816406 234.449219 L 105.164063 234.449219 L 95.816406 230.628906 L 95.816406 228.5 L 109.414063 228.5 L 118.339844 224.253906 L 123.863281 218.726563 L 132.785156 222.550781 C 132.785156 222.550781 142.351563 205.339844 146.175781 209.164063 C 146.175781 209.164063 147.238281 232.75 169.761719 234.878906 C 192.285156 237 223.273438 234.878906 223.273438 234.878906 L 223.273438 232.75 L 168.910156 232.75 C 168.910156 232.75 148.089844 234.027344 148.089844 199.601563 L 145.960938 148.179688 L 160.410156 148.179688 C 160.410156 148.179688 164.234375 164.542969 176.773438 164.542969 C 189.308594 164.542969 226.28125 169.855469 232.230469 198.753906 L 191.859375 198.753906 L 196.535156 203.429688 L 227.980469 203.429688 L 227.980469 206.402344 L 234.355469 206.402344 L 234.355469 210.226563 L 236.480469 210.226563 L 236.480469 234.253906 L 239.664063 234.253906 L 239.664063 211.078125 L 235.949219 207.359375 L 241.15625 207.359375 L 241.15625 203.851563 L 231.808594 203.851563 L 231.808594 201.726563 L 243.707031 201.726563 L 243.707031 234.878906 L 247.917969 234.878906 L 247.917969 206.824219 L 264.105469 214.476563 L 266.019531 212.5625 L 245.832031 203.425781 L 245.832031 200.027344 L 280.023438 200.027344 L 282.265625 197.785156 L 246.257813 197.785156 C 246.257813 197.785156 243.707031 187.277344 243.707031 170.703125 L 241.582031 168.578125 L 241.582031 197.476563 L 235.632813 197.476563 C 235.632813 197.476563 229.683594 169.429688 194.835938 163.902344 L 194.835938 148.179688 L 223.734375 148.179688 L 224.15625 166.453125 C 224.15625 166.453125 225.007813 176.652344 238.605469 176.652344 L 238.605469 173.253906 C 238.605469 173.253906 219.90625 178.351563 226.707031 147.753906 L 256.882813 147.753906 L 256.882813 157.527344 C 256.882813 157.527344 244.558594 159.230469 244.558594 163.054688 L 244.558594 165.179688 C 244.558594 165.179688 249.230469 157.953125 258.15625 160.503906 C 258.15625 160.503906 260.28125 176.652344 247.105469 176.652344 L 247.105469 178.777344 C 247.105469 178.777344 261.558594 179.628906 261.558594 159.230469 L 267.082031 159.230469 C 267.082031 159.230469 270.683594 186.441406 297.664063 186.441406 L 298.53125 184.921875 C 298.53125 184.921875 270.679688 177.109375 270.679688 159.457031 L 284.929688 159.457031 C 284.929688 159.457031 288.558594 153.703125 310.117188 153.703125 L 310.117188 150.304688 L 298.953125 150.304688 L 298.953125 147.328125 L 274.304688 147.328125 C 274.304688 147.328125 275.578125 138.195313 283.441406 138.195313 C 291.304688 138.195313 294.386719 141.273438 294.386719 141.273438 L 312.128906 141.273438 L 312.128906 137.980469 L 295.554688 137.980469 L 295.554688 135.855469 L 310.117188 135.855469 L 311.972656 134 L 271.328125 134 C 271.328125 134 259.855469 134.582031 259.855469 107.382813 L 264.53125 107.382813 L 264.53125 104.832031 L 259.855469 104.832031 L 259.855469 101.855469 L 267.929688 101.855469 L 267.929688 104.832031 L 295.980469 104.832031 L 295.980469 102.28125 L 290.453125 102.28125 L 290.453125 99.730469 L 259.433594 99.730469 L 259.433594 92.933594 L 256.882813 92.933594 L 256.882813 35.632813 L 253.480469 35.632813 L 253.480469 100.582031 L 238.183594 100.582031 L 238.183594 97.605469 C 238.183594 97.605469 201.210938 101.996094 205.460938 35.632813 L 200.785156 35.632813 C 200.785156 35.632813 199.085938 100.585938 236.058594 100.160156 L 236.058594 102.707031 L 253.480469 102.707031 L 253.480469 104.835938 L 236.90625 104.835938 C 236.90625 104.835938 219.058594 103.558594 222.882813 129.90625 L 205.882813 129.90625 L 204.394531 131.394531 L 195.261719 131.394531 C 195.261719 131.394531 192.710938 113.332031 166.359375 113.332031 L 166.359375 115.457031 C 166.359375 115.457031 188.035156 115.03125 191.433594 131.605469 L 171.886719 131.605469 L 171.886719 134.582031 L 193.558594 134.582031 L 193.558594 145.632813 L 146.386719 145.632813 L 146.386719 112.484375 L 156.160156 112.484375 C 156.160156 112.484375 154.886719 140.53125 160.835938 143.082031 L 160.835938 138.40625 C 160.835938 138.40625 152.761719 116.734375 163.386719 110.359375 L 174.859375 110.359375 C 174.859375 110.359375 180.808594 110.78125 183.785156 92.933594 L 204.609375 92.933594 L 204.609375 90.386719 L 185.058594 90.386719 C 185.058594 90.386719 198.234375 58.226563 196.109375 35.632813 L 191.859375 35.632813 C 191.859375 35.632813 194.410156 60.636719 180.386719 91.234375 L 138.738281 91.234375 L 138.738281 89.109375 L 120.464844 89.109375 L 120.464844 63.609375 C 120.464844 63.609375 128.964844 58.933594 146.386719 58.933594 C 163.8125 58.933594 163.8125 58.933594 163.8125 58.933594 L 163.8125 55.535156 L 175.285156 55.535156 L 175.285156 53.410156 L 120.886719 53.410156 C 120.886719 53.410156 112.390625 51 116.640625 35.632813 L 106.011719 35.632813 "/>
<path style=" stroke:none;fill-rule:nonzero;fill:rgb(58.006287%,83.201599%,87.109375%);fill-opacity:1;" d="M 192.117188 161.265625 L 192.117188 148.179688 L 164.597656 148.179688 C 164.597656 148.179688 178.632813 156.039063 182.210938 159.617188 L 192.117188 161.265625 "/>
<path style=" stroke:none;fill-rule:nonzero;fill:rgb(58.006287%,83.201599%,87.109375%);fill-opacity:1;" d="M 160.824219 107.796875 C 160.824219 107.796875 166.25 94.203125 179.460938 93.566406 L 172.890625 108.390625 L 160.824219 107.796875 "/>
<path style=" stroke:none;fill-rule:nonzero;fill:rgb(58.006287%,83.201599%,87.109375%);fill-opacity:1;" d="M 122.769531 92.464844 L 166.800781 92.464844 L 156.34375 107.796875 L 146.984375 107.796875 L 146.984375 104.023438 L 142.03125 104.023438 L 142.03125 144.753906 L 134.875 144.753906 L 136.800781 142.828125 L 136.800781 116.683594 L 133.226563 116.683594 C 133.226563 116.683594 137.078125 144.753906 129.921875 144.753906 C 120.566406 144.753906 122.769531 116.132813 122.769531 116.132813 L 120.289063 113.65625 L 136.527344 113.65625 C 136.527344 113.65625 130.390625 96.457031 119.050781 96.183594 L 122.769531 92.464844 "/>
<path style=" stroke:none;fill-rule:nonzero;fill:rgb(58.006287%,83.201599%,87.109375%);fill-opacity:1;" d="M 227.34375 130.996094 C 227.34375 130.996094 256.515625 143.101563 251.285156 107.050781 C 251.285156 107.050781 217.4375 99.621094 227.34375 130.996094 "/>
<path style=" stroke:none;fill-rule:nonzero;fill:rgb(58.006287%,83.201599%,87.109375%);fill-opacity:1;" d="M 84.789063 88.0625 C 84.789063 88.0625 64.164063 75.953125 44.609375 75.953125 C 44.609375 75.953125 50.664063 70.6875 95.796875 67.148438 C 95.796875 67.148438 105.15625 67.148438 110.109375 42.378906 C 110.109375 42.378906 114.511719 59.96875 128.820313 56.6875 L 117.8125 61.089844 L 117.8125 89.109375 L 84.789063 88.0625 "/>
<path style=" stroke:none;fill-rule:nonzero;fill:rgb(58.006287%,83.201599%,87.109375%);fill-opacity:1;" d="M 142.03125 148.605469 L 102.402344 146.953125 C 102.402344 146.953125 88.917969 149.429688 90.84375 151.355469 C 92.769531 153.285156 100.199219 150.808594 100.199219 150.808594 L 100.199219 154.109375 C 100.199219 154.109375 88.644531 153.558594 88.644531 159.613281 C 91.117188 163.191406 91.117188 163.191406 91.117188 163.191406 L 88.367188 165.941406 L 105.15625 165.941406 L 111.757813 151.355469 L 115.613281 151.355469 L 107.21875 168.007813 L 89.742188 176.675781 L 89.742188 194.289063 C 89.742188 194.289063 83.6875 203.09375 75.433594 203.09375 L 75.433594 212.449219 C 75.433594 212.449219 78.734375 203.09375 96.347656 203.09375 L 124.417969 200.34375 L 94.148438 198.140625 L 94.148438 193.738281 L 96.898438 193.738281 L 96.898438 195.941406 L 144.234375 195.941406 L 142.03125 148.605469 "/>
<path style=" stroke:none;fill-rule:nonzero;fill:rgb(58.006287%,83.201599%,87.109375%);fill-opacity:1;" d="M 112.308594 95.90625 L 112.308594 108.976563 L 117.8125 108.976563 L 117.8125 97.421875 L 112.308594 95.90625 "/>
<path style=" stroke:none;fill-rule:nonzero;fill:rgb(58.006287%,83.201599%,87.109375%);fill-opacity:1;" d="M 121.664063 100.171875 L 121.664063 109.527344 L 131.574219 109.527344 C 131.574219 109.527344 125.519531 100.171875 121.664063 100.171875 "/>
<path style=" stroke:none;fill-rule:nonzero;fill:rgb(58.006287%,83.201599%,87.109375%);fill-opacity:1;" d="M 143.132813 200.890625 C 143.132813 200.890625 74.882813 202.546875 79.285156 215.203125 C 82.820313 224.644531 90.019531 221.53125 90.019531 221.53125 L 92.21875 219.328125 L 92.21875 213.003906 L 95.246094 213.003906 L 95.246094 220.15625 L 115.613281 220.15625 L 122.492188 213.277344 L 131.023438 218.507813 L 142.308594 207.222656 L 143.132813 200.890625 "/>
<path style=" stroke:none;fill-rule:nonzero;fill:rgb(58.006287%,83.201599%,87.109375%);fill-opacity:1;" d="M 178.90625 161.265625 C 178.90625 161.265625 167.351563 162.238281 167.351563 155.210938 C 167.351563 155.210938 178.90625 157.9375 178.90625 161.265625 "/>
<path style=" stroke:none;fill-rule:nonzero;fill:rgb(58.006287%,83.201599%,87.109375%);fill-opacity:1;" d="M 197.621094 135.394531 L 222.390625 135.394531 L 222.390625 144.753906 L 197.070313 144.753906 L 197.621094 135.394531 "/>
<path style=" stroke:none;fill-rule:nonzero;fill:rgb(58.006287%,83.201599%,87.109375%);fill-opacity:1;" d="M 255.414063 107.875 C 255.414063 107.875 256.515625 134.296875 248.257813 134.296875 L 259.816406 146.402344 L 269.726563 147.328125 C 269.726563 147.328125 273.402344 139.074219 279.546875 137.511719 C 279.546875 137.511719 255.414063 141.449219 255.414063 107.875 "/>
<path style=" stroke:none;fill-rule:nonzero;fill:rgb(58.006287%,83.201599%,87.109375%);fill-opacity:1;" d="M 115.613281 113.929688 L 120.289063 113.929688 C 120.289063 113.929688 119.464844 144.753906 122.769531 144.753906 L 115.0625 144.753906 L 115.613281 113.929688 "/>
<path style=" stroke:none;fill-rule:nonzero;fill:rgb(58.006287%,83.201599%,87.109375%);fill-opacity:1;" d="M 225.691406 135.394531 L 225.691406 144.753906 L 254.3125 144.753906 C 254.3125 144.753906 243.855469 132.644531 225.691406 135.394531 "/>
<path style=" stroke:none;fill-rule:nonzero;fill:rgb(58.006287%,83.201599%,87.109375%);fill-opacity:1;" d="M 260.367188 150.808594 L 269.175781 150.808594 L 266.421875 156.3125 L 260.917969 156.3125 L 260.367188 150.808594 "/>
<path style=" stroke:none;fill-rule:nonzero;fill:rgb(58.006287%,83.201599%,87.109375%);fill-opacity:1;" d="M 272.015625 149.621094 L 272.015625 156.3125 L 282.933594 156.3125 C 282.933594 156.3125 288.4375 150.257813 296.144531 150.257813 L 272.015625 149.621094 "/>
<path style=" stroke:none;fill-rule:nonzero;fill:rgb(58.006287%,83.201599%,87.109375%);fill-opacity:1;" d="M 74.332031 154.109375 L 71.03125 164.566406 L 84.789063 164.566406 L 84.789063 161.265625 L 78.734375 161.265625 L 78.734375 153.558594 L 74.332031 154.109375 "/>
<path style=" stroke:none;fill-rule:nonzero;fill:rgb(58.006287%,83.201599%,87.109375%);fill-opacity:1;" d="M 38.160156 170.46875 L 49.5625 169.519531 L 78.183594 167.316406 L 62.773438 175.574219 C 62.773438 175.574219 72.40625 179.703125 83.140625 168.96875 L 83.140625 173.925781 C 83.140625 173.925781 72.425781 181.3125 58.53125 177.617188 C 58.53125 177.617188 52.867188 181.628906 52.867188 186.582031 L 52.867188 175.378906 C 52.867188 175.378906 53.726563 170.46875 38.160156 170.46875 "/>
<path style=" stroke:none;fill-rule:nonzero;fill:rgb(58.006287%,83.201599%,87.109375%);fill-opacity:1;" d="M 59.472656 165.667969 L 52.867188 165.667969 L 52.867188 161.265625 L 59.472656 161.265625 L 59.472656 165.667969 "/>
<path style=" stroke:none;fill-rule:nonzero;fill:rgb(58.006287%,83.201599%,87.109375%);fill-opacity:1;" d="M 71.03125 158.972656 C 71.03125 160.238281 69.0625 161.265625 66.636719 161.265625 C 64.207031 161.265625 62.242188 160.238281 62.242188 158.972656 C 62.242188 157.707031 64.207031 156.679688 66.636719 156.679688 C 69.0625 156.679688 71.03125 157.707031 71.03125 158.972656 "/>
<path style=" stroke:none;fill-rule:nonzero;fill:rgb(58.006287%,83.201599%,87.109375%);fill-opacity:1;" d="M 90.84375 141.582031 C 90.84375 143.027344 89.546875 144.203125 87.953125 144.203125 C 86.351563 144.203125 85.058594 143.027344 85.058594 141.582031 C 85.058594 140.136719 86.351563 138.964844 87.953125 138.964844 C 89.546875 138.964844 90.84375 140.136719 90.84375 141.582031 "/>
<path style=" stroke:none;fill-rule:nonzero;fill:rgb(58.006287%,83.201599%,87.109375%);fill-opacity:1;" d="M 86.441406 168.96875 L 86.441406 173.371094 L 98 168.421875 L 86.441406 168.96875 "/>
<path style=" stroke:none;fill-rule:nonzero;fill:rgb(58.006287%,83.201599%,87.109375%);fill-opacity:1;" d="M 531.84375 159.652344 L 531.84375 191.101563 L 495.296875 191.101563 L 491.257813 187.066406 L 491.257813 172.402344 L 505.492188 172.402344 L 505.492188 169.855469 L 491.046875 169.855469 L 491.046875 163.902344 L 497.84375 163.902344 L 497.84375 161.355469 L 494.019531 161.355469 L 492.320313 159.652344 L 515.269531 159.652344 L 517.394531 157.527344 L 527.59375 157.527344 L 531.84375 159.652344 "/>
<path style=" stroke:none;fill-rule:nonzero;fill:rgb(58.006287%,83.201599%,87.109375%);fill-opacity:1;" d="M 485.097656 203.425781 L 485.097656 210.652344 C 485.097656 210.652344 504.859375 218.9375 516.546875 207.253906 L 519.519531 207.253906 C 519.519531 207.253906 519.519531 215.75 523.769531 211.503906 C 528.015625 207.253906 528.015625 204.277344 528.015625 204.277344 L 531.84375 204.277344 L 531.84375 196.628906 C 531.84375 196.628906 515.269531 200.878906 502.519531 198.753906 C 502.519531 198.753906 496.996094 203.425781 485.097656 203.425781 "/>
<path style=" stroke:none;fill-rule:nonzero;fill:rgb(100%,100%,100%);fill-opacity:1;" d="M 549.257813 121.832031 C 549.257813 121.832031 543.316406 121.40625 540.765625 123.957031 C 540.765625 123.957031 536.941406 121.832031 536.941406 123.957031 C 536.941406 126.082031 536.941406 126.082031 536.941406 126.082031 C 536.941406 126.082031 533.125 143.078125 541.191406 143.078125 C 549.257813 143.078125 549.257813 141.378906 549.257813 141.378906 L 549.257813 121.832031 "/>
<path style=" stroke:none;fill-rule:nonzero;fill:rgb(58.006287%,83.201599%,87.109375%);fill-opacity:1;" d="M 549.257813 136.28125 C 549.257813 136.28125 543.3125 124.386719 540.339844 127.359375 C 537.367188 130.332031 539.28125 141.167969 539.28125 141.167969 C 539.28125 141.167969 549.257813 143.082031 549.257813 136.28125 "/>
<path style=" stroke:none;fill-rule:nonzero;fill:rgb(58.006287%,83.201599%,87.109375%);fill-opacity:1;" d="M 529.71875 84.433594 C 529.71875 91.007813 529.242188 96.332031 528.65625 96.332031 C 528.070313 96.332031 527.59375 91.007813 527.59375 84.433594 C 527.59375 77.859375 528.070313 72.535156 528.65625 72.535156 C 529.242188 72.535156 529.71875 77.859375 529.71875 84.433594 "/>
<path style=" stroke:none;fill-rule:nonzero;fill:rgb(58.006287%,83.201599%,87.109375%);fill-opacity:1;" d="M 485.097656 171.554688 C 485.097656 171.554688 465.546875 170.277344 458.320313 174.527344 C 458.320313 174.527344 462.574219 177.503906 463.421875 183.878906 C 463.421875 183.878906 469.371094 174.953125 485.097656 171.554688 "/>
<path style=" stroke:none;fill-rule:nonzero;fill:rgb(58.006287%,83.201599%,87.109375%);fill-opacity:1;" d="M 487.007813 168.367188 L 475.960938 168.367188 L 475.960938 165.816406 L 487.007813 165.816406 L 487.007813 168.367188 "/>
<path style=" stroke:none;fill-rule:nonzero;fill:rgb(58.006287%,83.201599%,87.109375%);fill-opacity:1;" d="M 470.007813 168.367188 L 458.960938 168.367188 L 458.960938 165.816406 L 470.007813 165.816406 L 470.007813 168.367188 "/>
<path style=" stroke:none;fill-rule:nonzero;fill:rgb(100%,100%,100%);fill-opacity:1;" d="M 42.410156 328.585938 L 42.410156 332.441406 L 77.085938 332.441406 L 77.085938 328.585938 L 42.410156 328.585938 "/>
<path style=" stroke:none;fill-rule:nonzero;fill:rgb(58.006287%,83.201599%,87.109375%);fill-opacity:1;" d="M 91.945313 271.347656 L 91.945313 289.351563 L 74.332031 289.351563 L 70.671875 293.007813 L 70.671875 280.152344 L 80.386719 280.152344 L 80.386719 276.300781 L 72.679688 276.300781 L 78.460938 270.519531 L 91.945313 271.347656 "/>
<path style=" stroke:none;fill-rule:nonzero;fill:rgb(58.006287%,83.201599%,87.109375%);fill-opacity:1;" d="M 68.828125 279.605469 L 57.820313 279.605469 L 54.792969 282.628906 L 57.542969 285.382813 L 59.746094 283.179688 L 63.875 283.179688 L 63.875 288.410156 L 55.617188 288.410156 L 55.617188 296.664063 L 59.746094 300.792969 L 63.875 300.792969 L 63.875 296.664063 L 58.921875 296.664063 L 58.921875 293.363281 L 66.628906 293.363281 L 68.277344 291.710938 L 68.828125 279.605469 "/>
<path style=" stroke:none;fill-rule:nonzero;fill:rgb(58.006287%,83.201599%,87.109375%);fill-opacity:1;" d="M 66.917969 275.476563 C 66.917969 276.234375 65.988281 276.851563 64.847656 276.851563 C 63.703125 276.851563 62.773438 276.234375 62.773438 275.476563 C 62.773438 274.714844 63.703125 274.097656 64.847656 274.097656 C 65.988281 274.097656 66.917969 274.714844 66.917969 275.476563 "/>
<path style=" stroke:none;fill-rule:nonzero;fill:rgb(58.006287%,83.201599%,87.109375%);fill-opacity:1;" d="M 56.039063 275.476563 C 56.039063 276.234375 55.109375 276.851563 53.96875 276.851563 C 52.824219 276.851563 51.894531 276.234375 51.894531 275.476563 C 51.894531 274.714844 52.824219 274.097656 53.96875 274.097656 C 55.109375 274.097656 56.039063 274.714844 56.039063 275.476563 "/>
<path style=" stroke:none;fill-rule:nonzero;fill:rgb(58.006287%,83.201599%,87.109375%);fill-opacity:1;" d="M 49.433594 296.664063 C 49.433594 297.421875 48.507813 298.039063 47.363281 298.039063 C 46.21875 298.039063 45.289063 297.421875 45.289063 296.664063 C 45.289063 295.902344 46.21875 295.285156 47.363281 295.285156 C 48.507813 295.285156 49.433594 295.902344 49.433594 296.664063 "/>
<path style=" stroke:none;fill-rule:nonzero;fill:rgb(58.006287%,83.201599%,87.109375%);fill-opacity:1;" d="M 56.523438 303.058594 C 56.523438 303.820313 55.597656 304.4375 54.453125 304.4375 C 53.308594 304.4375 52.382813 303.820313 52.382813 303.058594 C 52.382813 302.300781 53.308594 301.683594 54.453125 301.683594 C 55.597656 301.683594 56.523438 302.300781 56.523438 303.058594 "/>
<path style=" stroke:none;fill-rule:nonzero;fill:rgb(0%,0%,0%);fill-opacity:1;" d="M 366.269531 37.203125 L 378.835938 37.203125 L 378.835938 59.191406 L 381.976563 59.191406 L 381.976563 96.105469 L 390.617188 96.105469 L 390.617188 136.15625 L 395.328125 136.15625 L 395.328125 157.363281 L 406.320313 168.359375 L 442.449219 173.855469 L 498.601563 230.007813 L 491.925781 293.230469 L 517.058594 318.363281 L 549.257813 318.363281 L 549.257813 728.324219 L 35.632813 728.324219 L 35.632813 544.546875 L 50.550781 492.714844 L 65.476563 433.023438 L 189.5625 341.136719 L 221.761719 308.9375 L 171.5 317.578125 L 159.71875 313.648438 C 159.71875 313.648438 143.226563 337.996094 126.734375 337.996094 L 104.742188 328.574219 L 101.601563 302.65625 L 107.886719 280.664063 C 107.886719 280.664063 102.386719 271.238281 102.386719 253.964844 L 132.230469 238.253906 L 201.34375 257.890625 L 254.746094 242.96875 L 310.117188 187.601563 L 310.117188 105.53125 L 326.214844 105.53125 L 326.214844 118.878906 L 330.140625 118.878906 L 330.140625 133.015625 L 338.390625 141.265625 L 352.917969 141.265625 L 359.398438 134.785156 L 359.398438 77.257813 L 364.796875 71.855469 L 364.796875 59.980469 L 367.839844 59.980469 L 366.269531 37.203125 "/>
<path style=" stroke:none;fill-rule:nonzero;fill:rgb(36.863708%,63.867188%,76.171875%);fill-opacity:1;" d="M 246.109375 278.308594 L 189.5625 341.136719 L 65.476563 433.023438 L 50.550781 492.714844 L 82.753906 539.050781 L 50.550781 658.425781 L 217.050781 658.425781 L 192.703125 546.117188 L 335.640625 463.652344 L 337.210938 407.894531 L 350.953125 394.152344 L 356.058594 399.253906 L 488.785156 399.253906 L 512.742188 375.300781 L 498.996094 334.070313 L 475.433594 334.070313 L 462.085938 339.566406 L 353.703125 339.566406 L 345.851563 331.714844 L 348.988281 320.71875 L 319.148438 316.007813 L 272.023438 280.664063 L 279.09375 251.605469 L 270.453125 254.746094 L 256.710938 268.492188 L 216.265625 268.492188 L 209.195313 279.878906 L 176.996094 286.160156 L 176.996094 274.382813 L 198.988281 265.742188 L 201.34375 257.890625 L 144.011719 270.453125 L 122.019531 298.730469 L 108.671875 294.015625 L 142.832031 259.851563 L 146.367188 254.746094 L 151.863281 254.746094 L 151.863281 243.832031 L 110.511719 249.6875 L 108.671875 239.039063 L 151.078125 238.253906 L 185.675781 253.4375 L 242.96875 239.828125 L 288.519531 194.273438 L 306.582031 194.273438 L 306.582031 191.136719 L 321.503906 187.601563 L 323.859375 197.417969 L 345.851563 192.703125 L 328.570313 192.703125 L 328.570313 183.277344 L 324.644531 183.277344 L 325.429688 167.574219 L 319.148438 162.859375 L 319.148438 128.304688 L 323.074219 129.089844 L 316.621094 123.59375 L 315.03125 124.957031 L 315.03125 165.011719 L 321.402344 171.609375 L 321.402344 184.128906 L 316.851563 184.128906 L 308.660156 186.632813 L 306.953125 184.921875 L 296.144531 184.921875 L 292.273438 190.726563 L 284.308594 190.726563 L 238.113281 233.964844 L 185.089844 243.296875 L 149.582031 232.003906 L 100.0625 232.003906 L 100.0625 253.964844 L 121.546875 253.484375 L 125.003906 250.027344 L 135.746094 253.121094 L 133.015625 255.851563 L 127.734375 257.855469 L 96.238281 289.351563 L 98.242188 298.996094 L 101.601563 302.65625 L 124.460938 311.015625 C 124.460938 311.015625 134.289063 310.648438 137.929688 301.183594 C 141.570313 291.714844 149.945313 279.335938 149.945313 279.335938 L 165.96875 274.605469 L 167.425781 279.335938 C 167.425781 279.335938 159.050781 295.722656 169.609375 298.636719 C 180.164063 301.546875 210.386719 290.261719 210.386719 290.261719 L 218.398438 278.972656 L 246.109375 278.308594 "/>
<path style=" stroke:none;fill-rule:nonzero;fill:rgb(0%,0%,0%);fill-opacity:1;" d="M 253.175781 356.847656 L 263.386719 346.636719 L 198.203125 343.492188 L 107.886719 409.464844 L 78.632813 466.089844 L 101.601563 466.089844 L 143.226563 439.308594 L 129.089844 416.53125 L 200.558594 356.847656 L 253.175781 356.847656 "/>
<path style=" stroke:none;fill-rule:nonzero;fill:rgb(93.359375%,50.193787%,2.745056%);fill-opacity:1;" d="M 383.546875 180.136719 L 424.386719 180.136719 L 427.527344 176.996094 L 391.402344 174.640625 L 383.546875 180.136719 "/>
<path style=" stroke:none;fill-rule:nonzero;fill:rgb(93.359375%,50.193787%,2.745056%);fill-opacity:1;" d="M 427.527344 176.996094 L 480.144531 237.472656 L 462.085938 248.464844 L 420.460938 180.136719 L 427.527344 176.996094 "/>
<path style=" stroke:none;fill-rule:nonzero;fill:rgb(93.359375%,50.193787%,2.745056%);fill-opacity:1;" d="M 182.492188 546.117188 L 337.210938 444.804688 L 361.554688 525.699219 L 217.050781 659.210938 L 182.492188 546.117188 "/>
<path style=" stroke:none;fill-rule:nonzero;fill:rgb(100%,100%,100%);fill-opacity:1;" d="M 419.023438 183.210938 L 408.28125 193.953125 L 400.453125 218.894531 L 381.882813 218.894531 L 381.882813 238.558594 L 393.535156 238.558594 L 425.9375 257.488281 L 408.460938 270.960938 L 408.460938 274.96875 L 420.84375 274.96875 L 420.84375 287.347656 L 428.125 287.347656 L 428.125 273.875 L 434.679688 273.875 L 434.679688 290.261719 L 445.601563 290.261719 L 445.601563 282.613281 L 443.414063 282.613281 L 443.414063 269.144531 L 449.242188 269.144531 L 449.242188 286.984375 L 456.523438 286.984375 L 456.523438 254.941406 L 449.609375 254.941406 L 447.785156 251.300781 L 451.0625 243.289063 L 419.023438 183.210938 "/>
<path style=" stroke:none;fill-rule:nonzero;fill:rgb(36.863708%,63.867188%,76.171875%);fill-opacity:1;" d="M 427.527344 176.996094 L 480.144531 237.472656 L 467.8125 294.628906 L 420.113281 294.628906 L 384.796875 251.300781 L 391.714844 274.238281 L 417.929688 297.179688 L 459.800781 304.097656 L 476.914063 321.210938 L 460.164063 339.566406 L 463.554688 339.566406 L 475.433594 334.070313 L 487.109375 319.390625 L 463.445313 299.726563 L 472.183594 297.90625 L 483.832031 239.285156 L 427.527344 176.996094 "/>
<path style=" stroke:none;fill-rule:nonzero;fill:rgb(100%,100%,100%);fill-opacity:1;" d="M 462.085938 248.464844 L 480.144531 237.472656 L 467.8125 294.628906 L 462.714844 294.628906 L 462.085938 248.464844 "/>
<path style=" stroke:none;fill-rule:nonzero;fill:rgb(100%,100%,100%);fill-opacity:1;" d="M 464.53125 98.195313 C 464.53125 114.785156 451.085938 128.234375 434.496094 128.234375 C 417.90625 128.234375 404.460938 114.785156 404.460938 98.195313 C 404.460938 81.605469 417.90625 68.15625 434.496094 68.15625 C 451.085938 68.15625 464.53125 81.605469 464.53125 98.195313 "/>
<path style=" stroke:none;fill-rule:nonzero;fill:rgb(58.006287%,83.201599%,87.109375%);fill-opacity:1;" d="M 361.554688 525.699219 L 366.671875 488.042969 L 382.152344 472.5625 L 356.058594 399.253906 L 350.953125 394.152344 L 337.210938 407.894531 L 336.152344 445.5 L 361.554688 525.699219 "/>
<path style=" stroke:none;fill-rule:nonzero;fill:rgb(93.359375%,50.193787%,2.745056%);fill-opacity:1;" d="M 382.152344 472.5625 L 458.070313 472.5625 L 491.605469 439.027344 L 549.257813 439.027344 L 549.257813 412.863281 L 511.6875 372.140625 L 498.605469 375.273438 L 486.078125 395.171875 L 356.058594 399.253906 L 382.152344 472.5625 "/>
<path style=" stroke:none;fill-rule:nonzero;fill:rgb(93.359375%,50.193787%,2.745056%);fill-opacity:1;" d="M 343.824219 363.480469 L 357.828125 390.75 L 484.601563 390.75 L 500.078125 361.269531 L 461.015625 357.582031 L 378.464844 357.582031 L 343.824219 363.480469 "/>
<path style=" stroke:none;fill-rule:nonzero;fill:rgb(58.006287%,83.201599%,87.109375%);fill-opacity:1;" d="M 315.816406 285.351563 L 315.816406 312.675781 L 319.148438 316.007813 L 348.988281 320.71875 L 345.296875 331.785156 L 353.703125 339.566406 L 455.855469 339.566406 L 445.539063 314.835938 L 315.816406 285.351563 "/>
<path style=" stroke:none;fill-rule:nonzero;fill:rgb(58.006287%,83.201599%,87.109375%);fill-opacity:1;" d="M 500.078125 337.328125 L 549.257813 375.273438 L 549.257813 412.863281 L 511.6875 372.140625 L 500.078125 337.328125 "/>
<path style=" stroke:none;fill-rule:nonzero;fill:rgb(100%,100%,100%);fill-opacity:1;" d="M 318.765625 277.980469 L 390.996094 292.722656 L 369.621094 277.980469 L 366.671875 244.074219 L 376.992188 244.074219 L 376.992188 217.539063 L 398.734375 195.796875 L 371.09375 195.796875 L 371.09375 188.796875 L 377.359375 182.53125 L 366.671875 159.3125 L 366.671875 165.210938 L 331.472656 165.210938 L 329.0625 170.925781 L 333.03125 170.925781 L 334.164063 169.792969 L 368.019531 169.792969 L 368.019531 176.3125 L 366.035156 176.3125 L 357.671875 180.300781 L 357.671875 187.945313 L 352.753906 187.945313 L 352.753906 179.753906 L 346.746094 173.746094 L 330.882813 173.746094 L 330.882813 184.667969 L 341.574219 184.667969 L 346.222656 186.992188 L 346.222656 192.703125 L 323.859375 197.417969 L 321.503906 187.601563 L 306.582031 191.136719 L 306.582031 194.273438 L 288.519531 194.273438 L 242.96875 239.828125 L 185.675781 253.4375 L 151.078125 238.253906 L 106.253906 238.558594 L 108.136719 250.9375 L 151.863281 245.109375 L 151.863281 254.746094 L 146.367188 254.746094 L 106.617188 294.015625 L 121.910156 300.453125 L 144.011719 270.453125 L 201.34375 257.890625 L 198.988281 265.742188 L 176.996094 274.382813 L 176.996094 286.160156 L 209.195313 279.878906 L 216.265625 268.492188 L 256.710938 268.492188 L 270.453125 254.746094 L 279.09375 251.605469 L 202.378906 337.960938 L 294.132813 342.691406 C 294.132813 342.691406 303.019531 321.726563 319.148438 316.007813 L 315.816406 312.675781 L 315.816406 285.351563 L 318.765625 277.980469 "/>
<path style=" stroke:none;fill-rule:nonzero;fill:rgb(100%,100%,100%);fill-opacity:1;" d="M 365.496094 173.746094 L 359.308594 173.746094 L 359.308594 171.925781 L 365.496094 171.925781 L 365.496094 173.746094 "/>
<path style=" stroke:none;fill-rule:nonzero;fill:rgb(100%,100%,100%);fill-opacity:1;" d="M 322.894531 150.078125 L 334 161.183594 L 347.292969 157.359375 L 340.738281 157.359375 L 329.996094 146.621094 L 327.628906 127.503906 L 325.402344 133.328125 L 322.894531 150.078125 "/>
<path style=" stroke:none;fill-rule:nonzero;fill:rgb(36.863708%,63.867188%,76.171875%);fill-opacity:1;" d="M 376.992188 243.289063 L 367.679688 243.289063 L 367.679688 216.710938 L 376.992188 216.710938 L 376.992188 243.289063 "/>
<path style=" stroke:none;fill-rule:nonzero;fill:rgb(100%,100%,100%);fill-opacity:1;" d="M 375.328125 236.007813 L 370.960938 236.007813 L 370.960938 222.535156 L 375.328125 222.535156 L 375.328125 236.007813 "/>
<path style=" stroke:none;fill-rule:nonzero;fill:rgb(100%,100%,100%);fill-opacity:1;" d="M 374.964844 241.105469 L 370.960938 241.105469 L 370.960938 237.828125 L 374.964844 237.828125 L 374.964844 241.105469 "/>
<path style=" stroke:none;fill-rule:nonzero;fill:rgb(36.863708%,63.867188%,76.171875%);fill-opacity:1;" d="M 362.949219 116.21875 L 361.128906 152.992188 L 357.488281 152.992188 L 357.851563 155.90625 L 364.039063 155.90625 L 366.226563 116.21875 L 362.949219 116.21875 "/>
<path style=" stroke:none;fill-rule:nonzero;fill:rgb(36.863708%,63.867188%,76.171875%);fill-opacity:1;" d="M 370.375 121.4375 L 375.691406 121.4375 L 375.691406 154.8125 L 389.894531 161.003906 L 383.339844 167.554688 L 370.597656 155.175781 L 370.375 121.4375 "/>
<path style=" stroke:none;fill-rule:nonzero;fill:rgb(100%,100%,100%);fill-opacity:1;" d="M 382.972656 163.1875 L 382.972656 181.390625 L 391.402344 174.640625 L 391.402344 162.511719 L 384.613281 161.550781 L 382.972656 163.1875 "/>
<path style=" stroke:none;fill-rule:nonzero;fill:rgb(36.863708%,63.867188%,76.171875%);fill-opacity:1;" d="M 388.761719 162.136719 L 394.261719 163.914063 L 394.261719 174.828125 L 391.402344 174.640625 L 389.164063 175.929688 L 388.761719 162.136719 "/>
<path style=" stroke:none;fill-rule:nonzero;fill:rgb(93.359375%,50.193787%,2.745056%);fill-opacity:1;" d="M 311.972656 209.0625 L 324.355469 209.0625 L 326.902344 214.890625 L 308.695313 214.890625 L 311.972656 209.0625 "/>
<path style=" stroke:none;fill-rule:nonzero;fill:rgb(36.863708%,63.867188%,76.171875%);fill-opacity:1;" d="M 324.355469 209.0625 L 326.539063 203.601563 L 331.273438 203.601563 L 326.902344 214.890625 L 324.355469 209.0625 "/>
<path style=" stroke:none;fill-rule:nonzero;fill:rgb(36.863708%,63.867188%,76.171875%);fill-opacity:1;" d="M 310.519531 229.089844 L 319.984375 229.089844 L 322.894531 226.175781 L 323.992188 227.269531 L 321.804688 233.097656 L 308.335938 233.097656 L 310.519531 229.089844 "/>
<path style=" stroke:none;fill-rule:nonzero;fill:rgb(93.359375%,50.193787%,2.745056%);fill-opacity:1;" d="M 327.265625 222.171875 L 337.828125 222.171875 L 343.105469 216.890625 L 331.273438 216.890625 L 327.265625 222.171875 "/>
<path style=" stroke:none;fill-rule:nonzero;fill:rgb(36.863708%,63.867188%,76.171875%);fill-opacity:1;" d="M 327.265625 222.171875 L 337.828125 222.171875 L 337.828125 226.539063 L 326.902344 226.539063 L 327.265625 222.171875 "/>
<path style=" stroke:none;fill-rule:nonzero;fill:rgb(0%,0%,0%);fill-opacity:1;" d="M 337.828125 222.171875 L 337.828125 226.539063 L 344.015625 220.351563 L 344.015625 216.890625 L 337.828125 222.171875 "/>
<path style=" stroke:none;fill-rule:nonzero;fill:rgb(0%,0%,0%);fill-opacity:1;" d="M 282.480469 245.476563 L 323.625 245.476563 L 288.101563 292.722656 L 241.699219 292.722656 L 282.480469 245.476563 "/>
<path style=" stroke:none;fill-rule:nonzero;fill:rgb(100%,100%,100%);fill-opacity:1;" d="M 259.550781 273.601563 L 277.019531 273.601563 L 280.296875 283.707031 L 257.359375 282.976563 L 260.269531 276.605469 L 259.550781 273.601563 "/>
<path style=" stroke:none;fill-rule:nonzero;fill:rgb(93.359375%,50.193787%,2.745056%);fill-opacity:1;" d="M 277.019531 273.601563 L 291.21875 252.027344 L 303.597656 252.027344 L 280.296875 283.707031 L 277.019531 273.601563 "/>
<path style=" stroke:none;fill-rule:nonzero;fill:rgb(0%,0%,0%);fill-opacity:1;" d="M 239.089844 296.636719 L 289.035156 296.636719 L 326.539063 247.660156 L 327.628906 260.769531 L 289.035156 315.746094 L 225.714844 311.691406 L 239.089844 296.636719 "/>
<path style=" stroke:none;fill-rule:nonzero;fill:rgb(0%,0%,0%);fill-opacity:1;" d="M 220.96875 316.484375 L 200.617188 338.726563 L 294.132813 342.691406 L 288.988281 319.179688 L 220.96875 316.484375 "/>
<path style=" stroke:none;fill-rule:nonzero;fill:rgb(100%,100%,100%);fill-opacity:1;" d="M 95.710938 580.941406 C 104.644531 576.359375 101.4375 595.835938 101.4375 595.835938 L 95.710938 595.835938 Z M 129.84375 608.660156 C 129.84375 595.375 119.992188 554.140625 119.992188 554.140625 L 86.316406 554.140625 L 64.09375 651.273438 L 99.144531 649.898438 C 101.894531 638.902344 96.167969 608.660156 96.167969 608.660156 L 129.84375 608.660156 "/>
<path style=" stroke:none;fill-rule:nonzero;fill:rgb(100%,100%,100%);fill-opacity:1;" d="M 136.257813 558.492188 L 133.738281 652.417969 L 200.175781 652.417969 C 200.175781 652.417969 191.699219 610.726563 187.574219 606.601563 L 152.296875 606.601563 L 150.691406 602.25 L 171.539063 599.039063 L 170.394531 591.023438 L 150.230469 593.3125 L 146.796875 569.71875 L 178.640625 569.71875 L 175.433594 556.429688 L 136.257813 558.492188 "/>
<path style=" stroke:none;fill-rule:nonzero;fill:rgb(100%,100%,100%);fill-opacity:1;" d="M 226.769531 591.351563 C 224.804688 592.738281 222.382813 592.6875 221.363281 591.238281 C 220.339844 589.792969 221.105469 587.496094 223.070313 586.109375 C 225.035156 584.726563 227.457031 584.777344 228.476563 586.222656 C 229.496094 587.671875 228.730469 589.96875 226.769531 591.351563 Z M 267.988281 594.917969 L 220.339844 534.4375 C 220.339844 534.4375 219.453125 533.449219 215.527344 534.4375 C 210.953125 535.589844 191.015625 548.644531 191.015625 548.644531 C 191.015625 548.644531 196.28125 569.945313 203.15625 569.945313 C 203.15625 569.945313 221.253906 558.949219 224.230469 567.425781 C 227.210938 573.152344 207.738281 582.546875 207.738281 582.546875 L 221.253906 642.566406 L 258.59375 609.808594 L 256.761719 603.625 L 267.988281 594.917969 "/>
<path style=" stroke:none;fill-rule:nonzero;fill:rgb(100%,100%,100%);fill-opacity:1;" d="M 287.464844 488.859375 L 301.894531 476.488281 C 301.894531 476.488281 305.144531 475.296875 306.246094 477.636719 C 307.351563 479.976563 319.304688 512.6875 319.304688 512.6875 L 342.558594 489.433594 C 342.558594 489.433594 344.964844 487.484375 345.878906 490.464844 C 346.796875 493.441406 354.585938 522.765625 354.585938 522.765625 C 354.585938 522.765625 355.617188 524.710938 353.210938 527.117188 C 349.660156 530.667969 323.886719 549.796875 323.886719 549.796875 C 323.886719 549.796875 323.085938 551.289063 320.453125 548.652344 C 317.816406 546.019531 287.464844 488.859375 287.464844 488.859375 "/>
<path style=" stroke:none;fill-rule:nonzero;fill:rgb(0%,0%,0%);fill-opacity:1;" d="M 367.1875 402.722656 L 375.890625 420.363281 C 375.890625 420.363281 375.433594 421.277344 381.847656 421.277344 C 388.261719 421.277344 393.761719 421.277344 393.761719 421.277344 L 396.507813 435.710938 L 388.03125 435.710938 L 385.054688 427.921875 L 372.453125 427.921875 L 388.71875 468.46875 L 407.964844 468.46875 C 407.964844 468.46875 411.171875 468.242188 411.171875 462.285156 C 411.171875 456.328125 407.964844 413.488281 407.964844 413.488281 L 424.460938 413.488281 L 424.460938 399.253906 L 367.1875 402.722656 "/>
<path style=" stroke:none;fill-rule:nonzero;fill:rgb(0%,0%,0%);fill-opacity:1;" d="M 435.679688 451.410156 C 432.265625 452.113281 428.378906 447.246094 426.992188 440.539063 C 425.605469 433.832031 427.246094 427.820313 430.65625 427.117188 C 434.066406 426.410156 437.957031 431.277344 439.34375 437.984375 C 440.730469 444.695313 439.089844 450.703125 435.679688 451.410156 Z M 451.722656 405.011719 C 451.722656 405.011719 448.285156 401.804688 439.351563 403.40625 C 428.128906 405.011719 432.023438 418.53125 432.023438 418.53125 C 432.023438 418.53125 449.433594 416.695313 449.433594 419.902344 C 449.433594 423.109375 449.433594 423.109375 449.433594 423.109375 L 420.109375 423.109375 C 420.109375 423.109375 411.863281 425.175781 413.238281 434.796875 C 414.609375 444.414063 424.003906 466.636719 424.003906 466.636719 L 423.316406 470.53125 L 435.460938 470.53125 C 435.460938 470.53125 454.703125 472.136719 453.554688 454.035156 L 456.535156 454.496094 L 459.398438 457.359375 L 467.757813 451.0625 L 451.722656 405.011719 "/>
<path style=" stroke:none;fill-rule:nonzero;fill:rgb(0%,0%,0%);fill-opacity:1;" d="M 470.738281 401.574219 C 470.738281 401.574219 471.507813 395.464844 476.847656 395.464844 C 482.191406 395.464844 488.835938 414.863281 488.835938 414.863281 L 492.730469 414.863281 C 492.730469 414.863281 494.792969 382.792969 503.726563 381.644531 C 512.660156 380.5 514.953125 390.808594 514.953125 390.808594 L 531.90625 435.253906 L 517.933594 435.253906 L 510.371094 415.550781 C 510.371094 415.550781 510.371094 412.917969 507.734375 412.917969 C 505.101563 412.917969 505.101563 433.191406 505.101563 433.191406 L 494.105469 435.253906 C 494.105469 435.253906 486.773438 422.425781 485.628906 427.007813 C 484.484375 431.585938 487.296875 443.335938 487.296875 443.335938 L 471.195313 444.414063 C 471.195313 444.414063 469.136719 421.738281 470.738281 401.574219 "/>
<path style=" stroke:none;fill-rule:nonzero;fill:rgb(100%,100%,100%);fill-opacity:1;" d="M 387.3125 361.269531 L 451.433594 361.269531 L 451.433594 353.160156 L 386.574219 353.160156 L 366.304688 332.890625 L 339.402344 332.890625 L 329.820313 367.164063 L 353.40625 367.164063 L 355.617188 369.375 L 385.839844 369.375 L 387.3125 361.269531 "/>
<path style=" stroke:none;fill-rule:nonzero;fill:rgb(93.359375%,50.193787%,2.745056%);fill-opacity:1;" d="M 365.9375 353.898438 C 365.9375 359.191406 361.644531 363.480469 356.355469 363.480469 C 351.0625 363.480469 346.769531 359.191406 346.769531 353.898438 C 346.769531 348.605469 351.0625 344.316406 356.355469 344.316406 C 361.644531 344.316406 365.9375 348.605469 365.9375 353.898438 "/>
<path style="fill:none;stroke-width:10.9232;stroke-linecap:butt;stroke-linejoin:miter;stroke:rgb(0%,0%,0%);stroke-opacity:1;stroke-miterlimit:4;" d="M 3659.375 4381.015625 C 3659.375 4328.085938 3616.445313 4285.195313 3563.554688 4285.195313 C 3510.625 4285.195313 3467.695313 4328.085938 3467.695313 4381.015625 C 3467.695313 4433.945313 3510.625 4476.835938 3563.554688 4476.835938 C 3616.445313 4476.835938 3659.375 4433.945313 3659.375 4381.015625 Z M 3659.375 4381.015625 " transform="matrix(0.1,0,0,-0.1,0,792)"/>
<path style=" stroke:none;fill-rule:nonzero;fill:rgb(0%,0%,0%);fill-opacity:1;" d="M 362.984375 353.898438 C 362.984375 357.558594 360.019531 360.527344 356.355469 360.527344 C 352.695313 360.527344 349.722656 357.558594 349.722656 353.898438 C 349.722656 350.234375 352.695313 347.265625 356.355469 347.265625 C 360.019531 347.265625 362.984375 350.234375 362.984375 353.898438 "/>
<path style=" stroke:none;fill-rule:nonzero;fill:rgb(0%,0%,0%);fill-opacity:1;" d="M 452.171875 349.476563 L 452.171875 370.113281 L 505.238281 370.113281 L 500.078125 337.328125 L 470.816406 337.328125 L 452.171875 349.476563 "/>
<path style=" stroke:none;fill-rule:nonzero;fill:rgb(100%,100%,100%);fill-opacity:1;" d="M 485.339844 353.898438 C 485.339844 359.191406 481.046875 363.480469 475.757813 363.480469 C 470.464844 363.480469 466.175781 359.191406 466.175781 353.898438 C 466.175781 348.605469 470.464844 344.316406 475.757813 344.316406 C 481.046875 344.316406 485.339844 348.605469 485.339844 353.898438 "/>
<path style=" stroke:none;fill-rule:nonzero;fill:rgb(0%,0%,0%);fill-opacity:1;" d="M 482.386719 353.898438 C 482.386719 357.558594 479.421875 360.527344 475.757813 360.527344 C 472.097656 360.527344 469.128906 357.558594 469.128906 353.898438 C 469.128906 350.234375 472.097656 347.265625 475.757813 347.265625 C 479.421875 347.265625 482.386719 350.234375 482.386719 353.898438 "/>
<path style=" stroke:none;fill-rule:nonzero;fill:rgb(100%,100%,100%);fill-opacity:1;" d="M 70.1875 461.300781 L 77.257813 458.15625 L 89.820313 460.515625 L 135.371094 429.101563 L 201.34375 419.675781 L 260.636719 360.378906 L 294.015625 347.421875 L 327 376.480469 L 172.285156 487.21875 L 75.683594 473.863281 L 70.1875 461.300781 "/>
<path style=" stroke:none;fill-rule:nonzero;fill:rgb(93.359375%,50.193787%,2.745056%);fill-opacity:1;" d="M 240.894531 417.054688 C 240.894531 423.082031 236.015625 427.964844 229.988281 427.964844 C 223.964844 427.964844 219.085938 423.082031 219.085938 417.054688 C 219.085938 411.035156 223.964844 406.152344 229.988281 406.152344 C 236.015625 406.152344 240.894531 411.035156 240.894531 417.054688 "/>
<path style="fill:none;stroke-width:10.9232;stroke-linecap:butt;stroke-linejoin:miter;stroke:rgb(0%,0%,0%);stroke-opacity:1;stroke-miterlimit:4;" d="M 2408.945313 3749.453125 C 2408.945313 3689.179688 2360.15625 3640.351563 2299.882813 3640.351563 C 2239.648438 3640.351563 2190.859375 3689.179688 2190.859375 3749.453125 C 2190.859375 3809.648438 2239.648438 3858.476563 2299.882813 3858.476563 C 2360.15625 3858.476563 2408.945313 3809.648438 2408.945313 3749.453125 Z M 2408.945313 3749.453125 " transform="matrix(0.1,0,0,-0.1,0,792)"/>
<path style=" stroke:none;fill-rule:nonzero;fill:rgb(93.359375%,50.193787%,2.745056%);fill-opacity:1;" d="M 298.414063 377.171875 C 298.414063 382.207031 294.332031 386.289063 289.300781 386.289063 C 284.265625 386.289063 280.183594 382.207031 280.183594 377.171875 C 280.183594 372.144531 284.265625 368.0625 289.300781 368.0625 C 294.332031 368.0625 298.414063 372.144531 298.414063 377.171875 "/>
<path style="fill:none;stroke-width:10.9232;stroke-linecap:butt;stroke-linejoin:miter;stroke:rgb(0%,0%,0%);stroke-opacity:1;stroke-miterlimit:4;" d="M 2984.140625 4148.28125 C 2984.140625 4097.929688 2943.320313 4057.109375 2893.007813 4057.109375 C 2842.65625 4057.109375 2801.835938 4097.929688 2801.835938 4148.28125 C 2801.835938 4198.554688 2842.65625 4239.375 2893.007813 4239.375 C 2943.320313 4239.375 2984.140625 4198.554688 2984.140625 4148.28125 Z M 2984.140625 4148.28125 " transform="matrix(0.1,0,0,-0.1,0,792)"/>
<path style=" stroke:none;fill-rule:nonzero;fill:rgb(93.359375%,50.193787%,2.745056%);fill-opacity:1;" d="M 275.808594 391.71875 C 275.808594 399.589844 269.429688 405.96875 261.5625 405.96875 C 253.691406 405.96875 247.3125 399.589844 247.3125 391.71875 C 247.3125 383.851563 253.691406 377.472656 261.5625 377.472656 C 269.429688 377.472656 275.808594 383.851563 275.808594 391.71875 "/>
<path style="fill:none;stroke-width:10.9232;stroke-linecap:butt;stroke-linejoin:miter;stroke:rgb(0%,0%,0%);stroke-opacity:1;stroke-miterlimit:4;" d="M 2758.085938 4002.8125 C 2758.085938 3924.101563 2694.296875 3860.3125 2615.625 3860.3125 C 2536.914063 3860.3125 2473.125 3924.101563 2473.125 4002.8125 C 2473.125 4081.484375 2536.914063 4145.273438 2615.625 4145.273438 C 2694.296875 4145.273438 2758.085938 4081.484375 2758.085938 4002.8125 Z M 2758.085938 4002.8125 " transform="matrix(0.1,0,0,-0.1,0,792)"/>
<path style=" stroke:none;fill-rule:nonzero;fill:rgb(93.359375%,50.193787%,2.745056%);fill-opacity:1;" d="M 172.285156 471.507813 L 172.285156 492.714844 L 327 381.976563 L 327 376.480469 L 172.285156 471.507813 "/>
<path style=" stroke:none;fill-rule:nonzero;fill:rgb(0%,0%,0%);fill-opacity:1;" d="M 172.285156 487.21875 L 67.832031 463.652344 L 60.371094 471.117188 L 72.542969 491.144531 L 116.523438 506.851563 L 172.285156 492.714844 L 172.285156 487.21875 "/>
<path style=" stroke:none;fill-rule:nonzero;fill:rgb(100%,100%,100%);fill-opacity:1;" d="M 276.921875 595.375 L 286.773438 587.816406 L 273.027344 567.882813 L 307.621094 571.320313 L 322.972656 557.347656 L 272.339844 552.992188 L 272.339844 550.015625 L 296.855469 523.210938 C 296.855469 523.210938 299.945313 520.121094 295.9375 516.109375 C 291.929688 511.433594 284.253906 500.988281 284.253906 500.988281 C 284.253906 500.988281 282.878906 498.46875 278.066406 500.988281 C 273.257813 503.511719 233.855469 533.292969 233.855469 533.292969 L 276.921875 595.375 "/>
<path style=" stroke:none;fill-rule:nonzero;fill:rgb(93.359375%,50.193787%,2.745056%);fill-opacity:1;" d="M 252.867188 538.105469 L 257.335938 542.570313 C 257.335938 542.570313 267.757813 534.4375 265.46875 529.855469 C 263.179688 525.273438 252.867188 538.105469 252.867188 538.105469 "/>
<path style=" stroke:none;fill-rule:nonzero;fill:rgb(0%,0%,0%);fill-opacity:1;" d="M 311.972656 209.0625 L 324.355469 209.0625 L 326.539063 203.601563 L 315.613281 203.601563 L 311.972656 209.0625 "/>
<path style=" stroke:none;fill-rule:nonzero;fill:rgb(93.359375%,50.193787%,2.745056%);fill-opacity:1;" d="M 322.894531 125.683594 L 322.894531 150.078125 L 328.359375 144.617188 L 325.402344 128.277344 L 322.894531 125.683594 "/>
<path style=" stroke:none;fill-rule:nonzero;fill:rgb(93.359375%,50.193787%,2.745056%);fill-opacity:1;" d="M 366.226563 119.855469 L 366.226563 125.683594 L 368.410156 125.683594 L 368.410156 156.632813 L 370.777344 159 L 374.964844 154.8125 L 374.964844 139.519531 L 373.328125 137.882813 L 373.328125 126.773438 L 369.503906 119.855469 L 366.226563 119.855469 "/>
<path style=" stroke:none;fill-rule:nonzero;fill:rgb(100%,100%,100%);fill-opacity:1;" d="M 237.730469 416.871094 C 237.730469 421.328125 234.121094 424.941406 229.664063 424.941406 C 225.210938 424.941406 221.597656 421.328125 221.597656 416.871094 C 221.597656 412.417969 225.210938 408.808594 229.664063 408.808594 C 234.121094 408.808594 237.730469 412.417969 237.730469 416.871094 "/>
<path style=" stroke:none;fill-rule:nonzero;fill:rgb(100%,100%,100%);fill-opacity:1;" d="M 272.394531 391.921875 C 272.394531 397.945313 267.511719 402.828125 261.488281 402.828125 C 255.464844 402.828125 250.582031 397.945313 250.582031 391.921875 C 250.582031 385.902344 255.464844 381.019531 261.488281 381.019531 C 267.511719 381.019531 272.394531 385.902344 272.394531 391.921875 "/>
<path style=" stroke:none;fill-rule:nonzero;fill:rgb(100%,100%,100%);fill-opacity:1;" d="M 296.148438 377.429688 C 296.148438 381.308594 293.003906 384.449219 289.128906 384.449219 C 285.25 384.449219 282.105469 381.308594 282.105469 377.429688 C 282.105469 373.554688 285.25 370.410156 289.128906 370.410156 C 293.003906 370.410156 296.148438 373.554688 296.148438 377.429688 "/>
<path style=" stroke:none;fill-rule:nonzero;fill:rgb(100%,100%,100%);fill-opacity:1;" d="M 65.980469 682.015625 L 69.386719 682.015625 L 69.386719 699.25 C 69.386719 707.015625 67.324219 709.726563 64.03125 709.726563 C 63.226563 709.726563 62.195313 709.488281 61.523438 709.082031 L 61.90625 704.105469 C 62.375 704.386719 62.980469 704.589844 63.652344 704.589844 C 65.085938 704.589844 65.980469 703.417969 65.980469 699.210938 L 65.980469 682.015625 "/>
<path style=" stroke:none;fill-rule:nonzero;fill:rgb(100%,100%,100%);fill-opacity:1;" d="M 75.632813 682.015625 L 75.632813 697.671875 C 75.632813 702.40625 76.644531 704.792969 78.367188 704.792969 C 80.15625 704.792969 81.144531 702.527344 81.144531 697.671875 L 81.144531 682.015625 L 84.550781 682.015625 L 84.550781 697.308594 C 84.550781 705.722656 82.195313 709.726563 78.253906 709.726563 C 74.445313 709.726563 72.230469 705.886719 72.230469 697.226563 L 72.230469 682.015625 L 75.632813 682.015625 "/>
<path style=" stroke:none;fill-rule:nonzero;fill:rgb(100%,100%,100%);fill-opacity:1;" d="M 87.503906 709.285156 L 87.503906 682.015625 L 91.492188 682.015625 L 94.628906 692.007813 C 95.523438 694.882813 96.398438 698.28125 97.089844 701.351563 L 97.136719 701.351563 C 96.933594 697.753906 96.867188 694.070313 96.867188 689.945313 L 96.867188 682.015625 L 100.003906 682.015625 L 100.003906 709.285156 L 96.417969 709.285156 L 93.191406 698.765625 C 92.296875 695.8125 91.289063 692.332031 90.574219 689.136719 L 90.484375 689.136719 C 90.59375 692.777344 90.640625 696.621094 90.640625 701.074219 L 90.640625 709.285156 L 87.503906 709.285156 "/>
<path style=" stroke:none;fill-rule:nonzero;fill:rgb(100%,100%,100%);fill-opacity:1;" d="M 111.9375 697.753906 L 106.382813 697.753906 L 106.382813 704.226563 L 112.589844 704.226563 L 112.589844 709.285156 L 102.980469 709.285156 L 102.980469 682.015625 L 112.273438 682.015625 L 112.273438 687.070313 L 106.382813 687.070313 L 106.382813 692.738281 L 111.9375 692.738281 L 111.9375 697.753906 "/>
<path style=" stroke:none;fill-rule:nonzero;fill:rgb(100%,100%,100%);fill-opacity:1;" d="M 124.191406 686.707031 C 123.023438 686.707031 122.441406 688.125 122.441406 689.742188 C 122.441406 691.523438 123.316406 692.65625 124.480469 693.304688 C 125.265625 692.898438 125.957031 691.605469 125.957031 689.984375 C 125.957031 688.328125 125.441406 686.707031 124.210938 686.707031 Z M 124.234375 705.480469 C 125.421875 705.480469 126.226563 704.066406 126.226563 702.203125 C 126.226563 699.902344 125.265625 698.523438 123.941406 697.875 C 122.820313 698.441406 122.175781 699.902344 122.175781 701.800781 C 122.148438 703.699219 122.957031 705.480469 124.210938 705.480469 Z M 124.300781 682.542969 C 127.703125 682.542969 129.117188 686.101563 129.117188 689.300781 C 129.117188 691.5625 128.445313 693.789063 126.988281 695.085938 L 126.988281 695.207031 C 128.421875 696.175781 129.675781 698.359375 129.675781 701.722656 C 129.675781 706.492188 127.460938 709.726563 124.078125 709.726563 C 120.382813 709.726563 118.679688 705.96875 118.679688 702.40625 C 118.679688 699.25 119.6875 697.066406 121.277344 695.8125 L 121.277344 695.730469 C 119.867188 694.394531 119.171875 692.25 119.171875 689.945313 C 119.171875 685.492188 121.390625 682.542969 124.277344 682.542969 L 124.300781 682.542969 "/>
<path style=" stroke:none;fill-rule:nonzero;fill:rgb(100%,100%,100%);fill-opacity:1;" d="M 139.777344 694.761719 C 140.066406 694.882813 140.425781 694.921875 140.917969 694.921875 C 142.730469 694.921875 143.851563 693.261719 143.851563 690.511719 C 143.851563 688.003906 142.914063 686.507813 141.1875 686.507813 C 140.492188 686.507813 140.023438 686.589844 139.777344 686.707031 Z M 136.394531 682.378906 C 137.445313 682.054688 138.925781 681.816406 141.007813 681.816406 C 143.113281 681.816406 144.636719 682.542969 145.644531 684.039063 C 146.605469 685.371094 147.234375 687.640625 147.234375 690.3125 C 147.234375 693.023438 146.765625 695.285156 145.867188 696.78125 C 144.703125 698.726563 142.960938 699.65625 140.941406 699.65625 C 140.492188 699.65625 140.089844 699.617188 139.777344 699.492188 L 139.777344 709.285156 L 136.394531 709.285156 L 136.394531 682.378906 "/>
<path style=" stroke:none;fill-rule:nonzero;fill:rgb(100%,100%,100%);fill-opacity:1;" d="M 154.71875 699.941406 C 152.925781 699.941406 151.539063 700.707031 151.539063 703.050781 C 151.539063 704.632813 152.121094 705.402344 152.882813 705.402344 C 153.710938 705.402344 154.425781 704.386719 154.652344 703.132813 C 154.695313 702.808594 154.71875 702.449219 154.71875 702.085938 Z M 158.011719 704.511719 C 158.011719 706.371094 158.054688 708.191406 158.191406 709.285156 L 155.121094 709.285156 L 154.921875 707.300781 L 154.851563 707.300781 C 154.136719 708.878906 153.015625 709.726563 151.71875 709.726563 C 149.5 709.726563 148.179688 706.820313 148.179688 703.660156 C 148.179688 698.523438 150.730469 696.097656 154.605469 696.097656 L 154.605469 695.851563 C 154.605469 694.800781 154.292969 693.304688 152.613281 693.304688 C 151.492188 693.304688 150.308594 693.992188 149.589844 694.761719 L 148.964844 690.835938 C 149.722656 690.066406 151.222656 689.054688 153.21875 689.054688 C 156.867188 689.054688 158.011719 692.9375 158.011719 697.59375 L 158.011719 704.511719 "/>
<path style=" stroke:none;fill-rule:nonzero;fill:rgb(100%,100%,100%);fill-opacity:1;" d="M 160.742188 696.015625 C 160.742188 693.101563 160.71875 691.199219 160.652344 689.5 L 163.566406 689.5 L 163.699219 693.179688 L 163.789063 693.179688 C 164.351563 690.269531 165.671875 689.054688 166.746094 689.054688 C 167.058594 689.054688 167.214844 689.097656 167.464844 689.179688 L 167.464844 694.960938 C 167.171875 694.882813 166.902344 694.800781 166.519531 694.800781 C 165.269531 694.800781 164.414063 695.976563 164.191406 697.914063 C 164.148438 698.320313 164.128906 698.765625 164.128906 699.289063 L 164.128906 709.285156 L 160.71875 709.285156 L 160.742188 696.015625 "/>
<path style=" stroke:none;fill-rule:nonzero;fill:rgb(100%,100%,100%);fill-opacity:1;" d="M 169.1875 709.285156 L 169.1875 689.5 L 172.59375 689.5 L 172.59375 709.285156 Z M 170.867188 686.914063 C 169.726563 686.914063 168.988281 685.453125 168.988281 683.632813 C 168.988281 681.773438 169.746094 680.355469 170.914063 680.355469 C 172.078125 680.355469 172.792969 681.773438 172.816406 683.632813 C 172.816406 685.453125 172.078125 686.914063 170.890625 686.914063 L 170.867188 686.914063 "/>
<path style=" stroke:none;fill-rule:nonzero;fill:rgb(100%,100%,100%);fill-opacity:1;" d="M 175.300781 703.941406 C 175.929688 704.632813 177.226563 705.402344 178.234375 705.402344 C 179.265625 705.402344 179.691406 704.792969 179.691406 703.78125 C 179.691406 702.726563 179.355469 702.242188 178.101563 701.476563 C 175.816406 700.140625 174.941406 697.875 174.964844 695.570313 C 174.964844 691.847656 176.714844 689.054688 179.421875 689.054688 C 180.699219 689.054688 181.820313 689.621094 182.488281 690.230469 L 181.910156 694.433594 C 181.414063 693.992188 180.453125 693.34375 179.535156 693.34375 C 178.703125 693.34375 178.234375 693.953125 178.234375 694.921875 C 178.234375 695.894531 178.660156 696.378906 180.003906 697.226563 C 182.089844 698.484375 182.9375 700.421875 182.960938 703.296875 C 182.960938 707.015625 181.371094 709.726563 178.234375 709.726563 C 176.800781 709.726563 175.527344 709.121094 174.695313 708.3125 L 175.300781 703.941406 "/>
<path style=" stroke:none;fill-rule:nonzero;fill:rgb(100%,100%,100%);fill-opacity:1;" d="M 217.613281 682.515625 L 221 682.515625 L 221 699.4375 C 221 707.066406 218.949219 709.726563 215.675781 709.726563 C 214.875 709.726563 213.851563 709.492188 213.183594 709.09375 L 213.5625 704.207031 C 214.027344 704.484375 214.628906 704.683594 215.296875 704.683594 C 216.722656 704.683594 217.613281 703.53125 217.613281 699.398438 L 217.613281 682.515625 "/>
<path style=" stroke:none;fill-rule:nonzero;fill:rgb(100%,100%,100%);fill-opacity:1;" d="M 227.210938 682.515625 L 227.210938 697.890625 C 227.210938 702.539063 228.210938 704.882813 229.925781 704.882813 C 231.707031 704.882813 232.6875 702.65625 232.6875 697.890625 L 232.6875 682.515625 L 236.070313 682.515625 L 236.070313 697.53125 C 236.070313 705.796875 233.734375 709.726563 229.8125 709.726563 C 226.027344 709.726563 223.828125 705.957031 223.828125 697.453125 L 223.828125 682.515625 L 227.210938 682.515625 "/>
<path style=" stroke:none;fill-rule:nonzero;fill:rgb(100%,100%,100%);fill-opacity:1;" d="M 239.011719 709.292969 L 239.011719 682.515625 L 242.972656 682.515625 L 246.089844 692.328125 C 246.980469 695.148438 247.847656 698.484375 248.539063 701.503906 L 248.585938 701.503906 C 248.382813 697.96875 248.316406 694.351563 248.316406 690.300781 L 248.316406 682.515625 L 251.433594 682.515625 L 251.433594 709.292969 L 247.871094 709.292969 L 244.664063 698.964844 C 243.773438 696.0625 242.773438 692.644531 242.0625 689.507813 L 241.972656 689.507813 C 242.082031 693.085938 242.128906 696.855469 242.128906 701.226563 L 242.128906 709.292969 L 239.011719 709.292969 "/>
<path style=" stroke:none;fill-rule:nonzero;fill:rgb(100%,100%,100%);fill-opacity:1;" d="M 263.300781 697.96875 L 257.78125 697.96875 L 257.78125 704.324219 L 263.945313 704.324219 L 263.945313 709.292969 L 254.394531 709.292969 L 254.394531 682.515625 L 263.636719 682.515625 L 263.636719 687.480469 L 257.78125 687.480469 L 257.78125 693.042969 L 263.300781 693.042969 L 263.300781 697.96875 "/>
<path style=" stroke:none;fill-rule:nonzero;fill:rgb(100%,100%,100%);fill-opacity:1;" d="M 392.71875 682.515625 L 396.105469 682.515625 L 396.105469 699.4375 C 396.105469 707.066406 394.058594 709.726563 390.78125 709.726563 C 389.980469 709.726563 388.957031 709.492188 388.289063 709.09375 L 388.667969 704.207031 C 389.132813 704.484375 389.734375 704.683594 390.40625 704.683594 C 391.828125 704.683594 392.71875 703.53125 392.71875 699.398438 L 392.71875 682.515625 "/>
<path style=" stroke:none;fill-rule:nonzero;fill:rgb(100%,100%,100%);fill-opacity:1;" d="M 402.3125 682.515625 L 402.3125 697.890625 C 402.3125 702.539063 403.316406 704.882813 405.03125 704.882813 C 406.8125 704.882813 407.792969 702.65625 407.792969 697.890625 L 407.792969 682.515625 L 411.175781 682.515625 L 411.175781 697.53125 C 411.175781 705.796875 408.839844 709.726563 404.921875 709.726563 C 401.136719 709.726563 398.933594 705.957031 398.933594 697.453125 L 398.933594 682.515625 L 402.3125 682.515625 "/>
<path style=" stroke:none;fill-rule:nonzero;fill:rgb(100%,100%,100%);fill-opacity:1;" d="M 414.117188 709.292969 L 414.117188 682.515625 L 418.078125 682.515625 L 421.195313 692.328125 C 422.085938 695.148438 422.953125 698.484375 423.644531 701.503906 L 423.691406 701.503906 C 423.488281 697.96875 423.421875 694.351563 423.421875 690.300781 L 423.421875 682.515625 L 426.539063 682.515625 L 426.539063 709.292969 L 422.976563 709.292969 L 419.773438 698.964844 C 418.878906 696.0625 417.878906 692.644531 417.164063 689.507813 L 417.078125 689.507813 C 417.1875 693.085938 417.230469 696.855469 417.230469 701.226563 L 417.230469 709.292969 L 414.117188 709.292969 "/>
<path style=" stroke:none;fill-rule:nonzero;fill:rgb(100%,100%,100%);fill-opacity:1;" d="M 438.40625 697.96875 L 432.886719 697.96875 L 432.886719 704.324219 L 439.050781 704.324219 L 439.050781 709.292969 L 429.5 709.292969 L 429.5 682.515625 L 438.738281 682.515625 L 438.738281 687.480469 L 432.886719 687.480469 L 432.886719 693.042969 L 438.40625 693.042969 L 438.40625 697.96875 "/>
<path style=" stroke:none;fill-rule:nonzero;fill:rgb(100%,100%,100%);fill-opacity:1;" d="M 270.246094 709.292969 L 270.246094 705.636719 L 272.09375 702.65625 C 275.277344 697.570313 276.816406 694.667969 276.839844 691.648438 C 276.839844 689.546875 276.144531 687.878906 274.476563 687.878906 C 273.230469 687.878906 272.140625 688.988281 271.382813 689.984375 L 270.425781 685.691406 C 271.496094 684.222656 273.210938 683.03125 275.144531 683.03125 C 278.4375 683.03125 280.222656 686.445313 280.222656 691.136719 C 280.222656 695.464844 278.484375 698.921875 276.371094 702.257813 L 275.03125 704.246094 L 275.03125 704.324219 L 280.511719 704.324219 L 280.511719 709.292969 L 270.246094 709.292969 "/>
<path style=" stroke:none;fill-rule:nonzero;fill:rgb(100%,100%,100%);fill-opacity:1;" d="M 287.835938 705.160156 C 289.148438 705.160156 289.863281 702.21875 289.863281 696.339844 C 289.863281 690.617188 289.171875 687.597656 287.8125 687.597656 C 286.542969 687.597656 285.742188 690.5 285.742188 696.339844 C 285.71875 702.300781 286.523438 705.160156 287.8125 705.160156 Z M 287.789063 709.726563 C 284.050781 709.726563 282.402344 703.726563 282.382813 696.417969 C 282.382813 688.914063 284.140625 683.03125 287.878906 683.03125 C 291.734375 683.03125 293.269531 689.1875 293.269531 696.261719 C 293.269531 704.207031 291.464844 709.726563 287.8125 709.726563 L 287.789063 709.726563 "/>
<path style=" stroke:none;fill-rule:nonzero;fill:rgb(100%,100%,100%);fill-opacity:1;" d="M 303.507813 709.292969 L 298.699219 682.515625 L 302.414063 682.515625 L 304.242188 693.835938 C 304.753906 697.050781 305.226563 700.078125 305.582031 703.410156 L 305.644531 703.410156 C 306.023438 700.195313 306.492188 697.015625 307.003906 693.957031 L 308.917969 682.515625 L 312.527344 682.515625 L 307.472656 709.292969 L 303.507813 709.292969 "/>
<path style=" stroke:none;fill-rule:nonzero;fill:rgb(100%,100%,100%);fill-opacity:1;" d="M 319.402344 697.332031 C 319.402344 695.902344 319.050781 693.402344 317.511719 693.402344 C 316.066406 693.402344 315.488281 695.742188 315.402344 697.332031 Z M 315.421875 701.464844 C 315.53125 704.007813 316.910156 705.199219 318.492188 705.199219 C 319.652344 705.199219 320.589844 704.921875 321.496094 704.363281 L 321.945313 708.457031 C 320.828125 709.292969 319.476563 709.691406 318.003906 709.691406 C 314.308594 709.691406 312.191406 705.875 312.191406 699.757813 C 312.191406 694.832031 313.929688 689.386719 317.6875 689.386719 C 321.210938 689.386719 322.546875 694.273438 322.546875 699.082031 C 322.546875 700.113281 322.476563 701.027344 322.4375 701.503906 L 315.421875 701.464844 "/>
<path style=" stroke:none;fill-rule:nonzero;fill:rgb(100%,100%,100%);fill-opacity:1;" d="M 324.59375 696.261719 C 324.59375 693.402344 324.574219 691.535156 324.503906 689.863281 L 327.398438 689.863281 L 327.53125 693.480469 L 327.621094 693.480469 C 328.179688 690.617188 329.492188 689.425781 330.558594 689.425781 C 330.871094 689.425781 331.027344 689.464844 331.273438 689.546875 L 331.273438 695.226563 C 330.984375 695.148438 330.714844 695.070313 330.339844 695.070313 C 329.089844 695.070313 328.246094 696.21875 328.019531 698.128906 C 327.976563 698.527344 327.953125 698.964844 327.953125 699.480469 L 327.953125 709.292969 L 324.574219 709.292969 L 324.59375 696.261719 "/>
<path style=" stroke:none;fill-rule:nonzero;fill:rgb(100%,100%,100%);fill-opacity:1;" d="M 337.960938 705.398438 C 339.289063 705.398438 340.117188 703.054688 340.117188 699.558594 C 340.117188 696.699219 339.492188 693.757813 337.960938 693.757813 C 336.351563 693.757813 335.726563 696.699219 335.726563 699.597656 C 335.726563 702.894531 336.507813 705.398438 337.933594 705.398438 Z M 337.886719 709.726563 C 334.703125 709.726563 332.257813 705.992188 332.257813 699.714844 C 332.257813 693.441406 334.570313 689.425781 338.089844 689.425781 C 341.410156 689.425781 343.632813 693.519531 343.632813 699.398438 C 343.632813 706.46875 340.804688 709.726563 337.910156 709.726563 L 337.886719 709.726563 "/>
<path style=" stroke:none;fill-rule:nonzero;fill:rgb(100%,100%,100%);fill-opacity:1;" d="M 345.726563 696.0625 C 345.726563 693.640625 345.679688 691.613281 345.636719 689.863281 L 348.574219 689.863281 L 348.730469 692.566406 L 348.796875 692.566406 C 349.242188 691.296875 350.335938 689.425781 352.160156 689.425781 C 354.382813 689.425781 356.054688 692.085938 356.054688 697.808594 L 356.054688 709.292969 L 352.671875 709.292969 L 352.671875 698.527344 C 352.671875 696.023438 352.179688 694.3125 350.957031 694.3125 C 350.023438 694.3125 349.464844 695.464844 349.21875 696.578125 C 349.128906 696.972656 349.109375 697.53125 349.109375 698.089844 L 349.109375 709.292969 L 345.726563 709.292969 L 345.726563 696.0625 "/>
<path style=" stroke:none;fill-rule:nonzero;fill:rgb(100%,100%,100%);fill-opacity:1;" d="M 364.558594 700.113281 C 362.777344 700.113281 361.398438 700.867188 361.398438 703.171875 C 361.398438 704.722656 361.976563 705.476563 362.734375 705.476563 C 363.558594 705.476563 364.269531 704.484375 364.496094 703.253906 C 364.539063 702.933594 364.558594 702.578125 364.558594 702.21875 Z M 367.835938 704.601563 C 367.835938 706.433594 367.875 708.21875 368.011719 709.292969 L 364.964844 709.292969 L 364.761719 707.34375 L 364.695313 707.34375 C 363.980469 708.894531 362.867188 709.726563 361.578125 709.726563 C 359.371094 709.726563 358.0625 706.867188 358.0625 703.769531 C 358.0625 698.722656 360.597656 696.339844 364.445313 696.339844 L 364.445313 696.101563 C 364.445313 695.070313 364.136719 693.597656 362.46875 693.597656 C 361.355469 693.597656 360.175781 694.273438 359.460938 695.027344 L 358.839844 691.171875 C 359.597656 690.421875 361.089844 689.425781 363.070313 689.425781 C 366.699219 689.425781 367.835938 693.242188 367.835938 697.808594 L 367.835938 704.601563 "/>
<path style=" stroke:none;fill-rule:nonzero;fill:rgb(100%,100%,100%);fill-opacity:1;" d="M 446.828125 709.316406 L 446.828125 705.859375 L 448.632813 703.039063 C 451.746094 698.234375 453.246094 695.492188 453.269531 692.636719 C 453.269531 690.644531 452.59375 689.066406 450.960938 689.066406 C 449.746094 689.066406 448.679688 690.121094 447.9375 691.058594 L 447.003906 687.003906 C 448.046875 685.613281 449.722656 684.488281 451.613281 684.488281 C 454.839844 684.488281 456.574219 687.71875 456.574219 692.148438 C 456.574219 696.242188 454.878906 699.511719 452.8125 702.664063 L 451.507813 704.542969 L 451.507813 704.617188 L 456.859375 704.617188 L 456.859375 709.316406 L 446.828125 709.316406 "/>
<path style=" stroke:none;fill-rule:nonzero;fill:rgb(100%,100%,100%);fill-opacity:1;" d="M 458.90625 709.316406 L 458.90625 705.859375 L 460.710938 703.039063 C 463.824219 698.234375 465.324219 695.492188 465.347656 692.636719 C 465.347656 690.644531 464.671875 689.066406 463.039063 689.066406 C 461.820313 689.066406 460.753906 690.121094 460.015625 691.058594 L 459.078125 687.003906 C 460.121094 685.613281 461.796875 684.488281 463.691406 684.488281 C 466.914063 684.488281 468.652344 687.71875 468.652344 692.148438 C 468.652344 696.242188 466.957031 699.511719 464.890625 702.664063 L 463.585938 704.542969 L 463.585938 704.617188 L 468.9375 704.617188 L 468.9375 709.316406 L 458.90625 709.316406 "/>
<path style=" stroke:none;fill-rule:nonzero;fill:rgb(100%,100%,100%);fill-opacity:1;" d="M 488.28125 699.625 C 488.21875 696.578125 488.152344 692.9375 488.152344 689.21875 L 488.109375 689.21875 C 487.628906 692.449219 487.023438 696.054688 486.457031 699.023438 L 484.671875 708.902344 L 482.078125 708.902344 L 480.515625 699.136719 C 480.039063 696.132813 479.558594 692.5625 479.1875 689.21875 L 479.144531 689.21875 C 479.078125 692.636719 478.988281 696.542969 478.90625 699.699219 L 478.621094 709.316406 L 475.550781 709.316406 L 476.492188 683.996094 L 480.902344 683.996094 L 482.339844 692.484375 C 482.824219 695.378906 483.253906 698.535156 483.585938 701.503906 L 483.671875 701.503906 C 484.0625 698.574219 484.5625 695.265625 485.0625 692.410156 L 486.609375 683.996094 L 490.960938 683.996094 L 491.742188 709.316406 L 488.523438 709.316406 L 488.28125 699.625 "/>
<path style=" stroke:none;fill-rule:nonzero;fill:rgb(100%,100%,100%);fill-opacity:1;" d="M 494.308594 709.316406 L 494.308594 690.945313 L 497.617188 690.945313 L 497.617188 709.316406 Z M 495.941406 688.542969 C 494.828125 688.542969 494.113281 687.1875 494.113281 685.5 C 494.113281 683.769531 494.851563 682.457031 495.984375 682.457031 C 497.117188 682.457031 497.808594 683.769531 497.835938 685.5 C 497.835938 687.1875 497.117188 688.542969 495.964844 688.542969 L 495.941406 688.542969 "/>
<path style=" stroke:none;fill-rule:nonzero;fill:rgb(100%,100%,100%);fill-opacity:1;" d="M 500.273438 682.644531 L 503.578125 682.644531 L 503.578125 709.316406 L 500.273438 709.316406 L 500.273438 682.644531 "/>
<path style=" stroke:none;fill-rule:nonzero;fill:rgb(100%,100%,100%);fill-opacity:1;" d="M 511.894531 700.636719 C 510.152344 700.636719 508.800781 701.351563 508.800781 703.53125 C 508.800781 704.996094 509.367188 705.710938 510.109375 705.710938 C 510.914063 705.710938 511.609375 704.773438 511.828125 703.605469 C 511.871094 703.304688 511.894531 702.96875 511.894531 702.628906 Z M 515.09375 704.882813 C 515.09375 706.609375 515.132813 708.300781 515.265625 709.316406 L 512.285156 709.316406 L 512.085938 707.472656 L 512.027344 707.472656 C 511.324219 708.941406 510.238281 709.726563 508.976563 709.726563 C 506.824219 709.726563 505.539063 707.027344 505.539063 704.09375 C 505.539063 699.324219 508.019531 697.070313 511.785156 697.070313 L 511.785156 696.84375 C 511.785156 695.867188 511.480469 694.476563 509.847656 694.476563 C 508.757813 694.476563 507.605469 695.117188 506.910156 695.828125 L 506.300781 692.1875 C 507.039063 691.476563 508.496094 690.53125 510.433594 690.53125 C 513.980469 690.53125 515.09375 694.140625 515.09375 698.460938 L 515.09375 704.882813 "/>
<path style=" stroke:none;fill-rule:nonzero;fill:rgb(100%,100%,100%);fill-opacity:1;" d="M 517.726563 696.804688 C 517.726563 694.515625 517.679688 692.601563 517.636719 690.945313 L 520.511719 690.945313 L 520.660156 693.503906 L 520.726563 693.503906 C 521.164063 692.300781 522.234375 690.53125 524.011719 690.53125 C 526.191406 690.53125 527.820313 693.046875 527.820313 698.460938 L 527.820313 709.316406 L 524.515625 709.316406 L 524.515625 699.136719 C 524.515625 696.769531 524.035156 695.15625 522.839844 695.15625 C 521.925781 695.15625 521.378906 696.242188 521.136719 697.292969 C 521.050781 697.667969 521.03125 698.195313 521.03125 698.722656 L 521.03125 709.316406 L 517.726563 709.316406 L 517.726563 696.804688 "/>
<path style=" stroke:none;fill-rule:nonzero;fill:rgb(100%,100%,100%);fill-opacity:1;" d="M 204.199219 696.433594 C 204.199219 698.464844 202.554688 700.109375 200.527344 700.109375 C 198.496094 700.109375 196.855469 698.464844 196.855469 696.433594 C 196.855469 694.40625 198.496094 692.765625 200.527344 692.765625 C 202.554688 692.765625 204.199219 694.40625 204.199219 696.433594 "/>
<path style=" stroke:none;fill-rule:nonzero;fill:rgb(100%,100%,100%);fill-opacity:1;" d="M 384.96875 696.433594 C 384.96875 698.464844 383.320313 700.109375 381.296875 700.109375 C 379.269531 700.109375 377.621094 698.464844 377.621094 696.433594 C 377.621094 694.40625 379.269531 692.765625 381.296875 692.765625 C 383.320313 692.765625 384.96875 694.40625 384.96875 696.433594 "/>
</g>
</svg>
