<?xml version="1.0" encoding="UTF-8"?>
<svg xmlns="http://www.w3.org/2000/svg" xmlns:xlink="http://www.w3.org/1999/xlink" width="305.5pt" height="441pt" viewBox="0 0 305.5 441" version="1.1">
<defs>
<clipPath id="clip1">
  <path d="M 8 0 L 305.5 0 L 305.5 426 L 8 426 Z M 8 0 "/>
</clipPath>
</defs>
<g id="surface1">
<g clip-path="url(#clip1)" clip-rule="nonzero">
<path style=" stroke:none;fill-rule:evenodd;fill:rgb(85.15625%,85.546875%,85.9375%);fill-opacity:1;" d="M 150.488281 0.546875 C 222.570313 1.988281 297.507813 46.023438 305.546875 145.445313 L 295.523438 176.378906 C 298.515625 233.539063 285.285156 316.355469 270.066406 345.042969 C 258.171875 355.925781 241.308594 362.828125 222.199219 365.5 L 210.820313 407.371094 C 183.371094 440.933594 101.183594 420.257813 66.832031 409.789063 L 66.078125 398.652344 L 49.816406 388.277344 C 23.101563 288.214844 0.0117188 142.757813 11.589844 84.394531 C 24.121094 22.722656 90.648438 -0.03125 150.488281 0.546875 Z M 150.488281 0.546875 "/>
</g>
<path style=" stroke:none;fill-rule:evenodd;fill:rgb(10.594177%,9.812927%,9.423828%);fill-opacity:1;" d="M 82.78125 412.222656 L 68.992188 408.164063 L 68.253906 397.207031 L 51.757813 386.496094 C 25.484375 288.078125 3.148438 143.921875 14.535156 86.515625 C 21.28125 56.945313 35.484375 39.144531 55.863281 31.097656 C 53.800781 43.296875 53.621094 51.726563 62.589844 52.085938 L 55.460938 148.257813 C 36.902344 149.132813 22.910156 167.089844 23.230469 202.71875 C 23.246094 219.542969 32.6875 245.875 54.316406 246.300781 C 56.761719 299.613281 65.820313 365.113281 82.78125 412.222656 Z M 82.78125 412.222656 "/>
<path style=" stroke:none;fill-rule:evenodd;fill:rgb(10.594177%,9.812927%,9.423828%);fill-opacity:1;" d="M 85.0625 412.804688 C 74.382813 379.019531 66.816406 344.84375 63.003906 310.199219 C 115.003906 355.730469 168.117188 372.539063 219.886719 365.878906 L 208.679688 406.152344 C 187.351563 432.234375 127.410156 423.0625 85.0625 412.804688 Z M 177.34375 390.394531 L 196.199219 371.976563 L 208.378906 388.945313 L 193.296875 408.230469 Z M 177.34375 390.394531 "/>
<path style=" stroke:none;fill-rule:evenodd;fill:rgb(10.594177%,9.812927%,9.423828%);fill-opacity:1;" d="M 165.605469 361.382813 C 124.796875 352.949219 93.136719 332.59375 62.308594 306.402344 L 56.484375 246.152344 C 72.707031 241.304688 83.042969 221.90625 83.519531 195.0625 C 82.382813 163.730469 71.101563 151.691406 57.921875 148.421875 L 64.792969 52.191406 C 74.496094 49.917969 80.902344 37.09375 84.601563 23.214844 C 133.6875 20.828125 164.617188 61.25 174.441406 138.425781 L 158.992188 173.160156 C 162.53125 235.902344 167.605469 298.640625 165.605469 361.382813 Z M 165.605469 361.382813 "/>
<path style=" stroke:none;fill-rule:evenodd;fill:rgb(10.594177%,9.812927%,9.423828%);fill-opacity:1;" d="M 162.277344 172.757813 L 176.296875 140.605469 L 241.835938 142.253906 C 249.484375 142.742188 255.253906 154.226563 256.671875 174.816406 L 265.742188 257.671875 L 279.757813 257.671875 L 266.152344 265.503906 L 234.824219 264.269531 L 236.355469 173.992188 Z M 162.277344 172.757813 "/>
<path style=" stroke:none;fill-rule:evenodd;fill:rgb(10.594177%,9.812927%,9.423828%);fill-opacity:1;" d="M 293.523438 176 L 276.046875 175.632813 L 275.179688 163.199219 C 274.503906 152.910156 277.949219 147.472656 284.046875 147.195313 L 301.894531 147.6875 Z M 293.523438 176 "/>
<path style=" stroke:none;fill-rule:evenodd;fill:rgb(54.492188%,7.446289%,6.272888%);fill-opacity:1;" d="M 168.527344 361.71875 C 204.117188 368.292969 246.195313 363.855469 268.503906 343.449219 C 283.46875 315.230469 296.757813 233.976563 293.820313 177.753906 L 276.242188 177.359375 L 283.492188 255.835938 C 283.710938 257.621094 281.441406 258.921875 279.960938 259.875 L 266.523438 267.695313 L 234.761719 266.71875 C 233.550781 266.507813 232.820313 265.632813 232.5625 264.519531 L 233.945313 176.785156 L 162.003906 175.191406 C 166.171875 237.367188 169.539063 300.546875 168.527344 361.71875 Z M 168.527344 361.71875 "/>
<path style=" stroke:none;fill-rule:evenodd;fill:rgb(54.492188%,7.446289%,6.272888%);fill-opacity:1;" d="M 281.46875 255.542969 L 267.753906 255.542969 L 257.738281 161.433594 C 256.320313 149.558594 250.648438 140.488281 242.308594 140.199219 L 176.3125 138.097656 C 170.515625 70.164063 140.296875 14.160156 82.703125 21.394531 C 80.292969 33.914063 72.753906 49.804688 63.453125 50.042969 C 55.070313 50.410156 56.933594 38.941406 57.980469 28.648438 C 53.742188 29.957031 49.503906 32.136719 45.265625 34.710938 C 69.023438 13.261719 114.488281 2.476563 150.605469 4.046875 C 221.503906 5.464844 295.046875 47.289063 303.757813 145.078125 L 283.136719 145.351563 C 278.878906 145.535156 272.273438 149.152344 273.277344 163.128906 Z M 281.46875 255.542969 "/>
<path style=" stroke:none;fill-rule:evenodd;fill:rgb(54.492188%,7.446289%,6.272888%);fill-opacity:1;" d="M 53.929688 150.65625 C 41.113281 151.519531 26.285156 169.40625 25.804688 199.15625 C 26.378906 219.34375 35.371094 243.066406 52.78125 243.640625 C 69.335938 243.308594 80.140625 219.773438 80.90625 196 C 79.089844 165.316406 68.378906 151.015625 53.929688 150.65625 Z M 53.832031 158.980469 C 43.304688 159.675781 31.128906 174.144531 30.738281 198.199219 C 31.210938 214.523438 38.589844 233.707031 52.886719 234.171875 C 66.472656 233.898438 75.347656 214.871094 75.976563 195.648438 C 74.484375 170.832031 65.6875 159.269531 53.832031 158.980469 Z M 53.785156 162.421875 C 44.226563 163.054688 33.167969 176.199219 32.808594 198.050781 C 33.238281 212.878906 39.945313 230.304688 52.929688 230.726563 C 65.269531 230.480469 73.335938 213.195313 73.902344 195.730469 C 72.546875 173.191406 64.554688 162.6875 53.785156 162.421875 Z M 53.785156 162.421875 "/>
<path style=" stroke:none;fill-rule:evenodd;fill:rgb(10.594177%,9.812927%,9.423828%);fill-opacity:1;" d="M 41.878906 217.238281 L 59.671875 224.988281 L 53.929688 198.011719 C 58.265625 193.296875 61.214844 187.414063 61.105469 181.363281 C 60.964844 173.871094 57.585938 166.75 53.070313 166.441406 C 49.207031 166.785156 44.816406 170.8125 43.023438 181.078125 C 42.480469 186.679688 43.902344 192.464844 47.617188 197.4375 Z M 41.878906 217.238281 "/>
<path style=" stroke:none;fill-rule:evenodd;fill:rgb(10.594177%,9.812927%,9.423828%);fill-opacity:1;" d="M 193.867188 383.585938 L 197.214844 380.097656 L 200.113281 384.15625 L 197.007813 387.851563 Z M 179.414063 390.367188 L 195.878906 373.714844 L 203.46875 384.289063 L 197.027344 392.679688 L 191.726563 385.675781 L 183.089844 394.648438 Z M 179.414063 390.367188 "/>
<path style=" stroke:none;fill-rule:evenodd;fill:rgb(54.492188%,7.446289%,6.272888%);fill-opacity:1;" d="M 191.828125 388.582031 L 194.460938 391.90625 L 191.328125 395.054688 L 194.226563 398.550781 L 204.296875 385.875 L 206.59375 389.078125 L 193.503906 405.722656 L 184.746094 395.925781 Z M 191.828125 388.582031 "/>
</g>
</svg>
