<?xml version="1.0" encoding="UTF-8"?>
<svg xmlns="http://www.w3.org/2000/svg" xmlns:xlink="http://www.w3.org/1999/xlink" width="188.4pt" height="425.2pt" viewBox="0 0 188.4 425.2" version="1.1">
<defs>
<clipPath id="clip1">
  <path d="M 20 367 L 165 367 L 165 425.199219 L 20 425.199219 Z M 20 367 "/>
</clipPath>
</defs>
<g id="surface1">
<path style=" stroke:none;fill-rule:evenodd;fill:rgb(49.804688%,80.46875%,82.03125%);fill-opacity:1;" d="M 107.394531 57.214844 L 96.261719 39.699219 L 95.964844 34.058594 L 93.144531 28.269531 L 86.464844 25.894531 L 83.050781 26.488281 L 79.632813 24.558594 L 70.726563 25.894531 L 64.195313 32.128906 L 62.117188 39.253906 L 69.839844 51.128906 L 73.546875 58.105469 L 70.132813 67.160156 L 66.71875 81.703125 L 53.804688 84.078125 L 40.445313 88.089844 L 42.226563 109.910156 L 39.554688 107.980469 L 36.289063 76.953125 L 30.503906 49.789063 L 25.15625 61.222656 L 23.820313 80.519531 L 23.523438 91.203125 L 18.921875 90.761719 L 9.421875 86.753906 L 4.226563 86.308594 C 1.199219 86.671875 0.0625 88.453125 0.8125 91.652344 L 4.671875 105.753906 L 16.101563 127.574219 L 32.582031 158.152344 L 40.445313 172.550781 L 47.128906 198.230469 L 48.90625 217.972656 L 56.628906 261.171875 L 61.523438 291.15625 L 64.046875 303.476563 C 57.710938 306.039063 52.511719 309.746094 48.464844 314.609375 L 54.695313 325.890625 L 64.34375 337.914063 L 74.734375 345.78125 C 81.230469 349.179688 86.484375 347.292969 86.464844 342.664063 C 86.441406 338.339844 83.441406 331.324219 79.488281 323.515625 C 79.867188 315.164063 81.761719 306.988281 82.902344 298.726563 L 87.652344 267.40625 L 89.730469 258.351563 C 94.183594 264.222656 98.636719 268.132813 103.089844 270.078125 L 118.675781 289.226563 C 135.675781 313.300781 159.585938 338.46875 172.710938 338.507813 C 181.910156 338.40625 184.761719 330.929688 184.730469 324.109375 C 184.714844 312.828125 175.183594 292.976563 162.316406 272.15625 L 154.152344 257.460938 C 155.507813 245.746094 151.515625 235.324219 144.210938 225.691406 L 132.335938 212.183594 L 119.421875 203.425781 L 113.925781 197.933594 L 101.460938 180.714844 L 97.894531 176.558594 L 100.421875 102.339844 L 101.308594 79.628906 C 108.464844 78.886719 113.128906 76.058594 112.296875 68.644531 C 111.46875 64.429688 109.738281 59.878906 107.394531 57.214844 Z M 107.394531 57.214844 "/>
<path style=" stroke:none;fill-rule:evenodd;fill:rgb(89.0625%,0%,8.616638%);fill-opacity:1;" d="M 49.359375 315.386719 C 52.863281 310.636719 57.398438 305.886719 62.632813 301.140625 L 51.136719 289.972656 L 39.808594 279.449219 L 38.839844 281.066406 L 41.753906 295.960938 Z M 49.359375 315.386719 "/>
<path style=" stroke:none;fill-rule:evenodd;fill:rgb(68.164063%,4.315186%,7.835388%);fill-opacity:1;" d="M 155.746094 304.21875 L 160.59375 301.914063 L 169.054688 300.6875 L 175.960938 301.835938 L 181.214844 315.96875 L 182.941406 324.921875 L 182.53125 331.496094 L 178.257813 335.519531 L 170.617188 336.09375 L 162.730469 333.710938 L 151.804688 326.070313 L 144.820313 318.347656 L 148.929688 308.574219 Z M 155.746094 304.21875 "/>
<path style=" stroke:none;fill-rule:evenodd;fill:rgb(89.0625%,0%,8.616638%);fill-opacity:1;" d="M 125.964844 213.308594 C 129.347656 212.078125 132.222656 217.746094 135.308594 220.269531 C 137.566406 223.328125 139.59375 224.660156 141.074219 229.8125 C 142.035156 231.769531 144.402344 231.515625 143.960938 235.679688 L 146.445313 237.769531 C 146.578125 238.761719 146.378906 239.757813 145.847656 240.746094 L 147.4375 242.441406 L 147.238281 245.621094 L 137.894531 232.199219 Z M 125.964844 213.308594 "/>
<path style=" stroke:none;fill-rule:evenodd;fill:rgb(68.164063%,4.315186%,7.835388%);fill-opacity:1;" d="M 81.222656 82.242188 L 84.597656 84.28125 L 86.167969 77.308594 L 83.578125 75.878906 Z M 86.792969 85.605469 L 89.246094 87.078125 L 90.351563 79.613281 L 87.988281 78.3125 Z M 82.605469 115.992188 L 79.578125 114.046875 L 81.445313 105.898438 L 84.265625 107.414063 Z M 77.585938 112.765625 L 74.859375 111.015625 L 77.070313 103.539063 L 79.613281 104.914063 Z M 27.550781 113.367188 L 29.882813 112.929688 L 32.714844 117.519531 L 30.320313 117.652344 Z M 31.621094 112.601563 L 34.191406 112.121094 L 37.648438 117.238281 L 34.882813 117.394531 Z M 40.003906 132.039063 L 42.183594 131.015625 L 45.3125 135.539063 L 42.90625 136.464844 Z M 44.675781 129.84375 L 46.78125 128.859375 L 50.097656 133.699219 L 47.636719 134.644531 Z M 44.675781 129.84375 "/>
<path style="fill-rule:evenodd;fill:rgb(89.0625%,0%,8.616638%);fill-opacity:1;stroke-width:2;stroke-linecap:butt;stroke-linejoin:miter;stroke:rgb(0%,0%,0%);stroke-opacity:1;stroke-miterlimit:4;" d="M 622.734375 3860.671875 L 639.375 3928.171875 L 699.0625 3981.023438 L 787.148438 4008.445313 L 704.921875 4081.84375 L 512.148438 4207.078125 L 433.867188 4239.382813 L 428.007813 4220.789063 L 477.929688 4109.226563 L 565.976563 3953.640625 Z M 622.734375 3860.671875 " transform="matrix(0.1,0,0,-0.1,0,425.2)"/>
<path style=" stroke:none;fill-rule:evenodd;fill:rgb(65.429688%,83.201599%,67.381287%);fill-opacity:1;" d="M 57.210938 122.984375 L 59.839844 111.976563 L 56.628906 112.609375 L 54.421875 116.03125 L 55.472656 121.296875 Z M 57.210938 122.984375 "/>
<path style=" stroke:none;fill-rule:evenodd;fill:rgb(100%,100%,100%);fill-opacity:1;" d="M 67.792969 32.128906 C 68.628906 29.34375 71.253906 27.863281 73.789063 28.382813 C 87.496094 38.871094 104.449219 59.445313 104.421875 65.359375 C 104.4375 66.886719 103.710938 68.480469 102.140625 68.476563 C 96.582031 68.195313 78.6875 48.273438 67.792969 32.128906 Z M 78.753906 339.976563 C 76.304688 338.101563 73.953125 335.679688 71.65625 332.882813 C 69.578125 327.773438 70.320313 325.65625 72.167969 325.671875 C 74.203125 325.664063 79.964844 336.097656 78.753906 339.976563 Z M 108.769531 245.871094 C 109.613281 260.140625 121.390625 271.496094 134.398438 285.726563 C 141.097656 293.050781 145.421875 298.996094 152.046875 305.613281 L 156.039063 304.242188 C 156.445313 305.929688 158.234375 307.6875 159.421875 307.679688 C 160.621094 307.699219 160.871094 305.386719 160.527344 301.746094 L 165.269531 300.121094 L 168.882813 301.121094 C 170.242188 302.871094 171.40625 303.078125 172.378906 301.746094 L 172.503906 300.621094 C 153.1875 264.589844 119.011719 202.121094 98.046875 191.746094 L 98.046875 203.46875 C 103.199219 207.128906 124.40625 235.425781 121.367188 235.398438 C 119.757813 235.4375 111.972656 224.421875 107.273438 218.9375 L 100.039063 218.0625 L 110.019531 234.648438 L 119.996094 236.644531 C 129.496094 250.246094 136.523438 262.871094 136.710938 272.8125 C 127.519531 260.21875 116.589844 259.21875 108.769531 245.871094 Z M 30.046875 116.476563 L 26.960938 117.347656 L 20.542969 105.152344 L 22.285156 103.726563 L 15.953125 95.175781 L 16.664063 94.9375 C 20.5625 98.371094 24.378906 101.800781 28.066406 105.230469 L 24.660156 105.785156 C 26.425781 108.613281 28.097656 111.4375 29.652344 114.261719 Z M 14.367188 92.953125 L 13.417969 93.273438 C 12.464844 92.324219 11.410156 91.480469 10.253906 90.742188 C 11.726563 91.371094 13.101563 92.113281 14.367188 92.953125 Z M 26.960938 78.539063 C 27.972656 87.765625 30.378906 95.71875 33.925781 102.617188 L 25.457031 95.570313 C 24.457031 89.664063 25.214844 84.027344 26.960938 78.539063 Z M 40.738281 91.371094 C 48.945313 89.183594 53.277344 86.992188 65.367188 84.800781 L 62.835938 97.15625 L 49.527344 105.945313 L 45.964844 114.8125 L 42.796875 111.488281 L 41.21875 96.757813 C 47.53125 94.21875 54.113281 92.089844 60.847656 90.1875 C 57.441406 89.222656 49.589844 91.972656 41.089844 95.246094 Z M 39.460938 139.273438 L 34.652344 132.929688 L 41.285156 131.679688 L 44.460938 135.238281 L 49.644531 133.316406 L 54.257813 136.679688 L 53.296875 140.140625 L 50.609375 144.945313 L 43.785156 141.578125 Z M 147.59375 238.550781 L 150.046875 243.109375 L 148.136719 244.195313 L 147.933594 242.019531 L 146.539063 240.246094 Z M 147.59375 238.550781 "/>
<path style=" stroke:none;fill-rule:evenodd;fill:rgb(10.205078%,31.37207%,61.131287%);fill-opacity:1;" d="M 83.078125 25.453125 C 67.171875 11.386719 44.929688 -0.046875 42.90625 -0.0507813 C 41.730469 -0.046875 41.363281 0.566406 41.355469 1.496094 C 41.378906 3.722656 59.628906 38.121094 71.222656 55.484375 C 71.390625 62.277344 67.761719 72.121094 66.503906 80.597656 C 57.953125 82.140625 49.394531 84.441406 40.839844 87.308594 C 38.242188 65.492188 34.953125 46.210938 31.238281 46.210938 C 30.832031 46.203125 30.617188 46.390625 30.617188 46.726563 C 30.617188 47.46875 33.378906 49.203125 33.714844 51.335938 C 36.769531 68.476563 39.628906 88.371094 41.039063 105.6875 C 41.234375 108.027344 40.457031 107.519531 40.257813 105.789063 C 37.566406 85.472656 34.703125 47.164063 29.378906 47.242188 C 24.515625 47.261719 23.6875 74.261719 22.5625 89.0625 C 21.644531 89.21875 20.855469 89.5625 20.1875 90.097656 C 16.757813 89.578125 11.003906 85.464844 6.457031 85.449219 C 4.65625 85.449219 2.117188 85.882813 2.117188 87.101563 C 2.113281 88.324219 5.351563 86.777344 6.96875 86.789063 C 8.914063 86.769531 14.527344 89.445313 18.019531 91.230469 C 17.464844 91.746094 14.003906 92.148438 13.992188 92.78125 C 14.019531 94.027344 16.582031 93.007813 18.84375 92.988281 C 24.472656 93.050781 46.152344 117.003906 55.398438 127.992188 C 54.742188 130.710938 53.988281 133.433594 53.128906 136.152344 L 53.957031 136.664063 C 52.503906 140.84375 51.859375 143.019531 49.925781 144.101563 C 45.929688 141.921875 41.253906 140.191406 38.15625 138.011719 C 40.050781 146.605469 43.023438 153.171875 46.726563 158.351563 C 46.035156 156.441406 45.46875 154.589844 45.175781 152.878906 C 45.695313 153.164063 46.214844 153.304688 46.726563 153.289063 C 43.839844 148.464844 43.351563 145.445313 41.667969 141.519531 C 42.191406 141.0625 43.015625 141.511719 44.144531 142.863281 C 45.621094 143.972656 48.101563 145.851563 49.925781 145.859375 C 51.582031 145.8125 53.230469 142.851563 54.882813 136.976563 C 59.296875 120.914063 64.3125 94.15625 69.707031 72.746094 C 70.675781 68.164063 72.15625 62.730469 74.089844 61.597656 C 76.085938 65.382813 80.851563 71.253906 85.035156 74.8125 C 88.058594 77.363281 95.292969 79.277344 95.363281 84.828125 C 95.378906 106.777344 90.566406 145.789063 88.652344 145.753906 C 87.3125 145.789063 87.851563 140.613281 87.003906 140.589844 C 85.910156 140.617188 86.097656 151.203125 84.835938 151.226563 C 83.066406 151.234375 84.539063 140.824219 83.28125 140.796875 C 82.136719 140.804688 82.21875 145.480469 81.9375 147.820313 C 81.601563 150.128906 81.300781 154.535156 80.285156 154.53125 C 78.351563 154.535156 79.386719 143.378906 78.53125 143.378906 C 77.363281 143.371094 77.070313 153.679688 75.128906 153.703125 C 73.835938 153.703125 74.5625 147.511719 73.578125 147.511719 C 72.480469 147.492188 72.738281 155.550781 71.40625 155.566406 C 70.628906 155.550781 71.390625 147.421875 70.378906 147.40625 C 69.480469 147.394531 69.160156 156.609375 67.792969 156.597656 C 66.839844 156.613281 67.441406 147.804688 66.757813 147.820313 C 66.003906 147.816406 66.195313 153.289063 64.902344 153.289063 C 63.40625 153.300781 64.339844 143.371094 63.457031 143.378906 C 62.601563 143.371094 62.832031 148.203125 62.113281 148.234375 C 61.160156 148.226563 62.097656 141.425781 60.976563 141.414063 C 59.335938 141.414063 60.175781 151.835938 56.953125 151.847656 C 55.410156 151.824219 55.082031 150.144531 54.367188 150.195313 C 53.542969 150.199219 54.027344 151.609375 55.8125 154.429688 L 82.558594 199.347656 C 86.746094 205.933594 93.234375 216.410156 97.738281 216.488281 C 98.328125 216.488281 98.769531 216.242188 99.097656 215.863281 C 96.445313 213.011719 96.1875 207.460938 95.984375 202.550781 C 94.148438 167.058594 96.488281 120.929688 98.976563 79.5625 L 100.320313 79.664063 C 98.015625 117.164063 97.140625 155.613281 96.910156 194.496094 C 96.886719 201.136719 97.257813 212.925781 98.769531 214.425781 C 99.910156 215.515625 98.386719 207.5625 98.464844 203.683594 C 98.347656 196.527344 97.628906 183.308594 100.214844 183.34375 C 104.304688 183.273438 118.601563 205.472656 126.652344 217.109375 C 144.164063 244.535156 159.738281 269.773438 174.773438 300.648438 C 173.464844 300.367188 172.15625 300.386719 170.847656 300.546875 L 172.089844 301.0625 L 171.054688 301.578125 C 173.351563 301.757813 175.300781 302.304688 176.011719 304.160156 C 180.9375 316.699219 188.453125 335.210938 172.914063 335.242188 C 162.273438 335.222656 153.652344 326.429688 146.066406 318.617188 C 147.0625 312.8125 150.140625 308.144531 155.976563 304.984375 C 157.421875 304.269531 155.8125 302.660156 154.324219 303.328125 C 148.796875 306.195313 145.558594 310.78125 143.894531 316.550781 C 119.671875 289.535156 101.546875 268.035156 79.667969 235.078125 C 49.832031 191.898438 27.664063 148.636719 5.835938 104.140625 C 6.214844 102.121094 6.566406 101.074219 6.867188 101.765625 C 29.917969 146.710938 54.339844 190.273438 82.339844 233.363281 C 100.242188 259.570313 120.910156 285.691406 144.34375 310.945313 L 143.660156 307.390625 C 138.558594 296.84375 124.269531 282.882813 118.90625 271.285156 C 121.414063 274.296875 124.097656 276.777344 126.976563 278.671875 C 106.195313 255.65625 97.433594 240.03125 108.101563 232.585938 C 99.972656 227.429688 93.332031 215.980469 90.050781 212.890625 C 88.382813 211.800781 92.257813 217.398438 91.007813 217.40625 C 90.351563 217.453125 82.347656 206.898438 77.839844 201.382813 C 77.222656 200.679688 76.878906 201.671875 78.292969 203.867188 C 86.691406 217.539063 102.285156 238.164063 100.035156 239.558594 C 90.609375 227.121094 81.804688 213.894531 72.820313 199.078125 C 64.820313 186.085938 56.816406 171.953125 48.816406 158.011719 C 48.339844 156.984375 46.96875 158.0625 48.132813 161.335938 C 56.628906 181.246094 77.164063 210.941406 79.660156 218.773438 C 66.917969 206.539063 52.492188 178.617188 38.90625 154.636719 L 8.820313 98.019531 C 9.546875 96.46875 10.785156 95.480469 12.378906 94.871094 C 14.320313 94.289063 13.085938 93.414063 12.378906 93.398438 C 10.953125 93.421875 9.332031 94.257813 7.589844 95.695313 C 6.835938 94.289063 6.042969 92.914063 5.128906 91.59375 C 4.851563 91.261719 3.5 92.203125 3.710938 92.835938 C 4.292969 94.730469 5 96.496094 5.8125 98.15625 C 5.21875 99.074219 4.765625 99.992188 4.40625 100.914063 C 1.675781 94.769531 2.722656 88.566406 1.4375 88.578125 C 0.71875 88.609375 0.351563 90.136719 0.34375 91.183594 C 0.300781 104.84375 20.832031 137.011719 38.359375 170.226563 L 43.144531 187.730469 L 62.292969 300.003906 C 54.800781 293.09375 47.15625 285.03125 39.589844 278.121094 C 38.644531 277.1875 37.988281 278.460938 38.433594 281.601563 C 43.972656 323.015625 68.539063 347.738281 78.976563 347.730469 C 81.085938 347.726563 83.972656 347.230469 83.214844 345.539063 C 83.066406 345.261719 82.132813 346.34375 80.210938 346.363281 C 74.863281 346.367188 49.847656 333.410156 39.863281 282.226563 C 39.617188 280.914063 40.378906 280.828125 40.753906 281.234375 C 48.335938 287.855469 54.5625 294.476563 61.46875 301.097656 C 54.421875 300.652344 50.382813 303.222656 48.214844 307.660156 C 57.085938 332.785156 73.859375 345.796875 80.640625 345.789063 C 83.164063 345.796875 82.019531 343.648438 81.328125 343.214844 C 70.328125 334.949219 53.796875 311.914063 61.195313 311.902344 C 67.117188 311.949219 72.714844 321.402344 76.238281 321.199219 C 80.992188 328.972656 83.21875 336.621094 83.351563 344.171875 C 83.347656 345.246094 84.519531 345.695313 84.585938 344.3125 C 85.003906 336.828125 83.015625 329.183594 78.019531 320.789063 C 78.789063 305.007813 83.441406 272.199219 86.496094 260.070313 C 86.8125 258.746094 87.542969 258.105469 88.683594 258.15625 C 87.378906 259.941406 86.839844 262.386719 86.632813 265.132813 C 84.417969 281.160156 82.058594 297.40625 78.925781 314.347656 L 79.660156 315.867188 C 86.183594 288.632813 86.539063 268.019531 91.007813 260.894531 C 94.109375 262.84375 97.210938 264.835938 100.308594 266.910156 C 113.378906 286.054688 132.679688 305.296875 142.785156 318.128906 C 151.90625 327.824219 165.109375 337.574219 172.789063 337.570313 C 179.785156 337.683594 183.867188 333.070313 184.003906 326.667969 C 184.003906 312.578125 171.433594 284.484375 153.09375 254.464844 C 153.023438 232.714844 139.980469 214.890625 118.632813 201.953125 L 98.804688 176.378906 C 99.257813 144.488281 101.265625 111.558594 102.496094 79.148438 C 107.195313 78.460938 110.195313 76.632813 111.523438 72.71875 C 112.085938 71.28125 110.160156 71.371094 109.839844 72.195313 C 108.304688 75.476563 104.464844 77.242188 101.265625 77.234375 C 88.664063 77.203125 72.296875 55.613281 63.933594 40.71875 L 63.660156 37.300781 C 77.664063 61.335938 95.441406 75.714844 101.675781 75.730469 C 103.480469 75.726563 104.476563 74.535156 103.863281 74.496094 C 102.511719 74.367188 101.339844 74.121094 100.488281 73.675781 C 103.558594 73.277344 106.160156 72.824219 107.460938 72.203125 C 108.777344 71.511719 107.222656 70.597656 106.347656 70.632813 C 93.515625 71.203125 77.011719 48.226563 65.890625 32.464844 C 69.496094 27.429688 73.933594 24.84375 79.488281 26.160156 C 93.667969 38.289063 105.554688 52.054688 109.914063 67.753906 C 111.0625 71.785156 111.546875 70.015625 111.539063 69.09375 C 111.558594 65.621094 108.046875 52.691406 97.347656 40.078125 C 97.746094 32.660156 95.015625 23.992188 83.078125 25.453125 Z M 121.078125 205.066406 L 130.804688 219.824219 C 131.925781 219.855469 133.046875 219.976563 134.160156 220.160156 C 133.464844 219.1875 132.589844 218.261719 131.589844 217.363281 C 133.492188 217.992188 135.421875 219.179688 137.402344 221.496094 L 136.394531 221.496094 C 137.648438 222.503906 138.425781 223.480469 138.296875 224.410156 C 138.632813 225.097656 138.828125 225.496094 138.183594 225.527344 L 135.019531 225.664063 L 139.972656 233.578125 C 141.734375 231.90625 141.351563 230.820313 139.191406 230.222656 C 142.203125 227.621094 144.007813 231.34375 141.316406 234.851563 L 141.695313 235.523438 C 142.328125 234.933594 142.90625 234.246094 143.421875 233.421875 L 143.886719 234.136719 C 143.441406 234.941406 142.84375 235.6875 142.097656 236.371094 L 147.800781 245.871094 C 148.40625 245.636719 148.921875 245.300781 149.320313 244.851563 C 149.675781 245.050781 149.878906 245.382813 149.925781 245.855469 C 149.53125 246.324219 149.078125 246.695313 148.585938 246.996094 L 151.601563 252.027344 C 151.519531 244.371094 149.601563 237.308594 146.011719 230.78125 C 145.878906 231.195313 145.699219 231.578125 145.46875 231.945313 C 144.355469 230.210938 143.175781 228.507813 141.878906 226.867188 C 142.359375 226.851563 142.84375 226.921875 143.328125 227.09375 C 138.214844 218.324219 130.253906 211.035156 121.078125 205.066406 Z M 100.050781 204.710938 L 100.214844 206.703125 C 104.953125 211.539063 110.324219 219.652344 115.800781 228.339844 C 118.039063 227.777344 118.855469 231.628906 120.796875 233.277344 L 120.074219 230.890625 C 113.808594 221.960938 106.09375 209.371094 100.050781 204.710938 Z M 108.136719 249.972656 C 106.640625 248.4375 104.84375 243.746094 104.839844 240.9375 C 104.828125 235.679688 110.589844 232.414063 114.402344 232.433594 C 120.710938 232.433594 127.523438 246.496094 132.535156 257.355469 C 133.101563 258.703125 132.203125 259.425781 131.28125 257.949219 C 127.546875 251.246094 124.492188 243.023438 120.535156 241.203125 C 117.546875 243.453125 115.253906 244.511719 113.347656 244.894531 C 111.394531 245.710938 108.664063 247.621094 108.664063 246.078125 C 108.671875 244.886719 115.324219 241.191406 119.015625 239.421875 C 120.265625 238.871094 119.847656 237.828125 119.015625 237.839844 C 116.980469 237.835938 111.128906 241.6875 107.214844 243.972656 C 106.882813 243.570313 106.441406 242.914063 106.226563 242.257813 C 105.839844 244.703125 110.050781 251.804688 108.136719 249.972656 Z M 84.65625 26.945313 L 88.183594 30.304688 C 94.007813 32.179688 92.707031 34.21875 95.351563 37.578125 C 96.195313 32.203125 90.648438 25.664063 85.152344 27.164063 Z M 61.589844 36.902344 C 61.628906 36.070313 61.746094 35.234375 61.992188 34.398438 C 55.972656 25.265625 50.589844 15.96875 45.433594 6.617188 C 44.742188 5.070313 45.597656 3.871094 46.003906 4.679688 C 52.105469 14.027344 58.257813 22.953125 64.578125 30.363281 C 67.570313 26.613281 71.351563 24.175781 76.285156 23.660156 C 67.035156 14.890625 54.550781 6.984375 44.710938 2.578125 C 44.117188 2.402344 43.351563 2.964844 43.902344 4.277344 C 49.367188 15.476563 55.261719 26.351563 61.589844 36.902344 Z M 38.785156 107.453125 C 34.933594 103.007813 30.992188 98.96875 26.757813 95.78125 C 24.628906 93.953125 24.175781 90.289063 24.253906 87.105469 C 24.964844 79.800781 25.195313 71.738281 26.378906 65.191406 C 26.597656 63.300781 27.851563 61.269531 28.277344 61.277344 C 28.859375 61.285156 28.445313 64.890625 28.277344 67.203125 C 28.808594 65.394531 29.292969 63.976563 29.617188 63.960938 C 30.015625 63.960938 29.839844 69.550781 29.957031 72.347656 C 30.175781 71.128906 30.402344 70.558594 30.628906 70.558594 C 31.394531 70.550781 30.921875 77.117188 31.070313 80.398438 C 31.40625 79.414063 31.742188 78.734375 32.082031 78.71875 C 32.441406 78.730469 32.082031 84.386719 32.082031 87.21875 C 32.445313 85.441406 32.785156 84.363281 33.089844 84.3125 C 33.832031 84.308594 33.382813 89.902344 33.53125 92.695313 C 33.761719 91.617188 34.015625 90.882813 34.3125 90.90625 C 34.957031 90.898438 34.613281 96.273438 34.761719 98.953125 C 35.058594 97.433594 35.304688 95.828125 35.65625 95.828125 C 36.179688 95.839844 36.027344 99.628906 36.214844 101.53125 C 36.589844 100.34375 36.964844 99.527344 37.335938 99.515625 C 37.65625 99.523438 37.40625 102.945313 37.445313 104.660156 C 37.886719 103.550781 38.257813 102.988281 38.5625 102.984375 C 39.0625 102.996094 38.980469 105.898438 38.785156 107.453125 Z M 65.367188 82.824219 C 63.15625 92.066406 61.121094 101.304688 59.347656 110.546875 C 55.386719 111.121094 52.800781 113.621094 52.832031 116.816406 C 52.855469 119.320313 53.929688 121.878906 56.292969 123.996094 L 56.046875 125.644531 C 51.933594 120.941406 47.753906 116.238281 43.421875 111.535156 C 42.652344 104.027344 40.894531 94.953125 41.113281 89.011719 C 49.203125 86.613281 57.285156 84.5625 65.367188 82.824219 Z M 58.667969 112.96875 C 55.683594 113.304688 53.917969 117.339844 57.015625 121.480469 Z M 49.746094 214.480469 C 54.554688 240.441406 59.058594 266.402344 62.730469 292.367188 C 63.421875 302.214844 72.140625 312.269531 73.796875 312.320313 C 75.441406 312.320313 74.695313 309.445313 74.007813 307.050781 C 73.113281 309.621094 72.246094 309.722656 72.09375 307.6875 C 72.035156 303.949219 71.816406 300.238281 71.027344 296.621094 C 70.714844 300.078125 69.5625 300.351563 69.539063 299.175781 C 69.457031 294.664063 68.972656 289.5625 67.628906 285.980469 C 66.710938 286.726563 67.34375 295.878906 66.515625 295.890625 C 66.046875 295.890625 65.722656 295.496094 65.710938 294.921875 C 66.054688 285.355469 64.960938 277.894531 64.007813 269.382813 C 63.429688 270.695313 63.234375 272.703125 63.417969 275.402344 C 63.476563 276.503906 62.207031 277.140625 62.089844 275.980469 C 60.070313 256.054688 56.960938 235.121094 51.664063 214.691406 C 51.207031 213.652344 48.773438 206.28125 49.746094 214.480469 Z M 165.933594 299.4375 C 164.097656 299.445313 159.460938 300.839844 159.464844 301.855469 C 159.429688 302.695313 163.753906 301.386719 165.902344 301.152344 C 167.769531 301.105469 170.105469 301.9375 170.09375 300.949219 C 170.089844 300.328125 168.4375 299.445313 165.933594 299.4375 Z M 165.933594 299.4375 "/>
<g clip-path="url(#clip1)" clip-rule="nonzero">
<path style=" stroke:none;fill-rule:evenodd;fill:rgb(10.205078%,31.37207%,61.131287%);fill-opacity:1;" d="M 32.507813 385.199219 L 32.507813 392.328125 L 20.691406 392.328125 L 20.691406 367.066406 L 38.832031 367.066406 C 48.023438 367.066406 49.628906 371.472656 49.621094 376.640625 C 49.632813 381.1875 46.78125 385.191406 39.0625 385.199219 Z M 32.621094 378.242188 L 32.621094 373.871094 L 35.898438 373.871094 C 38.34375 373.855469 38.738281 378.242188 35.898438 378.242188 Z M 51.628906 367.066406 L 74.828125 367.066406 L 74.828125 374.085938 L 63.363281 374.085938 L 63.363281 376.757813 L 74.828125 376.757813 L 74.828125 381.820313 L 63.363281 381.820313 L 63.363281 384.492188 L 74.828125 384.492188 L 74.828125 392.328125 L 51.628906 392.328125 Z M 76.371094 392.328125 L 84.101563 367.066406 L 100.835938 367.066406 L 108.566406 392.328125 L 96.335938 392.328125 L 95.488281 388.605469 L 88.601563 388.605469 L 87.546875 392.328125 Z M 90.082031 382.3125 L 93.871094 382.3125 L 91.976563 375.703125 Z M 122.761719 385.199219 L 122.761719 392.328125 L 110.945313 392.328125 L 110.945313 367.066406 L 129.085938 367.066406 C 138.277344 367.066406 140.40625 371.097656 140.394531 375.894531 C 140.40625 379.769531 137.257813 382.355469 136.023438 382.886719 L 141.078125 392.328125 L 127.84375 392.328125 L 125.050781 385.199219 Z M 122.878906 378.242188 L 122.878906 373.871094 L 126.152344 373.871094 C 128.597656 373.855469 128.992188 378.242188 126.152344 378.242188 Z M 142.480469 367.066406 L 154.550781 367.066406 L 154.550781 383.917969 L 164.382813 383.917969 L 164.382813 391.910156 L 142.480469 391.910156 Z M 66.230469 399.585938 L 54.386719 399.585938 L 54.386719 411.835938 C 54.378906 417.347656 49.257813 416.207031 46.058594 413.203125 L 46.058594 421.925781 C 48.871094 423.5 52.011719 425.144531 55.753906 425.144531 C 62.714844 425.144531 66.210938 421.132813 66.230469 416.523438 Z M 66.847656 425.144531 L 74.585938 399.882813 L 91.3125 399.882813 L 99.042969 425.144531 L 86.8125 425.144531 L 85.96875 421.417969 L 79.082031 421.417969 L 78.023438 425.144531 Z M 80.554688 415.121094 L 84.351563 415.121094 L 82.457031 408.519531 Z M 112.558594 412.878906 L 112.558594 425.144531 L 101.46875 425.144531 L 101.46875 399.585938 L 116.65625 399.585938 L 119.742188 410.714844 L 123.589844 399.585938 L 137.515625 399.585938 L 137.515625 425.144531 L 126.425781 425.144531 L 126.425781 412.878906 L 122.390625 425.144531 L 116.65625 425.144531 Z M 24.253906 409.457031 L 29.984375 409.457031 L 31.898438 403.96875 L 33.808594 409.457031 L 39.445313 409.457031 L 34.839844 412.984375 L 36.355469 418.375 L 32.042969 415.242188 L 26.945313 418.375 L 28.859375 412.9375 Z M 145.488281 409.457031 L 151.222656 409.457031 L 153.132813 403.96875 L 155.046875 409.457031 L 160.683594 409.457031 L 156.074219 412.984375 L 157.59375 418.375 L 153.28125 415.242188 L 148.183594 418.375 L 150.09375 412.9375 Z M 145.488281 409.457031 "/>
</g>
</g>
</svg>
