<?xml version="1.0" encoding="UTF-8"?>
<svg xmlns="http://www.w3.org/2000/svg" xmlns:xlink="http://www.w3.org/1999/xlink" width="425.2pt" height="385.1pt" viewBox="0 0 425.2 385.1" version="1.1">
<defs>
<clipPath id="clip1">
  <path d="M 0 0 L 425.199219 0 L 425.199219 378 L 0 378 Z M 0 0 "/>
</clipPath>
</defs>
<g id="surface1">
<g clip-path="url(#clip1)" clip-rule="nonzero">
<path style=" stroke:none;fill-rule:evenodd;fill:rgb(10.594177%,9.812927%,9.423828%);fill-opacity:1;" d="M 16.085938 89.234375 C 26.113281 94.25 10.570313 110.796875 10.570313 118.820313 C 10.570313 137.371094 2.546875 165.449219 2.546875 189.519531 C 2.546875 207.570313 0.0390625 224.117188 0.0390625 241.164063 C 0.0390625 262.722656 12.074219 233.644531 12.074219 235.648438 C 12.074219 245.175781 22.101563 271.75 22.101563 284.285156 C 22.101563 317.378906 42.660156 285.789063 49.679688 285.789063 C 53.1875 293.3125 85.78125 326.402344 81.769531 334.929688 C 78.257813 342.449219 97.8125 362.003906 106.839844 366.515625 C 113.859375 370.027344 113.359375 366.515625 119.875 373.035156 C 131.910156 385.070313 145.449219 369.023438 145.449219 369.023438 C 154.472656 378.050781 150.964844 375.039063 166.007813 375.039063 C 174.027344 375.039063 178.542969 375.542969 178.542969 366.515625 C 178.542969 365.515625 194.585938 363.007813 201.605469 363.007813 C 204.113281 363.007813 221.664063 352.476563 226.675781 352.476563 C 238.710938 360.5 280.828125 367.519531 296.375 367.519531 C 311.917969 367.519531 302.890625 368.019531 310.414063 360.5 C 312.417969 358.492188 309.410156 354.984375 309.410156 352.980469 C 309.410156 344.453125 379.609375 329.914063 370.582031 320.886719 C 362.558594 312.867188 393.144531 264.730469 397.15625 256.707031 C 419.21875 252.695313 425.234375 239.660156 425.234375 216.59375 C 425.234375 184.003906 409.191406 168.460938 396.65625 143.390625 C 392.644531 134.863281 386.125 116.8125 380.109375 110.796875 C 378.101563 108.792969 371.082031 97.257813 368.074219 97.257813 C 366.570313 97.257813 360.554688 91.242188 360.050781 91.242188 L 357.042969 88.734375 C 356.542969 88.234375 354.535156 85.726563 354.535156 85.726563 C 336.484375 60.65625 297.375 35.585938 270.300781 22.046875 C 249.742188 12.019531 243.726563 -0.015625 220.160156 -0.015625 C 203.109375 -0.015625 180.046875 8.507813 161.996094 8.507813 C 139.933594 19.539063 17.085938 75.195313 16.085938 89.234375 Z M 16.085938 89.234375 "/>
</g>
<path style=" stroke:none;fill-rule:evenodd;fill:rgb(100%,100%,100%);fill-opacity:1;" d="M 299.8125 149.496094 C 305.214844 160.296875 307.375 174.515625 317.09375 184.234375 C 321.59375 188.734375 322.492188 196.113281 324.472656 202.234375 C 325.191406 204.753906 325.371094 209.074219 325.371094 212.132813 C 325.371094 214.292969 323.210938 218.792969 323.210938 218.613281 C 318.351563 228.511719 314.933594 239.308594 309.894531 249.390625 C 303.410156 262.652344 282.835938 281.125 271.554688 292.40625 C 270.65625 293.304688 269.757813 292.046875 269.398438 291.683594 C 269.035156 291.324219 271.195313 289.523438 271.195313 289.523438 C 271.738281 289.34375 278.574219 281.246094 278.574219 280.886719 C 278.574219 279.984375 284.15625 276.566406 284.875 274.945313 C 287.035156 270.625 291.175781 268.285156 291.175781 262.886719 C 291.175781 261.628906 288.65625 258.566406 287.753906 258.207031 C 284.875 256.769531 286.675781 254.789063 286.675781 253.167969 C 296.574219 243.269531 324.113281 214.832031 310.433594 201.152344 C 307.375 198.09375 304.855469 186.933594 302.332031 185.675781 C 299.273438 184.234375 295.496094 176.316406 291.355469 174.335938 L 268.675781 163.175781 C 268.675781 163.175781 261.65625 159.757813 261.65625 162.277344 C 261.65625 167.675781 252.117188 158.496094 249.417969 161.195313 C 246.539063 164.078125 243.300781 165.875 238.980469 168.035156 C 235.199219 169.835938 233.761719 177.574219 232.140625 182.433594 C 231.78125 183.515625 224.761719 200.253906 224.761719 196.113281 C 215.402344 196.113281 218.28125 190.175781 221.160156 184.234375 C 224.941406 176.496094 217.5625 159.578125 233.578125 159.578125 C 245.457031 159.578125 239.160156 144.457031 256.617188 153.097656 C 261.117188 155.257813 266.15625 153.277344 270.476563 153.277344 C 270.835938 153.277344 254.996094 148.957031 252.660156 146.617188 C 247.617188 141.578125 245.726563 152.835938 224.738281 159.5 C 215.761719 162.351563 219.535156 172.992188 217.203125 176.675781 C 213.539063 182.457031 207.066406 200.382813 198.664063 194.855469 C 186.820313 187.0625 184.316406 205.378906 169.324219 217.351563 C 162.5625 222.753906 156.546875 216.632813 156.546875 211.050781 C 156.546875 208.171875 161.40625 206.550781 162.847656 205.113281 C 163.925781 204.03125 165.007813 202.414063 162.847656 202.414063 L 160.328125 202.414063 C 160.328125 202.414063 158.527344 203.3125 158.527344 203.492188 C 155.828125 206.191406 138.910156 216.8125 148.808594 221.671875 C 157.085938 225.8125 149.527344 231.390625 163.386719 231.390625 C 173.285156 231.390625 170.046875 231.929688 176.164063 225.8125 C 178.324219 223.652344 178.683594 216.8125 181.203125 214.292969 C 195.785156 199.714844 201.003906 200.613281 222.960938 200.613281 C 237 204.03125 254.816406 211.414063 254.816406 227.609375 C 254.816406 235.351563 253.199219 241.648438 253.199219 248.667969 C 253.199219 250.289063 270.835938 246.328125 270.835938 252.089844 C 278.214844 255.6875 288.113281 258.746094 280.195313 266.667969 C 276.417969 270.445313 268.136719 285.207031 264.539063 287.003906 C 255.539063 291.503906 273.175781 299.605469 262.015625 302.304688 C 243.839844 306.804688 238.078125 298.882813 228.902344 289.707031 C 210.363281 271.167969 201.542969 280.707031 180.664063 291.144531 C 168.605469 297.085938 185.523438 298.882813 174.90625 309.503906 C 169.144531 315.261719 174.90625 313.101563 174.90625 318.683594 C 174.90625 326.242188 166.445313 318.863281 166.265625 318.863281 C 152.945313 329.839844 148.808594 310.941406 157.988281 306.445313 C 160.867188 305.003906 158.886719 302.84375 157.265625 301.222656 C 155.105469 299.0625 161.40625 292.765625 163.207031 290.964844 C 166.265625 287.90625 155.285156 290.425781 153.847656 291.863281 C 148.449219 297.265625 154.386719 296.363281 154.386719 300.503906 C 154.386719 302.84375 150.605469 304.105469 150.605469 310.042969 C 150.605469 315.621094 152.226563 332 143.589844 323.363281 C 141.609375 321.382813 136.570313 323.003906 134.230469 320.664063 C 132.609375 319.042969 145.207031 308.785156 138.367188 305.363281 C 130.808594 301.585938 136.929688 295.644531 134.589844 290.785156 C 133.867188 289.34375 128.46875 297.625 128.46875 299.605469 C 128.46875 304.464844 133.148438 303.382813 133.148438 309.863281 C 133.148438 315.804688 121.089844 324.082031 121.089844 314.363281 C 121.089844 308.0625 125.050781 306.082031 121.269531 298.523438 C 117.308594 290.605469 114.25 281.785156 111.730469 274.046875 C 109.570313 267.207031 112.628906 267.027344 116.949219 267.027344 C 120.910156 267.027344 126.667969 265.585938 128.46875 265.585938 C 132.429688 260.726563 138.367188 253.707031 143.40625 248.667969 C 145.207031 246.867188 147.1875 242.007813 149.707031 242.007813 C 161.226563 242.007813 143.949219 232.46875 143.226563 231.75 C 140.886719 229.410156 131.167969 221.492188 128.289063 221.492188 C 127.03125 221.492188 118.929688 227.609375 116.410156 222.390625 C 115.332031 220.230469 108.671875 216.632813 106.691406 214.652344 C 104.53125 212.492188 104.351563 205.292969 107.769531 208.710938 C 109.570313 210.511719 118.929688 218.792969 121.988281 215.730469 C 124.691406 213.03125 123.789063 206.914063 128.289063 206.914063 C 132.609375 206.914063 138.726563 220.410156 140.347656 223.652344 C 141.429688 225.8125 142.867188 221.671875 143.046875 221.492188 C 144.128906 220.410156 139.089844 207.8125 139.089844 205.113281 C 137.46875 198.453125 127.167969 206.148438 121.628906 191.972656 C 118.640625 184.328125 121.449219 178.65625 110.472656 178.65625 C 105.429688 178.65625 108.132813 165.335938 110.289063 163.175781 C 124.328125 149.136719 95.890625 165.695313 103.089844 172.894531 C 104.890625 174.695313 105.792969 179.914063 108.3125 182.433594 C 110.472656 184.59375 114.789063 185.496094 116.050781 188.195313 C 118.570313 193.234375 121.269531 198.453125 121.269531 205.113281 C 121.269531 211.953125 113.351563 207.453125 110.652344 204.753906 C 105.609375 199.714844 106.332031 202.953125 101.292969 204.210938 C 93.730469 206.011719 105.429688 216.273438 105.429688 218.972656 C 105.429688 221.492188 95.890625 233.191406 94.453125 230.308594 C 92.472656 226.351563 100.390625 224.191406 98.953125 222.75 C 96.070313 219.871094 87.972656 210.871094 90.671875 205.472656 C 93.191406 200.253906 99.132813 200.074219 102.550781 196.652344 C 103.273438 195.933594 97.332031 188.914063 97.332031 186.394531 C 97.332031 181.175781 93.371094 172.894531 93.371094 165.515625 C 93.371094 162.457031 93.371094 156.515625 94.632813 153.996094 C 95.351563 152.558594 95.890625 151.835938 97.332031 151.117188 C 97.871094 150.9375 101.113281 150.9375 101.113281 150.398438 C 112.449219 148.597656 132.25 122.140625 146.289063 115.121094 C 171.484375 102.523438 192.722656 102.882813 220.441406 102.882813 C 237.539063 105.582031 254.828125 115.648438 268.675781 126.101563 C 273.90625 130.046875 296.574219 149.316406 299.8125 149.496094 Z M 160.234375 241.34375 C 170.8125 236.125 176.320313 236.996094 180.523438 224.242188 C 183.855469 214.242188 212.402344 201.054688 224.140625 208.882813 C 229.9375 212.792969 236.746094 211.78125 238.777344 220.039063 L 243.414063 239.457031 C 246.890625 254.238281 250.804688 251.921875 239.5 263.222656 C 226.605469 276.121094 210.953125 276.121094 193.5625 267.425781 C 187.621094 264.527344 180.230469 256.269531 175.449219 251.484375 C 171.972656 248.007813 160.378906 242.644531 160.234375 241.34375 Z M 131.128906 272.089844 C 137.992188 267.1875 149.511719 237.363281 160.625 248.476563 C 166.835938 254.6875 175.003906 266.695313 175.003906 276.339844 C 175.003906 281.242188 161.605469 282.792969 159.726563 285.40625 C 155.640625 291.046875 154.660156 279.035156 154.660156 275.4375 C 154.660156 262.773438 147.46875 261.550781 147.46875 275.359375 C 147.46875 280.914063 141.996094 275.519531 138.972656 274.539063 C 137.582031 274.132813 131.128906 273.640625 131.128906 272.089844 Z M 213.003906 283.175781 C 207.886719 284.882813 190.835938 296.820313 189.242188 301.59375 C 187.878906 305.914063 189.128906 307.621094 185.378906 311.371094 C 180.375 316.375 189.582031 323.195313 192.878906 319.898438 C 194.925781 317.851563 200.726563 314.441406 196.519531 310.234375 C 191.515625 305.234375 202.773438 294.433594 206.636719 290.566406 C 208.570313 288.632813 216.53125 287.835938 216.644531 287.609375 C 218.121094 284.539063 216.871094 283.0625 213.003906 283.175781 Z M 195.898438 326.261719 C 201.160156 329.1875 207.359375 330.710938 210.28125 336.570313 C 210.75 337.507813 212.621094 339.5 212.035156 340.789063 C 211.101563 342.777344 207.945313 345.824219 205.839844 345.824219 C 200.578125 345.824219 201.511719 340.4375 199.523438 336.453125 C 198.707031 334.8125 197.535156 332.46875 196.953125 330.59375 C 196.71875 329.890625 196.015625 328.953125 196.015625 328.484375 C 196.015625 328.484375 194.964844 326.144531 195.898438 326.261719 Z M 181.164063 327.195313 C 178.824219 329.539063 177.65625 330.945313 179.644531 334.929688 C 181.984375 339.734375 183.503906 348.285156 187.011719 351.800781 C 189.117188 353.910156 195.898438 352.035156 198.472656 350.746094 C 202.214844 348.871094 195.199219 337.15625 193.792969 334.34375 C 191.222656 329.070313 187.832031 323.917969 181.164063 327.195313 Z M 153.097656 328.601563 C 148.070313 332.820313 149.355469 349.691406 151.578125 356.488281 C 156.492188 371.367188 172.628906 367.03125 165.496094 352.621094 C 163.390625 348.402344 163.625 342.777344 161.519531 338.5625 C 158.246094 332 162.6875 323.332031 153.097656 328.601563 Z M 138.714844 329.421875 C 134.621094 331.414063 130.878906 330.476563 129.476563 334.929688 C 128.542969 337.742188 129.007813 344.066406 129.007813 347.230469 C 129.007813 350.628906 126.203125 362.109375 130.53125 362.109375 C 131.230469 362.109375 141.640625 358.945313 141.871094 358.710938 C 146.199219 354.378906 148.304688 329.304688 138.714844 329.421875 Z M 119.070313 319.699219 C 121.640625 324.855469 122.578125 325.089844 121.410156 331.0625 C 120.707031 334.929688 116.730469 339.734375 115.445313 343.597656 C 114.390625 346.878906 112.636719 356.957031 109.363281 356.957031 C 108.3125 356.957031 102.933594 351.332031 102.347656 350.042969 C 99.191406 343.597656 103.515625 339.734375 107.726563 333.289063 C 109.832031 330.125 115.796875 319.816406 119.070313 319.699219 Z M 96.5 330.710938 C 94.628906 332.9375 96.03125 337.976563 98.957031 337.976563 C 102.816406 337.976563 111.351563 324.855469 112.871094 321.808594 C 115.5625 316.417969 118.132813 315.128906 118.132813 307.867188 C 118.132813 305.640625 116.378906 298.140625 113.457031 301.070313 C 109.832031 304.703125 113.574219 315.128906 107.492188 319.230469 C 105.503906 320.519531 97.902344 330.359375 96.5 330.710938 Z M 76.324219 243.066406 C 80.160156 242.574219 86.714844 236.511719 90.550781 240.34375 C 93.644531 243.4375 95.25 245.171875 97.601563 248.757813 C 99.085938 250.984375 108.984375 263.109375 108.984375 263.605469 C 108.984375 265.460938 101.683594 270.65625 98.714844 269.171875 C 95.375 267.5625 96.363281 262.242188 92.777344 262.242188 C 89.808594 262.242188 88.449219 264.71875 84.242188 263.355469 C 81.644531 262.492188 80.035156 255.066406 79.167969 252.46875 C 78.550781 250.613281 78.179688 248.632813 76.941406 247.398438 C 76.941406 247.398438 75.332031 243.191406 76.324219 243.066406 Z M 91.539063 269.667969 C 95.003906 269.667969 96.613281 273.996094 96.613281 277.089844 C 96.613281 281.046875 98.964844 281.171875 101.808594 280.304688 C 105.273438 279.191406 110.46875 285.253906 108.984375 288.347656 C 107.003906 292.429688 103.789063 287.851563 100.570313 287.851563 C 98.46875 287.851563 93.765625 288.347656 93.765625 285.253906 C 93.765625 279.8125 91.664063 276.46875 86.097656 276.46875 C 84.363281 276.46875 83.746094 273.128906 85.230469 272.386719 C 85.726563 272.140625 87.582031 270.902344 88.449219 270.902344 C 88.570313 270.902344 91.292969 269.789063 91.539063 269.667969 Z M 91.539063 269.667969 "/>
<path style=" stroke:none;fill-rule:evenodd;fill:rgb(100%,92.576599%,0%);fill-opacity:1;" d="M 111.242188 225.078125 C 107.804688 226.195313 109.386719 235.507813 106.78125 236.8125 C 98.507813 240.910156 112.171875 255.808594 119.332031 255.808594 C 129.648438 255.808594 130.390625 260.371094 137.175781 250.128906 C 146.195313 236.625 140.988281 239.976563 131.785156 230.757813 C 126.953125 225.917969 125.652344 232.34375 120.074219 230.480469 C 116.726563 229.363281 114.03125 225.171875 111.242188 225.078125 Z M 123.605469 234.019531 C 109.664063 234.019531 118.015625 257.085938 128.625 251.804688 C 133.539063 249.359375 136.621094 245.378906 134.667969 239.417969 C 133.644531 236.160156 132.25 234.949219 129.648438 233.644531 C 127.324219 232.527344 125.09375 234.019531 123.605469 234.019531 Z M 123.605469 234.019531 "/>
<path style=" stroke:none;fill-rule:evenodd;fill:rgb(100%,100%,100%);fill-opacity:1;" d="M 125.371094 240.257813 C 125 240.722656 124.351563 241.375 124.351563 241.933594 C 124.351563 242.121094 124.257813 242.585938 124.257813 242.863281 C 124.257813 243.050781 124.351563 243.332031 124.535156 243.515625 C 124.90625 243.890625 125.09375 244.449219 125.558594 244.632813 C 125.929688 244.820313 126.671875 244.914063 127.046875 244.726563 L 127.601563 244.632813 C 127.789063 244.542969 128.625 243.980469 128.625 243.980469 L 128.625 243.890625 C 128.625 243.796875 128.996094 243.609375 128.996094 243.238281 C 128.996094 243.238281 129.183594 242.679688 129.183594 242.585938 C 129.183594 242.304688 128.996094 241.28125 128.8125 241.09375 L 128.53125 240.816406 L 128.53125 240.628906 C 128.441406 240.535156 128.347656 240.722656 128.253906 240.445313 C 128.253906 240.351563 127.046875 239.886719 126.859375 239.886719 C 126.582031 239.886719 126.207031 239.886719 126.023438 239.976563 C 125.835938 240.070313 125.835938 239.976563 125.746094 240.070313 C 125.652344 240.164063 125.835938 240.257813 125.371094 240.257813 Z M 125.371094 240.257813 "/>
<path style=" stroke:none;fill-rule:evenodd;fill:rgb(100%,92.576599%,0%);fill-opacity:1;" d="M 180.058594 250.046875 C 190.90625 245.4375 188.195313 212.710938 205.296875 212.710938 C 223.457031 212.710938 251.882813 234.214844 233.484375 252.648438 C 227.113281 259.027344 210.722656 260.089844 201.640625 260.089844 C 197.628906 260.089844 191.96875 258.671875 190.199219 255.128906 C 189.257813 253.117188 179.9375 250.285156 180.058594 250.046875 Z M 206.476563 225.46875 C 185.363281 228.898438 195.273438 259.617188 215.085938 251.703125 C 221.453125 249.21875 226.996094 241.183594 222.398438 234.214844 C 217.914063 227.480469 214.96875 225.46875 206.476563 225.46875 Z M 206.476563 225.46875 "/>
<path style=" stroke:none;fill-rule:evenodd;fill:rgb(100%,100%,100%);fill-opacity:1;" d="M 210.25 232.914063 C 207.890625 232.914063 203.410156 234.449219 203.410156 237.050781 C 203.410156 238.113281 203.882813 239.175781 204.234375 240.003906 C 204.941406 241.539063 206.476563 241.894531 208.246094 241.894531 C 210.722656 241.894531 214.496094 239.765625 214.496094 237.050781 C 214.496094 236.8125 214.613281 236.339844 214.613281 236.105469 C 214.613281 235.632813 213.316406 234.097656 213.082031 233.859375 C 212.371094 233.152344 211.546875 232.796875 210.25 232.914063 Z M 210.25 232.914063 "/>
<path style=" stroke:none;fill-rule:evenodd;fill:rgb(89.0625%,0%,8.616638%);fill-opacity:1;" d="M 42.152344 80.4375 C 44.910156 88.875 49.777344 86.441406 55.941406 83.359375 C 61.136719 80.761719 63.082031 92.933594 68.4375 95.527344 C 73.464844 97.960938 76.550781 104.289063 79.957031 107.699219 C 82.066406 109.808594 88.394531 107.535156 88.394531 105.101563 C 88.394531 103.804688 84.660156 99.421875 83.6875 97.476563 C 81.742188 93.582031 81.09375 95.042969 86.285156 95.042969 C 89.367188 95.042969 87.09375 80.4375 86.285156 78.652344 C 85.472656 76.871094 79.308594 66.808594 77.847656 66.160156 C 74.277344 64.375 75.738281 61.457031 71.195313 63.726563 C 65.351563 66.648438 45.71875 79.953125 42.152344 80.4375 Z M 68.273438 78.492188 C 68.761719 80.113281 71.195313 81.738281 71.679688 83.523438 C 71.84375 84.007813 74.277344 86.605469 74.441406 86.605469 C 74.765625 86.605469 76.386719 85.632813 76.550781 85.46875 C 77.199219 84.820313 77.035156 84.171875 76.386719 83.523438 C 76.222656 83.359375 74.441406 79.464844 74.441406 79.140625 C 74.441406 78.167969 72.332031 75.894531 72.332031 75.410156 C 72.332031 73.785156 69.570313 73.625 68.597656 74.597656 C 67.949219 75.246094 67.136719 75.246094 67.136719 76.542969 C 67.136719 76.707031 67.460938 77.355469 67.625 77.519531 C 67.625 77.519531 68.113281 78.492188 68.273438 78.492188 Z M 97.316406 48.3125 C 98.292969 50.421875 102.023438 55.613281 102.023438 57.398438 C 102.023438 62.589844 92.289063 63.078125 94.882813 68.269531 C 96.992188 72.488281 103.96875 60.480469 107.214844 66.972656 C 111.433594 75.410156 105.429688 71.351563 102.835938 76.707031 C 102.347656 77.679688 100.238281 79.789063 102.671875 80.925781 C 105.105469 82.0625 108.511719 75.734375 113.542969 78.167969 C 121.007813 81.898438 108.511719 90.824219 104.945313 94.394531 C 99.589844 99.746094 89.53125 72.976563 85.472656 71.027344 C 83.203125 69.890625 78.820313 58.046875 83.363281 56.585938 C 87.421875 55.289063 93.585938 48.3125 97.316406 48.3125 Z M 117.761719 36.953125 C 113.21875 39.226563 103.484375 42.957031 106.242188 48.476563 C 109.324219 54.640625 113.707031 60.96875 115.816406 67.457031 C 116.625 70.21875 118.574219 79.953125 120.195313 81.574219 C 122.144531 83.523438 129.605469 80.925781 129.605469 78.816406 C 129.605469 76.707031 127.011719 73.625 125.875 71.191406 C 124.089844 67.457031 125.875 66.160156 129.28125 64.539063 C 134.796875 61.78125 132.527344 75.246094 139.992188 71.515625 C 143.074219 70.054688 146.480469 66.484375 141.613281 64.050781 C 134.3125 60.480469 125.875 36.953125 117.761719 36.953125 Z M 119.058594 46.367188 C 119.546875 46.851563 121.167969 48.800781 121.332031 49.285156 C 121.65625 49.933594 123.277344 51.394531 123.601563 52.042969 C 124.414063 53.179688 126.199219 54.964844 127.171875 55.9375 C 127.660156 56.425781 129.121094 57.722656 128.472656 58.371094 C 128.144531 58.695313 123.601563 61.292969 123.277344 61.292969 C 122.144531 61.292969 120.035156 58.695313 120.035156 57.886719 C 120.035156 56.910156 118.085938 55.289063 117.761719 54.640625 C 117.601563 54.316406 116.300781 51.71875 116.140625 51.558594 C 115.328125 50.746094 114.679688 48.636719 115.492188 47.824219 C 116.300781 47.015625 117.273438 46.367188 119.058594 46.367188 Z M 134.472656 32.410156 C 141.777344 31.277344 153.621094 17.644531 158.324219 22.351563 C 160.433594 24.460938 161.085938 30.789063 162.867188 32.574219 C 165.789063 35.496094 161.246094 37.929688 160.109375 39.0625 C 157.027344 42.148438 169.359375 54.964844 172.441406 58.046875 C 172.929688 58.535156 170.820313 59.671875 170.496094 59.996094 C 165.464844 65.023438 163.679688 55.128906 161.085938 52.53125 C 159.300781 50.746094 151.996094 51.394531 151.996094 55.128906 C 151.996094 56.585938 155.082031 64.539063 155.730469 65.1875 C 158.488281 67.945313 151.835938 71.351563 151.023438 69.730469 C 148.105469 63.890625 146.828125 57.386719 143.886719 51.394531 C 142.125 47.8125 131.714844 34.359375 134.472656 32.410156 Z M 143.398438 34.195313 C 144.210938 35.980469 146.15625 37.929688 146.804688 40.039063 C 146.804688 40.363281 147.453125 42.308594 147.777344 42.472656 C 148.105469 42.632813 150.214844 44.582031 151.347656 43.445313 C 151.511719 43.28125 152.324219 42.632813 152.484375 42.472656 C 152.648438 42.308594 153.457031 41.496094 153.621094 41.496094 C 154.269531 41.496094 156.214844 40.363281 156.703125 39.875 C 157.351563 39.226563 157.027344 38.414063 156.539063 37.441406 C 156.054688 36.304688 153.621094 33.871094 153.621094 32.734375 C 153.621094 31.925781 151.671875 30.140625 151.671875 29.652344 L 150.539063 28.515625 C 149.402344 28.03125 146.96875 29.652344 146.15625 30.464844 C 145.996094 30.625 141.613281 33.710938 143.398438 34.195313 Z M 171.144531 16.1875 C 165.953125 17.808594 170.980469 25.597656 172.28125 29.652344 C 174.714844 37.117188 178.121094 50.585938 178.121094 58.371094 C 178.121094 59.671875 186.070313 59.019531 187.855469 59.019531 C 190.453125 59.019531 195.480469 59.507813 196.78125 58.210938 C 197.429688 57.5625 196.941406 52.53125 196.941406 51.558594 C 196.941406 50.421875 185.261719 51.234375 184.125 50.097656 C 183.476563 49.449219 181.367188 32.574219 181.367188 30.625 C 181.367188 27.707031 179.417969 21.054688 178.28125 18.621094 C 177.632813 17.160156 177.957031 15.375 175.6875 15.375 C 175.039063 15.375 173.902344 15.535156 173.414063 15.699219 C 173.089844 15.863281 171.144531 15.535156 171.144531 16.1875 Z M 212.355469 12.292969 C 209.761719 17.644531 210.246094 20.890625 216.25 20.890625 C 223.066406 20.890625 216.414063 24.136719 216.414063 26.570313 C 216.414063 32.574219 220.144531 49.285156 214.953125 51.882813 C 206.351563 56.101563 210.410156 42.308594 208.789063 37.277344 C 207.652344 33.871094 205.542969 34.519531 203.757813 36.304688 C 202.785156 37.277344 203.917969 51.558594 203.917969 54.152344 C 203.917969 64.699219 225.335938 68.269531 221.605469 57.074219 C 218.683594 48.3125 223.878906 33.386719 223.878906 24.949219 C 223.878906 23.324219 225.984375 19.917969 227.121094 18.78125 C 228.90625 16.996094 232.640625 25.273438 235.882813 22.027344 C 251.296875 6.613281 220.632813 12.617188 212.355469 12.292969 Z M 248.863281 20.40625 C 253.570313 23.324219 265.738281 25.921875 262.492188 32.574219 C 259.25 39.226563 256.652344 70.054688 249.1875 70.054688 C 238.640625 70.054688 250.164063 59.507813 245.292969 54.640625 C 239.617188 48.960938 236.53125 61.292969 234.75 64.863281 C 232.800781 68.917969 226.960938 65.347656 229.554688 60.15625 C 232.800781 53.667969 235.074219 44.582031 239.128906 38.414063 C 240.914063 35.65625 242.859375 31.761719 244.320313 28.679688 C 244.808594 27.707031 246.269531 24.460938 246.917969 23.8125 C 247.242188 23.488281 248.703125 20.566406 248.863281 20.40625 Z M 251.460938 29.167969 C 253.246094 29.816406 255.839844 30.625 255.839844 32.898438 C 255.839844 34.359375 254.542969 37.117188 254.21875 38.414063 C 253.570313 40.523438 251.621094 48.3125 250.324219 48.960938 C 249.1875 49.449219 244.808594 47.5 244.160156 46.851563 C 242.050781 44.742188 246.269531 40.199219 246.269531 37.765625 C 246.269531 37.441406 248.214844 33.222656 248.539063 32.898438 C 248.703125 32.734375 249.511719 31.277344 249.675781 30.789063 C 249.839844 30.300781 251.296875 29.492188 251.460938 29.167969 Z M 256.003906 73.136719 C 259.25 79.789063 265.089844 75.246094 266.875 69.730469 C 267.523438 67.78125 274.5 57.5625 274.5 60.644531 C 274.5 68.269531 269.144531 80.277344 273.527344 84.65625 C 273.527344 84.65625 277.746094 80.761719 278.070313 80.113281 C 281.476563 74.921875 291.214844 64.050781 284.722656 77.195313 C 282.453125 81.898438 276.933594 85.957031 280.503906 89.523438 C 281.964844 90.984375 287.804688 78.980469 288.941406 76.707031 C 289.914063 74.761719 296.730469 64.375 296.730469 63.238281 C 296.730469 59.996094 300.785156 59.183594 296.40625 54.800781 C 293.808594 52.207031 289.589844 59.183594 287.320313 62.105469 C 278.558594 72.976563 277.90625 70.054688 281.800781 58.371094 C 283.101563 54.316406 286.183594 48.148438 286.183594 44.09375 C 286.183594 42.632813 279.53125 38.089844 278.234375 38.089844 C 274.5 38.089844 266.386719 51.558594 264.117188 57.238281 C 262.65625 60.804688 259.085938 64.375 257.625 67.457031 C 256.976563 68.917969 256.003906 73.136719 256.003906 73.136719 Z M 256.003906 73.136719 "/>
<path style=" stroke:none;fill-rule:evenodd;fill:rgb(89.0625%,0%,8.616638%);fill-opacity:1;" d="M 290.726563 95.042969 C 294.457031 98.773438 293.160156 98.9375 297.378906 97.636719 C 299.8125 96.828125 302.085938 92.933594 304.679688 91.632813 C 305.652344 91.148438 309.546875 86.929688 307.277344 91.472656 C 305.976563 94.070313 302.246094 102.992188 302.246094 105.589844 C 302.246094 106.5625 305.652344 109.96875 306.140625 109.96875 C 308.410156 109.96875 311.496094 98.613281 313.117188 98.613281 C 316.6875 98.613281 315.066406 103.804688 321.066406 97.800781 C 325.285156 93.582031 334.210938 89.523438 328.695313 84.007813 C 321.71875 77.03125 315.875 64.699219 307.925781 75.246094 C 305.167969 78.980469 301.273438 83.199219 298.675781 85.957031 L 293.648438 91.148438 C 293.160156 91.632813 290.238281 95.042969 290.726563 95.042969 Z M 311.496094 87.902344 C 313.117188 87.089844 314.253906 84.820313 315.550781 84.171875 C 316.039063 84.007813 317.824219 81.738281 318.148438 81.414063 C 319.445313 80.113281 319.121094 80.761719 320.09375 81.738281 C 320.742188 82.386719 323.339844 85.308594 322.851563 86.28125 C 321.71875 88.714844 317.335938 90.660156 316.363281 92.769531 C 316.039063 93.417969 314.738281 93.257813 314.414063 92.933594 C 314.089844 92.609375 313.117188 90.660156 312.957031 90.660156 C 312.957031 90.660156 311.007813 87.902344 311.496094 87.902344 Z M 339.726563 94.394531 C 341.351563 96.015625 346.703125 100.070313 345.242188 101.53125 C 343.785156 102.992188 340.375 104.453125 338.429688 106.398438 C 335.023438 109.808594 329.667969 116.621094 325.609375 118.570313 C 321.554688 120.515625 320.582031 123.273438 316.847656 119.542969 C 313.765625 116.460938 323.015625 109.15625 326.261719 105.914063 C 328.695313 103.480469 336.320313 94.070313 339.726563 94.394531 Z M 350.761719 105.425781 C 354.332031 109.644531 370.070313 121.8125 360.984375 124.085938 C 348.488281 127.167969 337.132813 151.832031 327.882813 133.335938 C 325.773438 129.117188 325.449219 130.414063 327.558594 126.03125 C 329.503906 121.976563 348.652344 105.425781 350.761719 105.425781 Z M 345.242188 116.621094 C 345.570313 117.59375 348.003906 120.679688 348.003906 120.839844 C 348.003906 124.085938 345.082031 124.410156 343.296875 126.195313 C 343.132813 126.355469 339.402344 129.277344 338.753906 128.628906 C 338.429688 128.304688 336.480469 125.546875 336.15625 125.382813 C 334.699219 124.734375 338.753906 120.839844 339.726563 120.355469 C 340.375 120.027344 341.351563 118.246094 342.160156 118.246094 C 342.808594 118.246094 344.269531 116.785156 345.242188 116.621094 Z M 360.007813 131.710938 C 360.007813 134.957031 365.527344 137.878906 360.820313 139.335938 C 354.816406 141.285156 348.8125 147.613281 344.269531 149.882813 C 340.863281 151.507813 342 156.535156 344.757813 159.296875 C 348.652344 163.1875 362.605469 147.9375 367.3125 147.9375 C 371.367188 147.9375 371.203125 160.753906 376.398438 158.160156 C 378.019531 157.347656 388.078125 153.292969 384.671875 149.882813 C 383.535156 148.75 380.453125 141.769531 379.964844 140.3125 C 379.316406 138.363281 372.179688 126.683594 370.394531 125.871094 C 368.769531 125.058594 359.847656 129.765625 360.007813 131.710938 Z M 389.378906 160.917969 C 391.488281 162.703125 398.949219 170.976563 394.570313 173.085938 C 384.347656 178.117188 373.800781 185.742188 363.578125 190.773438 C 360.820313 192.070313 357.25 192.71875 357.25 188.339844 C 357.25 182.660156 367.3125 181.363281 367.3125 178.601563 C 367.3125 171.300781 363.417969 174.058594 359.035156 174.710938 C 354.492188 175.359375 354.492188 178.117188 352.058594 173.25 C 349.949219 169.03125 383.210938 160.59375 389.378906 160.917969 Z M 385.160156 167.082031 C 385.644531 167.730469 387.269531 170.003906 386.457031 170.816406 C 384.511719 172.761719 380.292969 173.734375 378.183594 175.84375 C 377.855469 176.167969 375.75 177.144531 375.261719 177.304688 C 374.773438 177.46875 373.800781 178.277344 373.800781 177.144531 C 373.800781 176.980469 372.664063 173.898438 372.503906 173.574219 C 371.367188 171.140625 375.910156 169.679688 377.53125 169.191406 C 379.804688 168.542969 382.886719 166.757813 385.160156 167.082031 Z M 380.128906 203.753906 C 382.402344 208.945313 383.210938 208.296875 378.019531 210.890625 C 375.585938 212.027344 371.53125 214.136719 368.609375 214.136719 C 365.203125 214.136719 360.007813 203.265625 361.308594 200.671875 C 363.742188 195.800781 375.421875 191.421875 381.425781 188.824219 C 384.183594 187.691406 397.328125 180.550781 399.761719 182.984375 C 403.007813 186.230469 414.203125 202.617188 402.359375 202.617188 C 398.140625 202.617188 394.246094 205.699219 389.703125 205.699219 C 387.105469 205.699219 386.945313 201.804688 388.726563 200.996094 C 390.351563 200.183594 395.382813 198.238281 396.355469 197.261719 C 397.816406 195.800781 398.625 195.964844 397.328125 193.207031 C 396.191406 190.933594 397.816406 189.960938 394.082031 191.097656 C 388.726563 192.882813 383.535156 196.289063 378.183594 198.074219 C 375.097656 199.046875 370.878906 200.832031 368.285156 202.128906 C 365.6875 203.429688 367.636719 207.484375 370.394531 206.1875 C 371.367188 205.699219 379.964844 201.644531 380.128906 203.753906 Z M 391 211.867188 C 395.542969 211.867188 400.25 211.542969 404.628906 212.351563 C 408.523438 213 404.144531 223.386719 403.332031 226.792969 C 402.195313 231.824219 402.035156 237.339844 395.21875 237.339844 C 391 237.339844 390.511719 240.261719 390.511719 234.09375 C 390.511719 231.984375 391.8125 227.765625 390.351563 226.304688 C 390.1875 226.144531 383.859375 227.605469 383.210938 227.605469 C 377.53125 227.605469 371.691406 228.089844 366.011719 228.089844 C 365.203125 228.089844 362.769531 221.761719 365.527344 221.761719 C 372.339844 221.761719 379.804688 220.789063 386.132813 220.789063 C 390.351563 220.789063 390.675781 215.109375 391 211.867188 Z M 248.828125 329.535156 C 252.066406 329.535156 273.355469 322.882813 277.964844 321.441406 C 288.15625 318.257813 302.9375 323.292969 311.03125 315.199219 C 321.902344 304.328125 333.695313 282.824219 341.789063 266.636719 C 341.789063 266.636719 346.644531 257.15625 346.644531 256 C 346.644531 254.613281 350.113281 246.289063 350.804688 244.207031 C 353.582031 235.417969 351.039063 222.46875 352.886719 213.21875 C 352.886719 209.058594 354.042969 205.359375 354.042969 200.5 C 354.042969 195.183594 349.1875 190.328125 347.570313 185.238281 C 343.867188 173.910156 336.46875 161.882813 329.996094 151.015625 C 329.996094 141.304688 296.695313 104.304688 287.90625 99.910156 C 281.664063 96.90625 292.53125 87.421875 294.613281 83.03125 C 299.238281 73.550781 308.953125 64.53125 314.269531 56.4375 C 325.601563 67.769531 343.636719 80.488281 353.351563 95.054688 C 357.511719 101.53125 365.835938 106.617188 370.230469 113.089844 C 372.082031 115.867188 375.316406 119.796875 376.242188 122.804688 C 376.472656 123.496094 378.554688 127.199219 379.019531 127.660156 C 379.25 127.890625 381.097656 131.589844 381.5625 131.589844 C 392.660156 142.691406 400.0625 158.644531 408.617188 171.363281 C 410.699219 174.601563 411.390625 188.015625 413.011719 189.632813 C 414.398438 191.019531 414.859375 198.882813 415.785156 200.964844 C 416.246094 202.121094 418.558594 212.0625 418.558594 211.832031 C 419.949219 225.011719 418.558594 246.75 403.761719 246.75 C 383.179688 246.75 388.269531 261.550781 378.09375 271.722656 C 373.929688 283.054688 363.0625 295.078125 359.363281 306.410156 C 356.355469 315.660156 350.804688 313.117188 360.289063 317.742188 C 366.992188 320.980469 333.464844 331.847656 328.144531 333.929688 C 321.667969 336.472656 315.195313 339.015625 309.414063 341.789063 C 307.5625 342.714844 295.078125 348.265625 295.078125 348.035156 C 297.15625 351.503906 303.632813 355.664063 299.933594 359.363281 C 297.851563 361.445313 276.113281 357.050781 270.566406 357.050781 C 268.253906 357.050781 256.921875 354.277344 254.148438 353.351563 C 251.601563 352.660156 244.898438 350.808594 242.351563 350.808594 C 240.039063 350.808594 231.023438 350.347656 230.328125 348.726563 C 229.171875 346.414063 227.089844 344.335938 225.933594 342.023438 C 224.777344 339.476563 236.570313 335.546875 238.421875 334.621094 C 240.964844 333.464844 245.820313 329.996094 248.828125 329.535156 Z M 248.828125 329.535156 "/>
<path style=" stroke:none;fill-rule:evenodd;fill:rgb(100%,92.576599%,0%);fill-opacity:1;" d="M 45.988281 171.539063 C 43.296875 176.929688 36.992188 183.039063 36.992188 189.464844 C 36.992188 194.4375 49.089844 179.621094 50.847656 179.621094 C 57.464844 179.621094 52.503906 183.351563 50.539063 187.289063 C 49.195313 190.085938 51.261719 189.777344 52.296875 190.8125 C 54.15625 192.675781 50.019531 192.988281 49.710938 193.609375 C 44.4375 204.175781 55.914063 206.765625 63.773438 206.765625 C 69.875 206.765625 79.289063 209.460938 75.046875 200.863281 C 73.804688 198.269531 75.667969 196.925781 72.566406 195.371094 C 69.566406 193.917969 73.394531 192.882813 74.945313 189.777344 C 80.425781 178.792969 74.53125 177.757813 63.15625 175.890625 C 57.464844 174.960938 51.984375 171.851563 45.988281 171.539063 Z M 59.535156 191.328125 C 60.671875 191.847656 62.429688 192.574219 63.566406 192.882813 C 64.085938 192.988281 65.636719 193.609375 65.636719 194.023438 C 65.636719 195.164063 61.707031 194.957031 60.984375 194.957031 C 59.121094 194.957031 55.914063 194.542969 54.675781 193.296875 C 53.949219 192.574219 55.191406 191.535156 55.914063 191.535156 C 56.949219 191.535156 58.191406 191.535156 59.535156 191.328125 Z M 49.8125 208.527344 C 57.570313 208.527344 65.324219 210.289063 72.253906 210.289063 C 76.804688 210.289063 78.667969 215.261719 78.667969 219.304688 C 78.667969 220.132813 79.289063 222.929688 78.148438 222.929688 C 70.808594 222.929688 55.605469 223.863281 49.503906 220.859375 C 44.644531 218.476563 49.605469 213.085938 49.8125 208.527344 Z M 51.882813 223.863281 C 46.195313 223.863281 44.953125 232.773438 44.953125 237.433594 C 44.953125 239.921875 50.433594 237.019531 51.261719 237.019531 C 57.777344 237.019531 80.011719 234.535156 80.011719 226.453125 C 80.011719 223.136719 69.152344 224.378906 66.566406 224.378906 C 61.808594 224.378906 56.121094 223.863281 51.882813 223.863281 Z M 45.160156 266.859375 C 46.195313 260.125 42.574219 248.210938 47.847656 242.925781 C 51.15625 239.609375 61.707031 236.398438 63.773438 242.617188 C 64.707031 245.414063 67.808594 252.5625 66.566406 255.046875 C 66.050781 256.085938 60.050781 257.847656 58.707031 258.46875 C 57.671875 258.984375 54.882813 260.332031 54.882813 257.742188 C 54.882813 252.042969 50.953125 258.882813 50.433594 260.4375 C 50.019531 261.785156 45.261719 267.894531 45.160156 266.859375 Z M 68.324219 257.949219 C 71.324219 260.953125 71.222656 264.375 66.980469 265.71875 C 65.015625 266.34375 61.601563 270.175781 59.742188 270.175781 C 56.535156 270.175781 54.261719 264.789063 57.464844 262.714844 C 60.777344 260.539063 64.292969 257.742188 68.324219 257.949219 Z M 70.808594 267.378906 C 72.980469 268.414063 71.839844 271.109375 71.324219 272.765625 C 70.1875 276.390625 71.636719 281.882813 69.257813 284.265625 C 66.878906 286.648438 66.464844 286.027344 64.808594 283.539063 C 63.15625 281.054688 58.5 275.5625 61.5 272.558594 C 62.949219 271.109375 63.671875 269.65625 65.84375 268.621094 C 66.671875 268.207031 67.703125 267.894531 68.53125 267.480469 C 68.53125 267.480469 70.808594 266.757813 70.808594 267.378906 Z M 73.1875 301.464844 C 72.773438 298.148438 68.84375 294.835938 68.84375 292.035156 C 68.84375 288.824219 70.394531 287.582031 72.773438 286.441406 C 75.152344 285.300781 81.355469 290.898438 81.355469 292.96875 C 81.355469 294.835938 78.667969 297.011719 77.117188 297.527344 C 76.082031 297.839844 74.117188 301.671875 73.1875 301.464844 Z M 86.734375 301.671875 C 88.492188 301.671875 93.871094 298.980469 94.902344 301.050781 C 96.972656 305.195313 90.351563 307.578125 87.457031 310.480469 C 85.800781 312.136719 83.425781 315.96875 81.046875 315.96875 C 79.183594 315.96875 72.980469 305.816406 75.976563 303.847656 C 77.425781 302.914063 79.597656 298.875 82.078125 299.703125 C 84.355469 300.429688 83.113281 301.777344 86.734375 301.671875 Z M 94.902344 309.441406 C 95.835938 311.410156 97.796875 312.34375 97.796875 314.933594 C 97.796875 317.421875 95.835938 318.25 94.28125 319.804688 C 93.351563 320.738281 88.492188 327.574219 88.386719 327.574219 C 85.699219 327.574219 84.769531 326.746094 83.632813 324.363281 C 81.871094 320.738281 81.769531 318.664063 85.90625 316.59375 C 88.699219 315.246094 92.835938 309.339844 94.902344 309.441406 Z M 70.1875 126.367188 C 74.011719 126.367188 78.769531 133.929688 80.941406 136.105469 C 81.769531 136.933594 75.769531 138.695313 75.253906 139.214844 C 73.496094 140.976563 74.117188 142.011719 74.839844 144.1875 C 75.359375 145.742188 71.839844 148.4375 72.773438 148.851563 C 81.148438 152.996094 67.1875 160.246094 75.667969 168.742188 C 83.011719 176.097656 72.667969 175.683594 68.53125 174.335938 C 61.601563 172.058594 45.78125 171.539063 49.503906 162.007813 C 52.191406 155.066406 57.15625 149.058594 60.984375 142.632813 C 62.222656 140.5625 68.945313 126.472656 70.1875 126.367188 Z M 74.945313 118.492188 C 78.148438 118.492188 78.148438 121.601563 81.046875 121.601563 C 81.460938 121.601563 81.460938 119.011719 81.460938 118.492188 C 81.460938 117.042969 113.3125 94.871094 117.449219 92.796875 C 120.652344 91.246094 130.167969 105.4375 126.859375 107.925781 L 112.792969 118.078125 C 107.832031 121.707031 101.316406 134.449219 93.25 131.753906 C 88.386719 130.199219 90.871094 131.132813 88.179688 133.828125 C 84.148438 137.867188 81.871094 130.613281 78.5625 129.578125 C 73.910156 128.023438 70.703125 118.804688 74.945313 118.492188 Z M 122.308594 91.761719 C 124.273438 94.042969 126.753906 96.632813 127.582031 99.324219 C 130.066406 106.890625 132.132813 101.085938 136.578125 98.910156 C 145.265625 94.558594 140.097656 92.28125 136.992188 86.0625 C 135.027344 82.125 133.167969 82.644531 129.753906 84.925781 C 128.925781 85.441406 122.203125 91.035156 122.308594 91.761719 Z M 150.644531 76.429688 C 154.574219 76.429688 161.398438 69.382813 161.398438 78.085938 C 161.398438 84.300781 168.226563 93.628906 157.675781 93.628906 C 156.4375 93.628906 154.574219 86.0625 153.851563 84.613281 C 153.125 83.164063 152.609375 81.296875 151.886719 79.847656 C 151.574219 79.226563 150.746094 78.8125 150.539063 78.292969 C 150.4375 78.085938 150.335938 76.53125 150.644531 76.429688 Z M 136.992188 82.023438 C 140.820313 86.375 143.199219 92.488281 146.609375 95.90625 C 148.164063 97.460938 152.710938 94.351563 153.539063 93.523438 C 154.675781 92.382813 148.679688 81.503906 147.851563 79.742188 C 145.058594 74.046875 139.578125 81.917969 136.992188 82.023438 Z M 162.640625 74.355469 C 165.019531 79.121094 166.46875 83.265625 166.46875 88.859375 C 166.46875 95.285156 169.050781 91.140625 172.15625 91.140625 C 173.707031 91.140625 173.292969 83.371094 172.980469 82.125 C 172.15625 78.707031 170.8125 74.976563 169.671875 71.457031 C 169.050781 69.382813 166.984375 70.625 165.640625 71.039063 C 163.675781 71.664063 162.535156 72.285156 162.640625 74.355469 Z M 171.742188 70.109375 C 174.84375 68.554688 183.324219 63.890625 183.324219 71.246094 C 183.324219 75.183594 183.632813 79.535156 183.632813 83.578125 C 183.632813 86.375 182.394531 89.691406 180.324219 90.726563 C 178.773438 91.453125 176.394531 89.070313 175.671875 88.757813 C 175.152344 88.550781 173.1875 79.640625 173.1875 78.5 C 173.1875 75.390625 171.84375 72.386719 171.742188 70.109375 Z M 187.253906 68.140625 C 189.734375 66.894531 192.011719 67.414063 194.699219 67.414063 C 198.113281 67.414063 195.421875 77.566406 195.421875 79.640625 C 195.421875 82.644531 195.113281 86.375 194.078125 88.550781 C 193.148438 90.414063 189.941406 89.898438 189.113281 89.070313 C 187.769531 87.722656 186.839844 79.847656 186.839844 77.359375 C 186.839844 75.597656 186.324219 73.941406 186.324219 72.078125 C 186.324219 71.039063 187.460938 69.382813 187.253906 68.140625 Z M 199.972656 70.625 C 199.558594 73.632813 199.351563 77.257813 199.351563 80.367188 C 199.351563 82.4375 198.9375 84.71875 198.9375 86.789063 C 198.9375 91.035156 203.078125 89.277344 203.800781 86.269531 C 204.421875 83.785156 205.042969 79.226563 206.386719 77.152344 C 207.832031 74.976563 210.109375 69.902344 207.214844 68.449219 C 205.042969 67.414063 199.871094 67.207031 199.972656 70.625 Z M 212.796875 70.625 C 210.109375 73.839844 208.660156 81.609375 208.660156 85.855469 C 208.660156 87.515625 208.660156 88.652344 210.625 88.652344 C 214.660156 88.652344 215.382813 87.203125 217.347656 84.300781 C 218.277344 82.851563 224.484375 70.9375 222.933594 70.210938 C 220.96875 69.277344 220.347656 68.96875 217.449219 68.96875 C 216.3125 68.96875 212.796875 69.175781 212.796875 70.625 Z M 226.34375 71.972656 C 224.691406 72.800781 219.726563 84.507813 221.070313 85.855469 C 222.207031 86.996094 228.828125 91.347656 230.273438 89.898438 C 232.03125 88.136719 233.273438 84.925781 234.515625 82.4375 C 235.546875 80.261719 236.996094 78.5 238.652344 76.84375 C 241.339844 74.148438 237.71875 72.90625 235.652344 72.285156 C 233.6875 71.664063 231.824219 71.246094 229.859375 71.246094 C 228.621094 71.246094 226.964844 71.765625 226.34375 71.972656 Z M 241.648438 75.703125 C 242.789063 75.808594 245.269531 76.015625 245.992188 76.738281 C 248.164063 78.914063 247.339844 77.878906 245.375 79.847656 C 242.789063 82.4375 241.445313 85.753906 239.789063 89.070313 C 238.753906 91.246094 237.925781 92.796875 235.136719 92.796875 C 231.101563 92.796875 234.101563 85.546875 235.546875 83.371094 C 236.582031 81.816406 239.890625 75.808594 241.648438 75.703125 Z M 249.820313 80.367188 C 248.578125 81.609375 246.71875 86.375 245.167969 86.894531 C 244.753906 86.996094 241.445313 91.035156 241.445313 91.347656 C 241.445313 93.421875 247.546875 96.425781 249.613281 96.425781 C 253.441406 96.425781 254.785156 96.839844 256.542969 93.210938 C 258.195313 89.792969 264.296875 87.722656 260.367188 83.785156 C 259.230469 82.644531 256.128906 81.503906 254.785156 80.882813 C 253.75 80.367188 249.71875 79.949219 249.820313 80.367188 Z M 266.261719 87.824219 C 264.089844 88.757813 261.609375 92.488281 260.679688 94.457031 C 259.4375 97.046875 257.578125 96.011719 259.128906 99.222656 C 259.75 100.464844 266.054688 108.546875 267.296875 108.546875 C 271.019531 108.546875 271.640625 104.921875 273.914063 102.640625 C 276.085938 100.464844 284.15625 94.972656 278.878906 92.382813 C 277.121094 91.554688 274.640625 90.828125 272.882813 89.691406 C 272.15625 89.277344 270.605469 88.445313 269.78125 88.238281 C 269.261719 88.136719 268.539063 87.824219 267.917969 87.824219 C 267.710938 87.824219 266.675781 87.824219 266.261719 87.824219 Z M 279.707031 100.777344 C 275.675781 104.816406 268.019531 109.066406 273.398438 114.453125 C 276.5 117.5625 278.777344 120.875 283.015625 118.804688 C 285.910156 117.351563 288.289063 113.625 290.566406 111.34375 C 294.703125 107.199219 294.703125 103.574219 288.703125 100.570313 C 286.84375 99.636719 286.738281 97.460938 284.050781 97.460938 C 282.914063 97.460938 279.707031 99.738281 279.707031 100.777344 Z M 294.496094 110.515625 C 292.839844 112.484375 288.601563 118.285156 286.117188 118.90625 C 284.980469 119.113281 282.292969 122.429688 284.050781 123.257813 C 287.257813 124.8125 290.980469 129.269531 293.980469 130.71875 C 297.082031 132.273438 299.667969 130.304688 301.941406 128.023438 C 303.285156 126.679688 307.113281 123.464844 307.835938 121.914063 C 309.59375 118.285156 302.769531 115.59375 302.046875 113.417969 C 301.839844 112.585938 298.941406 110.828125 298.320313 110.203125 C 296.976563 108.859375 295.632813 110.617188 294.496094 110.515625 Z M 310.113281 124.8125 C 309.078125 125.640625 303.078125 129.890625 302.871094 130.613281 C 302.253906 132.480469 299.460938 131.859375 299.460938 134.550781 C 299.460938 135.277344 303.699219 137.039063 304.320313 137.453125 C 306.183594 138.695313 309.699219 142.324219 311.664063 142.324219 C 313.835938 142.324219 324.589844 133.828125 319.730469 131.445313 C 319.523438 131.339844 315.28125 126.886719 315.074219 126.574219 C 313.109375 123.570313 312.695313 124.503906 310.113281 124.8125 Z M 318.179688 141.078125 C 316.214844 142.738281 315.074219 143.152344 313.9375 145.429688 C 313.316406 146.777344 320.347656 153.925781 321.28125 154.859375 C 323.246094 156.828125 327.277344 154.238281 328.519531 152.996094 C 331.207031 150.300781 327.175781 144.394531 326.140625 141.078125 C 326.140625 140.871094 324.796875 138.800781 324.691406 138.800781 C 324.488281 138.800781 323.867188 137.867188 323.246094 138.488281 C 323.140625 138.59375 317.765625 140.769531 318.179688 141.078125 Z M 331 155.171875 C 332.550781 155.894531 333.277344 157.96875 334 159.417969 L 336.277344 163.875 C 336.792969 164.910156 337.101563 165.425781 337.101563 166.980469 C 337.101563 166.980469 331.519531 170.710938 331.207031 171.023438 C 329.863281 172.371094 327.691406 167.292969 327.691406 167.292969 C 327.070313 166.257813 325.3125 164.183594 324.898438 162.835938 C 324.691406 162.214844 323.246094 160.660156 323.660156 159.832031 C 324.28125 158.589844 329.242188 155.066406 331 155.171875 Z M 338.449219 170.089844 C 341.757813 171.746094 341.964844 176.617188 344.136719 178.792969 C 344.550781 179.207031 345.273438 181.175781 345.273438 181.902344 C 345.273438 183.25 341.964844 185.320313 340.621094 185.320313 C 337.722656 185.320313 337.515625 184.078125 336.277344 181.589844 C 335.550781 180.035156 331.621094 175.0625 332.347656 173.613281 C 333.171875 171.953125 336.484375 170.195313 338.449219 170.089844 Z M 344.03125 188.324219 C 338.242188 191.226563 342.378906 193.503906 344.652344 198.0625 C 345.273438 199.308594 347.445313 204.902344 350.03125 203.660156 C 351.996094 202.726563 353.648438 203.246094 353.648438 200.34375 C 353.648438 197.753906 351.789063 193.089844 350.238281 191.535156 C 349.203125 190.5 348.582031 188.222656 347.546875 187.183594 C 346.515625 186.148438 344.859375 188.015625 344.03125 188.324219 Z M 351.476563 207.90625 C 347.960938 207.90625 347.339844 214.019531 346.410156 216.921875 C 345.6875 219.097656 343.617188 221.273438 346.925781 222.308594 C 347.652344 222.515625 351.269531 223.863281 351.789063 222.828125 C 353.027344 220.339844 352.824219 217.335938 352.824219 214.019531 C 352.824219 212.15625 354.269531 207.90625 351.476563 207.90625 Z M 348.894531 225.726563 C 351.0625 226.558594 352.203125 226.761719 352.203125 229.25 C 352.203125 231.21875 351.890625 233.292969 351.890625 235.15625 C 351.890625 238.265625 351.0625 239.195313 348.273438 238.265625 C 346.722656 237.746094 344.34375 236.191406 342.6875 235.363281 C 341.964844 235.050781 341.03125 232.566406 341.03125 231.738281 C 341.03125 230.183594 342.6875 227.488281 343.410156 226.761719 C 343.824219 226.347656 345.066406 225.417969 345.996094 225.417969 C 346.515625 225.417969 348.789063 225.417969 348.894531 225.726563 Z M 344.34375 240.75 C 348.167969 244.585938 352.203125 242.304688 350.859375 249.453125 C 350.546875 251.007813 347.132813 256.085938 345.894531 256.085938 C 345.789063 256.085938 341.445313 253.390625 341.238281 253.183594 C 338.136719 250.074219 338.863281 248.523438 338.863281 243.652344 C 338.863281 242.304688 339.585938 240.234375 340.414063 239.820313 C 340.929688 239.609375 344.03125 239.609375 344.34375 240.75 Z M 333.585938 258.363281 C 328.625 262.613281 321.175781 264.683594 326.96875 270.484375 C 328.828125 272.351563 332.242188 276.289063 335.035156 276.289063 C 337 276.289063 344.445313 262.300781 344.445313 260.539063 C 344.445313 259.296875 339.6875 256.808594 338.449219 256.1875 C 335.34375 254.632813 334.519531 258.15625 333.585938 258.363281 Z M 319.832031 268.519531 C 317.660156 269.554688 308.25 277.324219 311.144531 280.226563 C 313.007813 282.089844 319.109375 289.652344 319.832031 292.035156 C 322.625 300.429688 332.140625 285.40625 333.171875 282.195313 C 334.105469 279.1875 321.488281 268.3125 319.832031 268.519531 Z M 307.007813 280.433594 C 310.007813 280.433594 316.007813 290.792969 316.9375 293.695313 C 318.179688 297.425781 323.453125 299.808594 319.316406 303.953125 C 314.765625 308.511719 310.421875 295.664063 307.421875 292.660156 C 303.492188 288.722656 301.113281 283.230469 307.007813 280.433594 Z M 299.460938 287.269531 C 304.425781 290.792969 306.90625 301.257813 311.972656 306.335938 C 314.558594 308.925781 314.558594 309.132813 313.628906 312.136719 C 312.59375 315.453125 316.007813 315.453125 316.007813 317.109375 C 316.007813 319.390625 304.21875 318.976563 302.148438 318.976563 C 300.699219 318.976563 291.703125 305.089844 290.980469 302.707031 C 289.945313 299.601563 289.945313 296.59375 292.632813 293.902344 C 293.980469 292.554688 297.703125 287.375 299.460938 287.269531 Z M 289.015625 306.230469 C 291.082031 309.546875 295.632813 315.246094 295.632813 319.390625 C 295.632813 323.328125 289.222656 322.1875 286.015625 322.1875 C 282.808594 322.1875 282.085938 322.394531 280.742188 319.699219 C 280.222656 318.664063 278.15625 315.453125 279.398438 314.207031 C 281.15625 312.449219 283.636719 318.558594 286.015625 313.792969 C 286.738281 312.242188 286.636719 310.273438 287.152344 308.71875 C 287.359375 308.097656 287.464844 307.265625 287.671875 306.75 C 287.671875 306.644531 288.703125 305.816406 289.015625 306.230469 Z M 271.746094 314.519531 C 275.15625 315.761719 278.257813 318.25 278.257813 322.082031 C 278.257813 322.910156 275.363281 322.808594 274.742188 322.808594 C 273.398438 322.808594 269.261719 324.363281 268.640625 323.742188 C 268.433594 323.535156 267.402344 322.808594 267.089844 322.496094 C 266.160156 321.566406 262.539063 316.800781 263.882813 315.453125 C 266.261719 313.070313 268.019531 314.207031 271.746094 314.519531 Z M 249.097656 315.039063 C 249.820313 317.421875 248.578125 325.089844 246.71875 320.320313 C 245.683594 317.523438 242.167969 310.996094 239.890625 315.660156 C 236.6875 322.082031 232.964844 305.402344 226.449219 311.929688 C 225.207031 313.171875 228.515625 317.007813 229.035156 318.351563 C 231.617188 324.777344 231.515625 329.542969 233.066406 335.964844 C 233.996094 339.695313 239.375 341.042969 239.375 337.210938 C 239.375 335.863281 244.855469 339.179688 247.132813 339.179688 C 251.269531 339.179688 252.40625 335.964844 256.335938 337.933594 C 263.574219 341.5625 260.265625 333.273438 254.371094 331.304688 C 246.613281 328.714844 255.613281 326.847656 258.09375 326.433594 C 264.710938 325.191406 265.230469 323.328125 261.714844 316.175781 C 258.402344 309.441406 248.890625 314.832031 249.097656 315.039063 Z M 223.242188 314.832031 C 225.621094 317.628906 226.449219 324.363281 226.964844 327.988281 C 227.6875 333.480469 231.824219 336.277344 227.792969 340.320313 C 226.863281 341.25 222.105469 334.929688 221.378906 333.789063 C 218.898438 330.0625 211.660156 324.15625 213.832031 319.804688 C 214.554688 318.355469 221.863281 313.609375 223.242188 314.832031 Z M 223.242188 314.832031 "/>
</g>
</svg>
