<?xml version="1.0" encoding="UTF-8"?>
<svg xmlns="http://www.w3.org/2000/svg" xmlns:xlink="http://www.w3.org/1999/xlink" width="294pt" height="425.2pt" viewBox="0 0 294 425.2" version="1.1">
<defs>
<clipPath id="clip1">
  <path d="M 0 0 L 294 0 L 294 425.199219 L 0 425.199219 Z M 0 0 "/>
</clipPath>
</defs>
<g id="surface1">
<g clip-path="url(#clip1)" clip-rule="nonzero">
<path style=" stroke:none;fill-rule:evenodd;fill:rgb(89.84375%,11.767578%,8.227539%);fill-opacity:1;" d="M 0.078125 425.144531 L 294.003906 425.144531 L 294.003906 -0.0507813 L 0.078125 -0.0507813 Z M 0.078125 425.144531 "/>
</g>
<path style=" stroke:none;fill-rule:evenodd;fill:rgb(100%,100%,100%);fill-opacity:1;" d="M 219.394531 12.265625 L 219.394531 52.382813 L 223.179688 52.382813 L 223.179688 27.136719 L 230.195313 27.136719 L 230.195313 16.328125 L 223.179688 16.328125 L 223.179688 12.265625 Z M 223.179688 19.28125 L 227.390625 19.28125 L 227.390625 23.488281 L 223.179688 23.488281 Z M 233.003906 12.265625 L 233.003906 30.363281 L 243.382813 30.363281 L 243.382813 27.273438 L 236.367188 27.273438 L 236.367188 23.34375 L 243.238281 23.34375 L 243.238281 16.476563 L 240.433594 16.476563 L 240.433594 19.421875 L 236.363281 19.421875 L 236.363281 15.351563 L 239.460938 15.351563 L 239.460938 12.261719 Z M 245.628906 26.996094 L 245.628906 12.265625 L 258.671875 12.265625 L 258.671875 26.996094 L 254.882813 26.996094 L 254.882813 22.925781 L 249.410156 22.925781 L 249.410156 26.996094 Z M 249.410156 19.421875 L 254.882813 19.421875 L 254.882813 15.492188 L 249.410156 15.492188 Z M 260.773438 32.324219 L 260.773438 12.265625 L 275.085938 12.265625 L 275.085938 26.714844 L 271.855469 26.714844 L 271.855469 30.921875 L 274.800781 30.921875 L 274.800781 33.871094 L 268.210938 33.871094 L 268.210938 26.714844 L 264.003906 26.714844 L 264.003906 32.328125 Z M 264.003906 23.347656 L 271.855469 23.347656 L 271.855469 15.351563 L 264.003906 15.351563 Z M 277.605469 12.265625 L 277.605469 37.796875 L 284.898438 37.796875 L 284.898438 33.726563 L 281.109375 33.726563 L 281.109375 12.265625 Z M 225.566406 52.382813 L 225.566406 40.453125 L 228.933594 40.453125 L 228.933594 49.019531 L 232.4375 49.019531 L 232.4375 36.539063 L 225.988281 36.539063 L 225.988281 32.746094 L 243.101563 32.746094 L 243.101563 36.539063 L 236.089844 36.539063 L 236.089844 52.386719 Z M 238.753906 52.394531 L 238.753906 45.371094 L 241.839844 45.371094 L 241.839844 49.4375 L 245.765625 49.4375 L 245.765625 29.238281 L 258.527344 29.238281 L 258.527344 52.394531 L 254.882813 52.394531 L 254.882813 48.3125 L 248.992188 48.3125 L 248.992188 52.394531 Z M 248.992188 32.464844 L 254.882813 32.464844 L 254.882813 45.511719 L 248.992188 45.511719 Z M 260.351563 52.382813 L 260.351563 36.246094 L 268.203125 36.246094 L 268.203125 40.039063 L 264.140625 40.039063 L 264.140625 52.382813 Z M 268.203125 40.039063 L 284.757813 40.039063 L 284.757813 52.390625 L 280.828125 52.390625 L 280.828125 43.121094 L 272.277344 43.121094 L 272.277344 45.789063 L 268.203125 45.789063 Z M 213.785156 6.371094 L 290.230469 6.371094 L 290.230469 57.574219 L 213.785156 57.574219 Z M 216.449219 8.902344 L 287.566406 8.902344 L 287.566406 55.050781 L 216.449219 55.050781 Z M 216.449219 8.902344 "/>
</g>
</svg>
