<?xml version="1.0" encoding="UTF-8"?>
<svg xmlns="http://www.w3.org/2000/svg" xmlns:xlink="http://www.w3.org/1999/xlink" width="236.25pt" height="473.93pt" viewBox="0 0 236.25 473.93" version="1.1">
<defs>
<clipPath id="clip1">
  <path d="M 21 339 L 215 339 L 215 473.929688 L 21 473.929688 Z M 21 339 "/>
</clipPath>
<clipPath id="clip2">
  <path d="M 0 0 L 236.25 0 L 236.25 338 L 0 338 Z M 0 0 "/>
</clipPath>
<clipPath id="clip3">
  <path d="M 4 2 L 236.25 2 L 236.25 285 L 4 285 Z M 4 2 "/>
</clipPath>
<clipPath id="clip4">
  <path d="M 22 402 L 125 402 L 125 473.929688 L 22 473.929688 Z M 22 402 "/>
</clipPath>
</defs>
<g id="surface1">
<g clip-path="url(#clip1)" clip-rule="nonzero">
<path style=" stroke:none;fill-rule:nonzero;fill:rgb(0%,0%,0%);fill-opacity:1;" d="M 119.835938 395.261719 C 119.835938 395.261719 77.167969 368.59375 66.5 368.59375 C 66.5 368.59375 60.0625 361.785156 55.167969 361.261719 C 55.167969 361.261719 49.5 357.925781 49.5 352.59375 C 49.5 347.261719 47.832031 344.59375 40.5 345.925781 C 34.5 345.925781 30.5 350.261719 34.832031 359.261719 C 34.832031 359.261719 35.167969 363.425781 30.667969 363.425781 C 26.167969 363.425781 18.84375 369.605469 21.671875 372.433594 C 24.5 375.261719 25.832031 377.261719 34.832031 372.59375 C 34.832031 372.59375 54.167969 374.925781 57.167969 381.261719 C 60.167969 387.59375 65.832031 387.59375 65.832031 387.59375 C 65.832031 387.59375 96.332031 401.425781 100.835938 405.925781 C 100.835938 405.925781 79.175781 422.28125 62.5 429.585938 C 62.5 429.585938 53.832031 430.261719 49.5 434.59375 C 49.5 434.59375 36.832031 435.925781 33.832031 432.925781 C 33.832031 432.925781 22.5 426.925781 27.832031 447.59375 C 27.832031 447.59375 29.207031 454.910156 36.5 452.925781 C 36.5 452.925781 38.5 456.257813 41.832031 452.925781 C 41.832031 452.925781 42.109375 455.757813 44.667969 455.757813 C 44.667969 455.757813 42.664063 471.761719 53.5 473.59375 C 64.335938 475.425781 71.332031 469.59375 67.832031 460.261719 C 67.832031 460.261719 71.316406 457.058594 69.832031 454.261719 C 69.832031 454.261719 73.335938 453.261719 73.335938 450.761719 C 73.335938 450.761719 86.5 436.261719 92.832031 434.59375 C 99.167969 432.925781 120.167969 417.925781 120.167969 417.925781 C 120.167969 417.925781 137.835938 429.925781 146.835938 429.925781 C 146.835938 429.925781 179.167969 444.261719 179.167969 463.261719 C 179.167969 463.261719 181.5 472.261719 191.835938 470.59375 C 205.835938 470.59375 202.167969 457.261719 202.167969 457.261719 C 202.167969 457.261719 201.5 451.925781 203.5 451.925781 C 205.5 451.925781 214.5 448.925781 214.5 445.925781 C 214.5 442.925781 217.5 424.59375 205.835938 424.59375 C 194.167969 424.59375 196.558594 428 181.835938 424.59375 C 167.109375 421.1875 140.835938 405.261719 140.835938 405.261719 C 140.835938 405.261719 170.121094 387.210938 170.5 383.59375 C 170.5 383.59375 183.09375 377.59375 183.5 373.925781 C 183.5 373.925781 198.5 363.257813 209.835938 365.925781 C 209.835938 365.925781 214.835938 365.925781 214.835938 362.261719 C 214.835938 358.59375 207.671875 352.726563 204.035156 352.726563 C 204.035156 352.726563 203.167969 335.59375 189.167969 340.925781 C 189.167969 340.925781 181.761719 342.109375 185.167969 347.925781 C 185.167969 347.925781 189.167969 351.925781 182.835938 355.59375 C 176.5 363.765625 119.835938 395.261719 119.835938 395.261719 "/>
</g>
<g clip-path="url(#clip2)" clip-rule="nonzero">
<path style=" stroke:none;fill-rule:nonzero;fill:rgb(0%,0%,0%);fill-opacity:1;" d="M 52.5 202.753906 C 52.5 202.753906 41.5 209.253906 43.5 223.753906 C 45.25 232.503906 51.75 237.253906 51.75 237.253906 C 51.75 237.253906 51 243.253906 64.5 247 C 64.5 247 70 259 69.25 265.5 C 68.5 272 69.25 304.5 76 308 C 80.5 312 91 327.5 96.75 331 C 96.75 331 106.25 339.25 122.5 337.25 C 131.75 336 143.25 337.75 145.25 337.75 C 147.25 337.75 154.25 336 158 329.75 C 158 329.75 176.75 312.25 180.5 302.75 C 180.5 302.75 184.25 286 186.75 283 C 188 275.75 184.75 246.5 184.75 246.5 C 184.75 246.5 200 247 207.25 225.253906 C 211.5 211.003906 203 206.503906 203 206.503906 C 203 206.503906 204.75 194.253906 203 192.503906 C 201.25 190.753906 197.5 187.753906 199 185.503906 C 200.5 183.253906 209.75 172.003906 210.25 150.003906 C 210 130.003906 205.5 117.503906 205.5 117.503906 C 205.5 117.503906 211.25 104.753906 211.25 95.753906 C 211.25 86.753906 235.25 46.503906 236.25 45.753906 L 236.25 35.253906 C 236.25 35.253906 229 36.503906 225.25 41.753906 C 221.5 47.003906 195.75 61.503906 195.75 61.503906 C 195.75 61.503906 194.75 65.003906 197.25 66.753906 C 197.25 66.753906 199.75 90.253906 179.5 87.753906 C 158.5 79.753906 168.25 59.253906 181.75 55.003906 L 179 1.253906 C 179 1.253906 169.5 2.503906 160.75 12.253906 C 152 22.003906 131.5 34.503906 131.5 34.503906 C 131.5 34.503906 144 53.253906 139.5 61.253906 C 136.25 71.753906 112.5 73.003906 111.75 58.003906 C 110.5 46.003906 118.25 38.003906 118.25 38.003906 L 118 36.503906 L 84.5 0.00390625 L 61 49.753906 L 63.5 53.503906 C 63.5 53.503906 69.5 55.753906 70.5 57.253906 C 70.5 57.253906 87.5 68.753906 74.25 82.253906 C 61 95.753906 38.25 76.253906 50.25 59.253906 L 50.25 57.253906 C 50.25 57.253906 12.75 41.003906 0.25 40.753906 L 0 42.503906 C 0 42.503906 26.25 71.753906 26.5 76.003906 C 26.75 80.253906 39.25 107.753906 39.25 107.753906 C 39.25 107.753906 37.5 123.753906 42 131.753906 C 42 131.753906 35.25 164.253906 52.5 202.753906 "/>
</g>
<path style=" stroke:none;fill-rule:nonzero;fill:rgb(7.054138%,51.756287%,19.213867%);fill-opacity:1;" d="M 188.832031 189.585938 C 188.832031 189.585938 189.832031 216.253906 187.5 215.917969 C 186.167969 223.585938 177.832031 222.917969 165.5 221.917969 C 153.167969 219.585938 148.832031 208.917969 148.832031 208.917969 C 148.832031 208.917969 147.167969 205.253906 143.832031 197.585938 C 143.164063 179.25 163.167969 177.253906 163.167969 177.253906 L 163.5 173.917969 C 163.5 173.917969 168.832031 178.253906 174.167969 179.917969 C 188.167969 181.585938 188.832031 189.585938 188.832031 189.585938 Z M 144.332031 246.417969 C 137.332031 256.753906 125.167969 256.585938 125.167969 256.585938 C 118.5 254.917969 113 248.085938 113 248.085938 C 108.835938 235.585938 122.332031 213.585938 124.667969 213.417969 C 128.335938 211.585938 128.332031 217.753906 127.167969 221.085938 C 126 224.417969 127.167969 225.417969 127.167969 225.417969 C 131.5 223.917969 128.832031 213.753906 131 209.085938 C 137.5 204.085938 141.5 218.417969 141.5 218.417969 L 141.832031 230.917969 C 141.832031 230.917969 146 233.417969 144.332031 246.417969 Z M 81.882813 226.871094 C 59.902344 226.871094 64.296875 200.496094 67.230469 198.300781 C 70.160156 196.101563 70.160156 191.707031 70.160156 191.707031 C 70.160156 191.707031 70.890625 193.902344 70.160156 190.242188 C 69.425781 186.578125 81.882813 182.183594 87.742188 179.984375 C 93.601563 179.984375 97.265625 175.589844 97.265625 175.589844 C 97.265625 175.589844 109.71875 173.390625 114.117188 175.589844 C 114.117188 178.519531 118.511719 181.449219 118.511719 181.449219 C 122.90625 213.683594 105.324219 225.40625 81.882813 226.871094 Z M 232.167969 42.585938 L 230.5 42.253906 C 230.5 42.253906 216.167969 56.585938 201.167969 64.253906 C 201.167969 64.253906 205.835938 87.585938 183.5 93.585938 C 162.835938 94.585938 154.5 67.917969 177.167969 51.585938 C 176.835938 35.253906 175.167969 8.585938 175.167969 8.585938 L 138.835938 36.253906 C 138.835938 36.253906 146.5 53.585938 145.5 56.917969 C 144.5 60.253906 145.167969 74.585938 122.5 73.585938 C 99.835938 72.585938 107.503906 41.25 112.503906 38.917969 L 86.5 9.917969 L 66.5 49.253906 C 66.5 49.253906 87.835938 58.917969 83.167969 76.253906 C 78.5 96.917969 37.167969 99.585938 44.5 60.917969 L 12.167969 47.585938 L 10.5 48.585938 C 10.5 48.585938 31.167969 71.253906 32.167969 77.585938 C 33.167969 83.917969 43.167969 103.917969 43.167969 103.917969 C 43.167969 103.917969 44.167969 123.585938 46.167969 125.917969 C 48.167969 128.253906 47.167969 143.25 45.835938 144.917969 C 44.5 146.585938 47.835938 186.585938 55.5 197.253906 C 55.5 197.253906 57.835938 191.585938 59.167969 190.917969 L 59.5 188.585938 C 59.5 188.585938 56.167969 183.917969 56.167969 181.253906 C 56.167969 181.253906 52.835938 177.585938 53.5 172.253906 L 54.835938 172.585938 C 54.835938 172.585938 54.167969 177.917969 57.167969 179.585938 L 57.835938 176.253906 L 59.5 177.253906 C 59.5 177.253906 54.835938 182.253906 61.167969 187.253906 C 61.167969 187.253906 65.167969 181.585938 65.5 173.917969 C 65.5 173.917969 70.835938 171.917969 71.835938 164.253906 L 73.167969 164.585938 C 73.167969 164.585938 71.835938 172.25 67.835938 174.585938 C 67.5 176.253906 66.167969 180.585938 66.167969 180.585938 C 66.167969 180.585938 62.832031 186.253906 64.832031 187.917969 C 64.832031 187.917969 59.167969 197.585938 56.832031 200.585938 C 55.5 202.917969 56.5 205.585938 56.5 205.585938 C 56.5 205.585938 46.5 212.585938 49.167969 224.917969 C 50.832031 231.585938 55.5 232.917969 55.5 232.917969 C 55.5 232.917969 54.167969 240.585938 71.167969 244.253906 C 88.167969 247.917969 91.832031 250.917969 91.167969 258.585938 C 90.5 266.25 93.5 267.25 93.5 267.25 L 101.835938 273.917969 L 104.835938 270.25 L 105.835938 256.917969 L 108.5 259.585938 C 108.5 259.585938 108.835938 270.585938 107.5 271.25 C 106.164063 271.917969 105.164063 274.585938 105.164063 274.585938 L 107.164063 275.25 L 109.5 278.25 L 117.835938 279.25 C 117.835938 279.25 123.167969 276.253906 126.5 278.917969 L 128.167969 278.917969 L 128.167969 272.585938 C 128.167969 272.585938 126.5 267.585938 127.832031 264.917969 C 129.167969 262.25 126.832031 260.585938 126.832031 260.585938 C 126.832031 260.585938 127.5 255.585938 130.167969 259.25 C 132.832031 262.917969 129.832031 278.585938 129.832031 278.585938 L 132.167969 278.585938 C 132.167969 278.585938 134.835938 274.917969 137.167969 277.585938 C 139.5 280.25 141.835938 279.585938 143.167969 277.585938 L 148.5 278.25 C 148.5 278.25 151.5 274.585938 153.5 273.917969 C 155.5 273.25 162.832031 266.25 162.832031 266.25 C 162.832031 266.25 161.164063 255.917969 165.832031 252.585938 C 170.5 249.25 186.835938 240.585938 191.5 239.585938 C 196.167969 238.585938 205.167969 223.585938 204.5 216.253906 C 203.835938 208.917969 199.167969 216.585938 198.5 196.253906 C 195.5 190.585938 193.835938 188.917969 193.835938 188.917969 C 193.835938 188.917969 194.835938 185.253906 194.167969 184.253906 C 193.5 183.253906 185.835938 176.253906 189.167969 167.585938 L 190.5 167.917969 C 190.5 167.917969 187.167969 176.585938 195.5 182.917969 C 195.5 182.917969 204.5 170.585938 205.167969 160.253906 C 206.835938 147.917969 200.835938 116.253906 200.835938 116.253906 C 200.835938 116.253906 206.5 102.25 206.5 95.917969 C 206.5 89.585938 222.835938 55.917969 232.167969 42.585938 "/>
<g clip-path="url(#clip3)" clip-rule="nonzero">
<path style="fill:none;stroke-width:10;stroke-linecap:butt;stroke-linejoin:miter;stroke:rgb(7.054138%,51.756287%,19.213867%);stroke-opacity:1;stroke-miterlimit:4;" d="M 1888.320313 2843.440625 C 1888.320313 2843.440625 1898.320313 2576.760937 1875 2580.120312 C 1861.679688 2503.440625 1778.320313 2510.120312 1655 2520.120312 C 1531.679688 2543.440625 1488.320313 2650.120312 1488.320313 2650.120312 C 1488.320313 2650.120312 1471.679688 2686.760937 1438.320313 2763.440625 C 1431.640625 2946.8 1631.679688 2966.760937 1631.679688 2966.760937 L 1635 3000.120312 C 1635 3000.120312 1688.320313 2956.760937 1741.679688 2940.120312 C 1881.679688 2923.440625 1888.320313 2843.440625 1888.320313 2843.440625 Z M 1443.320313 2275.120312 C 1373.320313 2171.760937 1251.679688 2173.440625 1251.679688 2173.440625 C 1185 2190.120312 1130 2258.440625 1130 2258.440625 C 1088.359375 2383.440625 1223.320313 2603.440625 1246.679688 2605.120312 C 1283.359375 2623.440625 1283.320313 2561.760937 1271.679688 2528.440625 C 1260 2495.120312 1271.679688 2485.120312 1271.679688 2485.120312 C 1315 2500.120312 1288.320313 2601.760937 1310 2648.440625 C 1375 2698.440625 1415 2555.120312 1415 2555.120312 L 1418.320313 2430.120312 C 1418.320313 2430.120312 1460 2405.120312 1443.320313 2275.120312 Z M 818.828125 2470.589062 C 599.023438 2470.589062 642.96875 2734.339062 672.304688 2756.292187 C 701.601563 2778.284375 701.601563 2822.229687 701.601563 2822.229687 C 701.601563 2822.229687 708.90625 2800.276562 701.601563 2836.878125 C 694.257813 2873.51875 818.828125 2917.464062 877.421875 2939.45625 C 936.015625 2939.45625 972.65625 2983.401562 972.65625 2983.401562 C 972.65625 2983.401562 1097.1875 3005.39375 1141.171875 2983.401562 C 1141.171875 2954.104687 1185.117188 2924.807812 1185.117188 2924.807812 C 1229.0625 2602.464062 1053.242188 2485.2375 818.828125 2470.589062 Z M 2321.679688 4313.440625 L 2305 4316.760937 C 2305 4316.760937 2161.679688 4173.440625 2011.679688 4096.760937 C 2011.679688 4096.760937 2058.359375 3863.440625 1835 3803.440625 C 1628.359375 3793.440625 1545 4060.120312 1771.679688 4223.440625 C 1768.359375 4386.760937 1751.679688 4653.440625 1751.679688 4653.440625 L 1388.359375 4376.760937 C 1388.359375 4376.760937 1465 4203.440625 1455 4170.120312 C 1445 4136.760937 1451.679688 3993.440625 1225 4003.440625 C 998.359375 4013.440625 1075.039063 4326.8 1125.039063 4350.120312 L 865 4640.120312 L 665 4246.760937 C 665 4246.760937 878.359375 4150.120312 831.679688 3976.760937 C 785 3770.120312 371.679688 3743.440625 445 4130.120312 L 121.679688 4263.440625 L 105 4253.440625 C 105 4253.440625 311.679688 4026.760937 321.679688 3963.440625 C 331.679688 3900.120312 431.679688 3700.120312 431.679688 3700.120312 C 431.679688 3700.120312 441.679688 3503.440625 461.679688 3480.120312 C 481.679688 3456.760937 471.679688 3306.8 458.359375 3290.120312 C 445 3273.440625 478.359375 2873.440625 555 2766.760937 C 555 2766.760937 578.359375 2823.440625 591.679688 2830.120312 L 595 2853.440625 C 595 2853.440625 561.679688 2900.120312 561.679688 2926.760937 C 561.679688 2926.760937 528.359375 2963.440625 535 3016.760937 L 548.359375 3013.440625 C 548.359375 3013.440625 541.679688 2960.120312 571.679688 2943.440625 L 578.359375 2976.760937 L 595 2966.760937 C 595 2966.760937 548.359375 2916.760937 611.679688 2866.760937 C 611.679688 2866.760937 651.679688 2923.440625 655 3000.120312 C 655 3000.120312 708.359375 3020.120312 718.359375 3096.760937 L 731.679688 3093.440625 C 731.679688 3093.440625 718.359375 3016.8 678.359375 2993.440625 C 675 2976.760937 661.679688 2933.440625 661.679688 2933.440625 C 661.679688 2933.440625 628.320313 2876.760937 648.320313 2860.120312 C 648.320313 2860.120312 591.679688 2763.440625 568.320313 2733.440625 C 555 2710.120312 565 2683.440625 565 2683.440625 C 565 2683.440625 465 2613.440625 491.679688 2490.120312 C 508.320313 2423.440625 555 2410.120312 555 2410.120312 C 555 2410.120312 541.679688 2333.440625 711.679688 2296.760937 C 881.679688 2260.120312 918.320313 2230.120312 911.679688 2153.440625 C 905 2076.8 935 2066.8 935 2066.8 L 1018.359375 2000.120312 L 1048.359375 2036.8 L 1058.359375 2170.120312 L 1085 2143.440625 C 1085 2143.440625 1088.359375 2033.440625 1075 2026.8 C 1061.640625 2020.120312 1051.640625 1993.440625 1051.640625 1993.440625 L 1071.640625 1986.8 L 1095 1956.8 L 1178.359375 1946.8 C 1178.359375 1946.8 1231.679688 1976.760937 1265 1950.120312 L 1281.679688 1950.120312 L 1281.679688 2013.440625 C 1281.679688 2013.440625 1265 2063.440625 1278.320313 2090.120312 C 1291.679688 2116.8 1268.320313 2133.440625 1268.320313 2133.440625 C 1268.320313 2133.440625 1275 2183.440625 1301.679688 2146.8 C 1328.320313 2110.120312 1298.320313 1953.440625 1298.320313 1953.440625 L 1321.679688 1953.440625 C 1321.679688 1953.440625 1348.359375 1990.120312 1371.679688 1963.440625 C 1395 1936.8 1418.359375 1943.440625 1431.679688 1963.440625 L 1485 1956.8 C 1485 1956.8 1515 1993.440625 1535 2000.120312 C 1555 2006.8 1628.320313 2076.8 1628.320313 2076.8 C 1628.320313 2076.8 1611.640625 2180.120312 1658.320313 2213.440625 C 1705 2246.8 1868.359375 2333.440625 1915 2343.440625 C 1961.679688 2353.440625 2051.679688 2503.440625 2045 2576.760937 C 2038.359375 2650.120312 1991.679688 2573.440625 1985 2776.760937 C 1955 2833.440625 1938.359375 2850.120312 1938.359375 2850.120312 C 1938.359375 2850.120312 1948.359375 2886.760937 1941.679688 2896.760937 C 1935 2906.760937 1858.359375 2976.760937 1891.679688 3063.440625 L 1905 3060.120312 C 1905 3060.120312 1871.679688 2973.440625 1955 2910.120312 C 1955 2910.120312 2045 3033.440625 2051.679688 3136.760937 C 2068.359375 3260.120312 2008.359375 3576.760937 2008.359375 3576.760937 C 2008.359375 3576.760937 2065 3716.8 2065 3780.120312 C 2065 3843.440625 2228.359375 4180.120312 2321.679688 4313.440625 Z M 2321.679688 4313.440625 " transform="matrix(0.1,0,0,-0.1,0,473.93)"/>
</g>
<path style=" stroke:none;fill-rule:nonzero;fill:rgb(0%,0%,0%);fill-opacity:1;" d="M 144.835938 255.917969 C 144.835938 255.917969 141.5 262.585938 148.167969 273.25 L 151.5 270.585938 C 151.5 270.585938 144.835938 263.917969 144.835938 255.917969 "/>
<path style=" stroke:none;fill-rule:nonzero;fill:rgb(100%,100%,100%);fill-opacity:1;" d="M 94.792969 277.535156 C 94.792969 277.535156 95.90625 274.195313 94.347656 274.195313 C 92.789063 274.195313 90.558594 274.640625 90.78125 280.65625 C 90.78125 280.65625 94.125 283.773438 94.792969 277.535156 "/>
<path style=" stroke:none;fill-rule:nonzero;fill:rgb(7.054138%,51.756287%,19.213867%);fill-opacity:1;" d="M 70.289063 247.242188 C 70.289063 247.242188 75.410156 260.382813 74.074219 269.070313 C 74.523438 277.757813 73.851563 302.488281 79.644531 304.492188 C 83.65625 307.609375 100.808594 327.882813 100.808594 327.882813 C 100.808594 327.882813 104.816406 333.675781 118.628906 332.78125 C 128.65625 331.222656 141.351563 331.890625 144.25 332.335938 C 144.25 332.335938 151.152344 333.007813 157.839844 324.09375 C 164.519531 315.183594 175.4375 303.601563 175.4375 303.601563 C 175.4375 303.601563 179.226563 287.117188 182.34375 282.882813 L 179.894531 247.019531 L 178.109375 247.019531 C 178.109375 247.019531 176.328125 257.265625 175.214844 259.492188 C 174.101563 261.71875 171.871094 271.078125 172.765625 274.195313 C 172.765625 276.199219 166.972656 277.089844 161.625 299.144531 C 161.625 299.144531 142.46875 315.851563 133.777344 311.175781 L 127.988281 310.953125 C 127.988281 310.953125 126.429688 313.625 123.753906 310.953125 L 121.304688 310.730469 C 121.304688 310.730469 118.410156 313.847656 115.511719 311.621094 C 112.617188 309.394531 93.234375 291.570313 91.230469 285.78125 C 91.230469 285.78125 86.105469 285.554688 86.105469 277.089844 C 86.105469 277.089844 81.207031 268.625 80.984375 266.621094 C 80.761719 264.617188 77.417969 255.261719 75.859375 254.371094 L 75.859375 247.6875 C 75.859375 247.6875 72.292969 244.789063 70.289063 247.242188 "/>
<path style="fill:none;stroke-width:10;stroke-linecap:butt;stroke-linejoin:miter;stroke:rgb(7.054138%,51.756287%,19.213867%);stroke-opacity:1;stroke-miterlimit:4;" d="M 702.890625 2266.878125 C 702.890625 2266.878125 754.101563 2135.471875 740.742188 2048.596875 C 745.234375 1961.721875 738.515625 1714.417187 796.445313 1694.378125 C 836.5625 1663.20625 1008.085938 1460.471875 1008.085938 1460.471875 C 1008.085938 1460.471875 1048.164063 1402.542187 1186.289063 1411.4875 C 1286.5625 1427.073437 1413.515625 1420.39375 1442.5 1415.940625 C 1442.5 1415.940625 1511.523438 1409.221875 1578.398438 1498.3625 C 1645.195313 1587.464062 1754.375 1703.284375 1754.375 1703.284375 C 1754.375 1703.284375 1792.265625 1868.128125 1823.4375 1910.471875 L 1798.945313 2269.104687 L 1781.09375 2269.104687 C 1781.09375 2269.104687 1763.28125 2166.64375 1752.148438 2144.378125 C 1741.015625 2122.1125 1718.710938 2028.51875 1727.65625 1997.346875 C 1727.65625 1977.307812 1669.726563 1968.401562 1616.25 1747.854687 C 1616.25 1747.854687 1424.6875 1580.784375 1337.773438 1627.542187 L 1279.882813 1629.76875 C 1279.882813 1629.76875 1264.296875 1603.05 1237.539063 1629.76875 L 1213.046875 1631.995312 C 1213.046875 1631.995312 1184.101563 1600.823437 1155.117188 1623.089062 C 1126.171875 1645.354687 932.34375 1823.596875 912.304688 1881.4875 C 912.304688 1881.4875 861.054688 1883.753125 861.054688 1968.401562 C 861.054688 1968.401562 812.070313 2053.05 809.84375 2073.089062 C 807.617188 2093.128125 774.179688 2186.682812 758.59375 2195.589062 L 758.59375 2262.425 C 758.59375 2262.425 722.929688 2291.409375 702.890625 2266.878125 Z M 702.890625 2266.878125 " transform="matrix(0.1,0,0,-0.1,0,473.93)"/>
<path style=" stroke:none;fill-rule:nonzero;fill:rgb(100%,100%,100%);fill-opacity:1;" d="M 97.835938 275.070313 C 97.835938 275.070313 95.570313 276.429688 95.796875 285.261719 L 98.964844 288.203125 C 98.964844 288.203125 101.003906 272.578125 97.835938 275.070313 "/>
<path style=" stroke:none;fill-rule:nonzero;fill:rgb(100%,100%,100%);fill-opacity:1;" d="M 100.777344 277.789063 C 100.777344 277.789063 100.324219 289.789063 101.910156 290.695313 C 101.910156 290.695313 107.34375 293.640625 107.34375 286.394531 C 107.34375 286.394531 103.722656 282.316406 104.402344 278.695313 C 103.042969 275.976563 100.777344 277.789063 100.777344 277.789063 "/>
<path style=" stroke:none;fill-rule:nonzero;fill:rgb(100%,100%,100%);fill-opacity:1;" d="M 112.554688 281.410156 C 112.554688 281.410156 107.34375 284.582031 108.476563 291.601563 C 108.476563 291.601563 112.554688 293.636719 114.136719 290.921875 C 114.136719 290.921875 114.589844 282.996094 112.554688 281.410156 "/>
<path style=" stroke:none;fill-rule:nonzero;fill:rgb(100%,100%,100%);fill-opacity:1;" d="M 122.289063 280.503906 C 122.289063 280.503906 116.402344 279.375 115.269531 293.867188 C 115.269531 293.867188 120.253906 291.601563 122.0625 295.449219 C 122.0625 295.449219 124.101563 296.582031 125.234375 295.222656 C 126.363281 293.867188 126.363281 280.730469 122.289063 280.503906 "/>
<path style=" stroke:none;fill-rule:nonzero;fill:rgb(100%,100%,100%);fill-opacity:1;" d="M 132.253906 280.503906 C 132.253906 280.503906 126.140625 288.882813 127.949219 295.675781 C 127.949219 295.675781 130.214844 297.035156 131.574219 296.128906 C 131.574219 296.128906 132.703125 294.320313 133.839844 295.449219 L 136.554688 294.09375 L 138.140625 293.867188 C 138.140625 293.867188 139.046875 290.921875 137.234375 288.65625 C 135.421875 286.394531 137.914063 279.375 132.253906 280.503906 "/>
<path style=" stroke:none;fill-rule:nonzero;fill:rgb(100%,100%,100%);fill-opacity:1;" d="M 144.027344 279.828125 C 144.027344 279.828125 140.402344 284.808594 141.3125 293.414063 C 141.3125 293.414063 145.386719 295.902344 148.78125 291.601563 C 148.78125 291.601563 146.746094 280.28125 144.027344 279.828125 "/>
<path style=" stroke:none;fill-rule:nonzero;fill:rgb(100%,100%,100%);fill-opacity:1;" d="M 151.953125 278.015625 C 151.953125 278.015625 147.199219 280.734375 147.652344 284.808594 C 148.105469 288.882813 149.460938 290.921875 151.5 290.015625 C 153.539063 289.109375 154.21875 278.242188 151.953125 278.015625 "/>
<path style=" stroke:none;fill-rule:nonzero;fill:rgb(100%,100%,100%);fill-opacity:1;" d="M 156.933594 277.335938 C 156.933594 277.335938 153.539063 278.695313 154.671875 285.941406 L 156.933594 285.714844 C 156.933594 285.714844 158.066406 279.375 156.933594 277.335938 "/>
<path style=" stroke:none;fill-rule:nonzero;fill:rgb(100%,100%,100%);fill-opacity:1;" d="M 159.878906 273.710938 C 159.878906 273.710938 158.519531 277.109375 158.972656 282.996094 C 158.972656 282.996094 161.691406 283.449219 162.367188 280.277344 C 162.367188 280.277344 162.367188 274.617188 159.878906 273.710938 "/>
<path style=" stroke:none;fill-rule:nonzero;fill:rgb(100%,100%,100%);fill-opacity:1;" d="M 163.953125 269.183594 C 163.953125 269.183594 160.558594 271.222656 162.820313 275.523438 C 162.820313 275.523438 166.671875 274.84375 163.953125 269.183594 "/>
<path style=" stroke:none;fill-rule:nonzero;fill:rgb(100%,100%,100%);fill-opacity:1;" d="M 101.230469 293.414063 C 101.230469 293.414063 101.421875 297.386719 103.183594 298.585938 C 103.347656 298.699219 103.527344 298.789063 103.722656 298.847656 C 104.398438 297.941406 103.949219 296.582031 103.949219 296.582031 L 103.496094 293.867188 L 101.230469 293.414063 "/>
<path style=" stroke:none;fill-rule:nonzero;fill:rgb(100%,100%,100%);fill-opacity:1;" d="M 107.570313 302.242188 L 108.703125 299.753906 L 108.703125 296.355469 L 106.210938 295.449219 C 106.210938 295.449219 105.53125 301.5625 107.570313 302.242188 "/>
<path style=" stroke:none;fill-rule:nonzero;fill:rgb(100%,100%,100%);fill-opacity:1;" d="M 113.683594 297.488281 C 113.683594 297.488281 111.195313 301.335938 112.550781 303.375 C 113.910156 305.414063 115.496094 308.582031 115.496094 308.582031 L 117.082031 301.789063 L 113.683594 297.488281 "/>
<path style=" stroke:none;fill-rule:nonzero;fill:rgb(100%,100%,100%);fill-opacity:1;" d="M 118.894531 298.621094 C 118.894531 298.621094 125.007813 296.128906 126.816406 299.527344 C 128.628906 302.921875 125.007813 308.808594 125.007813 308.808594 C 125.007813 308.808594 119.117188 304.054688 118.894531 298.621094 "/>
<path style=" stroke:none;fill-rule:nonzero;fill:rgb(100%,100%,100%);fill-opacity:1;" d="M 131.800781 298.167969 C 131.800781 298.167969 136.101563 294.996094 137.914063 298.394531 C 139.726563 301.789063 134.742188 308.132813 134.742188 308.132813 C 134.742188 308.132813 131.121094 308.582031 131.800781 298.167969 "/>
<path style=" stroke:none;fill-rule:nonzero;fill:rgb(100%,100%,100%);fill-opacity:1;" d="M 143.574219 296.355469 C 143.574219 296.355469 143.574219 304.960938 145.386719 305.640625 C 147.195313 306.320313 147.425781 302.242188 147.425781 302.242188 L 148.78125 295.449219 C 148.78125 295.449219 144.933594 294.542969 143.574219 296.355469 "/>
<path style=" stroke:none;fill-rule:nonzero;fill:rgb(100%,100%,100%);fill-opacity:1;" d="M 152.859375 292.734375 C 152.859375 292.734375 151.046875 292.730469 151.046875 294.316406 C 151.046875 295.902344 151.953125 298.847656 151.953125 298.847656 L 153.085938 298.847656 C 153.085938 298.847656 153.988281 294.316406 152.859375 292.734375 "/>
<path style=" stroke:none;fill-rule:nonzero;fill:rgb(100%,100%,100%);fill-opacity:1;" d="M 156.480469 290.242188 L 154.671875 290.695313 L 155.121094 295.675781 C 155.121094 295.675781 156.707031 296.808594 156.480469 290.242188 "/>
<path style=" stroke:none;fill-rule:nonzero;fill:rgb(100%,100%,100%);fill-opacity:1;" d="M 159.652344 287.75 L 160.105469 294.996094 C 160.105469 294.996094 163.273438 292.507813 163.273438 289.789063 C 163.273438 287.070313 163.273438 285.488281 163.273438 285.488281 C 163.273438 285.488281 160.328125 286.621094 159.652344 287.75 "/>
<path style=" stroke:none;fill-rule:nonzero;fill:rgb(7.054138%,51.756287%,19.213867%);fill-opacity:1;" d="M 35.820313 351.429688 C 36.886719 346.5 42.140625 349.214844 45.480469 348.574219 C 47.183594 349.859375 46.074219 352.714844 46.097656 353.84375 C 46.121094 354.976563 49.886719 358.480469 50.273438 360.734375 C 52.609375 360.304688 52.839844 363.132813 55.222656 364.773438 C 55.222656 364.773438 57.222656 364.355469 62.339844 368.394531 C 67.457031 372.433594 69.429688 370.691406 73.675781 373.238281 C 77.925781 375.789063 100.519531 389.628906 105.589844 391.40625 C 110.640625 392.425781 108.621094 392.09375 112.191406 394.28125 C 115.757813 396.464844 122.691406 399.332031 125.757813 401.527344 C 128.824219 403.726563 137.789063 407.488281 141.363281 409.863281 C 144.933594 412.242188 148.433594 411.222656 150.332031 413.820313 C 152.234375 416.417969 159.425781 415.695313 171.167969 423.738281 C 177.300781 428.132813 185.308594 426.445313 188.730469 429.582031 C 192.113281 431.015625 203.429688 427.371094 205.949219 427.503906 C 208.464844 427.636719 208.933594 426.117188 210.867188 430.226563 C 212.804688 434.332031 216.632813 440.851563 208.898438 447.4375 C 202.253906 450.226563 200.183594 447.441406 193.28125 453.820313 C 192.6875 457.226563 193.839844 456.445313 194.496094 455.675781 C 195.152344 454.910156 200.050781 448.949219 200.621094 452.144531 C 201.195313 455.339844 199.152344 453.878906 199.863281 455.75 C 199.765625 458.957031 201.777344 466.648438 195.734375 466.402344 C 195.734375 466.402344 182.574219 469.898438 181.683594 459.917969 C 179.070313 455.449219 179.628906 450.34375 172.589844 442.761719 C 171.371094 440.714844 150.835938 429.089844 145.246094 426.570313 C 139.519531 425.375 122.910156 417.0625 119.308594 413.179688 C 115.078125 411.386719 98.457031 402.503906 96.402344 400.476563 C 94.34375 398.441406 74.722656 390.386719 70.628906 387.078125 C 66.535156 383.773438 64.726563 385.507813 59.738281 379.769531 C 54.996094 377.421875 44.5 372.75 42.46875 371.851563 C 40.4375 370.949219 31.539063 370.199219 29.894531 371.746094 C 26.789063 375.398438 21.53125 372.496094 25.46875 368.636719 C 28.621094 367.246094 31.085938 364.929688 33.609375 365.25 C 34.609375 365.039063 31.683594 369.253906 33.988281 367.316406 C 36.292969 365.382813 37.207031 361.210938 37.15625 358.949219 C 37.109375 356.6875 35.261719 356.535156 35.820313 351.429688 "/>
<path style="fill:none;stroke-width:10;stroke-linecap:butt;stroke-linejoin:miter;stroke:rgb(7.054138%,51.756287%,19.213867%);stroke-opacity:1;stroke-miterlimit:4;" d="M 358.203125 1225.003125 C 368.867188 1274.3 421.40625 1247.151562 454.804688 1253.557812 C 471.835938 1240.70625 460.742188 1212.151562 460.976563 1200.8625 C 461.210938 1189.534375 498.867188 1154.495312 502.734375 1131.95625 C 526.09375 1136.253125 528.398438 1107.971875 552.226563 1091.565625 C 552.226563 1091.565625 572.226563 1095.745312 623.398438 1055.354687 C 674.570313 1014.964062 694.296875 1032.385937 736.757813 1006.917187 C 779.257813 981.409375 1005.195313 843.010937 1055.898438 825.2375 C 1106.40625 815.042187 1086.210938 818.3625 1121.914063 796.4875 C 1157.578125 774.651562 1226.914063 745.979687 1257.578125 724.026562 C 1288.242188 702.034375 1377.890625 664.417187 1413.632813 640.667187 C 1449.335938 616.878125 1484.335938 627.073437 1503.320313 601.096875 C 1522.34375 575.120312 1594.257813 582.346875 1711.679688 501.917187 C 1773.007813 457.971875 1853.085938 474.846875 1887.304688 443.479687 C 1921.132813 429.14375 2034.296875 465.589062 2059.492188 464.260937 C 2084.648438 462.932812 2089.335938 478.128125 2108.671875 437.034375 C 2128.046875 395.979687 2166.328125 330.784375 2088.984375 264.925 C 2022.539063 237.034375 2001.835938 264.885937 1932.8125 201.096875 C 1926.875 167.034375 1938.398438 174.846875 1944.960938 182.542187 C 1951.523438 190.198437 2000.507813 249.807812 2006.210938 217.854687 C 2011.953125 185.901562 1991.523438 200.510937 1998.632813 181.8 C 1997.65625 149.729687 2017.773438 72.815625 1957.34375 75.276562 C 1957.34375 75.276562 1825.742188 40.315625 1816.835938 140.120312 C 1790.703125 184.807812 1796.289063 235.8625 1725.898438 311.682812 C 1713.710938 332.151562 1508.359375 448.401562 1452.460938 473.596875 C 1395.195313 485.55 1229.101563 568.675 1193.085938 607.503125 C 1150.78125 625.432812 984.570313 714.260937 964.023438 734.534375 C 943.4375 754.885937 747.226563 835.432812 706.289063 868.51875 C 665.351563 901.565625 647.265625 884.221875 597.382813 941.604687 C 549.960938 965.08125 445 1011.8 424.6875 1020.784375 C 404.375 1029.807812 315.390625 1037.307812 298.945313 1021.839062 C 267.890625 985.315625 215.3125 1014.339062 254.6875 1052.932812 C 286.210938 1066.839062 310.859375 1090.003125 336.09375 1086.8 C 346.09375 1088.909375 316.835938 1046.760937 339.882813 1066.135937 C 362.929688 1085.471875 372.070313 1127.190625 371.5625 1149.807812 C 371.09375 1172.425 352.617188 1173.948437 358.203125 1225.003125 Z M 358.203125 1225.003125 " transform="matrix(0.1,0,0,-0.1,0,473.93)"/>
<path style=" stroke:none;fill-rule:nonzero;fill:rgb(7.054138%,51.756287%,19.213867%);fill-opacity:1;" d="M 188.574219 353.742188 C 189.925781 346.542969 184.53125 345.339844 188.363281 344.121094 C 192.191406 342.90625 192.640625 340.445313 196.53125 342.058594 C 199.414063 343.503906 200.148438 346.507813 200.351563 348.011719 C 200.550781 349.515625 199.429688 359.539063 203.714844 356.238281 C 202.125 352.503906 205.875 355.246094 206.542969 355.234375 C 207.214844 355.21875 216.121094 364.078125 210.082031 363.835938 C 209.214844 362.34375 202.859375 363.050781 200.503906 362.726563 C 194.484375 363.421875 189.050781 367.878906 183.90625 370.257813 C 178.765625 372.632813 183.96875 373.085938 170.878906 379.976563 C 166.726563 381.765625 157.882813 391.203125 152.902344 393.386719 C 149.605469 395.914063 137.90625 405.226563 136.035156 403.945313 C 135.238281 405.847656 133.492188 402.679688 128.914063 400.328125 C 127.867188 398.464844 119.308594 398.082031 124.464844 396.085938 C 126.578125 393.019531 129.253906 392.773438 131.226563 391.035156 C 132.894531 390.617188 136.683594 387.703125 142.644531 384.367188 C 148.472656 382.542969 152.070313 378.308594 155.425781 378.425781 C 158.410156 377.042969 159.503906 373.433594 163.511719 372.78125 C 169.445313 368.121094 171.800781 368.445313 174.40625 364.992188 C 174.40625 364.992188 182.191406 360.675781 183.644531 358.1875 C 185.097656 355.703125 188.769531 355.054688 188.574219 353.742188 "/>
<path style="fill:none;stroke-width:10;stroke-linecap:butt;stroke-linejoin:miter;stroke:rgb(7.054138%,51.756287%,19.213867%);stroke-opacity:1;stroke-miterlimit:4;" d="M 1885.742188 1201.878125 C 1899.257813 1273.870312 1845.3125 1285.901562 1883.632813 1298.089062 C 1921.914063 1310.2375 1926.40625 1334.846875 1965.3125 1318.714062 C 1994.140625 1304.260937 2001.484375 1274.221875 2003.515625 1259.182812 C 2005.507813 1244.14375 1994.296875 1143.909375 2037.148438 1176.917187 C 2021.25 1214.260937 2058.75 1186.839062 2065.429688 1186.95625 C 2072.148438 1187.1125 2161.210938 1098.51875 2100.820313 1100.940625 C 2092.148438 1115.8625 2028.59375 1108.792187 2005.039063 1112.034375 C 1944.84375 1105.08125 1890.507813 1060.510937 1839.0625 1036.721875 C 1787.65625 1012.971875 1839.6875 1008.440625 1708.789063 939.534375 C 1667.265625 921.64375 1578.828125 827.26875 1529.023438 805.432812 C 1496.054688 780.159375 1379.0625 687.034375 1360.351563 699.846875 C 1352.382813 680.823437 1334.921875 712.503125 1289.140625 736.01875 C 1278.671875 754.651562 1193.085938 758.479687 1244.648438 778.440625 C 1265.78125 809.104687 1292.539063 811.565625 1312.265625 828.948437 C 1328.945313 833.128125 1366.835938 862.26875 1426.445313 895.628125 C 1484.726563 913.870312 1520.703125 956.214062 1554.257813 955.042187 C 1584.101563 968.870312 1595.039063 1004.964062 1635.117188 1011.4875 C 1694.453125 1058.089062 1718.007813 1054.846875 1744.0625 1089.378125 C 1744.0625 1089.378125 1821.914063 1132.542187 1836.445313 1157.425 C 1850.976563 1182.26875 1887.695313 1188.753125 1885.742188 1201.878125 Z M 1885.742188 1201.878125 " transform="matrix(0.1,0,0,-0.1,0,473.93)"/>
<path style=" stroke:none;fill-rule:nonzero;fill:rgb(7.054138%,51.756287%,19.213867%);fill-opacity:1;" d="M 36.511719 436.5 C 39 436.664063 50.785156 437.695313 53.589844 435.5625 C 56.390625 433.425781 61.097656 434.074219 62.4375 434.046875 C 62.386719 431.597656 66.742188 431.5 68.039063 429.585938 C 73.03125 427.777344 81.246094 420.238281 84.925781 419.96875 C 84.925781 419.96875 88.0625 417.636719 91.050781 416.441406 C 94.042969 415.242188 103.921875 407.101563 107.140625 408.730469 C 110.363281 410.355469 111.742188 412.023438 113.078125 411.996094 C 115.296875 413.644531 122.527344 414.808594 115.722656 417.789063 C 108.914063 420.765625 97.554688 430.070313 91.867188 430.761719 C 90.585938 433.429688 80.332031 439.695313 79.347656 440.65625 C 78.363281 441.621094 72.097656 446.476563 70.953125 447.820313 C 69.808594 449.167969 70.871094 451.59375 68.351563 451.464844 C 67.710938 452.800781 68.464844 456.554688 65.8125 457.933594 C 64.332031 459.097656 68.851563 466.546875 63.050781 469.503906 C 59.195313 469.585938 56.253906 473.046875 51.835938 470.316406 C 50.292969 468.648438 47.957031 469.269531 48.710938 465.289063 C 47.910156 459.457031 47.832031 455.875 46.460938 454.398438 C 44.453125 454.628906 44.644531 448.019531 40.515625 450.941406 C 40.394531 453.019531 38.351563 451.742188 38.148438 450.050781 C 37.46875 449.5 36.164063 451.226563 36.164063 451.226563 C 36.164063 451.226563 31.480469 451.707031 31.40625 448.3125 C 31.523438 446.042969 28.550781 447.996094 28.398438 441.019531 C 28.242188 434.042969 29.765625 434.574219 31.109375 434.734375 C 32.453125 434.894531 34.328125 436.359375 36.511719 436.5 "/>
<g clip-path="url(#clip4)" clip-rule="nonzero">
<path style="fill:none;stroke-width:10;stroke-linecap:butt;stroke-linejoin:miter;stroke:rgb(7.054138%,51.756287%,19.213867%);stroke-opacity:1;stroke-miterlimit:4;" d="M 365.117188 374.3 C 390 372.659375 507.851563 362.346875 535.898438 383.675 C 563.90625 405.042187 610.976563 398.557812 624.375 398.83125 C 623.867188 423.323437 667.421875 424.3 680.390625 443.440625 C 730.3125 461.526562 812.460938 536.917187 849.257813 539.6125 C 849.257813 539.6125 880.625 562.932812 910.507813 574.885937 C 940.429688 586.878125 1039.21875 668.284375 1071.40625 651.995312 C 1103.632813 635.745312 1117.421875 619.065625 1130.78125 619.339062 C 1152.96875 602.854687 1225.273438 591.214062 1157.226563 561.409375 C 1089.140625 531.64375 975.546875 438.596875 918.671875 431.682812 C 905.859375 405.003125 803.320313 342.346875 793.476563 332.7375 C 783.632813 323.089062 720.976563 274.534375 709.53125 261.096875 C 698.085938 247.620312 708.710938 223.3625 683.515625 224.651562 C 677.109375 211.292187 684.648438 173.753125 658.125 159.964062 C 643.320313 148.323437 688.515625 73.83125 630.507813 44.260937 C 591.953125 43.440625 562.539063 8.83125 518.359375 36.135937 C 502.929688 52.815625 479.570313 46.604687 487.109375 86.409375 C 479.101563 144.729687 478.320313 180.55 464.609375 195.315625 C 444.53125 193.010937 446.445313 259.104687 405.15625 229.885937 C 403.945313 209.104687 383.515625 221.878125 381.484375 238.792187 C 374.6875 244.3 361.640625 227.034375 361.640625 227.034375 C 361.640625 227.034375 314.804688 222.229687 314.0625 256.175 C 315.234375 278.870312 285.507813 259.339062 283.984375 329.104687 C 282.421875 398.870312 297.65625 393.557812 311.09375 391.95625 C 324.53125 390.354687 343.28125 375.70625 365.117188 374.3 Z M 365.117188 374.3 " transform="matrix(0.1,0,0,-0.1,0,473.93)"/>
</g>
</g>
</svg>
