<?xml version="1.0" encoding="UTF-8"?>
<svg xmlns="http://www.w3.org/2000/svg" xmlns:xlink="http://www.w3.org/1999/xlink" width="560.01pt" height="367.58pt" viewBox="0 0 560.01 367.58" version="1.1">
<defs>
<clipPath id="clip1">
  <path d="M 35 0 L 560.011719 0 L 560.011719 367.578125 L 35 367.578125 Z M 35 0 "/>
</clipPath>
<clipPath id="clip2">
  <path d="M 455 0 L 560.011719 0 L 560.011719 194 L 455 194 Z M 455 0 "/>
</clipPath>
<clipPath id="clip3">
  <path d="M 22 206 L 189 206 L 189 367.578125 L 22 367.578125 Z M 22 206 "/>
</clipPath>
<clipPath id="clip4">
  <path d="M 151 132 L 344 132 L 344 367.578125 L 151 367.578125 Z M 151 132 "/>
</clipPath>
<clipPath id="clip5">
  <path d="M 295 108 L 560.011719 108 L 560.011719 367.578125 L 295 367.578125 Z M 295 108 "/>
</clipPath>
</defs>
<g id="surface1">
<g clip-path="url(#clip1)" clip-rule="nonzero">
<path style=" stroke:none;fill-rule:nonzero;fill:rgb(0%,0%,0%);fill-opacity:1;" d="M 36.902344 356.335938 C 33.902344 351.839844 34.738281 301.761719 41.222656 287.710938 C 44.464844 280.6875 51.492188 281.226563 55.8125 281.765625 C 60.136719 282.308594 35.28125 261.773438 37.441406 221.246094 C 45.546875 220.703125 39.601563 215.84375 37.441406 211.519531 C 35.28125 207.195313 36.902344 19.6875 37.441406 13.742188 C 37.980469 7.800781 33.660156 1.316406 54.734375 1.316406 C 75.808594 1.316406 121.199219 0.777344 127.140625 0.777344 C 133.085938 0.777344 140.109375 1.316406 140.652344 5.640625 C 141.191406 9.960938 137.410156 0.777344 152.539063 0.777344 L 258.992188 0.777344 C 266.015625 0.777344 266.015625 3.476563 267.097656 5.097656 C 268.179688 6.71875 266.015625 1.316406 273.582031 1.316406 C 281.148438 1.316406 356.796875 1.855469 362.203125 1.855469 C 367.605469 1.855469 370.847656 5.097656 370.847656 5.097656 C 370.847656 5.097656 369.226563 2.398438 378.953125 2.398438 C 388.679688 2.398438 456.765625 1.855469 460.550781 1.855469 C 464.332031 1.855469 467.574219 -0.304688 468.113281 5.097656 C 468.652344 10.503906 468.113281 0.777344 481.621094 0.234375 C 495.132813 -0.304688 553.492188 0.234375 553.492188 0.234375 C 553.492188 0.234375 560.515625 -0.847656 559.976563 15.363281 C 559.4375 31.578125 551.871094 54.273438 548.628906 60.214844 C 545.386719 66.160156 558.355469 48.328125 558.894531 71.5625 C 559.4375 94.800781 559.4375 179.097656 559.4375 179.097656 C 559.4375 179.097656 551.328125 190.445313 557.8125 192.605469 C 557.273438 209.359375 558.355469 333.101563 557.8125 346.070313 C 556.078125 368.472656 49.871094 375.789063 36.902344 356.335938 "/>
</g>
<path style=" stroke:none;fill-rule:nonzero;fill:rgb(29.80957%,58.789063%,77.34375%);fill-opacity:1;" d="M 54.914063 11.222656 C 59.929688 10.722656 124.800781 10.503906 130.566406 10.503906 C 136.328125 10.503906 137.046875 26.351563 137.769531 29.234375 C 138.488281 32.117188 140.652344 104.886719 140.652344 108.488281 C 140.652344 112.089844 105.347656 90.476563 93.097656 65.980469 C 115.433594 63.816406 113.992188 51.570313 113.992188 45.085938 C 113.992188 38.601563 101.023438 19.148438 80.851563 35.71875 C 63.558594 55.171875 83.011719 89.757813 91.660156 96.960938 C 100.304688 106.328125 164.429688 153.878906 166.589844 205.753906 C 126.960938 232.414063 49.871094 215.839844 48.429688 208.636719 C 46.988281 201.433594 44.828125 26.351563 44.828125 20.589844 C 44.828125 14.824219 47.710938 11.945313 54.914063 11.222656 "/>
<path style="fill:none;stroke-width:40;stroke-linecap:butt;stroke-linejoin:miter;stroke:rgb(100%,100%,100%);stroke-opacity:1;stroke-miterlimit:4;" d="M 549.140625 3563.573437 C 599.296875 3568.573437 1248.007813 3570.760937 1305.664063 3570.760937 C 1363.28125 3570.760937 1370.46875 3412.284375 1377.695313 3383.45625 C 1384.882813 3354.628125 1406.523438 2626.932812 1406.523438 2590.917187 C 1406.523438 2554.901562 1053.476563 2771.034375 930.976563 3015.995312 C 1154.335938 3037.635937 1139.921875 3160.096875 1139.921875 3224.940625 C 1139.921875 3289.784375 1010.234375 3484.315625 808.515625 3318.6125 C 635.585938 3124.08125 830.117188 2778.221875 916.601563 2706.190625 C 1003.046875 2612.51875 1644.296875 2137.010937 1665.898438 1618.260937 C 1269.609375 1351.659375 498.710938 1517.401562 484.296875 1589.432812 C 469.882813 1661.464062 448.28125 3412.284375 448.28125 3469.901562 C 448.28125 3527.557812 477.109375 3556.346875 549.140625 3563.573437 Z M 549.140625 3563.573437 " transform="matrix(0.1,0,0,-0.1,0,367.58)"/>
<path style=" stroke:none;fill-rule:nonzero;fill:rgb(29.80957%,58.789063%,77.34375%);fill-opacity:1;" d="M 158.664063 12.664063 L 257.371094 12.664063 C 257.371094 12.664063 265.296875 35.71875 259.53125 50.128906 C 256.648438 59.496094 253.046875 58.054688 250.886719 58.054688 C 248.726563 58.054688 222.066406 58.054688 219.183594 55.894531 C 234.316406 40.761719 223.507813 27.074219 215.582031 24.191406 C 207.65625 21.308594 185.320313 21.308594 183.882813 45.085938 C 185.320313 68.140625 228.550781 80.390625 256.648438 71.742188 C 260.972656 71.742188 262.414063 79.667969 260.972656 81.109375 C 260.972656 81.109375 168.75 119.296875 217.023438 156.042969 C 239.359375 169.730469 261.695313 115.695313 231.433594 113.53125 C 240.800781 104.886719 260.972656 93.359375 266.015625 93.359375 C 271.0625 93.359375 283.308594 137.308594 283.308594 144.511719 C 283.308594 151.71875 189.644531 202.875 184.601563 201.433594 C 166.589844 179.816406 150.019531 27.792969 150.019531 18.425781 C 150.019531 9.0625 158.664063 12.664063 158.664063 12.664063 "/>
<path style="fill:none;stroke-width:40;stroke-linecap:butt;stroke-linejoin:miter;stroke:rgb(100%,100%,100%);stroke-opacity:1;stroke-miterlimit:4;" d="M 1586.640625 3549.159375 L 2573.710938 3549.159375 C 2573.710938 3549.159375 2652.96875 3318.6125 2595.3125 3174.510937 C 2566.484375 3080.839062 2530.46875 3095.253125 2508.867188 3095.253125 C 2487.265625 3095.253125 2220.664063 3095.253125 2191.835938 3116.854687 C 2343.164063 3268.182812 2235.078125 3405.057812 2155.820313 3433.885937 C 2076.5625 3462.714062 1853.203125 3462.714062 1838.828125 3224.940625 C 1853.203125 2994.39375 2285.507813 2871.89375 2566.484375 2958.378125 C 2609.726563 2958.378125 2624.140625 2879.120312 2609.726563 2864.70625 C 2609.726563 2864.70625 1687.5 2482.83125 2170.234375 2115.370312 C 2393.59375 1978.495312 2616.953125 2518.846875 2314.335938 2540.4875 C 2408.007813 2626.932812 2609.726563 2742.20625 2660.15625 2742.20625 C 2710.625 2742.20625 2833.085938 2302.714062 2833.085938 2230.682812 C 2833.085938 2158.6125 1896.445313 1647.05 1846.015625 1661.464062 C 1665.898438 1877.635937 1500.195313 3397.870312 1500.195313 3491.542187 C 1500.195313 3585.175 1586.640625 3549.159375 1586.640625 3549.159375 Z M 1586.640625 3549.159375 " transform="matrix(0.1,0,0,-0.1,0,367.58)"/>
<path style=" stroke:none;fill-rule:nonzero;fill:rgb(29.80957%,58.789063%,77.34375%);fill-opacity:1;" d="M 278.265625 10.503906 C 284.464844 8.59375 354.640625 10.503906 357.519531 10.503906 C 360.402344 10.503906 366.886719 11.945313 366.886719 24.191406 C 366.886719 36.441406 377.691406 107.050781 378.414063 111.371094 C 379.136719 115.695313 327.261719 117.855469 304.203125 136.589844 C 294.117188 141.632813 294.117188 132.265625 293.394531 127.222656 C 292.675781 122.179688 289.074219 100.5625 303.484375 83.273438 C 317.890625 65.980469 338.066406 55.175781 338.066406 32.839844 C 338.066406 10.503906 312.847656 17.707031 304.921875 28.515625 C 296.996094 39.320313 307.804688 52.289063 313.570313 52.289063 C 319.335938 52.289063 282.585938 78.230469 276.824219 68.140625 C 271.0625 58.054688 268.898438 13.382813 278.265625 10.503906 "/>
<path style="fill:none;stroke-width:40;stroke-linecap:butt;stroke-linejoin:miter;stroke:rgb(100%,100%,100%);stroke-opacity:1;stroke-miterlimit:4;" d="M 2782.65625 3570.760937 C 2844.648438 3589.8625 3546.40625 3570.760937 3575.195313 3570.760937 C 3604.023438 3570.760937 3668.867188 3556.346875 3668.867188 3433.885937 C 3668.867188 3311.385937 3776.914063 2605.292187 3784.140625 2562.089062 C 3791.367188 2518.846875 3272.617188 2497.245312 3042.03125 2309.901562 C 2941.171875 2259.471875 2941.171875 2353.14375 2933.945313 2403.573437 C 2926.757813 2454.003125 2890.742188 2670.175 3034.84375 2843.065625 C 3178.90625 3015.995312 3380.664063 3124.042187 3380.664063 3347.401562 C 3380.664063 3570.760937 3128.476563 3498.729687 3049.21875 3390.64375 C 2969.960938 3282.596875 3078.046875 3152.909375 3135.703125 3152.909375 C 3193.359375 3152.909375 2825.859375 2893.495312 2768.242188 2994.39375 C 2710.625 3095.253125 2688.984375 3541.971875 2782.65625 3570.760937 Z M 2782.65625 3570.760937 " transform="matrix(0.1,0,0,-0.1,0,367.58)"/>
<path style=" stroke:none;fill-rule:nonzero;fill:rgb(29.80957%,58.789063%,77.34375%);fill-opacity:1;" d="M 379.136719 11.941406 C 393.492188 10.746094 459.109375 11.941406 459.109375 11.941406 C 459.109375 11.941406 467.753906 22.027344 462.710938 42.203125 C 457.667969 62.378906 454.0625 63.097656 457.667969 67.421875 C 461.269531 71.742188 470.632813 83.992188 469.195313 127.941406 C 450.464844 125.058594 443.980469 106.328125 444.699219 100.5625 C 445.417969 94.800781 444.695313 51.570313 423.804688 58.054688 C 402.910156 64.539063 401.472656 90.476563 428.847656 84.714844 C 430.289063 89.757813 431.011719 109.210938 431.011719 114.972656 C 415.15625 114.972656 393.546875 115.695313 392.105469 109.929688 C 390.660156 104.164063 379.136719 15.546875 379.136719 11.941406 "/>
<path style="fill:none;stroke-width:40;stroke-linecap:butt;stroke-linejoin:miter;stroke:rgb(100%,100%,100%);stroke-opacity:1;stroke-miterlimit:4;" d="M 3791.367188 3556.385937 C 3934.921875 3568.339062 4591.09375 3556.385937 4591.09375 3556.385937 C 4591.09375 3556.385937 4677.539063 3455.526562 4627.109375 3253.76875 C 4576.679688 3052.010937 4540.625 3044.823437 4576.679688 3001.58125 C 4612.695313 2958.378125 4706.328125 2835.878125 4691.953125 2396.385937 C 4504.648438 2425.214062 4439.804688 2612.51875 4446.992188 2670.175 C 4454.179688 2727.792187 4446.953125 3160.096875 4238.046875 3095.253125 C 4029.101563 3030.409375 4014.726563 2771.034375 4288.476563 2828.651562 C 4302.890625 2778.221875 4310.117188 2583.690625 4310.117188 2526.073437 C 4151.5625 2526.073437 3935.46875 2518.846875 3921.054688 2576.503125 C 3906.601563 2634.159375 3791.367188 3520.33125 3791.367188 3556.385937 Z M 3791.367188 3556.385937 " transform="matrix(0.1,0,0,-0.1,0,367.58)"/>
<path style=" stroke:none;fill-rule:nonzero;fill:rgb(29.80957%,58.789063%,77.34375%);fill-opacity:1;" d="M 477.839844 11.222656 C 477.839844 11.222656 482.164063 122.898438 482.164063 125.78125 C 482.164063 128.664063 483.605469 132.984375 490.089844 135.148438 C 496.574219 137.308594 543.402344 164.6875 549.167969 170.449219 C 549.167969 163.964844 550.609375 81.109375 550.609375 73.90625 C 550.609375 66.699219 526.832031 77.507813 515.304688 91.917969 C 544.847656 96.242188 527.554688 124.339844 516.027344 119.296875 C 516.027344 119.296875 498.015625 118.574219 499.453125 96.960938 C 500.894531 81.109375 525.394531 65.261719 527.554688 63.097656 C 529.714844 60.9375 554.214844 37.160156 550.609375 11.222656 C 515.304688 11.945313 477.839844 11.222656 477.839844 11.222656 "/>
<g clip-path="url(#clip2)" clip-rule="nonzero">
<path style="fill:none;stroke-width:40;stroke-linecap:butt;stroke-linejoin:miter;stroke:rgb(100%,100%,100%);stroke-opacity:1;stroke-miterlimit:4;" d="M 4778.398438 3563.573437 C 4778.398438 3563.573437 4821.640625 2446.815625 4821.640625 2417.9875 C 4821.640625 2389.159375 4836.054688 2345.95625 4900.898438 2324.315625 C 4965.742188 2302.714062 5434.023438 2028.925 5491.679688 1971.307812 C 5491.679688 2036.151562 5506.09375 2864.70625 5506.09375 2936.7375 C 5506.09375 3008.807812 5268.320313 2900.721875 5153.046875 2756.620312 C 5448.476563 2713.378125 5275.546875 2432.401562 5160.273438 2482.83125 C 5160.273438 2482.83125 4980.15625 2490.057812 4994.53125 2706.190625 C 5008.945313 2864.70625 5253.945313 3023.182812 5275.546875 3044.823437 C 5297.148438 3066.425 5542.148438 3304.198437 5506.09375 3563.573437 C 5153.046875 3556.346875 4778.398438 3563.573437 4778.398438 3563.573437 Z M 4778.398438 3563.573437 " transform="matrix(0.1,0,0,-0.1,0,367.58)"/>
</g>
<path style=" stroke:none;fill-rule:nonzero;fill:rgb(75.389099%,81.25%,33.714294%);fill-opacity:1;" d="M 48.429688 229.53125 C 95.980469 242.5 142.09375 236.738281 158.664063 229.53125 C 170.910156 254.027344 164.429688 338.324219 157.941406 352.734375 C 130.566406 355.617188 46.988281 353.457031 46.988281 353.457031 C 46.988281 353.457031 39.78125 310.226563 52.03125 292.933594 C 77.96875 290.050781 95.257813 299.417969 105.347656 310.226563 C 88.777344 302.300781 77.96875 326.078125 89.496094 337.605469 C 101.023438 349.132813 127.683594 349.132813 128.402344 328.957031 C 129.121094 308.785156 121.917969 297.257813 95.980469 286.449219 C 70.042969 275.644531 44.105469 258.351563 48.429688 229.53125 "/>
<g clip-path="url(#clip3)" clip-rule="nonzero">
<path style="fill:none;stroke-width:40;stroke-linecap:butt;stroke-linejoin:miter;stroke:rgb(100%,100%,100%);stroke-opacity:1;stroke-miterlimit:4;" d="M 484.296875 1380.4875 C 959.804688 1250.8 1420.9375 1308.417187 1586.640625 1380.4875 C 1709.101563 1135.526562 1644.296875 292.557812 1579.414063 148.45625 C 1305.664063 119.628125 469.882813 141.229687 469.882813 141.229687 C 469.882813 141.229687 397.8125 573.534375 520.3125 746.464062 C 779.6875 775.292187 952.578125 681.620312 1053.476563 573.534375 C 887.773438 652.792187 779.6875 415.01875 894.960938 299.745312 C 1010.234375 184.471875 1276.835938 184.471875 1284.023438 386.229687 C 1291.210938 587.948437 1219.179688 703.221875 959.804688 811.307812 C 700.429688 919.354687 441.054688 1092.284375 484.296875 1380.4875 Z M 484.296875 1380.4875 " transform="matrix(0.1,0,0,-0.1,0,367.58)"/>
</g>
<path style=" stroke:none;fill-rule:nonzero;fill:rgb(75.389099%,81.25%,33.714294%);fill-opacity:1;" d="M 300.601563 155.320313 C 284.75 166.847656 217.023438 212.960938 188.925781 219.445313 C 176.675781 224.488281 178.117188 231.691406 178.117188 236.734375 C 178.117188 241.777344 177.394531 274.921875 178.117188 277.804688 C 178.839844 280.6875 183.160156 287.890625 194.6875 282.847656 C 206.214844 277.804688 222.785156 274.199219 242.238281 256.910156 C 211.980469 255.46875 224.949219 236.015625 227.109375 228.8125 C 229.269531 221.605469 261.695313 199.269531 271.0625 228.8125 C 280.425781 258.351563 235.757813 278.523438 225.667969 287.171875 C 215.582031 295.816406 173.792969 310.945313 173.792969 353.453125 C 239.359375 355.617188 320.773438 353.453125 320.773438 353.453125 C 320.773438 353.453125 325.816406 204.3125 300.601563 155.320313 "/>
<g clip-path="url(#clip4)" clip-rule="nonzero">
<path style="fill:none;stroke-width:40;stroke-linecap:butt;stroke-linejoin:miter;stroke:rgb(100%,100%,100%);stroke-opacity:1;stroke-miterlimit:4;" d="M 3006.015625 2122.596875 C 2847.5 2007.323437 2170.234375 1546.190625 1889.257813 1481.346875 C 1766.757813 1430.917187 1781.171875 1358.885937 1781.171875 1308.45625 C 1781.171875 1258.026562 1773.945313 926.58125 1781.171875 897.753125 C 1788.398438 868.925 1831.601563 796.89375 1946.875 847.323437 C 2062.148438 897.753125 2227.851563 933.807812 2422.382813 1106.698437 C 2119.804688 1121.1125 2249.492188 1315.64375 2271.09375 1387.675 C 2292.695313 1459.745312 2616.953125 1683.104687 2710.625 1387.675 C 2804.257813 1092.284375 2357.578125 890.565625 2256.679688 804.08125 C 2155.820313 717.635937 1737.929688 566.346875 1737.929688 141.26875 C 2393.59375 119.628125 3207.734375 141.26875 3207.734375 141.26875 C 3207.734375 141.26875 3258.164063 1632.675 3006.015625 2122.596875 Z M 3006.015625 2122.596875 " transform="matrix(0.1,0,0,-0.1,0,367.58)"/>
</g>
<path style=" stroke:none;fill-rule:nonzero;fill:rgb(75.389099%,81.25%,33.714294%);fill-opacity:1;" d="M 442.535156 200.710938 C 438.933594 189.902344 429.566406 146.675781 423.085938 140.191406 C 416.601563 133.707031 410.832031 131.546875 407.230469 131.546875 C 403.632813 131.546875 344.546875 127.941406 318.609375 153.878906 C 334.464844 199.992188 335.902344 343.367188 333.023438 352.015625 C 358.960938 352.734375 403.632813 349.851563 403.632813 349.851563 C 403.632813 349.851563 412.996094 299.417969 405.792969 282.125 C 393.542969 320.3125 373.371094 294.375 367.605469 284.289063 C 367.605469 284.289063 346.714844 239.617188 382.015625 230.972656 C 417.320313 222.324219 426.6875 302.300781 425.246094 345.53125 C 434.609375 346.25 443.976563 347.691406 443.976563 347.691406 C 443.976563 347.691406 436.773438 291.492188 474.960938 251.867188 C 513.144531 212.238281 531.878906 268.4375 508.101563 293.65625 C 484.324219 318.871094 468.472656 296.535156 469.914063 285.007813 C 471.355469 273.480469 455.507813 328.960938 460.550781 346.972656 C 488.648438 352.015625 541.964844 342.648438 547.007813 342.648438 C 552.050781 342.648438 548.449219 205.035156 549.167969 198.550781 C 549.890625 192.066406 491.53125 142.351563 474.960938 160.363281 C 458.386719 178.378906 451.183594 182.699219 442.535156 200.710938 "/>
<g clip-path="url(#clip5)" clip-rule="nonzero">
<path style="fill:none;stroke-width:40;stroke-linecap:butt;stroke-linejoin:miter;stroke:rgb(100%,100%,100%);stroke-opacity:1;stroke-miterlimit:4;" d="M 4425.351563 1668.690625 C 4389.335938 1776.776562 4295.664063 2209.042187 4230.859375 2273.885937 C 4166.015625 2338.729687 4108.320313 2360.33125 4072.304688 2360.33125 C 4036.328125 2360.33125 3445.46875 2396.385937 3186.09375 2137.010937 C 3344.648438 1675.878125 3359.023438 242.128125 3330.234375 155.64375 C 3589.609375 148.45625 4036.328125 177.284375 4036.328125 177.284375 C 4036.328125 177.284375 4129.960938 681.620312 4057.929688 854.55 C 3935.429688 472.675 3733.710938 732.05 3676.054688 832.909375 C 3676.054688 832.909375 3467.148438 1279.628125 3820.15625 1366.073437 C 4173.203125 1452.557812 4266.875 652.792187 4252.460938 220.4875 C 4346.09375 213.3 4439.765625 198.885937 4439.765625 198.885937 C 4439.765625 198.885937 4367.734375 760.878125 4749.609375 1157.128125 C 5131.445313 1553.417187 5318.789063 991.425 5081.015625 739.2375 C 4843.242188 487.089062 4684.726563 710.448437 4699.140625 825.721875 C 4713.554688 940.995312 4555.078125 386.190625 4605.507813 206.073437 C 4886.484375 155.64375 5419.648438 249.315625 5470.078125 249.315625 C 5520.507813 249.315625 5484.492188 1625.448437 5491.679688 1690.292187 C 5498.90625 1755.135937 4915.3125 2252.284375 4749.609375 2072.167187 C 4583.867188 1892.010937 4511.835938 1848.807812 4425.351563 1668.690625 Z M 4425.351563 1668.690625 " transform="matrix(0.1,0,0,-0.1,0,367.58)"/>
</g>
<path style="fill:none;stroke-width:40;stroke-linecap:butt;stroke-linejoin:miter;stroke:rgb(100%,100%,100%);stroke-opacity:1;stroke-miterlimit:4;" d="M 86.679688 2303.573437 C 43.320313 2373.573437 -50 2276.89375 -40 2240.253125 C -26.679688 2176.89375 123.320313 2216.89375 86.679688 2303.573437 Z M 86.679688 2303.573437 " transform="matrix(0.1,0,0,-0.1,0,367.58)"/>
<path style=" stroke:none;fill-rule:nonzero;fill:rgb(0%,0%,0%);fill-opacity:1;" d="M 350.507813 84.714844 C 341.140625 69.582031 320.964844 90.476563 323.128906 98.402344 C 326.011719 112.089844 358.433594 103.445313 350.507813 84.714844 "/>
<path style="fill:none;stroke-width:40;stroke-linecap:butt;stroke-linejoin:miter;stroke:rgb(100%,100%,100%);stroke-opacity:1;stroke-miterlimit:4;" d="M 3505.078125 2828.651562 C 3411.40625 2979.979687 3209.648438 2771.034375 3231.289063 2691.776562 C 3260.117188 2554.901562 3584.335938 2641.346875 3505.078125 2828.651562 Z M 3505.078125 2828.651562 " transform="matrix(0.1,0,0,-0.1,0,367.58)"/>
<path style=" stroke:none;fill-rule:nonzero;fill:rgb(0%,0%,0%);fill-opacity:1;" d="M 424.714844 21.308594 C 435.511719 20.839844 436.246094 40.761719 423.996094 40.761719 C 411.746094 40.761719 408.144531 22.03125 424.714844 21.308594 "/>
<path style="fill:none;stroke-width:40;stroke-linecap:butt;stroke-linejoin:miter;stroke:rgb(100%,100%,100%);stroke-opacity:1;stroke-miterlimit:4;" d="M 4247.148438 3462.714062 C 4355.117188 3467.401562 4362.460938 3268.182812 4239.960938 3268.182812 C 4117.460938 3268.182812 4081.445313 3455.4875 4247.148438 3462.714062 Z M 4247.148438 3462.714062 " transform="matrix(0.1,0,0,-0.1,0,367.58)"/>
<path style=" stroke:none;fill-rule:nonzero;fill:rgb(0%,0%,0%);fill-opacity:1;" d="M 254.679688 305.183594 C 277.015625 303.742188 284.21875 335.441406 253.960938 338.324219 C 228.742188 336.164063 222.980469 309.507813 254.679688 305.183594 "/>
<path style="fill:none;stroke-width:40;stroke-linecap:butt;stroke-linejoin:miter;stroke:rgb(100%,100%,100%);stroke-opacity:1;stroke-miterlimit:4;" d="M 2546.796875 623.964062 C 2770.15625 638.378125 2842.1875 321.385937 2539.609375 292.557812 C 2287.421875 314.159375 2229.804688 580.721875 2546.796875 623.964062 Z M 2546.796875 623.964062 " transform="matrix(0.1,0,0,-0.1,0,367.58)"/>
</g>
</svg>
