<?xml version="1.0" encoding="UTF-8"?>
<svg xmlns="http://www.w3.org/2000/svg" xmlns:xlink="http://www.w3.org/1999/xlink" width="243.4pt" height="425.5pt" viewBox="0 0 243.4 425.5" version="1.1">
<defs>
<clipPath id="clip1">
  <path d="M 9 41 L 235 41 L 235 425.5 L 9 425.5 Z M 9 41 "/>
</clipPath>
<clipPath id="clip2">
  <path d="M 206 0 L 243.398438 0 L 243.398438 32 L 206 32 Z M 206 0 "/>
</clipPath>
</defs>
<g id="surface1">
<g clip-path="url(#clip1)" clip-rule="nonzero">
<path style=" stroke:none;fill-rule:evenodd;fill:rgb(10.594177%,9.812927%,9.423828%);fill-opacity:1;" d="M 118.113281 114.632813 C 115.871094 123.578125 132.433594 126.492188 130.53125 148.53125 C 133.441406 152.671875 133.664063 160.28125 131.203125 166.324219 C 131.648438 172.699219 136.121094 178.742188 132.539063 185.453125 C 132.878906 188.027344 138.921875 189.257813 141.609375 193.175781 C 146.195313 193.847656 147.761719 195.859375 155.371094 195.1875 L 166.78125 185.453125 L 186.921875 142.492188 L 187.929688 127.386719 L 195.984375 118.660156 C 194.976563 116.421875 191.953125 114.183594 192.964844 111.945313 C 195.761719 107.472656 200.234375 109.261719 205.382813 111.273438 L 218.1875 81.324219 C 219.722656 78.585938 224.390625 80.757813 223.355469 83.054688 L 209.074219 116.980469 C 208.515625 121.007813 208.628906 125.035156 208.402344 129.0625 C 201.464844 146.40625 190.835938 166.769531 189.605469 181.089844 C 195.761719 182.433594 207.621094 183.777344 214.109375 185.121094 C 216.796875 186.351563 214.78125 199.664063 212.097656 199.886719 L 191.285156 198.546875 C 194.414063 201.902344 196.878906 204.921875 195.648438 206.601563 C 191.339844 209.621094 188.878906 215.105469 187.257813 221.703125 C 191.507813 225.734375 196.320313 230.769531 194.640625 233.789063 L 187.59375 238.824219 C 185.132813 239.945313 181.996094 238.714844 180.203125 237.148438 L 173.828125 226.070313 C 169.914063 224.164063 164.65625 229.652344 166.109375 236.476563 C 172.601563 235.804688 173.046875 239.828125 170.472656 243.523438 C 164.320313 244.53125 155.816406 243.300781 152.011719 239.828125 L 151.675781 231.777344 C 146.195313 227.523438 151.453125 221.257813 151.339844 215.996094 C 139.144531 218.910156 132.320313 214.097656 125.828125 215.664063 C 123.535156 219.859375 123.089844 225.902344 123.480469 232.785156 C 130.308594 239.273438 133.996094 245.761719 134.558594 252.246094 C 143.789063 267.132813 151.394531 285.035156 164.433594 296.894531 C 168.683594 308.867188 170.246094 332.246094 173.160156 349.929688 C 175.734375 357.761719 177.636719 365.59375 179.871094 373.421875 C 182.558594 376.78125 184.683594 380.136719 185.242188 383.496094 C 192.90625 384.613281 199.734375 386.851563 204.710938 391.546875 L 220.488281 392.222656 C 226.863281 388.195313 234.808594 390.433594 234.246094 398.933594 C 232.121094 401.730469 223.953125 404.527344 218.808594 407.328125 C 201.914063 410.90625 185.019531 411.128906 168.121094 413.03125 C 157.273438 412.808594 154.921875 403.632813 159.0625 397.59375 C 161.300781 388.867188 159.953125 381.035156 155.035156 374.097656 C 150.445313 368.277344 146.53125 366.488281 142.277344 359.664063 C 135.339844 349.035156 131.425781 349.035156 133.550781 322.40625 C 125.609375 315.132813 115.984375 307.859375 109.71875 307.636719 C 109.71875 321.285156 101.664063 327.546875 97.636719 337.507813 C 93.734375 354.96875 90.484375 352.28125 83.871094 358.65625 C 73.914063 372.195313 49.1875 389.761719 49.972656 393.230469 C 55.121094 398.933594 59.929688 406.992188 65.414063 410.347656 C 72.683594 409.117188 83.089844 411.464844 84.542969 417.394531 C 84.410156 419.289063 80.066406 420.367188 75.277344 422 C 71.554688 423.277344 67.5625 425.414063 65.078125 425.117188 C 54.027344 421.25 41.777344 419.691406 36.882813 411.691406 C 32.289063 410.570313 27.707031 409.898438 23.121094 409.671875 C 0.796875 406.320313 9.859375 393.226563 19.09375 388.53125 C 26.140625 382.265625 32.289063 375.546875 37.554688 368.390625 C 43.144531 353.566406 41.691406 346.402344 63.398438 332.136719 C 64.742188 329.789063 65.414063 326.769531 64.40625 324.078125 C 63.621094 309.203125 61.832031 298.683594 62.054688 279.441406 C 53.554688 273.511719 49.523438 264.445313 49.972656 252.246094 C 50.753906 237.816406 57.246094 228.078125 57.355469 218.015625 C 57.691406 202.351563 45.609375 179.300781 45.273438 155.914063 C 45.609375 134.742188 50.308594 116.113281 61.386719 101.203125 C 59.929688 87.105469 71.453125 74.128906 79.847656 65.289063 C 79.171875 54.882813 95.621094 40.113281 113.078125 41.121094 C 121.328125 41.679688 132.347656 42.015625 133.550781 48.507813 C 137.914063 55.109375 147.3125 52.308594 144.628906 67.304688 C 149.996094 69.765625 152.683594 74.464844 152.683594 81.402344 C 155.703125 85.988281 156.710938 90.574219 153.691406 95.164063 C 151.117188 99.300781 148.433594 104.003906 144.628906 106.238281 C 144.179688 111.273438 142.316406 111.871094 138.246094 110.265625 C 136.347656 111.273438 134.359375 111.976563 131.539063 111.273438 C 128.742188 113.960938 125.945313 114.296875 123.144531 112.28125 C 121.644531 113.066406 120.433594 114.371094 118.113281 114.632813 Z M 118.113281 114.632813 "/>
</g>
<path style=" stroke:none;fill-rule:evenodd;fill:rgb(10.594177%,9.812927%,9.423828%);fill-opacity:1;" d="M 112.148438 31.507813 L 122.472656 31.507813 L 122.472656 0.804688 L 112.148438 0.804688 Z M 123.992188 31.507813 L 134.003906 31.507813 L 134.003906 18.761719 Z M 123.992188 31.507813 "/>
<path style=" stroke:none;fill-rule:evenodd;fill:rgb(10.594177%,9.812927%,9.423828%);fill-opacity:1;" d="M 168.027344 -0.0507813 L 178.65625 -0.0507813 L 178.65625 21.644531 C 178.621094 25.371094 175.503906 31.324219 170.425781 31.285156 L 166.054688 31.289063 L 166.054688 29.644531 C 167.601563 29.648438 168.027344 28.488281 168.027344 27.453125 Z M 161.070313 20.65625 C 164.054688 20.65625 166.492188 23.09375 166.492188 26.078125 C 166.492188 29.070313 164.054688 31.507813 161.070313 31.507813 C 158.078125 31.507813 155.644531 29.070313 155.644531 26.078125 C 155.644531 23.09375 158.078125 20.65625 161.070313 20.65625 Z M 161.070313 20.65625 "/>
<path style=" stroke:none;fill-rule:evenodd;fill:rgb(10.594177%,9.812927%,9.423828%);fill-opacity:1;" d="M 205.191406 31.507813 L 198.632813 0.53125 L 187.730469 0.53125 L 194.285156 31.507813 Z M 205.191406 31.507813 "/>
<path style=" stroke:none;fill-rule:evenodd;fill:rgb(10.594177%,9.812927%,9.423828%);fill-opacity:1;" d="M 191.269531 31.507813 L 180.363281 31.507813 L 185.765625 5.507813 Z M 191.269531 31.507813 "/>
<path style=" stroke:none;fill-rule:evenodd;fill:rgb(10.594177%,9.812927%,9.423828%);fill-opacity:1;" d="M 187.671875 20.949219 L 192.546875 20.949219 L 192.546875 18.28125 L 187.671875 18.28125 Z M 187.671875 20.949219 "/>
<g clip-path="url(#clip2)" clip-rule="nonzero">
<path style=" stroke:none;fill-rule:evenodd;fill:rgb(10.594177%,9.812927%,9.423828%);fill-opacity:1;" d="M 243.433594 31.507813 L 232.53125 31.507813 L 225.972656 0.53125 L 236.878906 0.53125 Z M 230.308594 31.507813 L 219.40625 31.507813 L 212.847656 0.53125 L 223.753906 0.53125 Z M 217.472656 31.507813 L 206.566406 31.507813 L 211.96875 5.507813 Z M 217.472656 31.507813 "/>
</g>
<path style=" stroke:none;fill-rule:evenodd;fill:rgb(10.594177%,9.812927%,9.423828%);fill-opacity:1;" d="M 12.484375 0.671875 L 17.113281 0.671875 C 21.347656 0.714844 24.917969 4.597656 25.054688 10.328125 C 25.054688 14.523438 22.277344 19.773438 17.113281 19.730469 L 12.484375 19.730469 Z M 0.0390625 31.507813 L 10.367188 31.507813 L 10.367188 0.804688 L 0.0390625 0.804688 Z M 0.0390625 31.507813 "/>
<path style=" stroke:none;fill-rule:evenodd;fill:rgb(10.594177%,9.812927%,9.423828%);fill-opacity:1;" d="M 28.601563 31.507813 L 38.917969 31.507813 L 38.917969 0.804688 L 28.601563 0.804688 Z M 40.445313 31.507813 L 50.457031 31.507813 L 50.457031 18.761719 Z M 46.019531 21.828125 L 46.019531 10.570313 L 39.988281 16.371094 Z M 40.445313 0.785156 L 50.457031 0.785156 L 50.457031 13.527344 Z M 40.445313 0.785156 "/>
<path style=" stroke:none;fill-rule:evenodd;fill:rgb(10.594177%,9.812927%,9.423828%);fill-opacity:1;" d="M 79.609375 31.507813 L 73.046875 0.53125 L 62.144531 0.53125 L 68.703125 31.507813 Z M 79.609375 31.507813 "/>
<path style=" stroke:none;fill-rule:evenodd;fill:rgb(10.594177%,9.812927%,9.423828%);fill-opacity:1;" d="M 65.6875 31.507813 L 54.78125 31.507813 L 60.183594 5.507813 Z M 65.6875 31.507813 "/>
<path style=" stroke:none;fill-rule:evenodd;fill:rgb(10.594177%,9.812927%,9.423828%);fill-opacity:1;" d="M 62.089844 20.949219 L 66.960938 20.949219 L 66.960938 18.28125 L 62.089844 18.28125 Z M 62.089844 20.949219 "/>
<path style=" stroke:none;fill-rule:evenodd;fill:rgb(10.594177%,9.812927%,9.423828%);fill-opacity:1;" d="M 82.785156 31.390625 L 93.105469 31.390625 L 93.105469 0.691406 L 82.785156 0.691406 Z M 82.785156 31.390625 "/>
<path style=" stroke:none;fill-rule:evenodd;fill:rgb(10.594177%,9.812927%,9.423828%);fill-opacity:1;" d="M 95.832031 0.558594 L 99.371094 0.558594 C 102.144531 0.601563 106.445313 3.628906 106.578125 9.367188 C 106.578125 13.554688 102.339844 16.980469 99.371094 16.9375 L 95.832031 16.9375 Z M 95.832031 0.558594 "/>
<path style=" stroke:none;fill-rule:evenodd;fill:rgb(10.594177%,9.812927%,9.423828%);fill-opacity:1;" d="M 95.832031 16.886719 L 95.832031 31.507813 L 109.289063 31.507813 Z M 95.832031 16.886719 "/>
<path style=" stroke:none;fill-rule:evenodd;fill:rgb(10.594177%,9.812927%,9.423828%);fill-opacity:1;" d="M 134.933594 10.449219 C 138.980469 10.449219 142.824219 10.953125 144.140625 6.90625 C 145.554688 2.558594 146.566406 1.140625 147.882813 6.503906 C 148.589844 9.640625 151.523438 9.4375 154.558594 9.4375 C 158.507813 9.4375 154.660156 11.863281 153.746094 12.777344 C 151.828125 14.699219 150.613281 14.898438 150.613281 17.53125 C 150.613281 18.84375 152.234375 21.273438 152.234375 22.789063 C 152.234375 24.613281 146.265625 19.351563 145.554688 19.046875 C 144.746094 18.644531 141.308594 22.285156 140.398438 22.691406 C 136.453125 24.613281 139.789063 17.933594 140.195313 16.621094 C 141.410156 12.976563 135.136719 13.886719 134.933594 10.449219 Z M 134.933594 10.449219 "/>
</g>
</svg>
