<?xml version="1.0" encoding="UTF-8"?>
<svg xmlns="http://www.w3.org/2000/svg" xmlns:xlink="http://www.w3.org/1999/xlink" width="314.4pt" height="425.2pt" viewBox="0 0 314.4 425.2" version="1.1">
<defs>
<clipPath id="clip1">
  <path d="M 0 0 L 309 0 L 309 425.199219 L 0 425.199219 Z M 0 0 "/>
</clipPath>
</defs>
<g id="surface1">
<g clip-path="url(#clip1)" clip-rule="nonzero">
<path style=" stroke:none;fill-rule:evenodd;fill:rgb(56.054688%,20.776367%,13.719177%);fill-opacity:1;" d="M 224.789063 174.410156 C 235.660156 167.414063 246.53125 161.101563 257.40625 159.558594 C 255.65625 164.703125 252.355469 169.851563 247.503906 174.996094 C 252.066406 184.507813 259.253906 182.078125 261.191406 214.890625 C 272.644531 205.960938 268.378906 183.925781 273.714844 171.496094 C 281.382813 189.070313 294.296875 184.214844 296.71875 224.203125 C 301.28125 224.496094 301.765625 213.144531 304.289063 207.609375 C 314.484375 241.886719 307.398438 274.1875 283.90625 296.429688 C 281.964844 325.546875 267.214844 330.789063 266.722656 343.605469 C 266.722656 354.089844 275.753906 350.304688 276.335938 377.671875 C 276.976563 401.753906 248.628906 424.210938 241.097656 425.144531 C 227.894531 424.5625 218.1875 414.371094 182.273438 413.789063 C 171.59375 414.078125 157.421875 419.613281 144.996094 419.027344 C 128.011719 418.445313 111.023438 416.117188 94.035156 417.28125 C 81.128906 417.765625 64.136719 418.542969 55.304688 420.484375 C 43.078125 409.515625 27.929688 393.886719 28.222656 375.640625 C 28.511719 364.765625 31.132813 355.058594 29.097656 343.023438 C 21.59375 332.128906 15.621094 320.722656 15.117188 307.496094 L 16.863281 290.605469 C 6.234375 272.429688 0.0234375 257.429688 0.265625 240.226563 C 0.363281 216.054688 19.972656 200.039063 0.558594 167.714844 C 13.90625 172.226563 23.515625 181.546875 31.425781 193.050781 C 41.046875 177.371094 44.808594 160.578125 38.128906 141.796875 C 50.578125 148.421875 60.230469 158.953125 64.914063 176.449219 C 74.925781 155.871094 75.484375 135.289063 70.738281 114.714844 C 79.183594 117.335938 85.6875 121.898438 90.253906 128.398438 C 99.28125 73.871094 124.964844 30.449219 158.027344 -0.0507813 C 200.046875 55.632813 223.945313 101.164063 224.789063 174.410156 Z M 224.789063 174.410156 "/>
</g>
<path style=" stroke:none;fill-rule:evenodd;fill:rgb(91.40625%,30.200195%,6.665039%);fill-opacity:1;" d="M 57.203125 346.132813 C 62.382813 366.996094 62.621094 387.867188 58.761719 408.730469 L 71.804688 408.472656 C 68.152344 388.910156 67.890625 368.214844 72.589844 345.871094 Z M 74.933594 346.394531 L 73.371094 357.089844 C 82.257813 359.847656 80.304688 375.628906 72.328125 377.953125 L 73.109375 382.910156 C 85.542969 377.78125 86.328125 373.519531 86.410156 365.433594 C 87.105469 355.785156 85.367188 352.042969 74.933594 346.394531 Z M 90.328125 378.476563 L 77.019531 386.039063 L 75.976563 401.691406 L 87.714844 410.035156 L 102.84375 404.820313 C 101.191406 402.644531 100.320313 400.472656 100.234375 397.515625 C 96.585938 399.863281 92.929688 401.515625 89.28125 402.472656 C 84.847656 401.691406 82.503906 399.164063 82.238281 394.910156 C 83.28125 388.820313 86.410156 385.167969 91.628906 383.953125 Z M 93.972656 378.738281 L 93.457031 383.691406 C 95.628906 386.121094 96.410156 388.5625 95.800781 390.996094 L 85.367188 391.777344 L 85.367188 395.953125 L 102.058594 394.910156 L 102.058594 386.296875 Z M 94.820313 361.859375 L 94.3125 375.203125 C 99.664063 373.0625 105.011719 371.824219 110.363281 371.488281 C 115.882813 374.414063 117.683594 381.058594 117.796875 389.394531 C 117.449219 394.730469 115.664063 397.179688 113.066406 398.011719 C 109.011719 397.617188 107.210938 395.644531 107.660156 392.097656 C 108.277344 385.003906 110.699219 383.539063 114.925781 387.707031 C 114.613281 383.695313 112.757813 380.457031 108.84375 378.246094 L 104.28125 381.285156 C 105.296875 388.382813 103.941406 394.121094 103.773438 400.542969 C 103.941406 406.207031 109.234375 407.558594 116.445313 406.121094 L 124.890625 410.007813 C 122.835938 401.558594 119.941406 392.097656 120.671875 384.664063 C 122.144531 371.035156 122.285156 366.195313 110.53125 365.574219 Z M 125.0625 361.6875 C 129.003906 360.28125 132.945313 360.671875 136.886719 362.871094 C 129.171875 375.316406 135.308594 387.761719 134.519531 400.207031 L 126.585938 400.882813 C 126.710938 387.820313 126.285156 374.753906 125.0625 361.6875 Z M 136.046875 377.402344 C 135.464844 362.148438 145.855469 362.527344 155.640625 361.011719 C 157.101563 363.542969 154.851563 366.082031 154.460938 368.617188 C 148.316406 369.261719 142.179688 372.699219 136.046875 377.402344 Z M 140.265625 376.554688 L 147.53125 375.878906 C 148.429688 388.546875 146.628906 398.855469 146.179688 410.34375 C 141.277344 409.664063 135.367188 409.160156 131.480469 408.316406 C 130.410156 402.628906 134.859375 402.460938 139.589844 402.574219 C 140.996094 395.417969 140.039063 385.226563 140.265625 376.554688 Z M 162.734375 395.644531 C 163.269531 400.542969 162.878906 404.207031 162.058594 407.304688 L 149.386719 408.316406 C 148.429688 401.046875 148.488281 401.390625 162.734375 395.644531 Z M 164.089844 383.3125 L 175.234375 383.988281 C 172.355469 387.867188 172.640625 394.121094 173.378906 400.714844 C 173.492188 404.148438 172.253906 405.667969 169.660156 405.78125 C 166.226563 406.289063 168.195313 394.632813 167.464844 389.058594 C 167.015625 387.144531 165.214844 385.226563 164.089844 383.3125 Z M 179.464844 361.859375 C 181.488281 360.507813 183.738281 360.28125 186.21875 361.183594 C 183.402344 379.738281 188.019531 407.105469 174.558594 405.953125 C 175.238281 403.753906 175.464844 401.558594 175.234375 399.363281 C 179.304688 394.417969 179.726563 375.078125 179.464844 361.859375 Z M 207.171875 406.964844 L 198.71875 406.964844 C 200.078125 397.222656 200.628906 387.480469 199.734375 377.738281 L 189.089844 377.90625 C 189.230469 373.457031 190.074219 370.136719 192.46875 369.289063 C 196.921875 370.699219 201.367188 371.09375 205.816406 373.515625 C 206.265625 384.664063 203.339844 397.84375 207.171875 406.964844 Z M 198.214844 384.496094 L 198.214844 388.546875 C 196.394531 388.539063 194.675781 388.738281 193.464844 389.386719 C 192.253906 391.492188 192.519531 395.339844 194.605469 395.101563 C 195.527344 395.019531 196.726563 394.484375 198.214844 393.28125 C 199.507813 395.476563 198.4375 397.667969 198.550781 399.871094 L 188.585938 404.261719 C 184.109375 404.320313 186.085938 396.265625 186.386719 392.265625 C 186.894531 388.578125 187.964844 383.453125 190.273438 382.976563 Z M 208.855469 363.378906 C 212.347656 363.152344 217.414063 364.222656 217.976563 368.109375 C 216.203125 380.214844 215.246094 392.324219 215.273438 404.429688 L 208.011719 404.261719 C 208.40625 397.109375 209.980469 392.996094 210.210938 382.808594 C 210.261719 376.332031 208.464844 370.359375 208.855469 363.378906 Z M 219.160156 374.023438 L 218.992188 378.582031 C 220.460938 377.457031 221.921875 376.78125 223.382813 376.554688 C 223.160156 385.734375 222.203125 394.914063 220.175781 404.09375 C 221.753906 405.496094 223.777344 406.007813 226.257813 405.613281 C 228.171875 397.84375 230.929688 390.914063 235.546875 385.847656 C 235.492188 394.238281 230.710938 408.710938 235.378906 411.019531 L 245.347656 411.1875 C 241.742188 404.792969 240.617188 398.09375 240.617188 391.253906 C 240.925781 380.863281 244.023438 372.023438 248.386719 363.886719 C 228.964844 359.632813 237.40625 382.328125 230.648438 382.296875 C 231.15625 375.171875 229.972656 369.882813 225.074219 368.617188 C 223.328125 370.644531 221.355469 372.445313 219.160156 374.023438 Z M 163.242188 360.84375 C 161.269531 355.496094 162.453125 352.167969 165.777344 351.890625 C 176.304688 351.546875 185.148438 349.695313 197.367188 350.871094 C 196.921875 354.421875 197.648438 362.195313 193.988281 361.519531 C 189.03125 356.070313 176.644531 356.605469 167.972656 357.632813 Z M 163.242188 360.84375 "/>
<path style=" stroke:none;fill-rule:evenodd;fill:rgb(98.4375%,91.796875%,48.631287%);fill-opacity:1;" d="M 154.003906 394.398438 C 150.773438 393.714844 153.503906 382.230469 153.257813 376.148438 C 166.664063 377.886719 154.746094 364.355469 166.105469 364.605469 C 170.078125 364.355469 173.925781 364.976563 174.296875 372.054688 C 174.339844 374.847656 173.511719 380.617188 168.152344 380.433594 C 165.234375 380.433594 162.691406 379.316406 159.964844 380.433594 C 157.972656 385.085938 166.601563 391.976563 154.003906 394.398438 Z M 154.003906 394.398438 "/>
<path style=" stroke:none;fill-rule:evenodd;fill:rgb(98.4375%,91.796875%,48.631287%);fill-opacity:1;" d="M 246.515625 334.371094 C 251.933594 319.472656 267.109375 309.445313 272.527344 296.984375 C 272.121094 310.9375 257.488281 326.109375 256.675781 337.621094 C 256.8125 351.582031 278.085938 380.574219 246.921875 408.746094 C 243.773438 389.617188 245.464844 373.5625 254.238281 362.011719 C 244.484375 358.417969 237.171875 357.066406 227.414063 366.484375 C 226.328125 359.574219 218.742188 357.269531 204.652344 357.136719 C 205.640625 342.40625 193.617188 347.914063 174.171875 345.347656 L 161.570313 335.1875 L 215.628906 302.671875 C 217.511719 307.371094 204.128906 320.238281 224.160156 323.402344 C 218.882813 310.878906 232.566406 307.691406 227.285156 297.035156 C 252.753906 291.445313 272.4375 273.644531 280.910156 251.804688 C 281.144531 250.988281 278.835938 251.460938 278.664063 252.007813 C 267.648438 278.15625 245.84375 289.914063 220.132813 296.46875 C 234.550781 301.5625 215.484375 312.089844 221.441406 320.804688 C 205.710938 314.476563 226.648438 302.367188 217.992188 297.9375 L 157.503906 335.09375 L 168.253906 343.871094 L 161.304688 345.96875 L 152.261719 338.632813 L 129.464844 351.996094 L 136.277344 352.914063 L 152.132813 341.90625 C 153.269531 344.527344 156.152344 346.101563 160.78125 346.621094 C 157.421875 348.890625 158.246094 353.390625 156.980469 357.367188 C 151.960938 355.644531 146.9375 356.820313 141.914063 359.988281 C 138.476563 354.351563 129.675781 355.136719 121.214844 355.269531 C 120.601563 358.285156 118.59375 360.421875 115.183594 361.691406 C 113.351563 360.554688 110.644531 359.59375 107.0625 358.808594 L 146.761719 334.171875 C 128.054688 320.695313 107.464844 306.777344 92.996094 291.773438 C 88.34375 303.753906 79.296875 295.503906 70.753906 301.703125 C 76.027344 289.09375 81.304688 296.214844 86.589844 292.152344 C 62.46875 285.449219 45.246094 270.316406 34.921875 246.753906 C 34.742188 246.351563 33.492188 246.839844 33.628906 247.328125 C 39.664063 269.261719 54.160156 283.914063 76.667969 291.289063 C 73.339844 292.476563 66.191406 298.367188 68.976563 304.742188 C 79.660156 296.933594 89.292969 306.96875 93.097656 296.71875 C 108.289063 309.609375 125.683594 322.175781 142.726563 334.152344 L 104.308594 357.867188 C 100.242188 357.601563 96.175781 357.636719 92.109375 357.980469 C 89.765625 342.585938 74.765625 338.679688 52.664063 341.222656 C 55.523438 361.371094 61.070313 362.417969 54.617188 401.664063 C 36.238281 385.671875 41.570313 359.179688 42.683594 337.933594 C 38.785156 327.664063 24.621094 327.90625 29.554688 296.398438 C 34.253906 320.347656 50.640625 314.699219 57.964844 325.996094 C 57.789063 295.039063 13.003906 284.816406 12.835938 239.890625 C 12.683594 223.816406 20.195313 207.289063 19.144531 191.671875 C 31.464844 196.777344 18.089844 223.96875 35.816406 228.621094 C 27.253906 203.085938 51.140625 183.40625 49.339844 158.769531 C 62.105469 173.191406 39.722656 197.980469 76.832031 219.613281 C 62.558594 182.65625 88.394531 164.179688 82.6875 133.078125 C 92.753906 143.148438 79.835938 166.734375 92.601563 183.558594 C 95.382813 107.480469 111.152344 83.828125 135.164063 48.566406 C 142.515625 37.769531 147.050781 28.117188 157.046875 17.238281 C 175.828125 34.820313 181.089844 55.109375 190.398438 74.039063 C 202.367188 104.894531 212.507813 113.210938 214.136719 166.59375 C 215.183594 186.371094 207.980469 206.144531 207.074219 225.921875 C 213.984375 205.339844 224.503906 188.964844 238.621094 176.796875 C 218.1875 203.839844 216.386719 226.070313 233.214844 243.496094 C 230.058594 224.871094 250.789063 213.902344 249.4375 197.078125 C 255.746094 210.597656 237.71875 231.78125 254.84375 244.398438 C 261.152344 227.273438 280.085938 226.371094 281.882813 199.78125 C 282.960938 223.066406 298.722656 231.480469 278.730469 266.933594 C 287.128906 257.863281 293.964844 257.804688 299.011719 238.089844 C 304.046875 291.367188 237.425781 297.324219 246.515625 334.371094 Z M 157.726563 26.578125 C 142.378906 50.132813 125.289063 65.816406 111.691406 97.234375 C 103.246094 122.328125 98.152344 150.34375 95.535156 181.269531 C 95.726563 214.550781 104.914063 248.523438 120.257813 282.972656 C 129.214844 303.578125 141.671875 315.882813 152.371094 332.117188 C 163.074219 320.769531 183.824219 298.496094 184.472656 277.097656 C 200.0625 238.492188 208.074219 202.796875 208.511719 170.019531 C 207.316406 95.546875 172.46875 49.480469 157.726563 26.578125 Z M 224.703125 287.738281 C 235.609375 269.460938 252.230469 259.851563 273.160156 256.773438 C 257.816406 268.230469 241.769531 278.703125 224.703125 287.738281 Z M 220.039063 290.847656 C 212.566406 284.976563 215.847656 280.785156 210.449219 277.503906 C 210.117188 277.328125 209.339844 277.859375 209.671875 278.28125 C 213.128906 282.121094 210.492188 286.746094 218.871094 291.367188 Z M 216.078125 292.664063 C 202.753906 292.085938 209.445313 284.148438 206.132813 279.886719 C 205.246094 283.304688 201.648438 290.035156 208.363281 293.933594 C 196.210938 303.59375 180.785156 312.441406 166.277344 321.515625 C 165.285156 322.328125 166.28125 323.851563 167.628906 323.15625 C 184.496094 313.09375 215.972656 294.105469 216.078125 292.664063 Z M 42.054688 247.929688 C 63.484375 255.882813 79.273438 268.753906 88.871094 287.015625 C 71.730469 275.714844 56.140625 262.664063 42.054688 247.929688 Z M 98.894531 288.019531 C 106.785156 288.40625 114.351563 288.601563 111.921875 273.128906 C 106.109375 283.28125 99.804688 273.738281 88.441406 277.996094 C 90.160156 280.144531 91.496094 282.289063 92.453125 284.4375 C 97.367188 271.695313 104.859375 287.730469 110.632813 277.566406 C 109.585938 292.410156 96.507813 282.769531 93.738281 286.871094 C 108.320313 298.613281 123.15625 310.351563 138.128906 322.09375 C 138.8125 322.710938 139.691406 321.921875 139.128906 321.234375 C 125.714844 310.164063 112.304688 298.660156 98.894531 288.019531 Z M 124.816406 283.085938 C 145.871094 283.996094 170.808594 285.597656 180.445313 282.054688 C 177.640625 297.59375 162.738281 311.367188 153.886719 326.023438 C 143.089844 313.1875 133.253906 299.070313 124.816406 283.085938 Z M 151.390625 41.953125 C 153.421875 38.570313 155.554688 35.390625 157.890625 32.609375 L 164.273438 42.640625 C 161.9375 44.746094 159.808594 47.488281 157.773438 50.507813 C 155.933594 47.089844 153.839844 44.160156 151.390625 41.953125 Z M 155.722656 42.527344 C 156.753906 43.441406 157.46875 44.351563 157.890625 45.265625 C 158.464844 44.464844 159.371094 43.664063 160.28125 43.210938 C 158.609375 41.617188 157.089844 41.386719 155.722656 42.527344 Z M 145.804688 47.773438 L 149.226563 43.894531 C 152.09375 47.5625 154.339844 51.855469 156.296875 56.4375 C 159.011719 52.21875 162.011719 48.378906 165.640625 45.378906 L 169.0625 49.9375 C 164.613281 51.777344 160.171875 55.996094 155.722656 60.882813 C 152.816406 56.246094 149.628906 51.800781 145.804688 47.773438 Z M 138.734375 56.4375 C 140.140625 54.652344 142.003906 53.09375 143.636719 51.421875 C 147.117188 54.6875 150.496094 58.144531 153.671875 62.023438 C 142.878906 63.578125 143.714844 58.296875 138.734375 56.4375 Z M 172.59375 58.488281 C 171.910156 56.621094 170.621094 54.765625 168.71875 52.902344 C 165.109375 55.238281 161.921875 58.621094 158.914063 62.480469 C 167.007813 63.886719 168.492188 61.074219 172.59375 58.488281 Z M 156.40625 67.265625 L 163.246094 66.011719 C 163.378906 70.953125 163.152344 75.894531 162.675781 80.828125 C 159.902344 77.566406 158.726563 71.789063 156.40625 67.265625 Z M 146.945313 65.441406 C 147.398438 70.859375 148.234375 75.796875 149.910156 79.695313 C 151.238281 74.03125 152.570313 69.621094 153.898438 65.785156 C 151.464844 65.101563 149.261719 65.558594 146.945313 65.441406 Z M 134.289063 61.339844 C 134.6875 67.382813 135.339844 73.421875 136.34375 79.464844 C 139.757813 74.871094 142.84375 70.070313 145.347656 64.871094 C 141.664063 63.695313 139.34375 60.121094 134.289063 61.339844 Z M 167.351563 66.128906 C 169.785156 65.214844 172.101563 63.617188 174.648438 63.390625 L 174.304688 77.300781 C 171.132813 74.257813 169.003906 70.382813 167.351563 66.128906 Z M 119.46875 86.761719 C 123.058594 80.71875 126.742188 74.679688 131.554688 68.636719 C 130.570313 77.605469 132.363281 85.320313 131.554688 95.539063 C 126.960938 93.183594 122.851563 90.328125 119.46875 86.761719 Z M 134.0625 95.3125 C 137.40625 95.882813 141.777344 99.414063 147.855469 96.679688 C 147.515625 89.382813 146.03125 82.085938 145.121094 74.789063 C 140.097656 81.441406 136.945313 88.359375 134.0625 95.3125 Z M 151.046875 98.164063 C 152.265625 90.21875 152.910156 82.277344 154.695313 74.335938 C 158.761719 79.390625 160.550781 88.320313 163.476563 95.3125 C 159.335938 97.554688 155.191406 98.683594 151.046875 98.164063 Z M 165.300781 75.589844 C 166.050781 82.539063 166.296875 89.496094 166.4375 96.453125 C 170.523438 95.652344 174.363281 94.363281 177.839844 92.347656 C 173.660156 86.761719 170.050781 79.121094 165.300781 75.589844 Z M 176.929688 72.054688 C 182.132813 78.324219 186.089844 84.59375 189.46875 90.867188 C 186.089844 91.285156 183.007813 92.15625 180.234375 93.488281 C 179.132813 86.34375 179.054688 79.769531 176.929688 72.054688 Z M 189.695313 95.769531 C 177.613281 100.671875 163.246094 102.609375 150.023438 106.027344 C 150.671875 115.566406 149.605469 127.496094 151.964844 134.644531 C 166.136719 124.109375 180.308594 114.890625 194.484375 106.484375 C 193.742188 102.199219 192.261719 98.53125 189.695313 95.769531 Z M 112.058594 108.195313 C 114.910156 103.558594 116.050781 97.664063 118.558594 92.914063 C 126.964844 99.089844 135.535156 104.535156 144.550781 107.96875 C 144.296875 116.480469 144.800781 124.992188 145.464844 133.503906 C 134.179688 125.511719 123.035156 117.101563 112.058594 108.195313 Z M 110.921875 113.324219 C 109.058594 115.984375 108.105469 123.203125 106.699219 128.144531 C 118.425781 139.6875 131.800781 149.855469 147.171875 158.355469 C 146.984375 152.65625 146.796875 146.953125 146.601563 141.257813 C 134.171875 131.945313 122.433594 122.636719 110.921875 113.324219 Z M 195.171875 110.816406 C 198.246094 117.769531 199.730469 124.726563 202.007813 131.679688 C 186.351563 142.851563 169.328125 149.921875 152.988281 159.039063 C 153.441406 153.265625 151.847656 147.601563 151.964844 141.710938 C 165.523438 130.011719 179.78125 119.476563 195.171875 110.816406 Z M 204.515625 169.53125 C 190.003906 175.34375 178.335938 171.46875 165.753906 167.820313 C 178.601563 167.820313 188.367188 163.945313 204.289063 167.820313 C 205.785156 156.605469 205.910156 146.277344 202.238281 138.40625 C 184.1875 153.414063 170.46875 154.40625 154.585938 163.257813 C 161.550781 172.699219 177.863281 173.050781 202.578125 186.289063 C 201.402344 172.152344 203.871094 175.117188 204.515625 169.53125 Z M 104.992188 134.074219 C 117.878906 143.496094 123.914063 155.773438 145.691406 162.347656 C 134.519531 169.71875 119.46875 164.550781 101.570313 168.390625 C 100.886719 157.863281 103.851563 145.511719 104.992188 134.074219 Z M 99.175781 191.414063 C 99.972656 184.617188 97.585938 174.050781 101.570313 171.011719 C 105.253906 170.785156 109.734375 173.179688 113.988281 172.722656 C 120.796875 170.785156 127.597656 169.226563 134.402344 168.503906 C 137.5625 170.5625 112.128906 185.597656 99.175781 191.414063 Z M 160.851563 190.847656 C 154.554688 191.117188 148.492188 190.429688 142.503906 189.480469 C 146.378906 179.5625 147.285156 161.777344 149.679688 159.726563 C 150.328125 159.15625 151.089844 159.199219 151.617188 158.015625 C 151.921875 157.382813 153.316406 158.871094 152.644531 159.726563 C 149.796875 164.628906 157.773438 173.289063 160.851563 190.847656 Z M 134.519531 205.664063 C 137.285156 201.335938 139.617188 196.855469 141.472656 192.214844 C 147.171875 193.585938 145.804688 196.433594 161.308594 195.289063 C 163.09375 198.90625 164.160156 202.515625 164.730469 206.121094 C 154.660156 206.769531 144.589844 204.796875 134.519531 205.664063 Z M 100.773438 195.410156 C 114.605469 185.757813 130.378906 179.296875 144.664063 166.453125 C 142.121094 179.601563 143.230469 188.988281 130.1875 205.898438 C 121.445313 206.621094 118.175781 205.289063 112.171875 204.984375 C 97.285156 206.632813 101.015625 199.960938 100.773438 195.410156 Z M 158.464844 172.039063 C 172.9375 178.378906 186.503906 181.949219 200.527344 190.050781 C 200.664063 195.289063 199.972656 200.539063 198.589844 205.785156 C 185.230469 202.335938 172.421875 204.453125 168.035156 201.566406 C 165.753906 191.414063 161.652344 186.851563 158.464844 172.039063 Z M 179.492188 208.945313 C 186.21875 208.578125 192.949219 208.800781 199.679688 209.59375 C 193.964844 233.183594 189.335938 254.820313 179.273438 279.710938 C 176.8125 280.578125 173.773438 280.867188 170.15625 280.578125 C 173.269531 256.699219 175.511719 232.171875 179.492188 208.945313 Z M 176.453125 208.945313 C 172.78125 231.871094 169.851563 255.914063 167.339844 280.578125 C 164.367188 281.445313 161.402344 281.445313 158.433594 280.578125 C 158.113281 256.773438 157.921875 232.964844 161.691406 209.160156 Z M 141.285156 209.59375 C 146.714844 210.101563 152.140625 210.03125 157.566406 209.378906 C 155.46875 232.675781 156.410156 256.84375 155.835938 280.578125 C 152.9375 281.15625 150.046875 281.15625 147.148438 280.578125 C 145.195313 256.914063 140.636719 233.257813 141.285156 209.59375 Z M 121.316406 208.511719 C 126.308594 209.015625 131.300781 208.222656 136.296875 209.378906 C 138.683594 232.460938 142.15625 256.84375 144.109375 280.578125 L 133.6875 279.925781 C 128.914063 256.121094 125.441406 232.316406 121.316406 208.511719 Z M 103.085938 208.074219 C 107.714844 207.496094 112.632813 207.785156 117.84375 208.945313 C 120.480469 234.179688 125.839844 257.152344 131.953125 279.492188 C 130.070313 280.359375 126.453125 279.925781 123.703125 280.144531 C 112.921875 257.203125 109.523438 232.097656 103.085938 208.074219 Z M 103.085938 208.074219 "/>
</g>
</svg>
