<?xml version="1.0" encoding="UTF-8"?>
<svg xmlns="http://www.w3.org/2000/svg" xmlns:xlink="http://www.w3.org/1999/xlink" width="316.3pt" height="425.2pt" viewBox="0 0 316.3 425.2" version="1.1">
<defs>
<clipPath id="clip1">
  <path d="M 57 189 L 249 189 L 249 425.199219 L 57 425.199219 Z M 57 189 "/>
</clipPath>
<clipPath id="clip2">
  <path d="M 0 0 L 316.300781 0 L 316.300781 262 L 0 262 Z M 0 0 "/>
</clipPath>
</defs>
<g id="surface1">
<path style=" stroke:none;fill-rule:evenodd;fill:rgb(100%,79.6875%,0%);fill-opacity:1;" d="M 301.996094 226.085938 L 283.6875 74.820313 C 281.726563 54.976563 272.800781 43.746094 251.046875 39.789063 L 212.828125 32.621094 L 208.851563 226.085938 L 212.828125 419.542969 L 251.046875 412.382813 C 272.800781 408.417969 281.726563 397.195313 283.6875 377.351563 Z M 7.429688 226.085938 L 25.738281 74.820313 C 27.699219 54.976563 36.628906 43.746094 58.378906 39.789063 L 96.59375 32.621094 L 100.574219 226.085938 L 96.59375 419.542969 L 58.378906 412.382813 C 36.628906 408.417969 27.699219 397.195313 25.738281 377.351563 Z M 7.429688 226.085938 "/>
<g clip-path="url(#clip1)" clip-rule="nonzero">
<path style=" stroke:none;fill-rule:evenodd;fill:rgb(100%,100%,100%);fill-opacity:1;" d="M 241.757813 370.074219 L 241.605469 370.074219 L 241.605469 369.46875 L 241.753906 369.46875 L 241.640625 361.859375 L 248.464844 361.132813 L 248.464844 208.496094 L 210.046875 217.703125 L 208.195313 189.378906 L 102.175781 189.378906 L 102.175781 219.21875 L 57.953125 247.703125 L 57.953125 361.964844 L 77.765625 361.964844 L 77.765625 367.734375 L 58.191406 367.734375 L 58.191406 408.082031 L 58.382813 410.289063 L 59.089844 412.839844 L 60.191406 415.128906 L 61.566406 417.085938 L 63.101563 418.71875 L 64.71875 420.0625 L 66.378906 421.167969 L 68.0625 422.078125 L 69.761719 422.832031 L 71.472656 423.453125 L 73.199219 423.957031 L 74.9375 424.371094 L 76.6875 424.691406 L 78.449219 424.921875 L 80.21875 425.074219 L 81.996094 425.144531 L 83.78125 425.132813 L 85.5625 425.039063 L 87.34375 424.863281 L 89.121094 424.59375 L 90.894531 424.226563 L 92.664063 423.75 L 94.429688 423.148438 L 96.136719 422.417969 L 96.136719 424.984375 L 190.078125 424.984375 L 200.96875 424.976563 L 204.613281 424.976563 L 215.367188 424.984375 L 248.464844 424.984375 L 248.464844 378.417969 L 241.640625 377.6875 Z M 160.761719 362.066406 L 163.804688 362.113281 L 163.691406 369.46875 L 163.84375 369.46875 L 163.84375 370.074219 L 163.691406 370.074219 L 163.808594 377.679688 L 160.015625 377.433594 L 159.921875 377.417969 L 159.835938 377.410156 L 159.746094 377.394531 L 159.664063 377.378906 L 159.59375 377.359375 L 159.515625 377.335938 L 159.445313 377.3125 L 159.402344 377.292969 L 156.773438 362.105469 Z M 106.191406 361.976563 L 108.773438 362.039063 L 106.191406 376.964844 Z M 106.191406 361.976563 "/>
</g>
<path style=" stroke:none;fill-rule:evenodd;fill:rgb(0%,47.851563%,50.193787%);fill-opacity:1;" d="M 238.734375 220.835938 L 206.367188 228.59375 L 206.367188 352.382813 L 206.511719 352.382813 L 206.511719 352.386719 C 210.039063 352.367188 211.8125 354.597656 211.398438 356.296875 L 202.878906 387.597656 L 195.574219 357.34375 C 194.945313 354.226563 196.8125 352.574219 198.652344 352.382813 L 199.078125 352.382813 L 199.078125 199.113281 L 163.789063 199.113281 L 163.789063 352.382813 C 170.363281 352.378906 173.535156 355.667969 173.574219 359.472656 C 173.574219 359.535156 173.578125 359.59375 173.574219 359.65625 L 173.574219 379.886719 C 173.574219 383.769531 170.539063 386.941406 166.71875 387.164063 L 166.71875 415.25 L 190.078125 415.25 L 190.078125 387.164063 C 186.253906 386.941406 183.222656 383.769531 183.222656 379.886719 L 183.222656 352.382813 L 184.359375 352.382813 L 200.964844 415.246094 L 204.617188 415.246094 L 221.222656 352.382813 L 222.230469 352.382813 L 222.230469 379.804688 L 222.226563 379.804688 L 222.230469 379.886719 C 222.230469 383.769531 219.195313 386.941406 215.371094 387.164063 L 215.371094 415.25 L 238.734375 415.25 L 238.734375 387.164063 C 234.910156 386.941406 231.871094 383.769531 231.871094 379.886719 L 231.871094 359.65625 C 231.871094 355.777344 234.910156 352.605469 238.734375 352.382813 Z M 129.546875 356.398438 L 126.921875 369.371094 L 139.316406 369.371094 L 136.507813 356.398438 C 135.734375 351.753906 130.320313 351.753906 129.546875 356.398438 Z M 125.503906 376.371094 L 124.496094 381.359375 C 123.816406 385.238281 125.40625 386.941406 129.230469 387.160156 L 129.230469 415.25 L 105.867188 415.25 L 105.867188 387.160156 C 110.789063 386.941406 114.898438 383.765625 115.5625 379.886719 L 119.09375 359.472656 C 119.859375 354.863281 118.476563 352.378906 111.90625 352.382813 L 111.90625 199.109375 L 155.992188 199.109375 L 155.992188 352.382813 C 148.148438 352.378906 145.675781 354.863281 146.441406 359.472656 L 149.976563 379.886719 C 150.640625 383.765625 154.742188 386.941406 159.664063 387.160156 L 159.664063 415.25 L 135.722656 415.25 L 135.722656 387.160156 C 139.550781 386.941406 142.4375 385.238281 141.914063 381.359375 L 140.828125 376.371094 Z M 67.917969 377.464844 L 67.917969 407.660156 C 67.871094 417.511719 96.433594 418.480469 96.460938 407.660156 L 96.460938 356.714844 C 96.410156 355.144531 97.957031 352.207031 105.421875 352.234375 L 105.421875 228.699219 L 67.6875 253.011719 L 67.6875 352.234375 L 80.894531 352.234375 C 86.128906 352.234375 87.445313 355.214844 87.496094 357.1875 L 87.496094 383.839844 C 87.507813 387.890625 75.457031 387.890625 75.46875 383.839844 L 75.46875 377.464844 Z M 67.917969 377.464844 "/>
<g clip-path="url(#clip2)" clip-rule="nonzero">
<path style=" stroke:none;fill-rule:evenodd;fill:rgb(100%,100%,100%);fill-opacity:1;" d="M 208.855469 14.796875 L 212.320313 17.328125 L 215.59375 20.011719 L 218.6875 22.820313 L 221.59375 25.746094 L 224.320313 28.773438 L 226.867188 31.894531 L 229.234375 35.09375 L 231.421875 38.359375 L 233.4375 41.683594 L 235.285156 45.054688 L 236.960938 48.453125 L 238.46875 51.886719 L 239.8125 55.328125 L 240.996094 58.785156 L 242.019531 62.230469 L 242.878906 65.664063 L 243.585938 69.074219 L 244.132813 72.460938 L 244.527344 75.804688 L 244.761719 79.105469 L 244.839844 82.355469 L 244.746094 86.195313 L 244.449219 90.03125 L 243.960938 93.84375 L 243.28125 97.621094 L 242.414063 101.367188 L 241.371094 105.0625 L 240.15625 108.703125 L 238.761719 112.289063 L 237.203125 115.8125 L 235.476563 119.257813 L 233.589844 122.628906 L 231.550781 125.914063 L 229.351563 129.109375 L 227.007813 132.203125 L 224.511719 135.203125 L 221.871094 138.085938 L 221.316406 138.644531 L 231.628906 136.84375 L 232.394531 135.1875 L 233.53125 132.890625 L 234.734375 130.632813 L 236.015625 128.410156 L 237.378906 126.234375 L 238.824219 124.105469 L 240.367188 122.039063 L 242.003906 120.03125 L 243.746094 118.101563 L 245.601563 116.246094 L 247.566406 114.492188 L 249.648438 112.84375 L 251.851563 111.308594 L 254.175781 109.90625 L 256.613281 108.648438 L 259.164063 107.539063 L 261.820313 106.605469 L 264.578125 105.847656 L 267.429688 105.269531 L 270.363281 104.878906 L 273.371094 104.679688 L 316.394531 104.5625 L 279.230469 123.78125 L 278.203125 124.410156 L 277.261719 125.074219 L 276.402344 125.785156 L 275.601563 126.546875 L 274.851563 127.363281 L 274.144531 128.242188 L 273.476563 129.195313 L 272.839844 130.222656 L 272.238281 131.335938 L 271.664063 132.53125 L 271.132813 133.808594 L 270.628906 135.171875 L 270.160156 136.617188 L 269.722656 138.140625 L 269.320313 139.742188 L 268.945313 141.414063 L 268.605469 143.152344 L 268.289063 144.953125 L 267.996094 146.816406 L 267.730469 148.730469 L 267.480469 150.695313 L 267.246094 152.703125 L 267.023438 154.757813 L 266.808594 156.847656 L 266.597656 158.972656 L 266.164063 163.308594 L 265.933594 165.515625 L 265.6875 167.742188 L 265.421875 169.984375 L 265.128906 172.242188 L 264.730469 175.054688 L 264.289063 177.863281 L 263.816406 180.660156 L 263.300781 183.445313 L 262.734375 186.214844 L 262.121094 188.964844 L 261.453125 191.691406 L 260.738281 194.390625 L 259.953125 197.058594 L 259.109375 199.691406 L 258.199219 202.285156 L 257.210938 204.839844 L 256.148438 207.347656 L 254.996094 209.804688 L 253.765625 212.203125 L 252.433594 214.546875 L 250.996094 216.824219 L 249.453125 219.027344 L 247.800781 221.152344 L 246.023438 223.183594 L 244.121094 225.113281 L 242.089844 226.933594 L 239.929688 228.628906 L 237.640625 230.179688 L 235.222656 231.578125 L 232.679688 232.820313 L 230.027344 233.878906 L 227.265625 234.753906 L 224.410156 235.4375 L 221.464844 235.929688 L 218.4375 236.222656 L 215.398438 236.316406 L 213.355469 236.28125 L 211.402344 236.175781 L 209.476563 235.996094 L 207.578125 235.742188 L 205.703125 235.414063 L 203.863281 235.011719 L 202.050781 234.535156 L 200.269531 233.976563 L 198.527344 233.34375 L 196.820313 232.636719 L 195.15625 231.851563 L 193.53125 230.992188 L 191.953125 230.066406 L 190.425781 229.066406 L 188.941406 227.996094 L 187.511719 226.863281 L 186.132813 225.671875 L 184.800781 224.414063 L 183.523438 223.109375 L 182.296875 221.746094 L 181.121094 220.328125 L 179.996094 218.867188 L 178.914063 217.355469 L 177.886719 215.800781 L 176.902344 214.199219 L 175.953125 212.554688 L 175.054688 210.867188 L 174.195313 209.140625 L 173.371094 207.371094 L 172.589844 205.5625 L 172.175781 204.546875 L 170.691406 204.703125 L 169.339844 204.746094 L 168.320313 204.742188 L 167.074219 204.621094 L 165.824219 204.394531 L 164.597656 204.050781 L 163.414063 203.597656 L 162.289063 203.039063 L 161.242188 202.394531 L 160.382813 201.753906 L 160.195313 201.921875 L 159.304688 202.671875 L 158.378906 203.402344 L 157.414063 204.117188 L 156.421875 204.804688 L 155.390625 205.46875 L 154.320313 206.101563 L 153.203125 206.699219 L 152.050781 207.253906 L 150.855469 207.765625 L 149.613281 208.230469 L 148.328125 208.636719 L 147.011719 208.980469 L 145.652344 209.253906 L 144.261719 209.453125 L 142.84375 209.578125 L 141.367188 209.621094 L 140.171875 209.578125 L 138.988281 209.453125 L 137.820313 209.257813 L 136.6875 208.984375 L 135.585938 208.644531 L 134.519531 208.238281 L 133.503906 207.773438 L 132.53125 207.257813 L 131.609375 206.691406 L 130.738281 206.085938 L 129.914063 205.445313 L 129.164063 204.789063 L 127.722656 208.21875 L 125.664063 212.710938 L 123.46875 217.101563 L 121.136719 221.371094 L 118.664063 225.527344 L 116.039063 229.539063 L 113.265625 233.402344 L 110.328125 237.101563 L 107.234375 240.617188 L 103.964844 243.9375 L 100.515625 247.046875 L 96.886719 249.921875 L 93.074219 252.539063 L 89.078125 254.882813 L 84.894531 256.925781 L 80.53125 258.640625 L 76.003906 260.011719 L 71.316406 261.011719 L 66.484375 261.628906 L 61.648438 261.839844 L 59.507813 261.8125 L 57.464844 261.710938 L 55.417969 261.535156 L 53.371094 261.285156 L 51.332031 260.953125 L 49.289063 260.539063 L 47.261719 260.050781 L 45.238281 259.480469 L 43.226563 258.828125 L 41.230469 258.089844 L 39.246094 257.269531 L 37.289063 256.363281 L 35.351563 255.371094 L 33.4375 254.300781 L 31.546875 253.144531 L 29.6875 251.898438 L 27.859375 250.570313 L 26.0625 249.15625 L 24.296875 247.660156 L 22.574219 246.078125 L 20.890625 244.414063 L 19.242188 242.664063 L 17.636719 240.828125 L 16.074219 238.914063 L 14.554688 236.914063 L 13.082031 234.835938 L 11.65625 232.664063 L 10.273438 230.421875 L 8.941406 228.089844 L 7.660156 225.675781 L 6.425781 223.175781 L 0.078125 209.335938 L 21.492188 205.433594 L 29.246094 203.34375 L 36.101563 200.816406 L 42.148438 197.890625 L 47.480469 194.617188 L 52.195313 191.019531 L 56.371094 187.113281 L 60.101563 182.902344 L 63.4375 178.402344 L 66.4375 173.621094 L 69.148438 168.59375 L 71.613281 163.335938 L 73.109375 159.738281 L 62.820313 144.773438 L 59.664063 139.121094 L 57.078125 133.28125 L 55.039063 127.277344 L 53.539063 121.15625 L 52.558594 114.945313 L 52.078125 108.675781 L 52.085938 102.378906 L 52.546875 96.074219 L 53.464844 89.789063 L 54.804688 83.550781 L 56.554688 77.371094 L 58.703125 71.273438 L 61.234375 65.28125 L 64.132813 59.410156 L 67.386719 53.679688 L 70.984375 48.113281 L 74.914063 42.734375 L 79.164063 37.558594 L 83.734375 32.613281 L 88.601563 27.914063 L 93.757813 23.496094 L 99.199219 19.371094 L 104.910156 15.574219 L 110.882813 12.121094 L 117.101563 9.046875 L 123.5625 6.367188 L 130.242188 4.121094 L 137.132813 2.324219 L 144.21875 1.015625 L 151.476563 0.214844 L 158.84375 -0.0507813 L 164.308594 0.101563 L 169.539063 0.523438 L 174.605469 1.203125 L 179.503906 2.140625 L 184.230469 3.316406 L 188.785156 4.71875 L 193.164063 6.34375 L 197.359375 8.179688 L 201.371094 10.203125 L 205.203125 12.414063 Z M 164.601563 99.496094 L 162.78125 100.59375 L 161.835938 101.199219 L 160.933594 101.820313 L 160.070313 102.453125 L 159.246094 103.105469 L 158.453125 103.765625 L 157.699219 104.445313 L 156.976563 105.136719 L 156.285156 105.847656 L 155.617188 106.574219 L 154.972656 107.324219 L 154.359375 108.089844 L 153.765625 108.878906 L 153.191406 109.6875 L 152.640625 110.527344 L 152.109375 111.382813 L 151.59375 112.273438 L 151.097656 113.1875 L 150.617188 114.132813 L 150.15625 115.101563 L 149.710938 116.105469 L 149.28125 117.140625 L 148.863281 118.203125 L 148.464844 119.300781 L 148.078125 120.429688 L 147.710938 121.589844 L 147.355469 122.78125 L 147.011719 124.007813 L 146.871094 124.539063 L 146.914063 124.570313 L 147.121094 124.71875 L 147.328125 124.855469 L 147.53125 124.980469 L 147.734375 125.09375 L 147.9375 125.203125 L 148.136719 125.304688 L 148.328125 125.390625 L 148.527344 125.472656 L 148.726563 125.550781 L 148.914063 125.617188 L 149.109375 125.675781 L 149.304688 125.730469 L 149.496094 125.777344 L 149.6875 125.816406 L 149.882813 125.851563 L 150.078125 125.878906 L 150.273438 125.898438 L 150.464844 125.914063 L 150.660156 125.925781 L 150.761719 125.925781 L 151.632813 125.898438 L 152.402344 125.824219 L 153.132813 125.703125 L 153.828125 125.550781 L 154.488281 125.355469 L 155.121094 125.121094 L 155.742188 124.847656 L 156.347656 124.535156 L 156.9375 124.183594 L 157.515625 123.789063 L 158.078125 123.351563 L 158.636719 122.867188 L 159.1875 122.335938 L 159.722656 121.757813 L 160.246094 121.132813 L 160.753906 120.460938 L 161.242188 119.746094 L 161.714844 118.984375 L 162.164063 118.179688 L 162.589844 117.328125 L 162.988281 116.445313 L 163.359375 115.527344 L 163.703125 114.570313 L 164.015625 113.585938 L 164.289063 112.574219 L 164.535156 111.535156 L 164.746094 110.476563 L 164.914063 109.398438 L 165.054688 108.308594 L 165.152344 107.203125 L 165.210938 106.09375 L 165.230469 105.03125 L 165.191406 103.558594 L 165.078125 102.203125 L 164.90625 100.941406 L 164.671875 99.765625 Z M 164.601563 99.496094 "/>
</g>
<path style=" stroke:none;fill-rule:evenodd;fill:rgb(89.0625%,0%,8.616638%);fill-opacity:1;" d="M 74.304688 144.296875 C 37.417969 95.679688 86.738281 9.601563 158.882813 9.683594 C 212.03125 9.828125 235.117188 53.109375 235.105469 82.351563 C 235.15625 118.09375 205.046875 153.554688 163.050781 153.527344 C 151.429688 153.535156 141.578125 151.054688 133.867188 144.890625 C 128.808594 193.164063 106.558594 251.980469 61.496094 252.105469 C 43.480469 252.203125 25.3125 241.980469 14.144531 216.664063 C 120.464844 201.476563 59.710938 79.671875 158.882813 91.578125 C 145.421875 99.402344 139.554688 111.347656 136.246094 127.242188 C 140.152344 133.003906 145.523438 135.648438 150.839844 135.660156 C 166.191406 135.621094 174.953125 120.550781 174.964844 104.984375 C 174.9375 83.679688 157.195313 75.195313 140.714844 75.203125 C 114.328125 75.175781 85.195313 95.609375 74.304688 144.296875 Z M 164.398438 167.597656 C 164.429688 163.71875 162.476563 159.605469 156.851563 159.609375 C 145.972656 159.585938 131.890625 175.035156 131.898438 188.480469 C 131.828125 193.539063 135.371094 199.859375 141.40625 199.886719 C 150.800781 199.886719 157.785156 191.101563 163.566406 183.550781 C 163.328125 189.378906 164.734375 195.164063 169.210938 195.015625 C 177.914063 195.046875 183.941406 184.855469 183.941406 175.054688 C 181.765625 177.679688 178.433594 176.953125 178.476563 174.222656 C 178.476563 171.085938 182.757813 166.746094 185.328125 166.738281 C 187.113281 166.738281 188.085938 167.753906 188.101563 169.34375 C 188.117188 172.578125 178.371094 192.511719 187.386719 192.519531 C 194.355469 192.523438 198.652344 185.09375 201.410156 178.496094 C 196.5625 198.230469 217.464844 189.0625 222.320313 172.078125 C 215.3125 172.738281 215.074219 163.402344 223.152344 148.199219 C 211.109375 150.011719 206.410156 159.800781 201.882813 173.867188 C 196.535156 172.804688 200.953125 160.742188 206.398438 152.359375 C 200.199219 152.007813 194.980469 153.6875 191.070313 158.0625 C 189.675781 156.328125 187.84375 155.308594 185.367188 155.328125 C 179.101563 155.328125 170.734375 161.402344 165.882813 174.460938 C 161.128906 180.195313 155.695313 184.910156 150.910156 184.914063 C 148.351563 184.914063 147.074219 183.765625 146.753906 181.589844 C 154.328125 184.371094 164.402344 176.070313 164.398438 167.597656 Z M 154.183594 171.015625 C 151.984375 171.015625 149.277344 172.953125 148.140625 175.351563 C 147.003906 177.746094 147.867188 179.6875 150.070313 179.6875 C 152.273438 179.6875 154.980469 177.746094 156.113281 175.351563 C 157.246094 172.953125 156.386719 171.015625 154.183594 171.015625 Z M 226.226563 162.460938 C 229.539063 162.460938 232.761719 159.214844 233.414063 155.210938 C 234.078125 151.210938 231.925781 147.964844 228.613281 147.964844 C 225.296875 147.964844 222.078125 151.210938 221.414063 155.210938 C 220.761719 159.214844 222.914063 162.460938 226.226563 162.460938 Z M 180.261719 198.480469 C 215.070313 204.804688 226.726563 185.871094 232.671875 163.753906 C 239.15625 139.644531 249.234375 113.644531 276.183594 114.402344 C 257.121094 123.449219 258.585938 148.085938 255.484375 170.933594 C 251.578125 199.703125 242.367188 226.578125 215.328125 226.578125 C 197.773438 226.578125 186.933594 216.703125 180.261719 198.480469 Z M 180.261719 198.480469 "/>
</g>
</svg>
